<?xml version="1.0" encoding="UTF-8"?>
<svg width="231.45" height="45" preserveAspectRatio="none" version="1.1" viewBox="0 0 231.45 45" xmlns="http://www.w3.org/2000/svg" xmlns:xlink="http://www.w3.org/1999/xlink">
    <defs>
        <linearGradient id="a" x1="5.275" x2="23.725" y1="6.9875" y2="23.712" gradientUnits="userSpaceOnUse">
            <stop stop-color="#FEF39A" offset="0"/>
            <stop stop-color="#ff0" offset="1"/>
            <stop stop-color="#CAC902" offset="1"/>
        </linearGradient>
        <g id="Layer0_0_FILL">
            <path d="m431 249.4q0.05 1.5 0.05 3 0 16.55-11.7 28.3-11.75 11.7-28.3 11.7h-188.95q-0.25 0-0.5 0v2q0.25 0 0.5 0h188.95q17.4 0 29.7-12.3t12.3-29.7q0-1.5-0.1-3h-1.95m-13.05 29.9q11.1-11.15 11.1-26.9 0-1.5-0.1-3h-227.35v40.95q0.25 0.05 0.5 0.05h188.95q15.75 0 26.9-11.1z" fill="#333"/>
            <path d="m429.05 252.4q0 15.75-11.1 26.9-11.15 11.1-26.9 11.1h-188.95q-0.25 0-0.5-0.05v2.05q0.25 0 0.5 0h188.95q16.55 0 28.3-11.7 11.7-11.75 11.7-28.3 0-1.5-0.05-3h-2.05q0.1 1.5 0.1 3z" fill="#666"/>
        </g>
        <g id="Dollar_Symbol_0_Layer0_0_FILL">
            <path d="m27.35 7.3q0-2.2-2.95-4-1-0.55-2.15-0.95-1.1-0.45-2.3-0.7-1.25-0.25-2.7-0.4v-1.25h-1.85v1.15q-0.15-0.05-1-0.05-1.7 0-2.3 0.15v-1.25h-1.8v1.4q-1.55 0.25-2.95 0.7-1.45 0.45-2.5 1.1-1.4 0.85-2.25 1.7t-1.25 1.8q-0.45 0.95-0.45 1.9 0 2.55 2.35 4.25 2.4 1.7 7.05 2.9v10.15q-2.3-0.15-4.35-0.8-1.25-0.35-1.25-0.65 0-0.15 0.8-0.45 1.4-0.55 1.9-1.2 0.6-0.6 0.6-1.45 0-1.2-1.1-2-1.05-0.8-2.7-0.8-1.85 0-3 0.85-1.2 0.85-1.2 2.25 0 2.2 2.65 3.75 1.4 0.8 3.25 1.25 1.8 0.45 4.4 0.65v3.35h1.8v-3.2q2.8 0.05 3.15 0.05h0.15v3.15h1.85v-3.2q2.25-0.2 3.9-0.6 1.6-0.35 3.3-1.2 2.05-1 3.25-2.6 1.15-1.6 1.15-3.45 0-1.5-0.75-2.75-0.8-1.25-2.4-2.3-1.6-1-4.2-1.9-1.3-0.5-4.25-1.25v-8.85q2.95 0.3 5.15 1.35 1.05 0.55 1.05 0.8 0 0.05-0.7 0.25-2.7 0.8-2.7 2.65 0 1.1 1.05 1.85t2.55 0.75q1.65 0 2.65-0.85 1.05-0.8 1.05-2.05m-3.7 14.7q0 1.1-0.8 2-0.85 0.85-2.45 1.4-1.55 0.55-3.15 0.65v-8.7q3.25 0.9 4.8 2 1.6 1.05 1.6 2.65m-11.55-19.45q1.5-0.1 2.95-0.1h0.35v8.6q-2.45-0.65-3.3-0.9v-7.6m-1.8 0.2v7.1q-2.55-0.65-3.85-1.5-1.35-0.8-1.35-2 0-2.7 5.2-3.6m3.1 13.75q0.6 0.15 1.1 0.3l0.9 0.2v9.05h-0.9q-1.95 0-2.4 0v-10q0.8 0.25 1.3 0.45z" fill="url(#a)"/>
        </g>
    </defs>
    <use transform="translate(-201.6,-249.4)" width="100%" height="100%" opacity=".9" xlink:href="#Layer0_0_FILL"/>
    <use transform="translate(10,4.9)" width="100%" height="100%" xlink:href="#Dollar_Symbol_0_Layer0_0_FILL"/>
</svg>
