<?xml version="1.0" encoding="UTF-8"?>
<svg width="586.15" height="365.95" preserveAspectRatio="none" version="1.1" viewBox="0 0 586.15 365.95" xmlns="http://www.w3.org/2000/svg" xmlns:xlink="http://www.w3.org/1999/xlink">
    <defs>
        <g id="Layer0_0_FILL">
            <path d="m601.95 68.65q-11.1-11.1-26.85-11.1h-510.15q-15.8 0-26.9 11.1t-11.1 26.9v289.95q0 15.75 11.1 26.85 11.15 11.15 26.9 11.15h510.15q15.7 0 26.85-11.15t11.15-26.85v-289.95q0-15.75-11.15-26.9m-26.85-9.1q14.9 0 25.45 10.55t10.55 25.45v289.95q0 14.9-10.55 25.45t-25.45 10.55h-510.15q-14.9 0-25.45-10.55t-10.55-25.45v-289.95q0-14.95 10.55-25.45 10.5-10.55 25.45-10.55h510.15m24.05 11.95q-9.95-9.95-24.05-9.95h-510.15q-14.15 0-24.05 9.95-9.95 9.9-9.95 24.05v289.95q0 14.1 9.95 24.05t24.05 9.95h510.15q14.1 0 24.05-9.95t9.95-24.05v-289.95q0-14.1-9.95-24.05z" fill="#333"/>
            <path d="m600.55 70.1q-10.55-10.55-25.45-10.55h-510.15q-14.95 0-25.45 10.55-10.55 10.5-10.55 25.45v289.95q0 14.9 10.55 25.45t25.45 10.55h510.15q14.9 0 25.45-10.55t10.55-25.45v-289.95q0-14.9-10.55-25.45m-25.45-8.55q14.1 0 24.05 9.95t9.95 24.05v289.95q0 14.1-9.95 24.05t-24.05 9.95h-510.15q-14.1 0-24.05-9.95t-9.95-24.05v-289.95q0-14.15 9.95-24.05 9.9-9.95 24.05-9.95h181z" fill="#666"/>
        </g>
    </defs>
    <use transform="translate(-26.95,-57.55)" width="100%" height="100%" opacity=".9" xlink:href="#Layer0_0_FILL"/>
</svg>
