<?xml version="1.0" encoding="UTF-8"?>
<svg width="380.7" height="43.05" preserveAspectRatio="none" version="1.1" viewBox="0 0 380.7 43.05" xmlns="http://www.w3.org/2000/svg" xmlns:xlink="http://www.w3.org/1999/xlink">
    <defs>
        <g id="Layer0_0_FILL">
            <path d="m506.35 259v-0.05q-0.35-14.65-10.8-25.1-10.85-10.85-26.2-10.85h-337.95q-0.85 0-1.4 0.6-0.2 0.15-0.35 0.4v38.05h376.65q0-0.35 0.05-0.75 0-0.65 0-1.3 0-0.5 0-1m-122.6-30.85v28-28m-231.6 2.9 0.3 0.35q0.51074 0.20273 1 0.4l1.3-2.85 0.8 3.9q0.24375 0.16211 0.45 0.3l0.1-0.05q0.24922 0.19941 0.5 0.4 2.3158 1.4666 4.15 3.4 0.7002 0.74062 1.25 1.6 6.5957 7.2836-0.05 12.8-3.6715 3.0756-7.2 1.85-0.37617 0-0.7 0v-0.05q-3.95-0.6-5.9-3.3-2.6207-3.5217-3.5-8.9h-2l1.8-1.3q-0.04961-0.55898-0.1-1.15h-0.05q0-0.4 0-0.8h-0.05q-0.8 0.75-1.3 0.55 0.25-0.45 0.3-1.15v-0.05h-0.05q-0.25 0-0.45 0v-0.05q0-0.1 0-0.2h0.05v-0.05q0.07754-0.09297 0.15-0.2l-2.9-1.9 4.65 0.35q0.63633-0.52324 1.1-1.15l-0.95-2.95 2 0.8q0.05234-0.21172 0.1-0.45v-0.05q-0.15-0.7 0.65-0.75l0.05-0.05q0.8 0.25 1.1 0.9h0.05q0.12617 0 0.25 0l-0.15-3.6 1.85 1.95q0.01992-0.08008 0-0.2-0.05 0-0.05-0.05-0.1-0.65 0.45-0.65v-0.05q0.2 0 0.4 0h0.05q0 0.05 0.05 0.05 1.05 0.55 1.35 1.8v0.05q-0.35879 0.44844-0.85 0.5m-2.9 8.8q0.6832 1.5672 1.45 3 1.05 1.9 2.45 3.3 3.8 3.75 6.35-1.15 0.2-2.45-1.1-3.75-2.3223-2.3842-5.25-4.2l-3.9 2.8m361.1 19.15q0-0.05 0-0.15-0.4-16.25-12-27.85-12-12-29-12h-337.95q-0.95 0-1.75 0.25v2.15q0.8-0.4 1.75-0.4h337.95q16.15 0 27.6 11.45 11 11 11.4 26.45 0 0.05 0 0.1 0 0.5 0 1 0 0.65 0 1.3-0.05 0.4-0.05 0.75h2q0-0.35 0.05-0.75 0-0.65 0-1.3 0-0.5 0-1z" fill="#333"/>
            <path d="m154.05 253.1v0.05q0.32383 0 0.7 0-0.07969-0.02383-0.15-0.05-0.29023 0-0.55 0z" fill="#8e9190"/>
            <path d="m156.6 233.5q1.7057 1.3932 3.15 2.75 1.2932 1.1422 2.25 2.25-0.5498-0.85938-1.25-1.6-1.8342-1.9334-4.15-3.4m-7.5 7.9q-0.39609-0.35508-0.75-0.85 0.3377 0.63125 0.65 1.2 0.16543-0.2543 0.2-0.6l-0.1 0.25m-4.1-0.5h-0.35q0.8793 5.3783 3.5 8.9 1.95 2.7 5.9 3.3 0.25977 0 0.55 0-0.35195-0.12871-0.7-0.3-0.95508-0.08262-1.6-0.5-4.7-2.9-6.5-8.7 0.12598-0.07402 0.25-0.15-0.0623-0.0957-0.15-0.2-0.06563 0.02891-0.15 0.05h-0.05q-0.20156-0.4625-0.35-1-0.15156-0.20703-0.3-0.45l0.15-0.1q-0.10781-0.40352-0.2-0.85m0.3-2.85q-0.14727-0.03672-0.25-0.2l-1.1-0.7q-0.32617 0.37754-0.7 0.7 0.23008-0.42715 0.45-0.85l-0.65-0.4v-0.05l-0.1-0.05q-0.07246 0.10703-0.15 0.2v0.05q0.05 0.3 0.45 0.2v0.1q-0.05 0.7-0.3 1.15 0.5 0.2 1.3-0.55h0.05q0.1 0.3 0.05 0.75v0.05q0.05039 0.59102 0.1 1.15l0.4-0.3q0-0.33633 0-0.7v-0.05q0.32363-0.1873 0.6-0.4l-0.15-0.1m3.95 1.8-0.35 0.25q0.19336 0.48867 0.35 0.95v0.05q1.6996 2.802 3.4 5.6 0.75293 0.67344 1.5 1.05 3.8365 1.3615 5.75-1.9-0.25-5.9-5.2-8.25 0.26113-0.32324 0.5-0.65-0.01738-0.03848-0.05-0.1-0.25234 0.29062-0.5 0.55-0.05 0-0.05 0.05-0.52793-0.33281-1.05-0.65l-0.4 0.25q2.9277 1.8158 5.25 4.2 1.3 1.3 1.1 3.75-2.55 4.9-6.35 1.15-1.4-1.4-2.45-3.3-0.7668-1.4328-1.45-3m-1.6-9.5-0.05 0.05q-0.8 0.05-0.65 0.75v0.05q-0.04766 0.23828-0.1 0.45l0.95 0.4q-0.51152-0.34629-0.7-1.1v-0.05q0.8 0.75 1.55 1.5h-0.05l0.25 0.1q0.00645-0.08887 0-0.2 0-0.05 0-0.1 0.13047 0.09492 0.25 0.15l-0.05-1.1q-0.12383 0-0.25 0h-0.05q-0.3-0.65-1.1-0.9m-0.25 0.3q0-0.05 0-0.1 1.15 0.1 1.4 1.1v0.05q0.1 0.4-0.45 0.2h-0.05q-0.7-0.4-0.9-1.25m-1.35 4.3v-0.05q0.04277-0.05977 0.05-0.15l-0.05-0.15q-0.12715 0.23418-0.3 0.45l0.5 0.05-0.1-0.2q-0.03379 0.02109-0.1 0.05m-1.35 0 0.3 0.05q0.42539-0.55508 0.85-1.1l-0.05-0.1q-0.46367 0.62676-1.1 1.15m10.95-1.5 0.35-0.3q-0.20625-0.13789-0.45-0.3l0.1 0.6m-3.5-2.4q0.49121-0.05156 0.85-0.5v-0.05q-0.3-1.25-1.35-1.8-0.05 0-0.05-0.05h-0.05q-0.2 0-0.4 0v0.05q-0.55 0-0.45 0.65 0 0.05 0.05 0.05 0.01992 0.11992 0 0.2l0.25 0.3q-0.15-0.38887-0.15-0.95 0.25 0.25 0.4 0.6h0.1v-0.05q-0.15-0.25-0.2-0.65 0.6-0.1 1 0.3h0.05q1.05 1.5-0.4 0.9h-0.05v0.05q0.65 0.45 0.45 0.6h-0.05q-0.30801-0.05918-0.55-0.2l0.55 0.55m0.3 0.35 0.55 0.55q0.16094 0.08633 0.3 0.15l0.15-0.3q-0.48926-0.19727-1-0.4z" fill="#080807"/>
            <path d="m159.9 245.95v-0.1q-1.9135 3.2615-5.75 1.9 2.2768 1.1947 4.45-0.35 0.88809-0.63262 1.3-1.45m-10.7-4.85v0.05q-0.03457 0.3457-0.2 0.6 0.46953 0.85234 0.9 1.6 1.3934 2.1438 2.75 3.35-1.7004-2.798-3.4-5.6z" fill="#b0221b"/>
            <path d="m155.2 236.95q-0.23887 0.32676-0.5 0.65 4.95 2.35 5.2 8.25v0.1q1.3701-2.775-3.2-7.5-0.67559-0.74805-1.5-1.5m-9.15 6.5q-0.12402 0.07598-0.25 0.15 1.8 5.8 6.5 8.7 0.64492 0.41738 1.6 0.5-3.4371-1.7174-6.75-7.55-0.53926-0.86289-1.1-1.8z" fill="#ec3225"/>
            <path d="m154.6 237.45q0-0.05 0.05-0.05 0.24766-0.25938 0.5-0.55-0.3793-0.31035-0.8-0.65l-0.8 0.6q0.52207 0.31719 1.05 0.65m-8.85 5.85q0.08437-0.02109 0.15-0.05-0.2627-0.45156-0.55-0.95 0.14844 0.5375 0.35 1h0.05m0.45-2.4h-1.2q0.09219 0.44648 0.2 0.85l1-0.85m-1.35-2.35v0.05q0 0.36367 0 0.7l1.15-0.8-0.55-0.35q-0.27637 0.2127-0.6 0.4z" fill="#dfe4e6"/>
            <path d="m149.9 243.35-2.75 1.9q3.3129 5.8326 6.75 7.55 0.34805 0.17129 0.7 0.3 0.07031 0.02617 0.15 0.05 3.5285 1.2256 7.2-1.85 6.6457-5.5164 0.05-12.8-0.95684-1.1078-2.25-2.25l-3.05 2.2q4.5701 4.725 3.2 7.5-0.41191 0.81738-1.3 1.45-2.1732 1.5447-4.45 0.35-0.74707-0.37656-1.5-1.05-1.3566-1.2062-2.75-3.35z" fill="#c00"/>
            <path d="m144.3 238.45h0.05v-0.05q0.05-0.45-0.05-0.75 0 0.4 0 0.8z" fill="#a3a6a6"/>
            <path d="m143.95 237.15-0.25-0.15q-0.21992 0.42285-0.45 0.85 0.37383-0.32246 0.7-0.7m1.8-2.1q0.17285-0.21582 0.3-0.45l-0.2-0.7q-0.42461 0.54492-0.85 1.1z" fill="#dce0e2"/>
            <path d="m142.75 236.95v0.05q0.2 0 0.45 0h0.05v-0.05q-0.4 0.1-0.45-0.2h-0.05q0 0.1 0 0.2z" fill="#777a79"/>
            <path d="m143.05 236.6v-0.05 0.05m4.05-5.7v0.05q0.18848 0.75371 0.7 1.1 0.35371 0.25703 0.8 0.35h0.05q-0.75-0.75-1.55-1.5z" fill="#d8ddde"/>
            <path d="m148.9 240.1-0.55 0.45q0.35391 0.49492 0.75 0.85l0.1-0.25v-0.05h0.05v-0.05q-0.15664-0.46133-0.35-0.95m4.35-7.85 0.05-0.15q-0.13906-0.06367-0.3-0.15z" fill="#aeb3b5"/>
            <path d="m147.85 239.65h-0.05l-1.6 1.25-1 0.85-0.15 0.1q0.14844 0.24297 0.3 0.45 0.2873 0.49844 0.55 0.95 0.0877 0.1043 0.15 0.2 0.56074 0.93711 1.1 1.8l2.75-1.9q-0.43047-0.74766-0.9-1.6-0.3123-0.56875-0.65-1.2l-0.05-0.05q-0.21348-0.40898-0.45-0.85m8.75-6.15q-0.25078-0.20059-0.5-0.4l-0.1 0.05-0.35 0.3-2.3 1.9q0.52676 0.41875 1 0.85 0.4207 0.33965 0.8 0.65 0.03262 0.06152 0.05 0.1 0.82441 0.75195 1.5 1.5l3.05-2.2q-1.4443-1.3568-3.15-2.75z" fill="#ccc"/>
            <path d="m149.1 232.35q-0.11953-0.05508-0.25-0.15 0 0.05 0 0.1 0.00645 0.11113 0 0.2l0.25 0.1z" fill="#d4d8da"/>
            <path d="m147.4 230.55q0 0.05 0 0.1 0.2 0.85 0.9 1.25h0.05q0.55 0.2 0.45-0.2v-0.05q-0.25-1-1.4-1.1z" fill="#acb0b2"/>
            <path d="m151.35 229.55h-0.05q0.1 0.25 0.3 0.4v0.05h0.05q-0.05-0.3-0.3-0.45z" fill="#343230"/>
            <path d="m146.05 234.9v0.05q0.06621-0.02891 0.1-0.05l-0.05-0.15q-0.00723 0.09023-0.05 0.15z" fill="#dadfe0"/>
            <path d="m152.15 230.7h0.05q0.2-0.15-0.45-0.6v-0.05h-0.05q-0.04844-0.04844-0.1-0.05v-0.05q-0.2-0.15-0.3-0.4h-0.05q-0.15-0.35-0.4-0.6 0 0.56113 0.15 0.95 0.21855 0.4 0.6 0.6 0.24199 0.14082 0.55 0.2z" fill="#d6dbdd"/>
            <path d="m152.2 229.15h-0.05q-0.4-0.4-1-0.3 0.05 0.4 0.2 0.65v0.05q0.25 0.15 0.3 0.45h-0.05q0.05156 0.00156 0.1 0.05h0.1q1.45 0.6 0.4-0.9z" fill="#acb1b3"/>
            <path d="m153 231.95-0.55-0.55-0.3-0.35-0.55-0.55q-0.38145-0.2-0.6-0.6l-0.25-0.3-1.85-1.95 0.15 3.6 0.05 1.1v0.25l-0.5-0.2q-0.44629-0.09297-0.8-0.35l-0.95-0.4-2-0.8 0.95 2.95 0.05 0.1 0.2 0.7 0.1 0.3 0.1 0.2-0.5-0.05-0.75-0.05-0.3-0.05-4.65-0.35 2.9 1.9 0.1 0.05v0.05l0.65 0.4 0.25 0.15 1.1 0.7q0.10273 0.16328 0.25 0.2l0.15 0.1 0.55 0.35-1.15 0.8-0.4 0.3-1.8 1.3h3.55l1.6-1.25h0.05q0.23652 0.44102 0.45 0.85l0.05 0.05 0.55-0.45 0.35-0.25 3.9-2.8 0.4-0.25 0.8-0.6q-0.47324-0.43125-1-0.85l2.3-1.9-0.1-0.6-0.8-3.9-1.3 2.85-0.15 0.3-0.05 0.15z" fill="#ff0"/>
            <path d="m508.35 259q0-0.05 0-0.1-0.4-15.45-11.4-26.45-11.45-11.45-27.6-11.45h-337.95q-0.95 0-1.75 0.4v2.6q0.15-0.25 0.35-0.4 0.55-0.6 1.4-0.6h337.95q15.35 0 26.2 10.85 10.45 10.45 10.8 25.1v0.05q0 0.5 0 1 0 0.65 0 1.3-0.05 0.4-0.05 0.75h2q0-0.35 0.05-0.75 0-0.65 0-1.3 0-0.5 0-1z" fill="#666"/>
        </g>
        <path id="Layer0_0_1_STROKES" d="m383.75 228.15v28" fill="none" stroke="#666" stroke-linecap="round" stroke-linejoin="round"/>
        <path id="Layer0_0_2_STROKES" d="m146.22 240.92 1.6-1.25 0.025-0.025q0.23652 0.44102 0.475 0.85m6.05-4.3q-0.49824-0.43125-1.025-0.85l2.325-1.9m0.925 0.05q-0.25078-0.20059-0.5-0.4l-0.075 0.05-0.35 0.3m-0.525 3.425q0.03262 0.03652 0.075 0.075m-9.875 5.375q-0.15156-0.23203-0.3-0.475l0.15-0.1m0.85 1.7q-0.0623-0.0957-0.125-0.2-0.2877-0.45156-0.575-0.925m0.7 1.125q0.56074 0.93711 1.1 1.8l2.75-1.9q-0.43047-0.74766-0.9-1.575-0.3123-0.59375-0.65-1.225m-3.15 1.2 1.025-0.825m8.15-4.725q0.3957 0.33965 0.775 0.675m0.075 0.075q0.79941 0.75195 1.475 1.5l3.05-2.2q-1.4443-1.3568-3.15-2.75" fill="none" stroke="#999" stroke-linecap="square" stroke-miterlimit="3" stroke-width="2"/>
        <path id="Layer0_0_3_STROKES" d="m152.45 231.4 0.55 0.575m0.325 0.125 0.125-0.275m-1-0.425-0.3-0.325-0.55-0.575q-0.38145-0.2-0.575-0.6l-0.25-0.275-1.875-1.975 0.15 3.6 0.05 1.125v0.225l-0.225-0.1-0.275-0.1q-0.44629-0.09297-0.775-0.325l-0.975-0.4-2-0.825 0.95 2.95 0.05 0.125 0.225 0.675 0.05 0.175 0.05 0.125 0.075 0.2-0.475-0.05-0.75-0.05-0.325-0.025-4.65-0.375 2.9 1.9 0.1 0.075 0.025 0.025 0.65 0.4 0.25 0.175 1.075 0.7q0.10273 0.13828 0.25 0.175l0.175 0.125 0.525 0.325-1.125 0.825-0.4 0.3-1.825 1.275 2 0.025h1.575m2.125-0.375 0.575-0.425 0.325-0.25 3.925-2.825 0.375-0.25 0.825-0.6m1.3-2.75-0.125-0.575-0.8-3.925-1.3 2.875m-0.45 0.15 0.25 0.275 0.075-0.15" fill="none" stroke="#c90" stroke-linecap="square" stroke-miterlimit="3"/>
        <path id="Layer0_0_4_STROKES" d="m154.15 247.75q-0.74707-0.37656-1.5-1.05m9.375-8.2q6.5707 7.2836-0.075 12.8-3.6715 3.0756-7.2 1.85m1.95-14.7q4.5701 4.725 3.2 7.5v0.025q-0.41191 0.79238-1.3 1.425-2.1732 1.5447-4.45 0.35m-1.5-1.05q-1.3566-1.2062-2.75-3.35m4.85 9.8q-0.07969-0.02383-0.15-0.05-0.35195-0.12871-0.7-0.3-3.4371-1.7174-6.75-7.55m14.875-6.75q-0.98184-1.1078-2.275-2.25" fill="none" stroke="#600" stroke-linecap="square" stroke-miterlimit="3" stroke-width="2"/>
    </defs>
    <use transform="translate(-129.65,-219)" width="100%" height="100%" opacity=".9" xlink:href="#Layer0_0_FILL"/>
    <use transform="translate(-129.65,-219)" width="100%" height="100%" xlink:href="#Layer0_0_1_STROKES"/>
    <use transform="translate(-129.65,-219)" width="100%" height="100%" xlink:href="#Layer0_0_2_STROKES"/>
    <use transform="translate(-129.65,-219)" width="100%" height="100%" xlink:href="#Layer0_0_3_STROKES"/>
    <use transform="translate(-129.65,-219)" width="100%" height="100%" xlink:href="#Layer0_0_4_STROKES"/>
</svg>
