<svg width="99.228" height="285.88" preserveAspectRatio="none" xmlns="http://www.w3.org/2000/svg" xmlns:xlink="http://www.w3.org/1999/xlink"><style>@keyframes steam{0%{transform:translateY(0)}to{transform:translateY(-123.85px)}}.steam{animation:5.4s linear 0s infinite steam}</style><defs><path d="M32.75 41.05q-9.4-3.55-21.8-4.4-4-.3-8.25-.3-17.6 0-30.1 4.7-9.8 3.7-11.85 8.65-.35 1.3-.6 2.65v.1q0 .65.1 1.3.05.1.05.15 1.25 5.7 12.3 9.9 12.5 4.75 30.1 4.75 17.65 0 30.05-4.75 11.2-4.2 12.35-10.05.1-.55.1-1.15v-.15q0-1.55-.65-3-2.2-4.8-11.8-8.4m-21.65 4.6q3 .5 5.55 1.5 4.45 1.7 5.55 3.95.3.65.3 1.35v.1q0 .6-.25 1.2-1 2.25-5.6 4-5.75 2.2-13.95 2.2-5.95 0-10.65-1.15-1.8-.45-3.4-1.05 1.6.6 3.4 1.05 4.7 1.15 10.65 1.15 8.2 0 13.95-2.2 4.6-1.75 5.6-4 .25-.6.25-1.2v-.1q0-.7-.3-1.35-1.1-2.25-5.55-3.95-2.55-1-5.55-1.5-2.6-.5-5.5-.6 2.9.1 5.5.6z" fill="#f3e3a5" id="Menu_Menu___Intro___Logo_0_Layer6_0_FILL"/><path d="M47.05 10.8q-.065-.016-.15-.05-.969-.2-2-.2 2.05 1.6 2.75 4.6.65 3-.75 6.9-1.45 3.9-3.2 4.7t-3.5 1q-1.8.15-3.55-.6l-.15-.05q-2.05-.85-4.05.05-2 .75-2.9 2.75-.95 2.05-.1 4.1.8 2.1 2.95 3 .3.2 4.7 1.35l.05-.1q-2.1-.85-2.95-2.95-.8-2.05.1-4.1.9-2 2.95-2.8 1.45-.65 2.9-.35.55.1 1.1.3l.15.05q3.5 1.55 7.1.15 3.55-1.45 5.1-5t.1-7.05q-1.45-3.6-5-5.1-.45-.25-.95-.35-.35-.2-.7-.25m-3.1-.7q-.3-.15-.65-.25l-.55-.15q-2.95-.9-5.95.2-1 .5-1.8 1.05l4.75 1.3q.8-.55 1.8-1.05 1.75-.65 3.35-.65-.45-.25-.95-.45z" fill="#f3e3a5" id="Menu_Menu___Intro___Logo_0_Layer5_0_FILL"/><path d="M27.35-.15Q16.75-3.5 1.7-3.5q-15.1 0-25.75 3.35-8.4 2.65-10.15 6.2-.3.95-.5 1.95v.05q0 4.8 10.65 8.15 10.65 3.4 25.75 3.4 15.05 0 25.65-3.4Q37.9 12.85 38 8.15v-.1q0-1.1-.55-2.15-1.9-3.45-10.1-6.05z" fill="#f3e3a5" id="Menu_Menu___Intro___Logo_0_Layer4_0_FILL"/><path d="M24.8 23.1q9.5-3.05 9.6-7.25v-.1q0-1.05-.5-1.95-1.75-3.05-9.1-5.4-9.55-3.05-23.1-3.05T-21.45 8.4q-7.55 2.4-9.15 5.55-.25.85-.45 1.75v.05q0 4.25 9.6 7.35 9.6 3.05 23.15 3.05t23.1-3.05M13.95 9q1.8.2 3.4.55-1.6-.35-3.4-.55-4.7-.6-10.65-.6-8.15 0-13.95 1.15-5.75 1.05-5.8 2.65v.05q0 .35.3.7 1.05 1.15 5.5 2 2.6.5 5.55.8 2.65.25 5.55.3-2.9-.05-5.55-.3-2.95-.3-5.55-.8-4.45-.85-5.5-2-.3-.35-.3-.7v-.05q.05-1.6 5.8-2.65Q-4.85 8.4 3.3 8.4q5.95 0 10.65.6M3 10.5q.9.05 1.7.2-.8-.15-1.7-.2h-.95q-2.4 0-4.1.55-1.3.4-1.55.95 0 .8 1.65 1.3 1.65.55 4.05.55.8 0 1.5-.05-.7.05-1.5.05-2.4 0-4.05-.55-1.65-.5-1.65-1.3.25-.55 1.55-.95 1.7-.55 4.1-.55H3z" fill="url(#h)" id="Menu_Menu___Intro___Logo_0_Layer2_0_FILL"/><path d="M1.85 5.9Q3.5 2.5 5.2 0h-22.1v178H5.2q.45-1.5.9-4.05.9-5.15.85-10.45 0-1.55-4.5-7.4-4.45-5.8-4.3-11.2.05-1.8 4.5-8.8 4.35-6.9 4.3-10.15-.1-4-3.85-9.8-3.85-5.85-3.9-7.75-.1-3.35 2.9-11.75 3.3-9.05 3.65-15.9.35-6.35-3.1-13.4Q-.9 60.2-.8 55.85q.05-1.8 3.95-8.75Q7 40.2 6.95 36.95q-.1-4-4.15-10.85-4.1-6.9-4.15-8.8-.15-4.6 3.2-11.4z" fill="#fff" id="Mask_Mask_Menu_Logo___Steam___Static___Inner_0_Layer0_0_FILL"/><path d="M11.05 10.55Q7.85 6.95 3.5 3.7.6 1.45.15 0-.4 2.05-3.1 4.75q-4.25 4.2-6.7 7.4-4 5.25-6.65 15.75-2.45 9.5-3.25 20.75-.75 9.7 1.3 14.55 1.5 3.5 7.1 8.8Q-1.35 81.45.15 89.3 6.5 74.25 14.7 68.8q4.6-3.05 5.85-6.1 1.7-4.25 1.2-14.6-.6-11.8-3.25-21.65-2.9-10.75-7.45-15.9z" fill="#fff" id="Mask_Menu_Logo___Steam___Scrolling_A_0_1_MASK_0_FILL"/><path d="M1.85 5.9Q3.5 2.5 5.2 0h-22.1v178H5.2q.45-1.5.9-4.05.9-5.15.85-10.45 0-1.55-4.5-7.4-4.45-5.8-4.3-11.2.05-1.8 4.5-8.8 4.35-6.9 4.3-10.15-.1-4-3.85-9.8-3.85-5.85-3.9-7.75-.1-3.35 2.9-11.75 3.3-9.05 3.65-15.9.35-6.35-3.1-13.4Q-.9 60.2-.8 55.85q.05-1.8 3.95-8.75Q7 40.2 6.95 36.95q-.1-4-4.15-10.85-4.1-6.9-4.15-8.8-.15-4.6 3.2-11.4z" fill="#fff" id="Menu_Logo___Steam___Static___Inner_0_Layer0_0_FILL"/><path d="M27.35 16.2q-10.6 3.4-25.65 3.4-15.1 0-25.75-3.4-10.65-3.35-10.65-8.15V8q-.9 4.05-.9 8.45 0 15.45 10.9 26.35 10.95 10.9 26.35 10.9t26.3-10.9Q38.9 31.9 38.9 16.45q0-4.3-.9-8.3-.1 4.7-10.65 8.05z" fill="#f3e3a5" id="Menu_Menu___Intro___Logo_0_Layer0_0_FILL"/><path id="Menu_Menu___Intro___Logo_0_Layer6_0_1_STROKES" d="M5.6 45.05q2.9.1 5.5.6 3 .5 5.55 1.5 4.45 1.7 5.55 3.95.3.65.3 1.35v.1q0 .6-.25 1.2-1 2.25-5.6 4-5.75 2.2-13.95 2.2-5.95 0-10.65-1.15-1.8-.45-3.4-1.05" fill="none" stroke="#f1b863" stroke-linecap="round" stroke-linejoin="round"/><path id="Menu_Menu___Intro___Logo_0_Layer6_0_2_STROKES" d="M32.75 41.05q9.6 3.6 11.8 8.4.65 1.45.65 3v.15q0 .6-.1 1.15-1.15 5.85-12.35 10.05-12.4 4.75-30.05 4.75-17.6 0-30.1-4.75-11.05-4.2-12.3-9.9 0-.05-.05-.15-.1-.65-.1-1.3v-.1q.25-1.35.6-2.65 2.05-4.95 11.85-8.65 12.5-4.7 30.1-4.7 4.25 0 8.25.3 12.4.85 21.8 4.4z" fill="none" stroke="#f1b863" stroke-linecap="round" stroke-linejoin="round" stroke-width="5"/><path id="Menu_Menu___Intro___Logo_0_Layer5_0_1_STROKES" d="M43.3 9.85q.35.1.65.25.5.2.95.45 1.031 0 2.025.225L43.3 9.85l-.55-.15q-2.95-.9-5.95.2-1 .5-1.8 1.05l4.75 1.3q.8-.55 1.8-1.05 1.75-.65 3.35-.65 2.05 1.6 2.75 4.6.65 3-.75 6.9-1.45 3.9-3.2 4.7t-3.5 1q-1.8.15-3.55-.6l-.15-.05q-2.05-.85-4.05.05-2 .75-2.9 2.75-.95 2.05-.1 4.1.8 2.1 2.95 3 .3.2 4.7 1.35m.05-.1q-2.1-.85-2.95-2.95-.8-2.05.1-4.1.9-2 2.95-2.8 1.45-.65 2.9-.35.55.1 1.1.3l.15.05q3.5 1.55 7.1.15 3.55-1.45 5.1-5t.1-7.05q-1.45-3.6-5-5.1-.45-.25-.95-.35-.35-.2-.7-.25-.065-.016-.125-.025M37.15 38.25q.244.195.45.2-.303-.002-.5-.1" fill="none" stroke="#f1b863" stroke-linecap="round" stroke-linejoin="round" stroke-width="5"/><path id="Menu_Menu___Intro___Logo_0_Layer4_0_1_STROKES" d="M-34.2 6.05q1.75-3.55 10.15-6.2Q-13.4-3.5 1.7-3.5q15.05 0 25.65 3.35 8.2 2.6 10.1 6.05.55 1.05.55 2.15" fill="none" stroke="#f1b863" stroke-linecap="round" stroke-linejoin="round" stroke-width="5"/><path id="Menu_Menu___Intro___Logo_0_Layer3_0_1_STROKES" d="M-33.15 7.15q1.7-3.5 9.95-6.1Q-12.8-2.3 1.9-2.3T27 1.05q7.95 2.6 9.8 5.9.6 1.05.6 2.15" fill="none" stroke="url(#i)" stroke-linecap="round" stroke-linejoin="round" stroke-width="2"/><path id="Menu_Menu___Intro___Logo_0_Layer2_0_1_STROKES" d="M.45 16.05q-2.9-.05-5.55-.3-2.95-.3-5.55-.8-4.45-.85-5.5-2-.3-.35-.3-.7v-.05q.05-1.6 5.8-2.65Q-4.85 8.4 3.3 8.4q5.95 0 10.65.6 1.8.2 3.4.55" fill="none" stroke="#c27b12" stroke-linecap="round" stroke-linejoin="round"/><path id="Menu_Menu___Intro___Logo_0_Layer2_0_2_STROKES" d="M3.6 13.8q-.7.05-1.5.05-2.4 0-4.05-.55-1.65-.5-1.65-1.3.25-.55 1.55-.95 1.7-.55 4.1-.55H3q.9.05 1.7.2" fill="none" stroke="#cb8112" stroke-linecap="round" stroke-linejoin="round"/><path id="Menu_Menu___Intro___Logo_0_Layer0_0_1_STROKES" d="M-34.7 8.05V8q-.9 4.05-.9 8.45 0 15.45 10.9 26.35 10.95 10.9 26.35 10.9t26.3-10.9Q38.9 31.9 38.9 16.45q0-4.3-.9-8.3M-34.7 8q.2-1 .5-1.95" fill="none" stroke="#f1b863" stroke-linecap="round" stroke-linejoin="round" stroke-width="5"/><path id="Menu_Menu___Intro___Logo_0_Layer0_0_2_STROKES" d="M38 8.15q-.1 4.7-10.65 8.05-10.6 3.4-25.65 3.4-15.1 0-25.75-3.4-10.65-3.35-10.65-8.15" fill="none" stroke="url(#g)" stroke-linecap="round" stroke-linejoin="round" stroke-width="3"/><linearGradient id="i" x1="-36.612" x2="40.312" y1="30.55" y2="30.55" gradientUnits="userSpaceOnUse"><stop stop-color="#F1B863" offset=".082"/><stop stop-color="#fff" offset=".298"/><stop stop-color="#F1B863" offset=".663"/></linearGradient><linearGradient id="g" x1="-37.725" x2="41.025" y1="29.85" y2="29.85" gradientUnits="userSpaceOnUse"><stop stop-color="#F1B863" offset="0"/><stop stop-color="#fff" offset=".678"/><stop stop-color="#F1B863" offset=".941"/></linearGradient><filter id="k" x="-.2" y="-.2" width="1.4" height="1.4" color-interpolation-filters="sRGB"><feColorMatrix in="SourceGraphic" result="result1" values="0 0 0 0 0.9137254901960784 0 0 0 0 0.6470588235294118 0 0 0 0 0.38823529411764707 0 0 0 1 0"/></filter><filter id="j" x="-.2" y="-.2" width="1.4" height="1.4" color-interpolation-filters="sRGB"><feColorMatrix in="SourceGraphic" result="result1" values="0.45 0 0 0 0.5215686274509804 0 0.45 0 0 0.396078431372549 0 0 0.45 0 0.21176470588235294 0 0 0 1 0"/></filter><radialGradient id="h" cx="0" cy="0" r="10.912" gradientTransform="matrix(0 -1 3.5304 0 1.35 18.6)" gradientUnits="userSpaceOnUse"><stop stop-color="#462C06" offset="0"/><stop stop-color="#A4670F" offset="1"/></radialGradient><g id="Menu_Menu___Intro___Logo_0_Layer7_0_FILL" fill="#947d27"><path d="M36.7 40.95q-9.8-3.75-22.65-4.5-4.05-.4-8.35-.4-18.2 0-31.05 4.9-12.2 4.6-14.35 11.15-.2.35-.25.65-.4 1.45-.65 2.9-.1.55-.1.95v.15q0 1.1.2 2.2 0 .2.05.3 1.1 7.9 15.1 13.15 12.85 4.95 31.05 4.95t30.95-4.85q0-.1.05-.1Q51 67.1 51.8 58.9q.2-.95.2-2.1v-.05q0-2.6-1-5-.05 0-.05-.1-2.5-6.25-14.25-10.7m-22.8-2.9q12.6.85 22.15 4.45h.05q10.95 4.15 13.3 9.85v.1q.95 2 .95 4.3v.05q0 1-.2 1.85-.95 7.35-14.1 12.2h.05q-12.55 4.9-30.4 4.9t-30.45-4.9q-12.9-4.85-14-11.95-.05-.15-.05-.3-.25-.9-.25-1.85v-.15q0-.3.1-.6.25-1.4.6-2.8.05-.25.15-.5 2.15-5.9 13.45-10.2 12.65-4.7 30.45-4.7 4.25 0 8.2.25z" fill-opacity=".329"/><path d="M36.05 42.5q-9.55-3.6-22.15-4.45-3.95-.25-8.2-.25-17.8 0-30.45 4.7-11.3 4.3-13.45 10.2-.1.25-.15.5-.35 1.4-.6 2.8-.1.3-.1.6v.15q0 .95.25 1.85 0 .15.05.3 1.1 7.1 14 11.95 12.6 4.9 30.45 4.9t30.4-4.9h-.05Q49.2 66 50.15 58.65q.2-.85.2-1.85v-.05q0-2.3-.95-4.3v-.1q-2.35-5.7-13.3-9.85h-.05m-22.2-2.8q12.25.85 21.65 4.35 10.2 3.85 12.4 9.05l.05.05q.75 1.7.75 3.6v.05q0 .85-.2 1.55l.1-.05q-1.15 6.5-13.1 11h.05Q23.2 74.05 5.7 74.05t-29.85-4.75q-11.9-4.5-13.05-10.75-.05-.15-.05-.25-.15-.8-.15-1.55v-.15q0-.15.05-.3.25-1.3.65-2.7 0-.1.05-.2 2.1-5.4 12.5-9.35Q-11.8 39.4 5.7 39.4q4.2 0 8.15.3z" fill-opacity=".663"/><path d="M35.5 44.05q-9.4-3.5-21.65-4.35-3.95-.3-8.15-.3-17.5 0-29.85 4.65-10.4 3.95-12.5 9.35-.05.1-.05.2-.4 1.4-.65 2.7-.05.15-.05.3v.15q0 .75.15 1.55 0 .1.05.25 1.15 6.25 13.05 10.75 12.35 4.75 29.85 4.75t29.85-4.75h-.05q11.95-4.5 13.1-11l-.1.05q.2-.7.2-1.55v-.05q0-1.9-.75-3.6l-.05-.05q-2.2-5.2-12.4-9.05z"/></g></defs><g transform="translate(42.35 126.99)"><use width="100%" height="100%" xlink:href="#Menu_Menu___Intro___Logo_0_Layer7_0_FILL"/><use width="100%" height="100%" xlink:href="#Menu_Menu___Intro___Logo_0_Layer6_0_FILL"/><use width="100%" height="100%" xlink:href="#Menu_Menu___Intro___Logo_0_Layer6_0_1_STROKES"/><use width="100%" height="100%" xlink:href="#Menu_Menu___Intro___Logo_0_Layer6_0_2_STROKES"/><use width="100%" height="100%" xlink:href="#Menu_Menu___Intro___Logo_0_Layer5_0_FILL"/><use width="100%" height="100%" xlink:href="#Menu_Menu___Intro___Logo_0_Layer5_0_1_STROKES"/><use width="100%" height="100%" xlink:href="#Menu_Menu___Intro___Logo_0_Layer4_0_FILL"/><use width="100%" height="100%" xlink:href="#Menu_Menu___Intro___Logo_0_Layer4_0_1_STROKES"/><use width="100%" height="100%" xlink:href="#Menu_Menu___Intro___Logo_0_Layer3_0_1_STROKES"/><use width="100%" height="100%" xlink:href="#Menu_Menu___Intro___Logo_0_Layer2_0_FILL"/><use width="100%" height="100%" xlink:href="#Menu_Menu___Intro___Logo_0_Layer2_0_1_STROKES"/><use width="100%" height="100%" xlink:href="#Menu_Menu___Intro___Logo_0_Layer2_0_2_STROKES"/><g id="_steamA" transform="matrix(.40013 0 0 .85599 -5.9 -62.6)"><mask id="f"><g class="steam"><use width="100%" height="100%" xlink:href="#Mask_Mask_Menu_Logo___Steam___Static___Inner_0_Layer0_0_FILL" transform="matrix(-1.0019 -.00002 -.00002 1.3958 -.05 0)" id="Mask__maskA"/></g></mask><g mask="url(#f)"><g id="_scrolling"><mask id="e"><use width="100%" height="100%" xlink:href="#Mask_Menu_Logo___Steam___Scrolling_A_0_1_MASK_0_FILL"/></mask><g mask="url(#e)"><use width="100%" height="100%" xlink:href="#Menu_Logo___Steam___Static___Inner_0_Layer0_0_FILL" transform="matrix(1.0019 -.00002 .00002 .99898 0 0)"/></g></g></g></g><g id="_steamB" transform="matrix(.66617 0 0 1.0285 2.65 -78)"><mask id="d"><g class="steam"><use width="100%" height="100%" xlink:href="#Mask_Mask_Menu_Logo___Steam___Static___Inner_0_Layer0_0_FILL" transform="matrix(-1.0019 -.00002 -.00002 1.3958 -.1 -29.65)" id="Mask__maskA_FL"/></g></mask><g mask="url(#d)"><g id="_scrolling_FL"><mask id="c"><use width="100%" height="100%" xlink:href="#Mask_Menu_Logo___Steam___Scrolling_A_0_1_MASK_0_FILL"/></mask><g mask="url(#c)"><use width="100%" height="100%" filter="url(#k)" xlink:href="#Menu_Logo___Steam___Static___Inner_0_Layer0_0_FILL" transform="matrix(1.0019 -.00002 .00002 .99898 0 0)"/></g></g></g></g><g id="_steamC" transform="matrix(.35364 0 0 1.1483 7.5 -86.15)"><mask id="b"><g class="steam"><use width="100%" height="100%" xlink:href="#Mask_Mask_Menu_Logo___Steam___Static___Inner_0_Layer0_0_FILL" transform="matrix(-1.0019 -.00002 -.00002 1.3958 -.1 -29.65)" id="Mask__maskA_FL_FL"/></g></mask><g mask="url(#b)"><g id="_scrolling_FL_FL"><mask id="a"><use width="100%" height="100%" xlink:href="#Mask_Menu_Logo___Steam___Scrolling_A_0_1_MASK_0_FILL"/></mask><g mask="url(#a)"><use width="100%" height="100%" filter="url(#j)" xlink:href="#Menu_Logo___Steam___Static___Inner_0_Layer0_0_FILL" transform="matrix(1.0019 -.00002 .00002 .99898 0 0)"/></g></g></g></g><use width="100%" height="100%" xlink:href="#Menu_Menu___Intro___Logo_0_Layer0_0_FILL"/><use width="100%" height="100%" xlink:href="#Menu_Menu___Intro___Logo_0_Layer0_0_1_STROKES"/><use width="100%" height="100%" xlink:href="#Menu_Menu___Intro___Logo_0_Layer0_0_2_STROKES"/></g></svg>