<?xml version="1.0" encoding="UTF-8"?>
<svg width="162" height="42" preserveAspectRatio="none" version="1.1" viewBox="0 0 162 42" xmlns="http://www.w3.org/2000/svg" xmlns:xlink="http://www.w3.org/1999/xlink">
    <defs>
        <path id="outline" d="m17.35-12.45h-7v-2.7q0-2-1.3-3.45l0.1 0.05q-1.3-1.55-3.15-1.85-2-0.4-3.7 0.6l-26.25 15.2q-1.65 0.95-2.3 2.75 0 0.05-0.05 0.15-0.7 1.8 0.05 3.65v-0.05q0.6 1.8 2.3 2.8l26.25 15.15v-0.05q1.7 1 3.7 0.65 1.85-0.35 3.05-1.75 0.05-0.05 0.1-0.05 1.2-1.5 1.2-3.5v-3.15h7q9.25 0 9.25-9.25v-6q0-9.2-9.25-9.2m-11.65-6.45q1.35 0.25 2.2 1.3l0.05 0.05q0.9 1 0.9 2.4v4.25h8.5q7.7 0 7.7 7.65v6q0 7.7-7.7 7.7h-8.5v4.7q0 1.4-0.9 2.5-0.05 0-0.05 0.05-0.85 1-2.2 1.3-1.4 0.2-2.65-0.5l-26.2-15.1q-1.25-0.75-1.7-2.05l0.05 0.05q-0.55-1.35-0.05-2.6 0.45-1.35 1.7-2.05l26.2-15.2q1.25-0.7 2.65-0.45z"/>
        <path id="fill" d="m7.9-17.6q-0.85-1.05-2.2-1.3-1.4-0.25-2.65 0.45l-26.2 15.2q-1.25 0.7-1.7 2.05-0.5 1.25 0.05 2.6l-0.05-0.05q0.45 1.3 1.7 2.05l26.2 15.1q1.25 0.7 2.65 0.5 1.35-0.3 2.2-1.3 0-0.05 0.05-0.05 0.9-1.1 0.9-2.5v-4.7h8.5q7.7 0 7.7-7.7v-6q0-7.65-7.7-7.65h-8.5v-4.25q0-1.4-0.9-2.4z" fill="#E26936"/>
    </defs>
    <use transform="translate(26.638,21.459)" width="100%" height="100%" xlink:href="#fill"/>
    <use transform="translate(80.638,21.459)" width="100%" height="100%" xlink:href="#fill"/>
    <use transform="translate(134.64,21.459)" width="100%" height="100%" xlink:href="#fill"/>
    <use transform="translate(26.638,21.459)" width="100%" height="100%" xlink:href="#outline" fill="#8E3F0B"/>
    <use transform="translate(80.638,21.459)" width="100%" height="100%" xlink:href="#outline" fill="#FBF7F0"/>
    <use transform="translate(134.64,21.459)" width="100%" height="100%" xlink:href="#outline" fill="#3F1C05"/>
</svg>
