<?xml version="1.0" encoding="UTF-8"?>
<svg width="640" height="64" preserveAspectRatio="none" version="1.1" viewBox="0 0 640 64" xmlns="http://www.w3.org/2000/svg" xmlns:xlink="http://www.w3.org/1999/xlink">
    <style>@keyframes scroll-1 {
			0% {transform: translateX(-643.95px)}
			100% {transform: translateX(0)}
		}
		@keyframes scroll-2 {
			0% {transform: translateX(0)}
			100% {transform: translateX(643.95px)}
		}
		.foreground-1 {animation: 8.5s linear 0s infinite scroll-1}
		.foreground-2 {animation: 8.5s linear 0s infinite scroll-2}
		.middle-1 {animation: 10s linear 0s infinite scroll-1}
		.middle-2 {animation: 10s linear 0s infinite scroll-2}
		.background-1 {animation: 16s linear 0s infinite scroll-1}
		.background-2 {animation: 16s linear 0s infinite scroll-2}</style>
    <defs>
        <g id="Letterbox_Letterbox_B_0_Layer0_0_FILL">
            <path d="m643.95 51v-51h-643.95v51q28.5-3.1 53-1.85 17.95 0.9 40.45 4.75 38 6.55 38.15 6.55 23.1 3.35 45.95 3.5 19.65 0.1 53.15-2.6 14.65-1.2 65.5-6.05 93-8.85 141.4-8.85 16.35 0 42.65 1.85 15.1 1.05 48.1 3.4 64.05 4 115.6-0.7z" fill="#f8dccb"/>
        </g>
        <g id="Letterbox_Letterbox_D_0_Layer0_0_FILL">
            <path d="m643.95 41v-41h-643.95v41q23.05-3.05 47.65-2.25 18.1 0.55 43.55 3.65 14.15 1.75 42.3 5.15 24.3 2.55 43.85 2.2 22.55-0.4 50.85-3.35 12-1.25 50.15-6.1 31.2-3.95 50.45-5.5 28.05-2.25 51.85-1.6 36.45 1 69.7 4.85 41.7 4.75 69.8 6.5 43.3 2.75 70.6 1.6 18.35-0.75 53.2-5.15z" fill="#efb68f"/>
        </g>
        <g id="Letterbox_Letterbox_A_0_Layer0_0_FILL">
            <path d="m643.95 31v-31h-643.95v31q24.5-2.7 47.8-1.95 16 0.55 39.45 3.25 29 3.4 38.65 4.1 22.9 1.75 45.15 0.65 25.85-1.25 46.4-3.95 9.65-1.25 30.45-4.9 16.65-2.9 28.75-3.95 17.7-1.6 41.45-1.25 36.5 0.5 85.15 5.85 58.55 6.45 90.4 8.15 47.75 2.55 103.8-1.5 28.05-2 46.5-4.5z" fill="#eca779"/>
        </g>
    </defs>
    <g transform="matrix(1 0 0 -1 0 63.954)">
        <use width="100%" height="100%" xlink:href="#Letterbox_Letterbox_B_0_Layer0_0_FILL" class="background-1"/>
    </g>
    <g transform="matrix(1 0 0 -1 0 63.954)">
        <use width="100%" height="100%" xlink:href="#Letterbox_Letterbox_B_0_Layer0_0_FILL" class="background-2"/>
    </g>
    <g transform="matrix(1 0 0 -1 0 63.954)">
        <use width="100%" height="100%" xlink:href="#Letterbox_Letterbox_D_0_Layer0_0_FILL" class="middle-2"/>
    </g>
    <g transform="matrix(1 0 0 -1 0 63.954)">
        <use width="100%" height="100%" xlink:href="#Letterbox_Letterbox_D_0_Layer0_0_FILL" class="middle-1"/>
    </g>
    <g transform="matrix(1 0 0 -1 0 63.954)">
        <use width="100%" height="100%" xlink:href="#Letterbox_Letterbox_A_0_Layer0_0_FILL" class="foreground-2"/>
    </g>
    <g transform="matrix(1 0 0 -1 0 63.954)">
        <use width="100%" height="100%" xlink:href="#Letterbox_Letterbox_A_0_Layer0_0_FILL" class="foreground-1"/>
    </g>
</svg>
