<?xml version="1.0" encoding="utf-8"?>
<!-- Generator: Adobe Illustrator 19.1.0, SVG Export Plug-In . SVG Version: 6.00 Build 0)  -->
<svg version="1.0" id="Capa_1" xmlns="http://www.w3.org/2000/svg" xmlns:xlink="http://www.w3.org/1999/xlink" x="0px" y="0px"
	 viewBox="0 0 321.9 298.7" enable-background="new 0 0 321.9 298.7" xml:space="preserve">
<path fill="#FFFFFF" d="M51.5,269.1c-7.1,0-14.3,0-21.5,0C9.7,269,0.1,259.3,0,238.6C0,195.4,0,152.1,0,108.9c0-26,0-52,0-78
	C0.1,10.1,10.1,0.2,31.1,0.1C55.6,0,80.1,0.2,104.6,0c7.1,0,13.7,1.5,19.4,5.7c7.3,5.5,9.9,12.9,9.9,22c-0.2,32.5-0.1,65-0.1,97.6
	c0,12.9,0,25.8,0,39.7c5.3,0,9.4,0,13.5,0c48.2,0,96.4,0,144.6,0c20.7,0,29.9,9.3,30,30.1c0.1,24.5,0.1,49,0,73.5
	c-0.1,19.5-10.2,30-29.6,30c-70,0.1-140,0.1-210,0c-17.8,0-26.6-7.9-29.5-25.4C52.5,272.1,52.1,271.1,51.5,269.1z M19.7,39.6
	c-2.1,18.1-1.4,169.9,0.9,178.7c5.1,0,10.5,0,15.8,0c5.2,0,10.4-0.2,16.4-0.3c0-10-0.2-18.8,0-27.5c0.4-15,10.5-25,25.2-25.4
	c4.2-0.1,8.4,0,12.6,0c7.9,0,15.8,0,23.9,0c0-42.6,0-83.7,0-125.4C82.7,39.6,51.5,39.6,19.7,39.6z M186.1,291.6
	c35.9,0,71.9,0.1,107.8,0c13.1,0,20.5-6.1,20.6-17.7c0.3-28.3,0.2-56.6,0-84.9c-0.1-8.5-4.7-14.3-13-16.7c-4-1.1-8.2-1.6-12.4-1.6
	c-68-0.1-136.1-0.1-204.1,0c-3.8,0-7.7,0.3-11.3,1.3c-9.5,2.5-13.8,7.4-13.8,17c-0.2,28.3-0.3,56.6,0,84.8
	c0.1,10.5,6.9,16.9,17.2,17.6c2.7,0.2,5.3,0.1,8,0.1C118.9,291.6,152.5,291.6,186.1,291.6z M12.4,225.4c-0.3-6.3-0.7-10.8-0.7-15.3
	c0-48.2,0-96.4,0-144.7c0-8.4-0.2-16.8,0.1-25.3c0.1-2.7,1.4-5.4,2.1-7.6c32.3-2.3,99.5-1.3,108.3,1.8c0,3.9,0,8,0,12.2
	c0,36,0,72,0.1,107.9c0,3.4-1.2,7.3,3.4,11.8c0.6-4.5,1.3-7.3,1.3-10.1c0.1-42.5,0.1-85,0-127.4c-0.1-16-6.2-21.6-22.6-21.6
	c-22.6-0.1-45.2,0-67.7,0C32.4,7.2,28.1,7,24,7.3C14.3,8,8,14.5,7.2,24.3c-0.2,2.3-0.1,4.6-0.1,6.9c0,68.9,0,137.8,0,206.7
	c0,3.1-0.2,6.2,0.2,9.2c1,7.5,6.8,14,14,14.6c10.2,0.9,20.4,0.9,30.8-0.1c0-12.4,0-23.7,0-36.1C39.2,225.4,26.7,225.4,12.4,225.4z"
	/>
<path fill="#FFFFFF" d="M158.4,71.8C171,66,190.6,71.9,207,85.4c14.2,11.7,21.1,27.4,24.8,44.9c6.9-2.1,8.1-10.8,15.8-11.3
	c-1.7,8.1-8.7,17.1-19.2,25.2c-7.9-6.2-16.5-11.7-23-21.5c9.6-1.3,12.6,6.5,18.2,9.2c0.7-13.2-7.7-30.7-20-40.8
	c-10.5-8.7-22.3-14.7-36.3-15.2c-1.9-0.1-3.8-0.5-5.6-1.1C160.7,74.4,160,73.2,158.4,71.8z"/>
<path fill="#FFFFFF" d="M97.1,177.3c64.7,0,128,0,192,0c0,36.1,0,71.5,0,108.1c-3.2,0.5-6.4,1.5-9.6,1.5
	c-57.4,0.1-114.7,0.1-172.1,0c-3.3,0-6.6-0.8-10.3-1.3C97.1,249.2,97.1,213.8,97.1,177.3z M281.7,279.4c2.2-13.4,1.7-86.9-0.6-95.1
	c-1-0.2-2.1-0.7-3.2-0.7c-55.8-0.1-111.6-0.1-167.4-0.1c-1.5,0-3,0.3-4.5,0.5c-0.3,0-0.7,0.3-1,0.5c-0.3,0.2-0.5,0.6-0.9,1.1
	c0,31,0,62.1,0,93.8C163.8,279.4,222.8,279.4,281.7,279.4z"/>
<path fill="#FFFFFF" d="M92.6,232.1c-0.2,7.6-6.5,13.8-13.9,13.8c-7.5,0-14.6-7.4-14.4-14.9c0.2-7.8,7.2-13.7,15.5-13.3
	C87.9,218.1,92.9,223.6,92.6,232.1z M78.6,238.8c4.2,0,8.3-3.7,8.2-7.5c0-3.7-4.5-8-8.2-7.8c-3.9,0.2-7.3,4.1-7.2,8.5
	C71.7,236.4,74.2,238.8,78.6,238.8z"/>
</svg>
