{
    "accessors": [
        {
            "bufferView": 3,
            "byteOffset": 0,
            "componentType": 5123,
            "count": 1014,
            "max": [
                468
            ],
            "min": [
                0
            ],
            "name": "accessor_buffer_terminal.001_0",
            "type": "SCALAR"
        },
        {
            "bufferView": 0,
            "byteOffset": 0,
            "componentType": 5126,
            "count": 469,
            "max": [
                1.5140759944915771,
                1.5140759944915771,
                2.3177850246429443
            ],
            "min": [
                -1.5140759944915771,
                -1.5140759944915771,
                -2.3177850246429443
            ],
            "name": "accessor_buffer_terminal.001_POSITION_0",
            "type": "VEC3"
        },
        {
            "bufferView": 1,
            "byteOffset": 0,
            "componentType": 5126,
            "count": 469,
            "max": [
                1.0,
                1.0,
                1.0
            ],
            "min": [
                -1.0,
                -1.0,
                -1.0
            ],
            "name": "accessor_buffer_terminal.001_NORMAL_0",
            "type": "VEC3"
        },
        {
            "bufferView": 2,
            "byteOffset": 0,
            "componentType": 5126,
            "count": 469,
            "max": [
                0.9903590083122253,
                0.9894399996846914
            ],
            "min": [
                0.014643000438809395,
                0.01310199499130249
            ],
            "name": "accessor_buffer_terminal.001_TEXCOORD_0_0",
            "type": "VEC2"
        }
    ],
    "asset": {
        "copyright": "",
        "generator": "blendergltf v1.2.0",
        "version": "2.0"
    },
    "bufferViews": [
        {
            "buffer": 0,
            "byteLength": 5628,
            "byteOffset": 0,
            "byteStride": 12,
            "name": "bufferView_buffer_terminal.001_POSITION_0",
            "target": 34962
        },
        {
            "buffer": 0,
            "byteLength": 5628,
            "byteOffset": 5628,
            "byteStride": 12,
            "name": "bufferView_buffer_terminal.001_NORMAL_0",
            "target": 34962
        },
        {
            "buffer": 0,
            "byteLength": 3752,
            "byteOffset": 11256,
            "byteStride": 8,
            "name": "bufferView_buffer_terminal.001_TEXCOORD_0_0",
            "target": 34962
        },
        {
            "buffer": 0,
            "byteLength": 2032,
            "byteOffset": 15008,
            "name": "bufferView_buffer_terminal.001_0",
            "target": 34963
        }
    ],
    "buffers": [
        {
            "byteLength": 17040,
            "name": "buffer_lab_terminal",
            "uri": "buffer_lab_terminal.bin"
        }
    ],
    "cameras": [
        {
            "name": "Camera",
            "perspective": {
                "aspectRatio": 1.703595982340029,
                "yfov": 0.5033799409866333,
                "zfar": 100.0,
                "znear": 0.10000000149011612
            },
            "type": "perspective"
        }
    ],
    "images": [
        {
            "name": "lab_terminal.jpg",
            "uri": "lab_terminal.jpg"
        }
    ],
    "materials": [
        {
            "alphaMode": "OPAQUE",
            "doubleSided": false,
            "emissiveFactor": [
                0.0,
                0.0,
                0.0
            ],
            "name": "lab_terminal_mtrl",
            "pbrMetallicRoughness": {
                "baseColorFactor": [
                    0.64000004529953,
                    0.64000004529953,
                    0.64000004529953,
                    1.0
                ],
                "baseColorTexture": {
                    "index": 0,
                    "texCoord": 0
                },
                "metallicFactor": 0.0,
                "roughnessFactor": 1.0
            }
        }
    ],
    "meshes": [
        {
            "name": "terminal.001",
            "primitives": [
                {
                    "attributes": {
                        "NORMAL": 2,
                        "POSITION": 1,
                        "TEXCOORD_0": 3
                    },
                    "indices": 0,
                    "material": 0,
                    "mode": 4
                }
            ]
        }
    ],
    "nodes": [
        {
            "camera": 0,
            "name": "Camera",
            "rotation": [
                -0.09062843769788742,
                -0.8937962651252747,
                -0.2099730223417282,
                0.38578000664711
            ],
            "scale": [
                1.0,
                1.0,
                1.0
            ],
            "translation": [
                -7.481131553649902,
                5.34366512298584,
                -6.5076398849487305
            ]
        },
        {
            "name": "Lamp",
            "rotation": [
                -0.34203386306762695,
                -0.5232755541801453,
                -0.2841663062572479,
                0.7269423007965088
            ],
            "scale": [
                1.0,
                1.0,
                0.9999999403953552
            ],
            "translation": [
                -4.076245307922363,
                5.903861999511719,
                1.0054539442062378
            ]
        },
        {
            "mesh": 0,
            "name": "terminal.001",
            "rotation": [
                -0.7071068286895752,
                0.0,
                0.0,
                0.7071067094802856
            ],
            "scale": [
                1.0,
                1.0,
                1.0
            ],
            "translation": [
                0.0,
                0.0,
                0.0
            ]
        }
    ],
    "samplers": [
        {
            "magFilter": 9729,
            "minFilter": 9987,
            "name": "Texture",
            "wrapS": 10497,
            "wrapT": 10497
        }
    ],
    "scene": 0,
    "scenes": [
        {
            "extras": {
                "active_camera": 0,
                "background_color": [
                    0.05087608844041824,
                    0.05087608844041824,
                    0.05087608844041824
                ],
                "frames_per_second": 24
            },
            "name": "Scene",
            "nodes": [
                2,
                1,
                0
            ]
        }
    ],
    "textures": [
        {
            "name": "Texture",
            "sampler": 0,
            "source": 0
        }
    ]
}
