{
    "accessors": [
        {
            "bufferView": 4,
            "byteOffset": 16,
            "componentType": 5126,
            "count": 456,
            "max": [
                1.0,
                0.0,
                0.0,
                0.0
            ],
            "min": [
                1.0,
                0.0,
                0.0,
                0.0
            ],
            "name": "accessor_buffer_Untitled_skin_1",
            "type": "VEC4"
        },
        {
            "bufferView": 0,
            "byteOffset": 0,
            "componentType": 5126,
            "count": 456,
            "max": [
                0.9386523365974426,
                0.11105908453464508,
                2.91372013092041
            ],
            "min": [
                -0.9386523365974426,
                -0.11105908453464508,
                1.0364153385162354
            ],
            "name": "accessor_buffer_Untitled_POSITION_0",
            "type": "VEC3"
        },
        {
            "bufferView": 3,
            "byteOffset": 0,
            "componentType": 5123,
            "count": 1254,
            "max": [
                455
            ],
            "min": [
                0
            ],
            "name": "accessor_buffer_Untitled_0",
            "type": "SCALAR"
        },
        {
            "bufferView": 4,
            "byteOffset": 0,
            "componentType": 5121,
            "count": 456,
            "max": [
                0,
                0,
                0,
                0
            ],
            "min": [
                0,
                0,
                0,
                0
            ],
            "name": "accessor_buffer_Untitled_skin_0",
            "type": "VEC4"
        },
        {
            "bufferView": 2,
            "byteOffset": 0,
            "componentType": 5126,
            "count": 456,
            "max": [
                0.994825005531311,
                0.9985682927072048
            ],
            "min": [
                0.005938492715358734,
                0.005307555198669434
            ],
            "name": "accessor_buffer_Untitled_TEXCOORD_0_0",
            "type": "VEC2"
        },
        {
            "bufferView": 1,
            "byteOffset": 0,
            "componentType": 5126,
            "count": 456,
            "max": [
                1.0,
                1.0,
                1.0
            ],
            "min": [
                -1.0,
                -1.0,
                -1.0
            ],
            "name": "accessor_buffer_Untitled_NORMAL_0",
            "type": "VEC3"
        },
        {
            "bufferView": 9,
            "byteOffset": 0,
            "componentType": 5126,
            "count": 120,
            "max": [
                1.0000003576278687,
                1.0,
                1.0000003576278687
            ],
            "min": [
                0.9999998211860657,
                1.0,
                0.9999998211860657
            ],
            "name": "accessor_buffer_jt_Armature_Armature|Take 001|BaseLayer_2",
            "type": "VEC3"
        },
        {
            "bufferView": 5,
            "byteOffset": 0,
            "componentType": 5126,
            "count": 1,
            "max": [
                -1.0,
                0.0,
                0.0,
                0.0,
                0.0,
                0.0,
                1.0,
                0.0,
                0.0,
                1.0,
                0.0,
                0.0,
                0.01580039970576763,
                -1.9908499717712402,
                0.0,
                1.0
            ],
            "min": [
                -1.0,
                0.0,
                0.0,
                0.0,
                0.0,
                0.0,
                1.0,
                0.0,
                0.0,
                1.0,
                0.0,
                0.0,
                0.01580039970576763,
                -1.9908499717712402,
                0.0,
                1.0
            ],
            "name": "accessor_buffer_IBM_pCube8_skin_0",
            "type": "MAT4"
        },
        {
            "bufferView": 7,
            "byteOffset": 0,
            "componentType": 5126,
            "count": 120,
            "max": [
                0.0,
                0.0,
                2.542978048324585
            ],
            "min": [
                0.0,
                0.0,
                2.0380001068115234
            ],
            "name": "accessor_buffer_jt_Armature_Armature|Take 001|BaseLayer_0",
            "type": "VEC3"
        },
        {
            "bufferView": 6,
            "byteOffset": 0,
            "componentType": 5126,
            "count": 120,
            "max": [
                3.9666666666666623
            ],
            "min": [
                0
            ],
            "name": "accessor_buffer_Armature_Armature|Take 001|BaseLayer_time_0",
            "type": "SCALAR"
        },
        {
            "bufferView": 8,
            "byteOffset": 0,
            "componentType": 5126,
            "count": 120,
            "max": [
                0.7070451974868774,
                0.7071068286895752,
                0.7071068286895752,
                0.7070451974868774
            ],
            "min": [
                -6.181724643283815e-08,
                -0.706860363483429,
                -0.706860363483429,
                -6.181724643283815e-08
            ],
            "name": "accessor_buffer_jt_Armature_Armature|Take 001|BaseLayer_1",
            "type": "VEC4"
        }
    ],
    "animations": [
        {
            "channels": [
                {
                    "sampler": 0,
                    "target": {
                        "node": 4,
                        "path": "translation"
                    }
                },
                {
                    "sampler": 1,
                    "target": {
                        "node": 4,
                        "path": "rotation"
                    }
                },
                {
                    "sampler": 2,
                    "target": {
                        "node": 4,
                        "path": "scale"
                    }
                }
            ],
            "name": "Armature_Armature|Take 001|BaseLayer",
            "samplers": [
                {
                    "input": 9,
                    "interpolation": "LINEAR",
                    "output": 8
                },
                {
                    "input": 9,
                    "interpolation": "LINEAR",
                    "output": 10
                },
                {
                    "input": 9,
                    "interpolation": "LINEAR",
                    "output": 6
                }
            ]
        }
    ],
    "asset": {
        "copyright": "",
        "generator": "blendergltf v1.2.0",
        "version": "2.0"
    },
    "bufferViews": [
        {
            "buffer": 0,
            "byteLength": 5472,
            "byteOffset": 0,
            "byteStride": 12,
            "name": "bufferView_buffer_Untitled_POSITION_0",
            "target": 34962
        },
        {
            "buffer": 0,
            "byteLength": 5472,
            "byteOffset": 5472,
            "byteStride": 12,
            "name": "bufferView_buffer_Untitled_NORMAL_0",
            "target": 34962
        },
        {
            "buffer": 0,
            "byteLength": 3648,
            "byteOffset": 10944,
            "byteStride": 8,
            "name": "bufferView_buffer_Untitled_TEXCOORD_0_0",
            "target": 34962
        },
        {
            "buffer": 0,
            "byteLength": 2512,
            "byteOffset": 14592,
            "name": "bufferView_buffer_Untitled_0",
            "target": 34963
        },
        {
            "buffer": 0,
            "byteLength": 14592,
            "byteOffset": 17104,
            "byteStride": 32,
            "name": "bufferView_buffer_Untitled_skin_0",
            "target": 34962
        },
        {
            "buffer": 0,
            "byteLength": 64,
            "byteOffset": 31696,
            "byteStride": 64,
            "name": "bufferView_buffer_IBM_pCube8_skin_0"
        },
        {
            "buffer": 0,
            "byteLength": 480,
            "byteOffset": 31760,
            "byteStride": 4,
            "name": "bufferView_buffer_Armature_Armature|Take 001|BaseLayer_time_0"
        },
        {
            "buffer": 0,
            "byteLength": 1440,
            "byteOffset": 32240,
            "byteStride": 12,
            "name": "bufferView_buffer_jt_Armature_Armature|Take 001|BaseLayer_0"
        },
        {
            "buffer": 0,
            "byteLength": 1920,
            "byteOffset": 33680,
            "byteStride": 16,
            "name": "bufferView_buffer_jt_Armature_Armature|Take 001|BaseLayer_1"
        },
        {
            "buffer": 0,
            "byteLength": 1440,
            "byteOffset": 35600,
            "byteStride": 12,
            "name": "bufferView_buffer_jt_Armature_Armature|Take 001|BaseLayer_2"
        }
    ],
    "buffers": [
        {
            "byteLength": 37040,
            "name": "buffer_omnitrix",
            "uri": "buffer_omnitrix.bin"
        }
    ],
    "cameras": [
        {
            "name": "Camera",
            "perspective": {
                "aspectRatio": 1.703595982340029,
                "yfov": 0.5033799409866333,
                "zfar": 100.0,
                "znear": 0.10000000149011612
            },
            "type": "perspective"
        }
    ],
    "images": [
        {
            "name": "omnitrix.jpg",
            "uri": "omnitrix.jpg"
        }
    ],
    "materials": [
        {
            "alphaMode": "OPAQUE",
            "doubleSided": false,
            "emissiveFactor": [
                0.0,
                0.0,
                0.0
            ],
            "name": "Material.001",
            "pbrMetallicRoughness": {
                "baseColorFactor": [
                    0.64000004529953,
                    0.64000004529953,
                    0.64000004529953,
                    1.0
                ],
                "baseColorTexture": {
                    "index": 0,
                    "texCoord": 0
                },
                "metallicFactor": 0.0,
                "roughnessFactor": 1.0
            }
        }
    ],
    "meshes": [
        {
            "name": "Untitled",
            "primitives": [
                {
                    "attributes": {
                        "JOINTS_0": 3,
                        "NORMAL": 5,
                        "POSITION": 1,
                        "TEXCOORD_0": 4,
                        "WEIGHTS_0": 0
                    },
                    "indices": 2,
                    "material": 0,
                    "mode": 4
                }
            ]
        }
    ],
    "nodes": [
        {
            "children": [
                3,
                4
            ],
            "name": "Armature",
            "rotation": [
                -0.7071068286895752,
                0.0,
                0.0,
                0.7071067094802856
            ],
            "scale": [
                0.8102095127105713,
                0.8102095127105713,
                0.8102095127105713
            ],
            "translation": [
                0.0,
                0.0,
                0.0
            ]
        },
        {
            "camera": 0,
            "name": "Camera",
            "rotation": [
                -0.09062843769788742,
                -0.8937962651252747,
                -0.2099730223417282,
                0.38578000664711
            ],
            "scale": [
                1.0,
                1.0,
                1.0
            ],
            "translation": [
                -7.481131553649902,
                5.34366512298584,
                -6.5076398849487305
            ]
        },
        {
            "name": "Lamp",
            "rotation": [
                -0.34203386306762695,
                -0.5232755541801453,
                -0.2841663062572479,
                0.7269423007965088
            ],
            "scale": [
                1.0,
                1.0,
                0.9999999403953552
            ],
            "translation": [
                -4.076245307922363,
                5.903861999511719,
                1.0054539442062378
            ]
        },
        {
            "extras": {
                "currentUVSet": "map1"
            },
            "mesh": 0,
            "name": "pCube8",
            "rotation": [
                3.552713678800501e-15,
                0.0,
                0.0,
                1.0
            ],
            "scale": [
                1.0,
                1.0,
                1.0
            ],
            "skin": 0,
            "translation": [
                0.0,
                0.0,
                0.0
            ]
        },
        {
            "name": "Armature_jt",
            "rotation": [
                0.0,
                0.7071068286895752,
                0.7071068286895752,
                0.0
            ],
            "scale": [
                1.0,
                1.0,
                1.0
            ],
            "translation": [
                0.01580039970576763,
                0.0,
                1.9908499717712402
            ]
        }
    ],
    "samplers": [
        {
            "magFilter": 9729,
            "minFilter": 9987,
            "name": "Texture",
            "wrapS": 10497,
            "wrapT": 10497
        }
    ],
    "scene": 0,
    "scenes": [
        {
            "extras": {
                "active_camera": 0,
                "background_color": [
                    0.05087608844041824,
                    0.05087608844041824,
                    0.05087608844041824
                ],
                "frames_per_second": 30
            },
            "name": "Scene",
            "nodes": [
                0,
                2,
                1
            ]
        }
    ],
    "skins": [
        {
            "inverseBindMatrices": 7,
            "joints": [
                4
            ],
            "name": "pCube8",
            "skeleton": 4
        }
    ],
    "textures": [
        {
            "name": "Texture",
            "sampler": 0,
            "source": 0
        }
    ]
}
