<?xml version="1.0" standalone="no"?>
<!DOCTYPE svg PUBLIC "-//W3C//DTD SVG 1.1//EN" "http://www.w3.org/Graphics/SVG/1.1/DTD/svg11.dtd" >
<svg>
<metadata>
Created by FontForge 20120731 at Wed Aug  3 17:52:11 2016
 By www
Copyright (c) 2014 by Mika Melvas / Mahti Type Studio. All rights reserved.
</metadata>
<defs>
<font id="AhkioW00-Bold" horiz-adv-x="481" >
  <font-face 
    font-family="AhkioW00-Bold"
    font-weight="700"
    font-stretch="normal"
    units-per-em="1000"
    panose-1="1 0 0 0 0 0 0 0 0 0"
    ascent="800"
    descent="-200"
    x-height="510"
    cap-height="674"
    bbox="-76 -230 1229 929"
    underline-thickness="50"
    underline-position="-125"
    unicode-range="U+000D-FB03"
  />
<missing-glyph horiz-adv-x="220" 
 />
    <glyph glyph-name="uniFB00" unicode="ff" horiz-adv-x="658" 
d="M688 563q-10 4 -17 4.5t-12 0.5q-19 0 -32.5 -13.5t-13.5 -31.5q0 -12 14 -12h35q11 -1 14 -8.5t3 -15.5q-1 -21 -3.5 -53t-5.5 -53q-1 -8 -7 -13t-15 -5h-52q-8 0 -13.5 -4t-7.5 -11q-7 -37 -14 -78t-14.5 -84t-14.5 -85.5t-13 -81.5q-2 -8 -7.5 -13t-14.5 -5
q-8 0 -26 4t-37.5 9t-37 10t-23.5 8q-6 2 -10.5 8.5t-4.5 18.5v7q0 3 1 5q3 25 8 57t11 68t12.5 74t12.5 75v3q0 2 0.5 2.5t0.5 1.5q0 11 -12 11h-118q-8 0 -13.5 -4t-7.5 -11q-7 -37 -14 -78t-14.5 -84t-14.5 -85.5t-13 -81.5q-2 -8 -7.5 -13t-14.5 -5q-8 0 -26 4t-37.5 9
t-37 10t-23.5 8q-6 2 -10.5 8.5t-4.5 18.5v7q0 3 1 5q3 25 8 57.5t11 69.5t12.5 75.5t12.5 75.5v3q0 2 0.5 2.5t0.5 1.5q0 11 -12 11h-9q-9 0 -12 4t-4 12v27q0 20 0.5 42t1.5 33q1 9 6 15t18 6q3 0 7.5 0.5t7.5 0.5q19 0 22 17q8 42 21 78.5t35.5 63.5t55.5 42.5t80 15.5
q23 0 51.5 -6t50.5 -17q12 -7 12 -21q0 -1 -0.5 -3.5l-2.5 -12.5t-7 -31t-14 -58q-2 -6 -7 -9.5t-11 -3.5h-4q-1 0 -2 1q-10 4 -17 4.5t-12 0.5q-19 0 -32.5 -13.5t-13.5 -31.5q0 -12 14 -12h105q17 0 20 13q8 42 21 78.5t35.5 63.5t55.5 42.5t80 15.5q23 0 51.5 -6
t50.5 -17q12 -7 12 -21q0 -1 -0.5 -3.5l-2.5 -12.5t-7 -31t-14 -58q-2 -6 -7 -9.5t-11 -3.5h-4q-1 0 -2 1z" />
    <glyph glyph-name="t_t.liga" unicode="tt" horiz-adv-x="627" 
d="M641 381q-5 -19 -25 -19h-60q-8 0 -14.5 -5t-8.5 -13q-3 -16 -7 -35.5t-7.5 -38t-5.5 -34.5t-2 -25q0 -30 11.5 -46.5t37.5 -28.5q10 -6 10 -19q0 -2 -0.5 -3t-0.5 -3q-1 -2 -1 -3q-8 -20 -24.5 -47t-35.5 -48q-5 -5 -11 -8t-13 -3h-6q-2 0 -2 1q-35 10 -61 28t-43 42
t-26 51.5t-9 56.5q0 30 6.5 73.5t16.5 91.5v3q0 1 0.5 2t0.5 2q0 11 -10 11h-81q-8 0 -14.5 -5t-8.5 -13q-3 -16 -7 -35.5t-7.5 -38.5t-5.5 -35.5t-2 -25.5q0 -30 11.5 -46.5t37.5 -28.5q10 -6 10 -19q0 -2 -0.5 -3t-0.5 -3q-1 -2 -1 -3q-8 -20 -24.5 -47t-35.5 -48
q-5 -5 -11 -8t-13 -3h-6q-2 0 -2 1q-35 10 -61 28t-43 42t-26 51.5t-9 56.5q0 30 6.5 73.5t16.5 91.5v3q0 1 0.5 2t0.5 2q0 11 -10 11h-6q-8 0 -12.5 6t-5.5 14t-1 16.5v19.5q0 17 0.5 34t1.5 30q1 8 6 13.5t18 7.5q4 1 14 1.5t18 1.5t11.5 6.5t5.5 13.5q11 46 22.5 83.5
t21.5 57.5q7 15 22 15q8 0 25 -4t36 -9t37 -11.5t28 -10.5q12 -5 12 -19q0 -2 -0.5 -3.5t-0.5 -2.5v-2q-5 -16 -12 -40.5t-14 -52.5q-1 -2 -1 -3v-4q0 -11 11 -14h82q8 0 11.5 6t5.5 14q11 46 22.5 83.5t21.5 57.5q7 15 22 15q8 0 25 -4t36 -9t37 -11.5t28 -10.5
q12 -5 12 -19q0 -2 -0.5 -3.5t-0.5 -2.5v-2q-5 -16 -12 -39t-14 -51q-1 -2 -1 -3v-4q0 -11 11 -14h39q12 -1 16 -8.5t5 -15.5v-10q0 -23 -2 -51t-5 -45z" />
    <glyph glyph-name=".notdef" horiz-adv-x="220" 
 />
    <glyph glyph-name="glyph1" horiz-adv-x="0" 
 />
    <glyph glyph-name="glyph1" horiz-adv-x="0" 
 />
    <glyph glyph-name="uni000D" unicode="&#xd;" horiz-adv-x="142" 
 />
    <glyph glyph-name="space" unicode=" " horiz-adv-x="142" 
 />
    <glyph glyph-name="exclam" unicode="!" horiz-adv-x="231" 
d="M186 227q-2 -8 -7.5 -12.5t-12.5 -4.5q-8 0 -25 4.5t-36 10.5t-35 11.5t-20 7.5q-16 7 -16 24v2q6 41 16 96t22 110.5t25.5 105t25.5 79.5q7 15 23 15q5 0 20 -3t33.5 -8.5t39 -12t35.5 -12.5q12 -3 12 -19q0 -2 -0.5 -3t-0.5 -2v-2q-9 -24 -22 -67t-27 -96t-27.5 -111
t-22.5 -113zM74 183q48 0 74 -26.5t26 -63.5q0 -41 -24 -68.5t-68 -27.5t-63.5 26.5t-19.5 63.5q0 50 43 85q6 5 15 8t17 3z" />
    <glyph glyph-name="quotedbl" unicode="&#x22;" horiz-adv-x="346" 
d="M190 462q-5 -16 -18 -16q-5 0 -15.5 3t-22.5 7.5t-22.5 8t-14.5 5.5q-8 3 -12 11t-4 17q3 20 8.5 48t13 57.5t15.5 56.5t15 45q2 7 9 10.5t14 3.5q4 0 14.5 -2.5t23 -6.5t24.5 -8.5t20 -8.5q12 -7 12 -19q0 -2 -2 -8q-16 -42 -30 -93t-28 -111zM349 462q-5 -16 -18 -16
q-5 0 -15.5 3t-22.5 7.5t-22.5 8t-14.5 5.5q-8 3 -12 11t-4 17q3 20 8.5 48t13 57.5t15.5 56.5t15 45q2 7 9 10.5t14 3.5q4 0 14.5 -2.5t23 -6.5t24.5 -8.5t20 -8.5q12 -7 12 -19q0 -2 -2 -8q-16 -42 -30 -93t-28 -111z" />
    <glyph glyph-name="numbersign" unicode="#" horiz-adv-x="540" 
d="M547 438q-1 -8 -7.5 -14t-14.5 -6q-7 0 -16 -0.5t-21 -0.5q-19 0 -22 -16l-9 -45v-4q0 -14 12 -14h12.5t12.5 -1q11 -1 14.5 -7.5t4.5 -14.5q0 -8 0.5 -18t0.5 -20q0 -11 -0.5 -20t-0.5 -17t-6.5 -14t-14.5 -6t-19.5 -0.5t-25.5 -0.5q-20 0 -23 -19q-5 -27 -8.5 -55
t-6.5 -55q-2 -17 -18 -17q-6 0 -18 2.5t-24.5 6.5t-24.5 8.5t-18 7.5q-8 4 -10.5 11.5t-2.5 15.5l7 70v4q0 15 -15 15l-37 -2q-10 -1 -14.5 -6t-5.5 -13q-5 -26 -8.5 -51.5t-6.5 -51.5q-2 -16 -18 -16q-6 0 -17.5 2.5t-24 6.5t-24 8t-17.5 7q-8 5 -11.5 12t-3.5 15
q0 7 1.5 18t2.5 21.5t2 19t1 11.5q0 13 -13 13q-4 -1 -8 -1h-10q-20 0 -23 19q-2 15 -3 35t-2 35q0 9 4.5 15.5t14.5 8.5l45 7q14 1 17 17q1 6 2 13.5t2.5 15t2.5 13t1 7.5q0 13 -12 13q-4 0 -10 -0.5t-9 -0.5q-18 0 -20 19q-2 15 -3 35.5t-1 35.5q0 9 5.5 15.5t13.5 8.5
t22.5 3t29.5 3q13 1 18 19q8 37 16.5 68t16.5 48q2 8 8.5 11.5t13.5 3.5q4 0 15 -2.5t25 -6.5t27.5 -8.5t22.5 -8.5q11 -5 11 -20q0 -1 -0.5 -2t-0.5 -2v-3l-18 -68q-1 -1 -1 -3v-5q0 -10 11 -10q4 0 16 0.5t15 0.5q16 0 19 16q8 34 16.5 62t15.5 45q2 8 8.5 11.5t13.5 3.5
q5 0 15.5 -2.5t23.5 -6t26.5 -8.5t24.5 -9q11 -5 11 -20q0 -1 -0.5 -2t-0.5 -2v-3q-3 -13 -8 -29.5t-10 -36.5q-1 -2 -1 -4q-1 -2 -1 -6q0 -11 14 -11h16q18 -1 18 -22v-75zM305 339q16 0 19 17l7 42q0 14 -13 14q-7 0 -16 -0.5t-16 -0.5q-9 -1 -12.5 -5t-5.5 -12
q-3 -16 -5 -24.5t-3 -13t-1 -5.5v-1q0 -6 4 -9t8 -3q8 0 17 0.5t17 0.5z" />
    <glyph glyph-name="dollar" unicode="$" horiz-adv-x="405" 
d="M208 444q0 -8 6 -13.5t17.5 -12t28.5 -15.5t39 -23q44 -27 66 -53.5t22 -66.5q0 -26 -11.5 -56t-30 -57t-43 -46.5t-50.5 -23.5q-8 -2 -13.5 -6t-7.5 -13q-3 -15 -6 -31t-5 -30q-5 -16 -19 -16q-5 0 -13.5 2t-18.5 5t-19 6t-13 5q-15 6 -15 22v1.5t1 6.5t2 15t4 28v4
q0 14 -15 21q-19 7 -38 17t-29 18q-11 9 -11 21q0 4 2 10q7 19 17 45t18 43q5 10 14 10q5 0 11 -4q13 -8 29.5 -16t33.5 -14t33 -10t27 -4t17.5 4.5t6.5 12.5q0 12 -15.5 22.5t-50.5 32.5q-27 17 -48 32.5t-35 32.5t-21.5 38t-7.5 50q0 22 10.5 51.5t30 55.5t46.5 44.5
t61 18.5q9 0 12.5 4t5.5 15q3 14 6.5 26t6.5 22q5 16 19 16q4 0 13.5 -1.5t21 -4t22.5 -5.5t17 -6q13 -7 13 -17q0 -1 -0.5 -2t-0.5 -3q-1 -2 -1 -4l-10 -40q-1 -2 -1 -4q-1 -2 -1 -5q0 -8 4.5 -10.5t9.5 -4.5q14 -5 28 -11t26 -13q11 -6 11 -20q0 -1 -0.5 -2t-0.5 -2v-3
l-32 -89q-5 -11 -17 -11q-3 0 -7 2q-11 5 -26.5 10.5t-31.5 10t-31.5 8t-27.5 3.5q-15 0 -25 -6t-10 -17z" />
    <glyph glyph-name="percent" unicode="%" horiz-adv-x="685" 
d="M194 12q-6 -9 -18 -9q-2 0 -5.5 1t-5.5 2q-12 8 -22 16t-18 16q-7 7 -7 15t5 16q14 23 44.5 67.5t69 100t82 117.5t84 120.5t75 108.5t55.5 82q7 9 18 9q4 0 8 -2q14 -8 30.5 -20.5t30.5 -25.5q6 -6 6 -14q0 -6 -7 -15q-14 -16 -40 -49t-60.5 -77.5t-75.5 -99t-83.5 -114
t-85 -122t-80.5 -123.5zM208 433q12 0 22.5 12t17.5 30.5t11 39.5t4 39t-4.5 29t-15.5 11t-21 -12t-17.5 -30t-12.5 -39t-5 -39q0 -17 4.5 -29t16.5 -12zM228 351q-16 0 -41 4.5t-48 18.5t-40 40t-17 68q0 21 8 54t24 64t41 53t59 22q18 0 44 -6.5t50 -21.5t41 -40t17 -62
q0 -19 -7 -52t-23 -64.5t-42.5 -54.5t-65.5 -23zM497 82q12 0 22 12t17.5 30.5t12 39.5t4.5 39q0 19 -4.5 30t-15.5 11t-21.5 -12.5t-18.5 -31t-12.5 -40t-4.5 -39.5q0 -17 5 -28t16 -11zM518 0q-16 0 -40.5 4.5t-48 18.5t-40.5 40t-17 69q0 25 7.5 58.5t24 63.5t41.5 50.5
t60 20.5q17 0 43 -6.5t50 -22t41 -40.5t17 -61q0 -20 -7 -53t-23 -64.5t-42.5 -54.5t-65.5 -23z" />
    <glyph glyph-name="ampersand" unicode="&#x26;" horiz-adv-x="503" 
d="M348 350q15 -2 15 -17q0 -6 -1 -16.5t-2.5 -22.5t-3 -23t-2.5 -17q-2 -10 -8 -13t-12 -3q-4 0 -17 0.5t-24 0.5q-19 0 -36 -1t-30.5 -5.5t-22 -12.5t-8.5 -21q0 -22 19 -34t46 -12q16 0 35.5 3t38.5 8t37 11.5t32 14.5q4 3 8 3q12 0 17 -12q7 -25 12 -48.5t9 -56.5
q0 -8 -2 -14.5t-11 -12.5q-30 -18 -63.5 -28.5t-79.5 -17.5q-20 -2 -22 -22q-1 -3 -3.5 -16.5t-5.5 -29.5t-5.5 -30.5t-3.5 -18.5q-2 -17 -21 -17q-9 1 -21.5 3.5t-24.5 5t-23 5t-18 4.5q-6 2 -10.5 8.5t-4.5 14.5q0 7 1.5 18t3.5 22.5t3.5 23t2.5 19.5q0 8 -4 12.5t-10 7.5
q-57 28 -87.5 67.5t-30.5 98.5q0 27 8.5 48t23 37t32 28t35.5 21q1 0 3 2q4 2 4 6t-2 6l-3 3q-18 16 -31 40t-13 53q0 36 14.5 78t40.5 78.5t62 61.5t79 27q12 0 15 16q7 25 11.5 49.5t8.5 41.5q2 6 8 11t15 5q9 -2 21.5 -4.5t26 -5.5t26 -6t21.5 -6q5 -2 9 -6.5t4 -12.5
q0 -6 -4 -21.5t-8.5 -33t-8 -32.5t-3.5 -19q0 -9 10 -15q45 -22 78.5 -53.5t33.5 -68.5q0 -9 -3 -23t-7.5 -28.5t-10 -28t-9.5 -20.5q-6 -10 -12.5 -12.5t-14.5 -3.5q-10 -2 -24.5 -3t-28.5 -2t-26 -1h-17q-17 0 -21.5 7t-5.5 14q0 8 6 33t6 52q0 41 -35 41q-16 0 -30 -13.5
t-24.5 -33t-16.5 -40t-6 -35.5q0 -8 2.5 -18t12 -19.5t30 -16t56.5 -6.5z" />
    <glyph glyph-name="quotesingle" unicode="'" horiz-adv-x="185" 
d="M190 462q-5 -16 -18 -16q-5 0 -15.5 3t-22.5 7.5t-22.5 8t-14.5 5.5q-8 3 -12 11t-4 17q3 20 8.5 48t13 57.5t15.5 56.5t15 45q2 7 9 10.5t14 3.5q4 0 14.5 -2.5t23 -6.5t24.5 -8.5t20 -8.5q12 -7 12 -19q0 -2 -2 -8q-16 -42 -30 -93t-28 -111z" />
    <glyph glyph-name="parenleft" unicode="(" horiz-adv-x="261" 
d="M198 3v-2q0 -1 1 -1q0 -13 -12 -13q-8 0 -22 2.5t-30.5 7t-33 9.5t-27.5 10q-13 5 -18 11.5t-9 17.5q-8 28 -12 63t-4 76q0 71 11.5 150.5t31.5 152.5t47 132t59 89q11 11 31 11q11 0 25.5 -4t29.5 -10t29 -13t24 -13q8 -5 8 -13q0 -5 -6 -13q-26 -30 -50.5 -85
t-44 -123.5t-31 -145.5t-11.5 -152q0 -38 3 -73t11 -69v-2z" />
    <glyph glyph-name="parenright" unicode=")" horiz-adv-x="274" 
d="M119 701q-1 1 -1 2v3q0 13 12 13q7 0 21.5 -2.5t31 -7t33 -9.5t27.5 -10q13 -5 18 -11.5t9 -17.5q8 -28 12 -63t4 -76q0 -71 -11.5 -150.5t-31.5 -152.5t-47.5 -132t-58.5 -89q-11 -11 -31 -11q-11 0 -26 4t-30 10t-28.5 13t-23.5 13q-8 5 -8 13q0 5 6 13q26 30 50.5 85
t44 123.5t31 145.5t11.5 152q0 38 -3 73t-11 69z" />
    <glyph glyph-name="asterisk" unicode="*" horiz-adv-x="375" 
d="M358 432q-4 -4 -10 -4t-10 4q-13 14 -28.5 29.5t-32.5 29.5q-3 3 -5 3q-4 0 -6 -8q-4 -19 -6.5 -39.5t-4.5 -38.5q-2 -14 -15 -14q-13 2 -27 6t-26 7q-9 4 -11 10.5t-2 13.5q2 12 4.5 28t5.5 35q0 6 -4 6q-2 0 -6 -2l-49 -30q-1 -1 -2 -1q-1 -1 -5 -1q-7 0 -10 6
q-8 12 -14 27t-10 28q-1 1 -1 2v3q0 10 9 15q14 6 33.5 14.5t37.5 17.5q6 3 6 7q0 5 -5 8q-3 2 -9.5 6.5t-14 9.5t-14.5 9.5t-10 6.5q-7 5 -7 12q0 2 2 8q1 3 3 5q7 13 14 26.5t15 23.5l4.5 4.5t5.5 2.5t7 -2q2 -1 3 -2q2 -3 7.5 -8.5t12 -11.5l13 -12t10.5 -9q3 -3 7 -3
q5 0 6 8q5 23 10.5 43t9.5 32q5 12 16 12q4 0 12 -1.5t17 -4t17.5 -5.5t14.5 -5q8 -5 8 -14q0 -1 -0.5 -2t-0.5 -2v-3q-5 -16 -10.5 -36t-5.5 -26q0 -5 3 -5q2 0 3 1q1 0 2 1q14 8 31 18.5t28 18.5q4 2 7 2q8 0 12 -7q7 -13 12 -29.5t9 -31.5q0 -11 -11 -16
q-5 -2 -15.5 -6.5t-22.5 -10t-23 -10.5t-18 -8q-6 -3 -6 -9q0 -4 3 -7q14 -14 34.5 -31t34.5 -29q5 -5 5 -12q0 -4 -2 -8q-8 -11 -17.5 -23t-17.5 -22z" />
    <glyph glyph-name="plus" unicode="+" horiz-adv-x="459" 
d="M412 381q10 -2 15 -9t5 -15q0 -11 -0.5 -25t-1.5 -28.5l-2 -29t-2 -24.5q-1 -8 -7.5 -14t-14.5 -6q-17 0 -46 0.5t-62 0.5q-19 0 -22 -19q-5 -33 -10.5 -62t-8.5 -63q-2 -16 -17 -16q-6 0 -18.5 3t-27 7t-28.5 9t-21 8q-8 3 -12 9.5t-4 14.5q0 11 1.5 26t3.5 30t3.5 26.5
t1.5 14.5q0 14 -16 14h-59q-8 0 -14.5 6t-7.5 14q-1 7 -1 15.5v18.5q0 17 0.5 35.5t2.5 31.5q1 8 7 14.5t14 8.5q14 2 38 3t51 3q16 2 19 20q9 40 19 67.5t17 47.5q7 15 22 15q3 0 16 -2t28.5 -5.5t31.5 -7.5t25 -7q6 -2 9.5 -7.5t3.5 -11.5q0 -1 -0.5 -2t-0.5 -2v-2
q-5 -16 -11 -34t-14 -47q-1 -2 -1 -3v-4q0 -14 13 -14q23 -1 46 -1t37 -2z" />
    <glyph glyph-name="comma" unicode="," horiz-adv-x="194" 
d="M146 139q16 -6 16 -23q0 -12 -8 -38.5t-20 -56.5t-25 -58t-22 -43q-4 -5 -9.5 -9t-13.5 -4q-7 0 -18 2t-22.5 5t-20.5 6t-13 5q-13 6 -13 18q0 6 2 12q6 20 11.5 44.5t9.5 50.5t7 51.5t4 46.5q1 8 6 13t12 5t22.5 -2.5t33 -6.5t34.5 -9t27 -9z" />
    <glyph glyph-name="hyphen" unicode="-" horiz-adv-x="368" 
d="M39 332q0 8 6.5 14.5t14.5 7.5q26 4 73 6.5t95 2.5q29 0 53.5 -1.5t41.5 -3.5q8 -2 14.5 -9t6.5 -15q0 -11 -1 -25t-2 -29t-3 -29.5t-3 -24.5q-2 -8 -9 -13t-15 -5q-19 0 -53.5 0.5t-72 0.5t-72.5 0.5t-56 0.5q-8 0 -14.5 5.5t-6.5 13.5q-1 6 -1 12.5v14.5q0 20 1 40.5
t3 35.5z" />
    <glyph glyph-name="period" unicode="." horiz-adv-x="207" 
d="M67 183q48 0 74 -26.5t26 -63.5q0 -41 -24 -68.5t-68 -27.5t-63.5 26.5t-19.5 63.5q0 50 43 85q6 5 15 8t17 3z" />
    <glyph glyph-name="slash" unicode="/" horiz-adv-x="384" 
d="M101 -6q-5 -12 -17 -12q-3 0 -7 2q-22 11 -41.5 24.5t-31.5 24.5q-9 9 -9 21q0 6 2 12q12 39 35.5 96t53 122.5t63 134t66 128.5t60 107t46.5 71q7 10 21 10q9 0 23 -8t29 -19t27.5 -21.5t17.5 -16.5q6 -8 6 -15q0 -5 -1.5 -9t-3.5 -7q-14 -21 -37 -59.5t-52 -89.5
t-61.5 -112t-65.5 -126t-65 -131t-58 -127z" />
    <glyph glyph-name="zero" unicode="0" horiz-adv-x="525" 
d="M324 529q-22 0 -43.5 -29.5t-39 -73.5t-28.5 -95.5t-11 -95.5q0 -48 11.5 -68t29.5 -20q21 0 42 29.5t37.5 75.5t27 100t10.5 104q0 40 -10 56.5t-26 16.5zM264 -1q-13 0 -38 5t-53.5 16.5t-56 30t-46.5 45.5q-11 15 -17.5 35t-11 41.5t-6 44t-1.5 42.5q0 35 7 79.5
t20.5 90.5t34.5 90t50.5 78.5t66.5 55.5t83 21q16 0 44 -7.5t58 -22t58 -35.5t43 -47q19 -31 24.5 -68t5.5 -75q-1 -40 -8 -87t-21.5 -94t-36 -90t-51 -76t-66.5 -53t-82 -20z" />
    <glyph glyph-name="one" unicode="1" horiz-adv-x="282" 
d="M167 659q7 13 22 13q7 0 23 -4t35 -9t37.5 -11.5t30.5 -10.5q5 -2 8.5 -7t3.5 -11q0 -1 -0.5 -1.5t-0.5 -1.5v-2q-11 -35 -27 -100t-32.5 -147t-32 -173.5t-24.5 -179.5q-3 -14 -17 -14q-9 0 -25.5 3.5t-34.5 8.5t-34.5 10t-25.5 9q-16 7 -16 26q0 21 3 51.5t7 64
t9.5 67.5t9.5 61.5t7 45.5t3 20q0 6 -2 10t-10 8l-27 13q-11 5 -11 16q0 6 3 11q10 21 26.5 54.5t34 68t33.5 65t24 46.5z" />
    <glyph glyph-name="two" unicode="2" horiz-adv-x="471" 
d="M257 676q35 0 77 -16.5t78 -44.5t60.5 -65.5t24.5 -78.5q0 -36 -19.5 -77t-51.5 -80.5t-72 -75t-80 -62.5q-2 -1 -3 -2q-2 -2 -2 -4t4 -2q2 0 14 0.5t28 0.5t33.5 0.5t32.5 0.5q10 0 16.5 -6t8.5 -14q5 -20 8.5 -52t6.5 -62q0 -16 -18 -18q-16 -1 -43 -2.5t-59 -3.5
t-66.5 -4t-66.5 -3.5t-59 -3t-43 -2.5q-8 0 -16 3t-12 11q-4 10 -9.5 26.5t-10.5 34t-8.5 32.5t-3.5 21q0 14 14 23q60 37 116 87t99.5 100t69.5 93.5t26 66.5q0 15 -9 21.5t-21 6.5q-23 0 -56.5 -28t-65.5 -76q-7 -10 -14 -10q-4 0 -8 2l-4 2q-21 14 -45 32.5t-36 32.5
q-9 9 -9 22q0 4 2 10q7 19 24 47t42 53.5t57 44t69 19.5z" />
    <glyph glyph-name="three" unicode="3" horiz-adv-x="459" 
d="M386 359q-8 -5 -8 -8t2.5 -5t4.5 -4q12 -10 23 -20.5t20 -23t14.5 -27.5t5.5 -34q0 -36 -14.5 -77.5t-41.5 -77.5t-66 -59.5t-88 -23.5q-19 0 -43.5 4.5t-50 14t-49.5 23t-42 31.5q-11 11 -19.5 27.5t-14.5 34t-9 33.5t-3 25q0 8 2 15t13 12q6 3 21 8.5t31 11t30 9.5
t18 4q17 0 19 -13q5 -17 11.5 -33.5t14.5 -30t18.5 -21.5t23.5 -8q15 0 27 9.5t21 23.5t13.5 30.5t4.5 31.5q0 16 -8 31.5t-33 15.5q-10 0 -24.5 -4t-27.5 -7q-6 0 -11 3t-8 12q-3 8 -7 21.5t-7 27t-5.5 25t-2.5 15.5q0 15 16 19q31 9 60 17.5t52 19t37 23.5t14 29
q0 12 -10 17t-26 5q-14 0 -32.5 -3t-38 -9t-39.5 -14.5t-36 -18.5q-4 -4 -12 -4t-14 10q-4 11 -9.5 28t-11 35t-9 33t-3.5 21q0 15 11 22q12 7 34 17.5t50.5 20.5t62 17.5t68.5 7.5q42 0 76 -19t58 -48t37 -63t13 -64q0 -38 -28.5 -68t-74.5 -53z" />
    <glyph glyph-name="four" unicode="4" horiz-adv-x="498" 
d="M456 307q9 0 12 -5.5t4 -13.5q3 -21 6.5 -53t4.5 -57q0 -18 -16 -20l-43 -2q-11 -1 -15 -6.5t-6 -13.5q-5 -29 -9.5 -60t-7.5 -60q-2 -16 -17 -16q-9 0 -25.5 3.5t-34 9t-33.5 11t-25 9.5q-8 3 -12 10.5t-4 15.5q0 6 0.5 16l1 20t1 18.5t0.5 13.5q0 13 -14 13
q-8 0 -30 -2t-46.5 -4t-45.5 -4t-26 -2q-15 0 -23 13q-4 7 -10.5 23t-12.5 34t-10 35t-4 26q0 16 8 27q17 24 40 56.5t47.5 69t49.5 74t47.5 71t41 60.5t29.5 43q7 10 19 10q6 0 15.5 -3t14.5 -7q7 -5 10 -5q5 0 10 8q6 9 18 9q5 0 21 -4t35.5 -9t39 -11.5l31.5 -10.5
q12 -5 12 -18q0 -2 -0.5 -3t-0.5 -3q-1 -2 -1 -3q-14 -39 -32 -114t-36 -172q-1 -2 -1 -3v-4q0 -10 11 -10h11zM184 303q-1 -1 -1 -2q-1 -1 -1 -5q0 -8 10 -8q14 2 25.5 3.5t27.5 2.5t19 18q3 18 7.5 41.5t8.5 45.5t7 38t3 18q0 4 -2 4l-3 -3l-2 -2q-6 -10 -19.5 -31.5
t-29 -45t-30 -44.5t-20.5 -30z" />
    <glyph glyph-name="five" unicode="5" horiz-adv-x="457" 
d="M23 218q6 3 21 7t32 8t31 7t18 3q16 0 20 -13q10 -35 21 -59.5t36 -24.5q14 0 27 11.5t23 29t16 39t6 41.5q0 23 -9.5 39t-29.5 16q-9 0 -19 -6.5t-19.5 -14t-17.5 -13.5t-13 -6q-8 0 -15 3q-24 10 -48.5 25.5t-42.5 33.5q-10 10 -10 26q0 6 6.5 30.5t15 56.5t17 65.5
t13.5 56.5q2 8 2 15.5v13.5q0 14 3.5 25t19.5 15q17 4 47.5 7.5t66.5 6t73.5 4t69.5 1.5h35t29 -2q8 -1 14.5 -7.5t7.5 -14.5q1 -12 2 -27.5t1 -31t-0.5 -30.5t-1.5 -26q0 -7 -5.5 -12t-13.5 -6q-3 0 -17.5 -0.5t-34 -1.5t-42 -2t-42 -1.5t-33 -1t-15.5 -0.5q-8 -1 -12.5 -4
t-8.5 -11q-2 -5 -5.5 -15t-7 -20.5t-6 -19t-2.5 -10.5q0 -8 8 -8q3 0 9.5 4.5t15 10t19 10t21.5 4.5q18 0 40 -9.5t42 -24.5t36 -33.5t21 -37.5q4 -12 7.5 -30.5t3.5 -37.5q0 -54 -17 -103.5t-46.5 -87t-68.5 -60t-82 -22.5q-18 0 -43 4.5t-50.5 13.5t-50 23t-42.5 33
q-12 12 -20 28.5t-13 34t-7 33t-2 24.5q0 8 2.5 14.5t13.5 11.5z" />
    <glyph glyph-name="six" unicode="6" horiz-adv-x="485" 
d="M483 440q-5 -8 -15 -8q-6 0 -22 3t-33.5 7.5t-33 8.5t-20.5 6t-8.5 5.5t-3.5 10.5q0 3 2 14t2 22q0 15 -6.5 22t-17.5 7q-14 0 -29.5 -13t-29.5 -33t-24 -43.5t-14 -44.5q0 -2 0.5 -4t2.5 -2t4 2q23 16 40.5 23.5t38.5 7.5q13 0 32.5 -7.5t39.5 -19.5t37.5 -26.5
t26.5 -27.5q6 -8 10.5 -19.5t7 -23t4 -22.5t1.5 -18q0 -40 -12.5 -86.5t-38 -86.5t-65.5 -67t-94 -27q-23 0 -50 6.5t-54 18.5t-51 29.5t-39 38.5q-12 16 -19 38t-11 45t-5.5 46.5t-1.5 44.5q0 33 7 76t20.5 88t35 89t51 78t66.5 55t83 21q12 0 39.5 -7.5t58 -21t58.5 -32.5
t43 -41q11 -17 11 -41q0 -18 -7.5 -45.5t-16.5 -45.5zM271 318q-17 0 -30 -11t-22.5 -28.5t-14.5 -38.5t-5 -41q0 -23 8.5 -42t30.5 -19q15 0 27.5 11.5t21.5 30t14 41t5 43.5t-8 37.5t-27 16.5z" />
    <glyph glyph-name="seven" unicode="7" horiz-adv-x="460" 
d="M482 646q3 -14 7 -32t7.5 -35t6 -32t2.5 -23q0 -12 -11 -25q-22 -26 -60.5 -77.5t-84 -118t-92.5 -142.5t-86 -151q-1 -3 -4 -5q-5 -5 -13 -5q-7 0 -14 4q-12 7 -25.5 17t-27 21.5t-25.5 23.5t-21 24q-2 4 -4 8.5t-2 9.5q0 7 4 15q18 38 45 84.5t58 96t63.5 98t62.5 89.5
q1 1 2 3q2 4 2 5q0 6 -11 6q-44 -2 -81.5 -3.5t-58.5 -2.5q-8 0 -14.5 5t-8.5 13q-3 25 -4.5 57t-1.5 55q0 8 5 14.5t13 8.5q18 3 50 6.5t70 6.5t78.5 4.5t75.5 1.5q23 0 44 -1t31 -3q8 -2 14.5 -7t8.5 -14z" />
    <glyph glyph-name="eight" unicode="8" horiz-adv-x="507" 
d="M429 345q-6 -5 -6 -10q0 -4 6 -10q26 -24 43.5 -53t17.5 -61q0 -35 -18 -72.5t-51 -68.5t-80 -51.5t-106 -20.5q-35 0 -74.5 14.5t-72.5 40t-54.5 60t-21.5 73.5q0 49 27.5 95t72.5 76q2 1 5 4t3 8q0 3 -2 6t-3 4q-18 20 -28 44t-10 54q0 37 16.5 72.5t47 63.5t73.5 45
t95 17q30 0 67 -17.5t70 -45t55 -61.5t22 -68q0 -35 -24.5 -72t-69.5 -66zM308 543q-16 0 -29 -8.5t-22 -21t-14.5 -27t-5.5 -26.5q1 -16 9 -28.5t30 -12.5q15 0 28.5 7t23.5 19t15.5 27t5.5 30q0 16 -9.5 28.5t-31.5 12.5zM315 239q0 17 -9.5 30t-32.5 13q-18 0 -35 -9
t-29.5 -23t-20 -31.5t-7.5 -33.5q0 -17 11.5 -29.5t35.5 -12.5q19 0 35 9t27.5 23t18 31t6.5 33z" />
    <glyph glyph-name="nine" unicode="9" horiz-adv-x="491" 
d="M478 535q11 -23 15 -54.5t4 -54.5q0 -39 -6.5 -86t-19.5 -94t-34 -92t-49.5 -79t-65.5 -55t-83 -21q-19 0 -44.5 5.5t-51 15.5t-48 22.5t-35.5 27.5q-17 18 -28.5 49.5t-11.5 60.5q0 8 2.5 15t12.5 12q6 3 21.5 6.5t33 6.5t32 5.5t18.5 2.5q16 0 19 -13q3 -11 7.5 -24
t11 -24t16 -18.5t22.5 -7.5q12 0 24 10t24 28t22.5 42.5t18.5 52.5v1q0 1 0.5 1t0.5 1q0 3 -2 3t-5 -3q-23 -20 -45.5 -27.5t-42.5 -7.5q-10 0 -28.5 6t-39 16t-38.5 23t-28 28q-12 18 -17.5 47t-5.5 56q0 35 11 79.5t35.5 83.5t63 65.5t93.5 26.5q23 0 55.5 -9.5t64.5 -27
t59.5 -43t41.5 -58.5zM257 357q16 0 29 12t22.5 30.5t15 40.5t5.5 42q0 25 -8.5 43.5t-28.5 18.5q-15 0 -28 -12.5t-22 -32t-14 -43t-5 -45.5t8 -38t26 -16z" />
    <glyph glyph-name="colon" unicode=":" horiz-adv-x="228" 
d="M74 183q48 0 74 -26.5t26 -63.5q0 -41 -24 -68.5t-68 -27.5t-63.5 26.5t-19.5 63.5q0 50 43 85q6 5 15 8t17 3zM130 521q48 0 74 -26.5t26 -63.5q0 -41 -24 -68.5t-68 -27.5t-63.5 26.5t-19.5 63.5q0 50 43 85q6 5 15 8t17 3z" />
    <glyph glyph-name="semicolon" unicode=";" horiz-adv-x="221" 
d="M130 521q48 0 74 -26.5t26 -63.5q0 -41 -24 -68.5t-68 -27.5t-63.5 26.5t-19.5 63.5q0 50 43 85q6 5 15 8t17 3zM153 139q16 -6 16 -23q0 -12 -8 -38.5t-20 -56.5t-25 -58t-22 -43q-4 -5 -9.5 -9t-13.5 -4q-7 0 -18 2t-22.5 5t-20.5 6t-13 5q-13 6 -13 18q0 6 2 12
q6 20 11.5 44.5t9.5 50.5t7 51.5t4 46.5q1 8 6 13t12 5t22.5 -2.5t33 -6.5t34.5 -9t27 -9z" />
    <glyph glyph-name="less" unicode="&#x3c;" horiz-adv-x="431" 
d="M408 511q4 -12 8 -29t7.5 -33.5t6 -30t2.5 -19.5q0 -8 -5 -14.5t-12 -8.5q-16 -6 -37.5 -14t-47 -17.5t-53 -19.5t-54.5 -20q-9 -3 -9 -8t7 -8l143 -77q14 -7 14 -19q0 -5 -4 -17.5t-9 -27t-11 -28.5t-10 -22q-6 -10 -21 -10q-6 0 -8 1q-2 0 -4 1q-21 8 -56.5 24.5
t-74.5 36.5t-76 40t-61 34q-6 4 -10.5 10.5t-4.5 14.5t2.5 24.5t6 35.5t7 37.5t6.5 30.5q2 12 7.5 21t23.5 17q13 6 38.5 16t57 22.5t65.5 25t64 22.5t52 16.5t30 6.5q15 0 20 -14z" />
    <glyph glyph-name="equal" unicode="=" horiz-adv-x="436" 
d="M71 431q2 8 10 15t17 8q32 4 87.5 6.5t117.5 2.5q31 0 56.5 -1t42.5 -3q19 -4 21 -24q0 -21 -2 -40.5t-5 -39.5q-2 -8 -9.5 -13t-15.5 -5q-23 0 -63.5 0.5t-84 0.5t-84 0.5t-64.5 0.5q-10 0 -17.5 5.5t-8.5 13.5t-1 17.5v19.5q0 14 0.5 19.5t2.5 16.5zM40 271
q2 8 10 15.5t17 8.5q32 4 87.5 6t117.5 2q31 0 56.5 -1t42.5 -4q8 -2 14 -7.5t7 -16.5q0 -20 -2 -40t-5 -39q-2 -8 -9.5 -13t-15.5 -5h-63.5t-84 0.5t-84 0.5h-64.5q-10 0 -17.5 5.5t-8.5 13.5t-1 13v15q0 14 0.5 24t2.5 22z" />
    <glyph glyph-name="greater" unicode="&#x3e;" horiz-adv-x="427" 
d="M34 102q-4 12 -8 29t-7.5 33.5t-6 30t-2.5 19.5q0 8 5 14.5t12 8.5q16 6 37.5 14t47 17.5t53 19.5t54.5 20q9 3 9 8q0 4 -7 8l-143 77q-14 7 -14 19q0 5 4 17.5t9 27t11 28.5t10 22q6 10 21 10q2 0 4 -0.5t4 -0.5q2 -1 4 -1q21 -8 56.5 -24.5t74.5 -36.5t76 -40t61 -34
q6 -4 10.5 -10.5t4.5 -14.5t-2.5 -24.5t-6 -35.5t-7 -37.5t-6.5 -30.5q-2 -12 -7.5 -21t-23.5 -17q-13 -6 -38.5 -16t-57 -22.5t-65.5 -25t-64 -22.5t-52 -16.5t-30 -6.5q-15 0 -20 14z" />
    <glyph glyph-name="question" unicode="?" horiz-adv-x="451" 
d="M256 202q-8 -10 -18 -10q-3 0 -9 2q-25 14 -51.5 35.5t-42.5 42.5q-7 9 -7 20q0 7 4 15q13 24 42.5 47t60.5 44.5t54.5 41.5t23.5 37q0 12 -7.5 21t-22.5 9q-20 0 -54.5 -16.5t-62.5 -51.5q-6 -8 -15 -8q-7 0 -11 4q-22 19 -43 46t-32 46q-5 8 -5 18q0 9 5 17
q10 14 28.5 33.5t44.5 37.5t58.5 30.5t70.5 12.5q43 0 81.5 -20.5t67.5 -54t46 -75.5t17 -85q0 -34 -12 -58.5t-31 -43.5t-43.5 -34l-49 -30t-47.5 -32.5t-40 -40.5zM138 183q48 0 74 -26.5t26 -63.5q0 -41 -24 -68.5t-68 -27.5t-63.5 26.5t-19.5 63.5q0 50 43 85q6 5 15 8
t17 3z" />
    <glyph glyph-name="at" unicode="@" horiz-adv-x="846" 
d="M841 404q-2 -67 -26.5 -122t-61 -94.5t-79 -61.5t-80.5 -22q-25 0 -56.5 21.5t-54.5 54.5q-5 6 -9 6q-6 0 -9 -6q-18 -29 -40 -49t-43 -20q-20 0 -42 11t-40 30t-30 44t-12 52q0 49 12 95t35 82t56 57.5t74 21.5q16 0 39.5 -5.5t49 -14.5t51 -20.5t44.5 -24.5
q11 -6 11 -19q0 -2 -0.5 -3t-0.5 -3q-1 -2 -1 -4q-6 -19 -12.5 -41t-12.5 -44t-10 -42.5t-4 -35.5q0 -28 16 -28q21 0 37 20t26.5 49t16 61.5t5.5 58.5q0 40 -15 77t-42 65.5t-65.5 45.5t-85.5 17q-62 0 -115 -31t-91 -82.5t-59.5 -117.5t-21.5 -136q0 -50 12.5 -94
t39 -76.5t68 -51.5t100.5 -19q57 0 97.5 15t59.5 26q1 0 3 1q4 2 6 2q11 0 15 -10q1 -4 6 -18t10.5 -31t9.5 -32.5t4 -21.5q0 -15 -11 -24q-14 -12 -35 -22.5t-45.5 -18.5t-51 -13t-52.5 -5q-41 0 -86 12.5t-88.5 36.5t-82.5 58.5t-68 78t-46.5 96t-17.5 111.5q0 94 28 184
t78.5 160.5t121.5 114t158 43.5q41 0 87.5 -13t92 -36t88 -55t74.5 -70.5t51.5 -81.5t19.5 -88zM396 264q0 -15 4 -23.5t9 -8.5q6 0 16 7t22 17q12 9 15 28q1 11 4 27.5t6 31.5t5 26t2 12q0 8 -5 12t-10 4q-18 0 -30.5 -14.5t-21 -35t-12.5 -43.5t-4 -40z" />
    <glyph glyph-name="A" unicode="A" horiz-adv-x="538" 
d="M470 637q16 -8 19 -26q2 -15 4 -43.5t3.5 -66t2 -82t0.5 -90.5q0 -47 -0.5 -93t-2 -87.5t-3.5 -75.5t-5 -56q-1 -7 -6 -11.5t-17 -4.5q-8 0 -25.5 2t-37.5 5t-37.5 6t-24.5 5t-11.5 8.5t-4.5 14.5l2 50l2 50q0 14 -16 14q-4 0 -17 -0.5t-29.5 -1t-33.5 -1.5t-28 -1
q-10 -1 -14 -4.5t-9 -14.5q-6 -14 -12 -30t-11.5 -31.5t-10 -29.5t-8.5 -24q-5 -12 -18 -12q-8 0 -23 5t-32 11.5t-32.5 14t-22.5 12.5q-13 7 -13 22v6q0 2 1 3l12 36t13 41q2 6 2 12q0 7 -2 18.5t-4 23.5t-4 22.5t-2 15.5q0 14 13 20q9 3 12 3t9 2q10 2 15 7t10 13
q9 19 23 49.5t29.5 65.5t32.5 72t33.5 70.5t31 59.5t26.5 40q10 10 19 10q11 0 27 -4t24 -4q9 0 12 13q2 13 12 13q7 0 24 -4.5t36.5 -11t37.5 -13.5t29 -13zM246 312q-1 -1 -1 -2q-1 -1 -1 -5q0 -9 13 -9q2 0 10 0.5t18 0.5t18.5 0.5t11.5 0.5q8 0 12 3.5t6 14.5
q1 21 1 46.5v50.5v78q0 11 -4 11q-2 0 -3 -2l-2 -4q-17 -37 -36.5 -84.5t-42.5 -99.5z" />
    <glyph glyph-name="B" unicode="B" horiz-adv-x="527" 
d="M300 681q45 0 89 -19.5t79 -48t56.5 -62t21.5 -61.5q0 -58 -32 -96t-78 -62q-8 -3 -8 -10q0 -6 6 -10q29 -23 50.5 -56t21.5 -62q0 -38 -21.5 -72t-58.5 -60.5t-85 -43t-101 -17.5h-17t-26.5 0.5t-27 1.5t-18.5 3q-17 6 -36.5 21.5t-37 33.5t-31.5 35.5t-21 27.5
q-7 11 -7 21q0 19 6.5 64.5t16.5 103t23 118.5t25 111q1 3 2 9t1 11q0 10 -0.5 27.5t-0.5 25.5q0 13 14 19q15 8 39.5 16.5t51.5 15t54.5 11t49.5 4.5zM204 269q-1 -5 -4 -20.5t-6 -32.5t-5 -31.5t-2 -18.5q0 -13 16 -13q15 0 36.5 5t42 14.5t34.5 25t14 36.5q0 17 -7.5 27
t-18 15.5t-22 7.5t-19.5 2h-15t-24 -1q-7 0 -12.5 -4t-7.5 -12zM261 533q-2 -5 -5.5 -19.5t-8 -33.5t-8.5 -38.5t-7 -32.5q0 -10 12 -10q19 0 42.5 7t44 19.5t34.5 30.5t14 40q0 17 -8.5 28t-21.5 17t-28 8.5t-28 2.5q-11 0 -19 -3t-13 -16z" />
    <glyph glyph-name="C" unicode="C" horiz-adv-x="506" 
d="M361 386q-14 0 -14 12q0 3 2.5 13.5t5.5 24t5.5 28t2.5 25.5q0 20 -5.5 32.5t-20.5 12.5q-20 0 -43 -24t-42 -61.5t-31.5 -83.5t-12.5 -91q0 -58 22.5 -83.5t52.5 -25.5q17 0 35.5 5.5t36 13.5t33 17t26.5 16q5 4 13 4q12 0 15 -10q7 -19 16 -47t14 -46q2 -8 2 -11
q0 -12 -9 -21q-17 -16 -36.5 -31.5t-41 -28t-46.5 -20t-52 -7.5q-25 0 -54 7t-57.5 20t-54.5 31.5t-46 42.5q-24 29 -34 73.5t-10 91.5q0 69 20 142t56 133t86.5 98t112.5 38q14 0 36.5 -6t47.5 -16t51 -24.5t46.5 -32t33.5 -37t13 -40.5q0 -15 -3.5 -32t-8.5 -33.5
t-10 -29.5t-8 -20q-6 -15 -24 -16q-9 -1 -26 -1.5t-35 -1t-34.5 -0.5h-25.5z" />
    <glyph glyph-name="D" unicode="D" horiz-adv-x="563" 
d="M205 1q-11 0 -22.5 1.5t-23.5 7.5q-11 6 -28 18.5t-35 28.5t-35.5 33t-29.5 31q-7 7 -7 22q1 25 5 60t10.5 75t14 81.5t15 77.5t14 64.5t10.5 43.5q2 10 2 17v11.5t-0.5 15t-0.5 14.5v10q0 17 13 22q48 20 95 32t83 12q55 0 106.5 -27t90.5 -70t62.5 -97.5t23.5 -109.5
q0 -72 -29 -138t-79 -117.5t-116 -83.5t-139 -35zM206 173q40 0 75.5 21t62.5 55.5t43 80t16 94.5q0 25 -9 44.5t-23.5 33.5t-34 21.5t-40.5 7.5q-13 0 -22 -4t-12 -16q-7 -28 -16.5 -70.5t-19.5 -88.5t-18.5 -90.5t-12.5 -76.5v-2q0 -10 11 -10z" />
    <glyph glyph-name="E" unicode="E" horiz-adv-x="456" 
d="M202 247q-2 -4 -4 -14t-3.5 -21t-3 -20.5t-1.5 -11.5q0 -13 11 -13q4 0 25 1.5t46.5 3.5t50 3.5t36.5 1.5q9 0 17 -6t11 -13q4 -10 9.5 -28t10.5 -36.5t8.5 -34t3.5 -20.5q0 -15 -16 -17q-35 -3 -81.5 -7t-89.5 -7t-74.5 -5.5t-35.5 -2.5q-9 0 -17 3t-13 8
q-17 17 -34 46.5t-33 55.5q-6 9 -6 21q0 25 5 63.5t12 82t16 88.5t17 83.5t14.5 66.5t9.5 39q0 4 1 8q2 10 2 15q0 7 -0.5 26.5t-0.5 30.5q0 9 5.5 14t13.5 7q19 4 51.5 8t71.5 7t81 4.5t79 1.5h37t31 -2q8 -1 15 -5.5t9 -14.5q2 -11 3.5 -26t2 -30.5t1.5 -31t1 -26.5
q0 -9 -5 -13.5t-13 -5.5l-206 -11q-14 -1 -20 -15q-2 -5 -5 -16.5t-5.5 -24l-4.5 -22.5l-2 -10q0 -13 14 -13q6 0 24 1t38 2t38 2t24 1q11 0 17 -6t8 -14q2 -11 4.5 -27t4.5 -31.5t3.5 -28.5t1.5 -19q0 -8 -6 -12.5t-14 -4.5q-14 -1 -34 -2t-42.5 -2.5t-46.5 -3.5t-45 -4
q-17 -1 -23 -16z" />
    <glyph glyph-name="F" unicode="F" horiz-adv-x="446" 
d="M488 538q0 -8 -6 -14t-14 -6q-26 -2 -78 -4.5t-108 -6.5q-17 0 -20 -16q-1 -3 -4.5 -17.5t-7.5 -31t-7 -30.5t-3 -18q0 -11 13 -11q2 0 19 0.5t37.5 1.5t40.5 1.5t28 0.5q11 0 15.5 -6.5t6.5 -14.5q1 -11 3 -25.5t3.5 -30t2.5 -30.5t1 -25q0 -8 -6.5 -13t-14.5 -6
q-13 0 -32.5 -1t-42 -2.5t-45.5 -3t-43 -2.5q-8 -1 -15 -5t-9 -15q-9 -46 -15 -95t-11 -96q-2 -6 -5.5 -10.5t-11.5 -4.5q-10 0 -27.5 3.5t-36.5 9t-35.5 11t-24.5 8.5q-16 6 -18 27q0 42 8 106.5t20.5 136t27.5 142.5t30 126q0 2 1 5q0 2 0.5 4.5t0.5 6.5q0 2 -0.5 9
t-1 15.5t-1 16t-0.5 10.5q0 9 6 14t14 7q18 4 45.5 8t60.5 7t69.5 5t71.5 2q26 0 49 -1t40 -4q20 -3 23 -22q2 -11 3 -26.5t2 -32t1.5 -32t0.5 -25.5z" />
    <glyph glyph-name="G" unicode="G" horiz-adv-x="540" 
d="M293 -2q-32 0 -65 10t-62.5 25t-53 32.5t-35.5 32.5q-24 31 -34 73t-10 86q0 69 19 143t54 135.5t85.5 101.5t112.5 40q24 0 64.5 -9.5t80 -29t69 -48.5t29.5 -67q0 -12 -2.5 -24.5t-6.5 -24t-7.5 -21t-5.5 -14.5q-3 -8 -9.5 -12t-14.5 -5q-9 0 -25 -0.5t-33.5 -0.5h-33
h-23.5q-19 0 -19 22q0 5 2.5 22t2.5 37q0 16 -7.5 27t-21.5 11q-25 0 -49 -25t-43 -65t-31 -90t-12 -100q0 -59 21.5 -84t47.5 -25q14 0 28 6.5t25 17t18 23.5t7 25q0 7 -11 7q-16 -1 -22 -1.5t-14 -0.5q-7 0 -14.5 4.5t-9.5 15.5q-4 20 -6 45t-2 42q0 18 20 21q22 3 58 5
t71 2h23.5t20.5 -1t15.5 -6.5t9.5 -13.5q4 -12 8.5 -32t9 -41t7.5 -38.5t3 -22.5q0 -14 -4 -23q-9 -24 -26.5 -56.5t-45.5 -61.5t-66 -49t-87 -20z" />
    <glyph glyph-name="H" unicode="H" horiz-adv-x="535" 
d="M425 660q2 6 7.5 10.5t13.5 4.5q4 0 22.5 -4.5t40.5 -10.5t41.5 -12t26.5 -9q13 -5 13 -18q0 -1 -0.5 -2t-0.5 -2v-2q-12 -35 -28 -99.5t-33.5 -146t-33 -172.5t-25.5 -179q-2 -15 -17 -15q-10 0 -29 4t-38.5 9.5t-36 11t-21.5 7.5q-16 7 -17 27q0 9 1.5 30t4 42.5t4 39
t1.5 20.5q0 12 -12 12q-3 0 -13 -0.5t-23 -1t-27 -1t-24 -1.5q-17 -2 -20 -18q-3 -20 -6.5 -44t-6.5 -46.5t-6 -42.5t-4 -33q-1 -8 -7 -12t-13 -4q-9 0 -27 4t-37.5 9.5t-36 11t-22.5 8.5q-15 6 -16 27q1 25 4 58.5t8 73.5q0 2 0.5 4t0.5 4q0 6 -3 21t-6.5 31.5t-6.5 30.5
t-3 19q0 8 4 14.5t17 9.5q21 5 23 20q9 50 19 98t20.5 89t19.5 73.5t17 51.5q6 14 24 14q7 0 25.5 -4t38.5 -10t38.5 -12t26.5 -9q13 -5 13 -18q0 -1 -0.5 -2t-0.5 -2v-2q-13 -34 -28.5 -97t-33.5 -145q-1 -1 -1 -3v-5q0 -13 15 -13q10 0 22.5 0.5t24.5 1t20.5 0.5h11.5
q8 0 13.5 5.5t7.5 12.5q9 46 19 90t20 82.5t18.5 68t16.5 47.5z" />
    <glyph glyph-name="I" unicode="I" horiz-adv-x="234" 
d="M168 18q-2 -15 -17 -15q-11 0 -29.5 4t-37.5 9t-35 10.5t-21 7.5q-8 3 -11.5 11t-3.5 16q0 35 6 87t15 111t20.5 120t23.5 116t24.5 98.5t22.5 66.5q5 14 21 14q5 0 23 -4.5t39.5 -10.5t40.5 -12t26 -8q14 -5 14 -19q0 -1 -0.5 -1.5t-0.5 -1.5v-2q-12 -35 -28 -99.5
t-33.5 -146t-33 -172.5t-25.5 -179z" />
    <glyph glyph-name="J" unicode="J" horiz-adv-x="454" 
d="M141 289q9 0 13 -5t5 -12q2 -24 5 -47.5t7 -41.5t9.5 -29t11.5 -11q16 0 30 29t26.5 74.5t23 102t19.5 111t15.5 101t10.5 72.5l3 19q1 7 6.5 11t12.5 4q3 0 22 -2.5t41.5 -6t43.5 -7t28 -5.5q8 -2 11 -8.5t3 -13.5t-3 -31.5t-8 -61t-12 -80.5t-16 -90t-19 -90t-21 -80
q-30 -99 -78.5 -146t-99.5 -47q-11 0 -36 2.5t-53.5 11t-56.5 24.5t-46 43q-7 11 -13.5 29t-11.5 39t-8 42.5t-3 38.5v10q2 17 17 23q6 2 24 6.5t38 9t37.5 8.5t21.5 4z" />
    <glyph glyph-name="K" unicode="K" horiz-adv-x="525" 
d="M572 572q5 -7 5 -12q0 -8 -7 -15q-14 -14 -36 -38.5t-48 -54t-55 -61.5t-57 -62q-5 -7 -5 -14q0 -6 3 -12q13 -26 29 -54t32.5 -53.5t32.5 -47.5t30 -35q8 -6 8 -14t-6 -12q-11 -9 -26 -21t-32.5 -24t-34.5 -22t-30 -15q-2 -1 -5.5 -2t-8.5 -1q-7 0 -11 2t-9 6
q-19 18 -35 46.5t-29.5 60t-23.5 62.5t-17 52q-2 6 -5.5 11.5t-9.5 5.5h-4q-12 0 -15 -17q-9 -53 -17.5 -107.5t-13.5 -106.5q-2 -15 -17 -15q-6 0 -23 4t-37 9t-38 10.5t-25 8.5q-11 5 -14.5 12t-3.5 15q0 30 5.5 79.5t15 108t21.5 121.5t24.5 119.5t24.5 101.5t22 69
q4 13 21 13q4 0 21 -3.5t37 -9t40.5 -11.5t32.5 -10q14 -5 14 -19q0 -1 -0.5 -1.5t-0.5 -1.5v-2q-11 -31 -25 -85.5t-31 -125.5q-1 -2 -1 -3v-3q0 -10 8 -10q5 0 10.5 4t10.5 10q25 34 51 72t50 73t44 65t34 48q6 9 17 9q5 0 10 -3q10 -7 23.5 -17.5t27.5 -23t27.5 -26.5
t24.5 -27z" />
    <glyph glyph-name="L" unicode="L" horiz-adv-x="418" 
d="M347 183q20 0 27 -18q2 -6 6.5 -24.5t9 -39t7.5 -38t3 -21.5q0 -8 -5 -12t-13 -5q-14 -1 -36 -3.5t-48 -5t-53.5 -5t-51.5 -4.5l-42 -3.5t-25 -1.5t-13.5 2t-12.5 8q-9 10 -19 24t-20 29t-18.5 28.5t-12.5 22.5q-8 16 -8 31q0 18 4.5 54t12 82t17.5 98t21.5 102.5
t24 96.5t24.5 80q6 14 22 14q7 0 24.5 -3.5t37 -9t39 -11.5t31.5 -10q12 -5 12 -20q0 -1 -0.5 -2t-0.5 -2v-2q-9 -26 -20.5 -69.5t-24.5 -99.5t-26 -120.5t-24 -130.5q-1 -2 -1 -3v-3q0 -14 14 -14q4 0 24.5 1.5t44.5 3t44.5 3t24.5 1.5z" />
    <glyph glyph-name="M" unicode="M" horiz-adv-x="665" 
d="M171 18q-2 -15 -16 -15q-9 0 -28.5 4.5t-40 10t-37.5 10.5t-21 7q-13 7 -15 26q1 35 8 86.5t17 110t22.5 120t26 116t26 98t22.5 66.5q7 14 21 14q15 0 38.5 -3.5t49 -9t49.5 -13t42 -14.5q17 -9 17 -28t-0.5 -52t-1 -69.5t-1.5 -72t-1 -60.5q0 -8 2 -8q1 0 3 3l2 4
q13 37 27.5 77.5t30 81.5t32 80t34.5 74q4 6 10 10.5t15 4.5q16 0 43.5 -5t57.5 -12.5t57 -16t41 -15.5q14 -6 14 -20q0 -2 -0.5 -2.5t-0.5 -1.5v-2q-13 -37 -29.5 -100.5t-33 -142.5t-32 -167.5t-25.5 -173.5q-2 -15 -16 -15q-5 0 -23 4t-39 9.5t-39.5 11t-24.5 7.5
q-8 3 -12 10.5t-5 15.5q0 20 4 51.5t9.5 68t12 73.5t12.5 68.5t10 53t5 27.5q0 4 -2 4q-3 0 -6 -6q-11 -33 -22.5 -70t-23.5 -75t-24.5 -76t-24.5 -72q-7 -16 -22 -16q-6 0 -20 3t-30 8t-31.5 10.5t-25.5 10.5t-13 13t-4 16q-1 14 -2 35.5t-1.5 46t-1 50t-0.5 47.5v36t1 24
q0 7 -4 7q-1 0 -3 -4q-1 -2 -1 -3q-9 -40 -17.5 -85.5t-15.5 -94t-13 -98t-12 -96.5z" />
    <glyph glyph-name="N" unicode="N" horiz-adv-x="535" 
d="M427 660q2 7 8 10t14 3q7 0 25 -3.5t38 -8.5t38.5 -10.5t26.5 -9.5q13 -7 13 -20q0 -1 -0.5 -2t-0.5 -2v-2q-11 -35 -28 -99.5t-34.5 -146t-33.5 -172.5t-25 -179q-1 -8 -6.5 -12t-12.5 -4q-9 0 -31 3t-47 7.5t-48.5 10t-36.5 11.5q-9 4 -14.5 11t-7.5 15
q-6 18 -11.5 60.5t-10 91.5t-8.5 94.5t-6 69.5q0 7 -4 7q-3 0 -4 -7q-14 -79 -28 -172.5t-24 -184.5q-1 -8 -6.5 -12.5t-12.5 -4.5t-23 3.5t-34.5 8.5t-35.5 10.5t-26 9.5t-13 12t-4 16q1 35 7.5 86.5t16.5 110t22 119.5t24.5 115.5t24 98t21.5 67.5q6 15 23 15q7 0 28 -3
t47 -7.5t51 -10t39 -11.5q10 -5 15 -12t6 -15q2 -23 4 -61.5t4 -80t3.5 -79.5t2.5 -59q0 -8 4 -8q2 0 4 8q7 49 15.5 99t17.5 93.5t17.5 78t16.5 54.5z" />
    <glyph glyph-name="O" unicode="O" horiz-adv-x="569" 
d="M343 531q-26 0 -50.5 -25t-43 -64.5t-30 -87.5t-11.5 -93q0 -34 5.5 -55.5t14.5 -34t20.5 -17.5t22.5 -5q27 0 50.5 25t41.5 65.5t28.5 91t10.5 101.5q0 44 -16 71.5t-43 27.5zM291 -1q-29 0 -61 8.5t-62 23t-55 33t-38 38.5q-24 34 -33 80t-9 87q0 31 7 73.5t21 87.5
t36 89t53 78.5t70.5 56t88.5 21.5q18 0 50.5 -9t67.5 -24.5t65.5 -36.5t45.5 -44q22 -35 29 -75t7 -81q0 -35 -7 -79t-22 -89t-37.5 -88t-54 -76t-72 -53.5t-90.5 -20.5z" />
    <glyph glyph-name="P" unicode="P" horiz-adv-x="528" 
d="M112 640q29 11 78.5 24t107.5 13q49 0 94.5 -23.5t80.5 -60t56 -80.5t21 -85q0 -51 -25 -98.5t-63 -83.5t-83.5 -57.5t-88.5 -21.5q-11 0 -31.5 6.5t-41.5 15.5q-2 1 -4.5 2t-4.5 1q-9 0 -11 -13q-6 -41 -11.5 -81t-10.5 -80q-2 -16 -17 -16q-7 0 -24.5 4t-37.5 9.5
t-37.5 10.5t-24.5 8q-11 4 -14.5 11.5t-4.5 15.5q0 40 7.5 99.5t19.5 126.5t26.5 134.5t28.5 123.5q2 8 2 18.5v18.5l-2 32q0 8 4 15.5t11 10.5zM224 325q-1 -1 -1 -2v-5q0 -10 10 -10q25 0 51.5 15t48.5 37.5t35.5 50t13.5 53.5q0 35 -22.5 52t-56.5 17q-11 0 -22 -3
t-15 -16z" />
    <glyph glyph-name="Q" unicode="Q" horiz-adv-x="569" 
d="M291 -1q-29 0 -61 8.5t-62 23t-55 33t-38 38.5q-24 34 -33 80t-9 87q0 31 7 73.5t21.5 87.5t37 89t53.5 78.5t71 56t89 21.5q18 0 50 -9t66.5 -24.5t64.5 -36.5t45 -44q22 -35 29 -75t7 -81q0 -31 -5.5 -68t-16.5 -76t-28 -78t-40 -72l-2 -4q-2 -4 -2 -9t4 -11q2 -3 4 -5
q7 -8 16 -19.5t18.5 -22.5t17.5 -21.5t14 -17.5q7 -9 7 -17q0 -10 -9 -18q-8 -8 -21 -18t-27.5 -20t-29.5 -18t-27 -12q-8 -3 -13 -3q-13 0 -23 16q-4 6 -11.5 17t-15.5 23t-15.5 24t-11.5 20q-6 9 -15 9q-5 0 -21.5 -2.5t-29.5 -2.5zM346 235q11 6 14.5 9.5t8.5 11.5
q15 38 23.5 84t9.5 92q0 44 -16 71.5t-43 27.5q-26 0 -50.5 -25t-43 -64.5t-30 -87.5t-11.5 -93q0 -33 5.5 -55t14 -34.5t19.5 -17.5t22 -5q8 0 8 8t-4.5 16.5t-4.5 16.5q0 6 4 9q3 2 14.5 8t25.5 12z" />
    <glyph glyph-name="R" unicode="R" horiz-adv-x="535" 
d="M402 251q-11 -5 -11 -14q0 -4 3 -8q22 -34 47 -66.5t48 -53.5q6 -6 6 -14q0 -7 -6 -13q-10 -9 -24.5 -20t-30.5 -22t-32 -20.5t-29 -14.5q-6 -2 -10 -2q-12 0 -22 8q-20 17 -37.5 42t-31 52.5t-23 55t-15.5 49.5q-2 7 -5 12.5t-10 5.5q-12 0 -15 -14q-8 -49 -16 -98.5
t-13 -97.5q-3 -16 -17 -16q-7 0 -24 3.5t-36.5 9t-37 11t-26.5 9.5q-11 5 -14 11.5t-4 14.5q0 41 8 102.5t20 130t26.5 137t28.5 124.5q2 6 3 13.5t1 11.5q0 5 -0.5 18.5t-0.5 21.5t4.5 13.5t10.5 7.5q28 11 75 23.5t112 12.5q47 0 92 -22.5t80 -56t56.5 -73t21.5 -73.5
q0 -35 -11.5 -66t-32 -56.5t-48.5 -45.5t-60 -33zM290 531q-8 0 -15 -4.5t-9 -12.5q-3 -14 -9 -39t-11.5 -49.5t-9.5 -43t-4 -20.5q0 -12 13 -12q28 0 51.5 11.5t41 28.5t27.5 37t10 38q0 36 -25.5 51t-59.5 15z" />
    <glyph glyph-name="S" unicode="S" horiz-adv-x="491" 
d="M465 193q0 -39 -17 -74.5t-46 -62.5t-67.5 -43.5t-81.5 -16.5q-18 0 -43.5 4.5t-52 12.5t-50 19t-38.5 24q-31 26 -42 57.5t-16 65.5q-1 2 -1 4v7q0 17 16 27q48 18 77 23t34 5q8 0 13 -4.5t7 -9.5q14 -38 34 -60.5t51 -22.5q29 0 41 9.5t12 20.5q0 17 -21 31t-51 29
q-26 13 -55 29.5t-53.5 39t-40.5 52.5t-16 71q0 39 16.5 82t45 79t66 59.5t80.5 23.5q29 0 72.5 -11.5t84 -32.5t69.5 -50t29 -65q0 -13 -3.5 -28.5t-9 -30.5t-10.5 -27.5t-8 -18.5q-5 -10 -10 -13t-15 -4q-9 -2 -25.5 -2.5t-33 -1.5t-30.5 -1h-20q-14 0 -19.5 4.5
t-5.5 10.5q0 3 2.5 13t5 23t5 27.5t2.5 25.5q0 23 -7.5 32.5t-21.5 9.5q-16 0 -30 -10t-25 -24.5t-17.5 -30.5t-6.5 -29q0 -14 7 -25t18.5 -20t25.5 -16.5t28 -15.5q30 -17 56.5 -31t47 -32t32.5 -43t12 -64z" />
    <glyph glyph-name="T" unicode="T" horiz-adv-x="473" 
d="M503 671q19 -4 21 -22q1 -11 1.5 -26.5t0.5 -33.5q0 -22 -0.5 -42.5t-1.5 -34.5q-2 -16 -22 -18l-98 -5q-20 -1 -23 -18q-23 -93 -45 -212t-36 -241q-2 -15 -17 -15q-5 0 -23.5 4t-39.5 9t-40 10.5t-26 8.5q-8 3 -12 10.5t-4 15.5q2 45 8.5 97.5t15.5 106t19.5 105.5
t20.5 96v3q0 1 0.5 1.5t0.5 1.5q0 10 -14 10l-11.5 -0.5t-25 -1t-25.5 -1t-14 -0.5q-10 0 -15.5 5t-6.5 13q-2 11 -3 31t-2 41t-1.5 38.5t-0.5 23.5q0 8 5 14.5t16 8.5q21 3 57.5 7t80.5 7t91.5 5t89.5 2q27 0 44.5 -1t34.5 -3z" />
    <glyph glyph-name="U" unicode="U" horiz-adv-x="527" 
d="M532 631q10 -4 15 -11t5 -14v-16q0 -41 -6 -101t-19.5 -125.5t-34.5 -130.5t-50.5 -117t-69 -84t-88.5 -32q-23 0 -53 6.5t-60.5 18.5t-57.5 29t-43 39q-18 25 -26 60.5t-8 72.5q0 63 10 128.5t24.5 123.5t30.5 104t28 69q10 18 28 18q7 0 22.5 -3t33 -8t35 -10.5
t29.5 -10.5q13 -5 13 -18q0 -1 -0.5 -2t-0.5 -3q-1 -2 -1 -3q-14 -41 -29 -96.5t-27 -111t-20 -104.5t-8 -78q0 -32 11 -51t30 -19q15 0 26.5 10.5t21.5 29t18.5 44t16.5 55.5q13 46 24 99.5t19.5 103.5t14.5 91t9 62q3 16 18 16q6 0 22.5 -4t35.5 -9t36.5 -10t24.5 -8z" />
    <glyph glyph-name="V" unicode="V" horiz-adv-x="521" 
d="M88 108q-4 41 -5.5 92t-2 104.5t1 107t4 101t6.5 85t9 59.5q2 6 7 11t13 5q9 0 27 -3t37.5 -7.5t38 -10t28.5 -10.5q11 -5 14 -12t3 -15q0 -2 -0.5 -3.5t-0.5 -3.5v-4q-4 -27 -7.5 -68.5t-6 -94t-4 -115t-0.5 -131.5v-3q0 -3 3 -3q2 0 4 2q1 1 1 3q19 60 40.5 126.5
t43.5 129.5t41.5 117.5t33.5 90.5q5 13 18 13q8 0 27.5 -7.5t41 -17t40.5 -19.5t25 -15q11 -9 11 -20q0 -2 -0.5 -3.5t-0.5 -2.5v-2q-11 -31 -29.5 -79.5t-41 -105t-47 -116t-47 -112.5t-41.5 -95.5t-31 -63.5q-3 -6 -10.5 -9.5t-14.5 -3.5q-19 0 -48 8t-59.5 19.5t-59 25.5
t-45.5 26q-8 6 -11.5 12.5t-5.5 17.5z" />
    <glyph glyph-name="W" unicode="W" horiz-adv-x="743" 
d="M370 103q-1 14 -1 31.5v39.5t0.5 46.5t1.5 52.5q0 2 -0.5 5.5t-2.5 3.5q-1 0 -2 -1t-3 -8q-11 -39 -21.5 -79.5t-20 -76t-18 -63.5t-16.5 -42q-3 -6 -10.5 -9.5t-14.5 -3.5q-19 0 -44.5 8t-51.5 19t-49 24t-35 24q-8 7 -11.5 13t-5.5 17q-2 22 -3 46.5t-1 50.5
q0 63 4 131.5t10.5 131.5t14 114.5t13.5 78.5q2 6 7 11t13 5q9 0 27 -2t37.5 -5.5t38 -8.5t28.5 -10q11 -5 14 -12t3 -15q0 -2 -0.5 -3.5t-0.5 -3.5v-4q-4 -27 -10.5 -77.5t-13.5 -110t-13 -119.5t-8 -107v-3q0 -3 3 -3q2 0 4 2q1 1 1 3q17 60 36 125t38 126t36.5 114
t31.5 89q5 13 18 13q12 0 28 -3.5t32.5 -9t32 -12t27.5 -12.5q19 -10 19 -24q0 -2 -0.5 -3.5t-0.5 -3.5v-4q-4 -27 -10 -74.5t-12.5 -103t-12 -112.5t-7.5 -104v-3q0 -3 3 -3q2 0 4 2q1 1 1 3q17 58 36.5 124.5t39 130t37.5 118.5t32 91q5 13 18 13q8 0 27 -7.5t40 -17
t39 -19.5t24 -15q11 -9 11 -20q0 -2 -0.5 -3.5t-0.5 -2.5v-2q-15 -41 -33.5 -94t-38 -109t-39 -113t-37.5 -106.5t-32.5 -89t-24.5 -60.5q-3 -6 -10.5 -9.5t-14.5 -3.5q-19 0 -43.5 6t-50 15.5t-49.5 22t-40 25.5q-8 6 -11.5 15t-5.5 20z" />
    <glyph glyph-name="X" unicode="X" horiz-adv-x="553" 
d="M102 7q-6 -6 -15 -6q-7 0 -12 4q-10 9 -21 22t-22 26.5t-20.5 27t-15.5 24.5q-1 1 -2 3t-1 9q0 10 9 19q12 14 30.5 35.5t41 46.5t46 51t45.5 50q8 8 8 14q0 4 -1.5 8t-3.5 7q-11 23 -24.5 58.5t-25 71.5t-19.5 66t-8 41q0 16 13 23q9 6 25 14.5t34 17.5t36.5 17.5
t33.5 13.5h2q1 0 1.5 0.5t2.5 0.5q11 0 14 -13q8 -27 19.5 -75.5t33.5 -103.5q3 -6 8 -6q4 0 10 6q20 24 43 51.5t44.5 53t39.5 47t28 33.5q7 7 16 7q8 0 13 -4q10 -8 23 -21.5t26.5 -29t25 -31t19.5 -27.5q4 -6 4 -12q0 -5 -2.5 -8.5t-6.5 -7.5q-52 -46 -102.5 -99.5
t-97.5 -101.5q-9 -9 -9 -18q0 -4 3 -10q24 -47 53 -95.5t63 -86.5q7 -7 7 -16q0 -6 -5 -13q-10 -11 -23.5 -23.5t-28 -24.5t-29 -22t-24.5 -16l-4 -2q-2 -1 -9 -1q-6 0 -10.5 2.5t-8.5 5.5q-20 20 -47 62.5t-60 102.5q-4 7 -11 7t-11 -6l-141 -169v0z" />
    <glyph glyph-name="Y" unicode="Y" horiz-adv-x="521" 
d="M425 659q5 13 18 13q8 0 27 -8t40 -18.5t40 -21.5t27 -18q10 -9 10 -20q0 -4 -2 -10q-24 -66 -61.5 -145t-81.5 -157t-90 -148t-86 -117q-7 -9 -20 -9q-4 0 -10 2q-14 5 -31 13t-34 16.5t-32.5 17t-25.5 15.5q-6 4 -6 13q0 5 3 10q1 3 3 4q14 18 40 50.5t55 74.5q3 4 3 8
q0 7 -12 12q-8 3 -14.5 5.5t-11.5 5.5q-8 3 -14 10.5t-8 14.5q-10 32 -19.5 74t-17.5 89t-14.5 97t-10.5 100q0 8 4.5 14.5t13.5 8.5q13 3 33.5 6.5t41.5 5.5t38.5 3.5t25.5 1.5q7 0 11.5 -5t5.5 -13q1 -23 3.5 -58.5t6.5 -74.5t8.5 -76.5t9.5 -63.5q1 -9 5 -9q3 0 6 6
q32 63 63 134t60 147z" />
    <glyph glyph-name="Z" unicode="Z" horiz-adv-x="479" 
d="M466 670q8 0 15.5 -4.5t10.5 -12.5q5 -12 10.5 -30t9.5 -37t6.5 -36.5t2.5 -26.5q0 -16 -12 -26q-20 -17 -51 -50.5t-68.5 -75t-78 -87.5t-78.5 -89q-3 -5 -3 -7q0 -6 7 -6q2 0 20 0.5t40.5 1.5t44 1.5t29.5 0.5q11 0 18.5 -5t9.5 -12q3 -11 7 -30t7.5 -38.5t5.5 -36
t2 -22.5q0 -7 -5 -12t-14 -5q-18 0 -47.5 -2t-64.5 -4t-71.5 -5t-67 -5t-52 -3.5t-26.5 -1.5q-8 0 -15.5 3.5t-11.5 11.5q-5 11 -13 31t-16 41t-14 40t-6 29q0 12 6 23q19 26 48.5 64.5t64.5 82t73.5 88t74.5 81.5q0 1 1 2q2 2 2 5q0 5 -9 5q-10 0 -29.5 -1t-40.5 -1.5
t-39 -1.5t-25 -1q-12 0 -18.5 5.5t-8.5 13.5q-3 19 -6 46.5t-3 52.5q0 8 4 14.5t12 8.5q24 4 66.5 8t91.5 7.5t97 5.5t83 2h24z" />
    <glyph glyph-name="bracketleft" unicode="[" horiz-adv-x="298" 
d="M349 609q-4 -19 -23 -21h-24.5t-29.5 -2q-18 -1 -21 -19q-6 -25 -15 -65t-19 -85.5t-20.5 -92t-19 -86t-13.5 -66.5t-5 -33q0 -7 4 -12t11 -5q17 1 33 1h29q8 0 13.5 -5.5t5.5 -13.5q0 -4 -1 -15t-2.5 -24.5t-3.5 -27.5t-3 -24q-2 -10 -8.5 -16t-14.5 -6
q-12 -1 -28.5 -2.5t-34.5 -3t-35.5 -2.5t-30.5 -1q-12 0 -19 3t-13 11q-11 14 -26.5 35t-25.5 42q-6 12 -6 27v6q0 2 1 4q4 32 13 81t20.5 106.5t24.5 118t25.5 115.5t23 99.5t16.5 69.5q5 19 24 21q18 2 46.5 2.5t58.5 0.5q26 0 49.5 -0.5t39.5 -2.5q7 -1 12 -6t5 -13
q0 -4 -1.5 -15.5t-3.5 -26t-4 -28.5t-4 -23z" />
    <glyph glyph-name="backslash" unicode="\" horiz-adv-x="474" 
d="M437 62q0 -2 0.5 -2.5t0.5 -2.5q0 -6 -2.5 -12.5t-7.5 -9.5q-9 -6 -25 -13.5t-32 -13.5t-29.5 -10.5t-17.5 -4.5q-8 0 -14.5 4.5t-8.5 10.5q-20 41 -41.5 100.5t-43.5 126t-41.5 134.5t-34.5 126t-24 100.5t-9 58.5q0 17 11 25q6 4 22.5 11.5t35.5 15t36.5 12.5t25.5 5
q6 0 10.5 -5t5.5 -12q6 -35 22.5 -104t40.5 -157t54.5 -186.5t65.5 -193.5v-3z" />
    <glyph glyph-name="bracketright" unicode="]" horiz-adv-x="316" 
d="M6 97q4 19 23 21h24.5t29.5 2q18 1 21 19q6 25 15 65t19 85.5t20.5 92t19 86t13.5 66.5t5 33q0 7 -4 12t-11 5q-17 -1 -33 -1h-29q-8 0 -13.5 5.5t-5.5 13.5q0 4 1 15t2.5 24.5t3 27.5t3.5 24t8.5 16t14.5 6q12 1 28.5 2.5t34.5 3t35.5 2.5t30.5 1q12 0 19 -3t13 -11
q11 -14 26.5 -35t25.5 -42q6 -12 6 -27q0 -2 -0.5 -3t-0.5 -3v-4q-4 -32 -13 -81t-20.5 -106.5t-24.5 -118t-25.5 -115.5t-23 -99.5t-16.5 -69.5q-5 -19 -24 -21q-18 -2 -46.5 -2.5t-58.5 -0.5q-26 0 -49.5 0.5t-39.5 2.5q-7 1 -12 6t-5 13q0 4 1.5 15.5t3.5 26t4 28.5t4 23
z" />
    <glyph glyph-name="asciicircum" unicode="^" horiz-adv-x="433" 
d="M431 339q0 -8 -5 -14.5t-13 -7.5q-10 0 -24.5 -0.5l-29 -1t-26.5 -0.5h-16q-8 0 -13.5 7t-7.5 15q-2 16 -5 39t-6 50.5t-6 58t-6 60.5q-2 9 -5 9q-1 0 -4 -3q-1 -2 -2 -3q-18 -28 -36 -57t-34.5 -55.5t-29.5 -48t-21 -34.5q-6 -9 -17 -9q-7 0 -17 6.5t-20 15.5
t-18.5 18.5t-12.5 15.5q-6 9 -6 20q0 8 3 14q11 24 35.5 69t53.5 94t57.5 94t46.5 71q10 14 27 14q5 0 20.5 -5t32.5 -11t32.5 -12.5t21.5 -9.5q22 -10 25 -39q3 -27 7 -73t7.5 -97.5t6.5 -102.5t5 -87z" />
    <glyph glyph-name="underscore" unicode="_" horiz-adv-x="384" 
d="M-28 -58q2 8 8.5 14.5t14.5 7.5q16 2 44 3.5t61.5 3t70.5 2t72 0.5q38 0 70 -1t51 -3q8 -1 14.5 -8t6.5 -15v-11q0 -18 -1.5 -39.5t-3.5 -36.5q-2 -11 -9 -13.5t-15 -2.5h-361q-8 0 -14.5 5.5t-7.5 13.5q-1 9 -1.5 21.5t-0.5 25.5q0 9 0.5 17t0.5 16z" />
    <glyph glyph-name="grave" unicode="`" horiz-adv-x="264" 
d="M310 628q11 -9 11 -19q0 -5 -4 -11q-7 -11 -15.5 -25.5t-16.5 -25.5q-8 -10 -20 -10q-4 0 -10 2q-16 7 -36.5 19t-41 26t-38.5 28.5t-29 25.5q-8 8 -8 19q0 6 4 14q10 17 26 40.5t28 37.5q1 1 3 2l4 2t5 1q10 0 15 -7q10 -13 25 -28t31.5 -31t33.5 -31.5t33 -28.5z" />
    <glyph glyph-name="a" unicode="a" 
d="M308 25q-13 4 -17.5 11.5t-6.5 15.5l-3 33q0 8 -4 8q-3 0 -6 -6q-24 -42 -49.5 -64.5t-49.5 -22.5q-26 0 -53.5 14.5t-50.5 39.5t-38 58t-15 69q0 45 11.5 103t38 109.5t68.5 87t104 35.5q20 0 50 -7.5t63 -20t65 -28.5t58 -33q12 -8 12 -21q0 -1 -0.5 -2t-0.5 -3v-3
q-15 -56 -25.5 -110.5t-17 -104t-9.5 -92t-4 -72.5q-1 -7 -5.5 -12t-11.5 -5q-6 0 -19 2.5t-28.5 6.5t-31 7.5t-24.5 6.5zM258 193q9 9 11 20q5 35 13 70t15 69v5q0 11 -7 16t-17 5q-21 0 -37 -20t-27.5 -48t-17 -58.5t-5.5 -51.5q0 -20 4 -31t10 -11q11 0 27.5 10.5
t30.5 24.5z" />
    <glyph glyph-name="b" unicode="b" horiz-adv-x="475" 
d="M15 131q4 41 11.5 92t17.5 105.5t21.5 109t23 102.5t22.5 86t20 59q5 15 21 15q6 0 25.5 -5t41 -11.5t40 -12.5t23.5 -8q13 -5 13 -19q0 -2 -0.5 -2.5t-0.5 -1.5v-2q-9 -27 -21 -72t-26 -102q-1 -2 -1 -3v-3q0 -5 4 -5q3 0 6 5q18 23 39.5 40.5t43.5 17.5q26 0 49.5 -20
t41.5 -48.5t29 -60t11 -55.5q0 -65 -17.5 -125t-50.5 -106t-80 -73.5t-106 -27.5q-21 0 -47.5 9t-52.5 22t-50.5 28.5t-40.5 29.5q-11 9 -11 28v8q0 3 1 6zM185 158q0 -9 7 -14t17 -5q20 0 37 21t29 50.5t19.5 61.5t7.5 54q0 42 -13 42q-8 0 -19.5 -5.5t-23.5 -14t-21 -19.5
t-12 -21t-7.5 -32.5t-9 -47t-8 -44.5t-3.5 -26z" />
    <glyph glyph-name="c" unicode="c" horiz-adv-x="422" 
d="M279 271q-16 2 -16 17q0 3 2 12t4.5 20.5t4.5 23t2 19.5q0 12 -3 19.5t-11 7.5q-12 0 -25.5 -18t-25 -45t-19 -57.5t-7.5 -54.5q0 -32 11 -46.5t36 -14.5q18 0 35 4.5t32 9.5t26 9.5t16 4.5q12 0 17 -12q3 -6 7 -17.5t8 -24t6.5 -23.5t2.5 -15q0 -19 -11 -30
q-9 -9 -24 -19.5t-33.5 -19.5t-39.5 -15t-40 -6q-22 0 -47.5 5.5t-50.5 17t-48 28.5t-40 41q-18 24 -24.5 56.5t-6.5 67.5q0 48 15 101t41.5 97.5t63.5 73.5t81 29q7 0 25.5 -4t42 -12.5t48.5 -20t45.5 -27t34 -34t13.5 -40.5q0 -19 -9 -44t-20 -43q-3 -7 -10.5 -13
t-16.5 -6q-21 -2 -47 -2h-45z" />
    <glyph glyph-name="d" unicode="d" horiz-adv-x="486" 
d="M384 685q7 15 23 15q4 0 23 -5t40.5 -11.5t41 -12.5t24.5 -8q13 -5 13 -18q0 -1 -0.5 -2t-0.5 -2v-3q-13 -36 -30.5 -103t-36 -151t-35.5 -178.5t-29 -186.5q-2 -16 -17 -16q-5 0 -18 3t-28 6.5t-29.5 8t-21.5 7.5t-12.5 9.5t-6.5 17.5q0 5 -0.5 12.5t-0.5 11.5t-1.5 7.5
t-4.5 3.5t-7 -5q-21 -33 -46 -59t-51 -26t-53.5 15t-51 40t-38.5 58t-15 69q0 64 15.5 124.5t43.5 107t66 74.5t83 28q18 0 41 -7.5t44 -18.5q4 -2 7 -2q9 0 12 12q17 64 31 111t26 74zM260 193q9 9 11 20q5 35 13 70t15 69v5q0 11 -7 16t-17 5q-21 0 -37 -20t-27.5 -48
t-17 -58.5t-5.5 -51.5q0 -20 4 -31t10 -11q11 0 27.5 10.5t30.5 24.5z" />
    <glyph glyph-name="e" unicode="e" horiz-adv-x="431" 
d="M185 192q0 -16 11 -29.5t36 -13.5q18 0 35.5 4t32.5 9t26.5 9t16.5 4q12 0 17 -12q3 -6 7 -17t7 -23t5.5 -22.5t2.5 -14.5q0 -11 -3 -16t-8 -10q-9 -9 -24.5 -19.5t-34.5 -19.5t-40.5 -15t-40.5 -6q-20 0 -44.5 5.5t-49.5 17t-48.5 28.5t-40.5 41q-18 24 -24.5 56.5
t-6.5 67.5q0 40 13.5 92.5t39 98.5t62 78t82.5 32q22 0 50.5 -8.5t56 -21t49.5 -26.5t33 -26q15 -17 23 -32.5t8 -39.5q0 -33 -14 -62.5t-38.5 -52t-59.5 -35.5t-77 -13q-12 0 -27 1.5t-20 1.5q-13 0 -13 -11zM268 402q-11 0 -22 -13.5t-21 -31t-16 -34.5t-6 -24
q0 -12 10 -12q15 0 28.5 8.5t23 21t15.5 28t6 29.5q0 11 -4 19.5t-14 8.5z" />
    <glyph glyph-name="f" unicode="f" horiz-adv-x="336" 
d="M366 563q-10 4 -17 4.5t-12 0.5q-19 0 -32.5 -13.5t-13.5 -31.5q0 -12 14 -12h35q11 -1 14 -8.5t3 -15.5q-1 -21 -3.5 -53t-5.5 -53q-1 -8 -7 -13t-15 -5h-52q-8 0 -13.5 -4t-7.5 -11q-7 -37 -14 -78t-14.5 -84t-14.5 -85.5t-13 -81.5q-2 -8 -7.5 -13t-14.5 -5
q-8 0 -26 4t-37.5 9t-37 10t-23.5 8q-6 2 -10.5 8.5t-4.5 18.5v7q0 3 1 5q3 25 8 57.5t11 69.5t12.5 75.5t12.5 75.5v3q0 2 0.5 2.5t0.5 1.5q0 11 -12 11h-9q-9 0 -12 4t-4 12v27q0 20 0.5 42t1.5 33q1 9 6 15t18 6q3 0 7.5 0.5t7.5 0.5q19 0 22 17q8 42 21 78.5t35.5 63.5
t55.5 42.5t80 15.5q23 0 51.5 -6t50.5 -17q12 -7 12 -21q0 -1 -0.5 -3.5l-2.5 -12.5t-7 -31t-14 -58q-2 -6 -7 -9.5t-11 -3.5h-4q-1 0 -2 1z" />
    <glyph glyph-name="g" unicode="g" horiz-adv-x="477" 
d="M15 191q0 45 12.5 101.5t39 106t69 83.5t102.5 34q19 0 50 -8t65 -21t66.5 -28t53.5 -29q10 -7 10 -23q0 -2 -0.5 -3.5t-0.5 -2.5v-2q-7 -30 -16 -74t-18 -94.5t-18.5 -104t-18.5 -101.5q-4 -23 -17 -58.5t-38.5 -68.5t-64.5 -56.5t-95 -23.5q-15 0 -34 4t-38 10.5
t-35.5 14.5t-27.5 16q-7 5 -9.5 11t-2.5 12v4q0 1 1 3q4 16 9.5 37t11.5 39q4 12 15 12q1 0 2 -0.5t2 -0.5h2q24 -10 41 -14t31 -4q25 0 43.5 10.5t30.5 26.5t18 35t6 37q0 9 -3 9t-7 -6q-20 -27 -41.5 -45t-42.5 -18q-26 0 -53.5 14.5t-49.5 39.5t-36 57.5t-14 68.5z
M257 193q9 9 11 20q5 35 13 70t15 69v5q0 11 -7 16t-17 5q-21 0 -37 -20t-27.5 -48t-17 -58.5t-5.5 -51.5q0 -20 4 -31t10 -11q11 0 27.5 10.5t30.5 24.5z" />
    <glyph glyph-name="h" unicode="h" horiz-adv-x="480" 
d="M243 425q26 39 55.5 64t57.5 25q16 0 37 -12t39.5 -30.5t31.5 -40t13 -40.5q0 -11 -3 -35.5t-8.5 -57t-12.5 -70t-15 -75t-15.5 -72.5t-14.5 -62q-5 -17 -22 -17q-8 0 -24.5 4.5t-36 11t-38 14t-28.5 12.5q-12 7 -12 22v5q0 2 1 3q5 21 13 56t15.5 73t13 73t5.5 56
q0 24 -8 24q-7 0 -25 -10.5t-38 -30.5q-5 -5 -10 -13.5t-7 -18.5q-13 -66 -24 -132t-19 -132q-2 -16 -18 -16q-9 0 -27 4t-37 9.5t-35 11t-22 8.5q-9 4 -12.5 12t-3.5 16q1 37 7.5 91t16.5 114.5t22.5 124t26 120t26 101.5t23.5 70q2 6 8 10.5t14 4.5q4 0 23 -5t40.5 -11.5
t40.5 -12.5t25 -8q8 -2 10.5 -6.5t2.5 -9.5q0 -2 -0.5 -3t-0.5 -3q-1 -2 -1 -3q-11 -33 -25.5 -85t-31.5 -125q-1 -2 -1 -3v-3q0 -3 2 -3q1 0 6 6z" />
    <glyph glyph-name="i" unicode="i" horiz-adv-x="229" 
d="M172 733q55 0 86 -26.5t31 -64.5q0 -42 -30.5 -70.5t-82.5 -28.5q-45 0 -66.5 27t-21.5 66q0 27 15 49t33 37q14 11 36 11zM164 18q-3 -17 -19 -17q-7 0 -24 3.5t-36.5 9t-37 11t-25.5 8.5q-16 7 -16 28q2 41 10 102t18.5 124t22.5 118.5t22 87.5q5 17 25 17q6 0 24 -3.5
t39 -8.5t40 -10t25 -8q13 -7 13 -19q0 -1 -0.5 -2t-0.5 -2v-2q-11 -50 -23 -107.5t-23 -116t-20 -114t-14 -99.5z" />
    <glyph glyph-name="j" unicode="j" horiz-adv-x="229" 
d="M55 -176q-11 -7 -21 -7q-8 0 -10 1q-3 1 -4 2q-24 11 -50.5 28t-41.5 31q-4 4 -4 10q0 7 3 10l4 4q17 13 35 40t28 71q4 21 10.5 57t14 81t16 94t16 95.5t14.5 86.5t13 67q3 17 21 17q10 0 28 -2.5t37 -5.5t35.5 -6.5t24.5 -5.5t12 -8t4 -14q0 -2 -0.5 -3t-0.5 -3v-4
q-3 -24 -8.5 -61t-13 -80t-15 -88.5t-15 -86t-14 -73t-10.5 -49.5q-6 -25 -15 -53t-22 -54.5t-30.5 -50.5t-40.5 -40zM170 733q55 0 86 -26.5t31 -64.5q0 -42 -30.5 -70.5t-82.5 -28.5q-45 0 -66.5 27t-21.5 66q0 27 15 49t33 37q14 11 36 11z" />
    <glyph glyph-name="k" unicode="k" horiz-adv-x="475" 
d="M347 262q-8 -6 -8 -15q0 -5 3 -9q20 -34 46 -68.5t49 -58.5q7 -7 7 -15q0 -7 -5 -12q-30 -29 -64.5 -50t-56.5 -30q-2 -1 -4 -1q-2 -1 -9 -1q-13 0 -22 9q-10 10 -20.5 28t-20 39t-17.5 42t-13 39q-2 8 -5.5 14t-8.5 6q-6 0 -9 -6t-5 -14q-5 -35 -10 -70.5t-9 -69.5
q-3 -16 -19 -16q-9 0 -25.5 3.5t-35 9t-35 11t-24.5 9.5q-10 5 -13 12.5t-3 15.5q1 37 7 91t16 114.5t23 124t26 120t26 101.5t24 70q2 6 8 10.5t14 4.5q5 0 24 -5t40.5 -11.5t40.5 -12.5t24 -8q7 -2 10 -7.5t3 -11.5q0 -2 -0.5 -2.5t-0.5 -1.5v-2q-14 -43 -35.5 -122
t-42.5 -185q-1 -2 -1 -3v-4q0 -8 5 -8t17 15q18 23 36.5 47.5t35.5 47t31.5 42t23.5 31.5q6 8 16 8q6 0 11 -3q23 -14 49.5 -39.5t44.5 -48.5q1 -1 2 -3q2 -4 2 -9q0 -9 -8 -17q-9 -9 -24 -22.5t-33 -30.5t-38 -35.5t-40 -36.5z" />
    <glyph glyph-name="l" unicode="l" horiz-adv-x="231" 
d="M163 19q-2 -16 -18 -16q-8 0 -25 4t-36 9.5t-36 11t-23 8.5q-10 4 -13 12t-3 16q0 32 6 83.5t16 112.5t23 126t26.5 123t26.5 104.5t23 71.5q5 15 21 15q6 0 25.5 -5t41 -11.5t40 -12.5t23.5 -8q13 -5 13 -19q0 -2 -0.5 -2.5t-0.5 -1.5v-2q-12 -36 -29.5 -103t-36 -151
t-35.5 -178.5t-29 -186.5z" />
    <glyph glyph-name="m" unicode="m" horiz-adv-x="718" 
d="M476 425q25 38 53.5 63.5t53.5 25.5q18 0 40.5 -12t42.5 -30.5t34 -40t14 -40.5q0 -11 -3 -35.5t-8.5 -57t-12.5 -70.5t-14.5 -75.5t-15.5 -72.5t-15 -62q-4 -16 -21 -16q-11 0 -29 5t-37 12t-35.5 14t-24.5 12q-13 8 -13 23v5q0 2 1 3q5 22 13.5 57t16 73t13 73t5.5 56
q0 24 -8 24q-7 0 -23 -8.5t-31 -25.5q-5 -6 -8.5 -15t-5.5 -17q-6 -32 -12.5 -69.5t-14 -74.5t-15 -71t-14.5 -60q-5 -16 -21 -16q-11 0 -30 5t-39 12t-36.5 14t-22.5 11q-12 7 -12 21v5q0 2 1 3q5 21 13 56.5t15.5 74t13 74t5.5 57.5q0 24 -8 24q-5 0 -21 -8.5t-31 -24.5
q-8 -8 -14 -31q-7 -35 -14.5 -74t-14.5 -77t-13.5 -71t-10.5 -55q-5 -16 -21 -16q-8 0 -26 4.5t-37.5 10.5t-36.5 12t-24 10q-8 5 -11 11.5t-3 13.5v7q0 2 1 4q4 20 10 54t12.5 74t13.5 83.5t13.5 84t12 74.5t9.5 56q1 8 6.5 12.5t12.5 4.5q8 0 25 -2.5t35.5 -6t35 -7.5
t24.5 -6t13 -9t6 -19l1 -21q-1 -3 0 -5q0 -4 4 -4q2 0 7 6q23 32 48.5 51t48.5 19q13 0 29.5 -7.5t32.5 -20t30.5 -28.5t23.5 -32q5 -8 9 -8q5 0 9 7z" />
    <glyph glyph-name="n" unicode="n" horiz-adv-x="482" 
d="M243 431q25 37 53 60t55 23q18 0 40 -12t41.5 -30.5t33 -40t13.5 -40.5q0 -12 -3 -37t-8.5 -57.5t-12.5 -70t-14.5 -75t-15 -72t-14.5 -61.5q-2 -7 -8.5 -12t-14.5 -5q-9 0 -27 5t-37.5 11.5t-36.5 14t-24 12.5q-13 9 -13 22v5q0 1 1 3q5 21 12.5 56t15 72.5t13 72.5
t5.5 57q0 24 -8 24q-7 0 -26 -11t-34 -27q-8 -8 -11 -16t-5 -16q-7 -35 -14.5 -73t-14.5 -74t-13.5 -68t-10.5 -53q-5 -16 -20 -16q-9 0 -27 4.5t-37.5 10.5t-36 12t-23.5 10q-8 4 -10.5 10.5t-2.5 14.5v5q0 2 1 3q4 20 10 54t12.5 74.5t13 84.5t13 85t11.5 75t8 56
q2 8 8 12.5t14 4.5q7 0 23.5 -2.5t35 -6t35 -7t24.5 -6.5q17 -6 18 -28l2 -33q0 -9 4 -9q3 0 5 2q1 1 2 3z" />
    <glyph glyph-name="o" unicode="o" horiz-adv-x="468" 
d="M214 135q17 0 32 21t26 51.5t17 64t6 58.5q0 27 -7.5 42.5t-21.5 15.5q-15 0 -29.5 -21.5t-26.5 -53t-19.5 -66t-7.5 -60.5q0 -23 8 -37.5t23 -14.5zM461 305q0 -21 -4.5 -52t-14.5 -64.5t-26 -67.5t-40 -60.5t-56 -43.5t-73 -17q-17 0 -44 5t-56.5 16t-57 28.5
t-44.5 43.5q-16 23 -22 51.5t-6 66.5q0 25 5.5 58t16.5 67t28 66.5t39.5 58t51.5 41t64 15.5q10 0 34.5 -5.5t53.5 -16t58 -25.5t49 -34q12 -11 20.5 -27t13.5 -33.5t7.5 -36t2.5 -34.5z" />
    <glyph glyph-name="p" unicode="p" horiz-adv-x="479" 
d="M71 458q38 25 89 43t111 18q25 0 60.5 -21.5t67 -52.5t54 -67t22.5 -64q0 -61 -18.5 -117.5t-49.5 -100t-72 -69.5t-86 -26q-14 0 -32.5 8t-35.5 22q-5 4 -10 4q-8 0 -10 -11q-6 -44 -13 -87.5t-13 -86.5q-2 -17 -18 -17q-10 0 -26.5 4t-34.5 9.5t-34 11.5t-25 10
q-8 4 -11.5 10.5t-3.5 14.5l1 11q5 49 14 111.5t19.5 127t21.5 124.5t21 105q0 3 1 7q2 8 2 14q0 7 -2 21.5t-2 19.5q0 10 4 15t9 9zM206 142q21 0 38.5 16t31 40t21 52t7.5 52q0 32 -15 52t-39 20q-16 0 -20 -18q-10 -38 -19.5 -82.5t-20.5 -101.5q-1 -2 -1 -5q-1 -3 -1 -7
q0 -18 18 -18z" />
    <glyph glyph-name="q" unicode="q" horiz-adv-x="474" 
d="M15 184q0 64 15.5 124t44.5 106t70.5 74t94.5 28q20 0 49.5 -7.5t62 -20t64 -28.5t54.5 -32q13 -9 13 -19q0 -2 -0.5 -3.5t-0.5 -3.5q-1 -2 -1 -4q-11 -48 -24 -113.5t-25.5 -139.5t-23.5 -152.5t-18 -152.5q-2 -16 -18 -16q-6 0 -23.5 3.5t-37.5 8t-37.5 9t-23.5 6.5
q-10 4 -13.5 11.5t-3.5 15.5q0 17 4 48t8.5 62t8.5 54t4 25q0 5 -3 5t-6 -5q-45 -67 -83 -67q-26 0 -53 15t-49 40.5t-35.5 58.5t-13.5 70zM257 193q9 9 11 20q5 35 13 70t15 69v5q0 11 -7 16t-17 5q-21 0 -37 -20t-27.5 -48t-17 -58.5t-5.5 -51.5q0 -20 4 -31t10 -11
q11 0 27.5 10.5t30.5 24.5z" />
    <glyph glyph-name="r" unicode="r" horiz-adv-x="352" 
d="M341 510q9 0 14 -5t6 -13v-20q0 -27 -1.5 -64t-3.5 -70q0 -16 -19 -21q-10 -2 -23.5 -5t-28.5 -6t-29.5 -6.5t-27.5 -7.5q-9 -2 -14.5 -10t-7.5 -16q-6 -32 -12.5 -67t-13 -68.5t-12 -63t-8.5 -48.5q-5 -17 -19 -17q-9 0 -27 4t-38 10t-37.5 12t-24.5 10q-12 7 -12 22v5
q0 2 1 4l70 432q2 8 7.5 12.5t13.5 4.5q7 0 23.5 -2.5t34.5 -6t35 -7.5t25 -7q9 -3 13 -10t5 -15l3 -30q1 -9 4 -9t5 2q1 1 2 3q22 31 49 52.5t48 21.5z" />
    <glyph glyph-name="s" unicode="s" horiz-adv-x="417" 
d="M26 317q0 22 10 55.5t31 65.5t53.5 55.5t77.5 23.5q7 0 27 -4t45 -11.5t52 -18.5t49.5 -26t37 -33t14.5 -40q0 -19 -10 -41t-17 -32q-10 -15 -27 -15q-8 -1 -21 -1.5t-27 -0.5h-27h-20q-15 1 -15 16q0 2 1.5 8.5t4 15.5t4 19.5t1.5 19.5q0 21 -16 21q-11 0 -21 -9
t-18 -21.5t-12.5 -25.5t-4.5 -22q0 -15 14 -25t35.5 -18t46.5 -16t46.5 -19.5t35.5 -28t14 -42.5q0 -36 -15 -66.5t-40 -53t-58 -35t-68 -12.5q-26 0 -52.5 4t-52 11.5t-48 18t-39.5 22.5q-8 5 -10 12t-2 14q0 3 2.5 13t5.5 22.5t7 25.5t7 21q7 15 17 15q5 0 9 -2t7 -4
q30 -16 64 -29.5t61 -13.5q12 0 26.5 4t15.5 15q0 9 -15 15t-37 13t-48.5 17t-48.5 25.5t-37 39t-15 58.5z" />
    <glyph glyph-name="t" unicode="t" horiz-adv-x="341" 
d="M355 381q-5 -19 -25 -19h-60q-8 0 -14.5 -5t-8.5 -13q-3 -16 -7 -35.5t-7.5 -38t-5.5 -34.5t-2 -25q0 -30 11.5 -46.5t37.5 -28.5q10 -6 10 -19q0 -2 -0.5 -3t-0.5 -3q-1 -2 -1 -3q-8 -20 -24.5 -47t-35.5 -48q-5 -5 -11 -8t-13 -3h-6q-2 0 -2 1q-35 10 -61 28t-43 42
t-26 51.5t-9 56.5q0 30 6.5 73.5t16.5 91.5v3q0 1 0.5 2t0.5 2q0 11 -10 11h-6q-8 0 -12.5 6t-5.5 14t-1 16.5v19.5q0 17 0.5 34t1.5 30q1 8 6 13.5t18 7.5q4 1 14 1.5t18 1.5t11.5 6.5t5.5 13.5q11 46 22.5 83.5t21.5 57.5q7 15 22 15q8 0 25 -4t36 -9t37 -11.5t28 -10.5
q12 -5 12 -19q0 -2 -0.5 -3.5t-0.5 -2.5v-2q-5 -16 -12 -39t-14 -51q-1 -2 -1 -3v-4q0 -11 11 -14h39q12 -1 16 -8.5t5 -15.5v-10q0 -23 -2 -51t-5 -45z" />
    <glyph glyph-name="u" unicode="u" 
d="M481 474q6 -2 9 -8.5t3 -12.5q0 -2 -0.5 -2.5t-0.5 -1.5v-2q-17 -58 -29.5 -120t-21.5 -119.5t-13.5 -106.5t-5.5 -82q0 -8 -5 -13t-13 -5t-21 2.5t-27.5 6t-27.5 7t-20 6.5q-8 3 -14.5 10t-8.5 19l-5 39q-2 9 -5 9t-6 -6q-23 -43 -51.5 -69t-56.5 -26q-22 0 -47 14
t-46.5 36t-36 49.5t-14.5 55.5q0 47 7 96.5t17 95.5t22 84t21 61q5 16 21 16q7 0 25 -5.5t38 -13t38 -15t24 -11.5q9 -6 9 -19q0 -2 -0.5 -3t-0.5 -3v-3q-7 -21 -16 -55t-17.5 -70.5t-14 -70t-5.5 -53.5t7 -20q9 0 21.5 7.5t25 19.5t22.5 26.5t13 28.5q4 32 11 67t15 68.5
t16 62t15 48.5q2 7 8.5 12t14.5 5q5 0 21 -3.5t35.5 -9t39 -11.5t31.5 -12z" />
    <glyph glyph-name="v" unicode="v" horiz-adv-x="444" 
d="M314 494q2 7 7 11t11 4q8 0 24.5 -6.5t34.5 -16t35 -20t25 -17.5q14 -13 14 -24q0 -2 -0.5 -3t-0.5 -2v-2q-8 -36 -29.5 -93.5t-48.5 -118.5t-55.5 -114t-52.5 -80q-5 -5 -13.5 -8t-16.5 -3q-14 0 -40 7t-54 18.5t-54 24.5t-39 25q-8 7 -11 15.5t-4 16.5q-1 17 -1 39v48
q0 34 0.5 72.5t1 78t1.5 77.5t3 71q0 8 6 13.5t14 5.5q11 0 29 -1.5t37.5 -3.5t37 -4.5t26.5 -4.5q11 -2 14.5 -9.5t3.5 -15.5q-4 -35 -7 -77.5t-6 -84.5t-5.5 -80t-3.5 -65v-4q0 -3 3 -3t5 6q10 27 24.5 67t29.5 85t29.5 91t25.5 85z" />
    <glyph glyph-name="w" unicode="w" horiz-adv-x="666" 
d="M536 496q2 16 18 16q7 0 24.5 -7.5t36.5 -17.5t35.5 -20t22.5 -15q8 -6 10 -11.5t2 -11.5q0 -13 -7 -41.5t-19.5 -66.5t-29 -81t-35.5 -85t-39.5 -79.5t-40.5 -62.5q-10 -12 -28 -12q-12 0 -33.5 6.5t-45 17t-46.5 23.5t-38 25q-6 5 -10 13t-6 20q0 6 -1 16.5t-2.5 23.5
t-2.5 27t-1 25q0 8 -2 8q-4 0 -5 -7q-6 -24 -14.5 -51.5t-16.5 -53.5t-16 -47t-14 -31q-7 -14 -24 -14q-12 0 -33 7t-44 17.5t-43 22t-30 20.5q-7 6 -10 15.5t-3 17.5q0 31 1 79.5t2.5 103t3 110.5t3.5 102q1 8 7 13t14 5q12 0 30.5 -2l37 -4t35.5 -5t26 -5q17 -5 17 -19
q0 -2 -2 -25t-5 -56.5t-6 -72.5t-6 -73t-5 -58t-2 -28t1 -4t1 1l1 2l2 4q10 28 23.5 71t27.5 89.5t26.5 91t21.5 75.5q3 11 9.5 14.5t16.5 3.5q10 -1 24.5 -3t30 -4.5t30.5 -5t25 -5.5q15 -5 15 -21q0 -2 -1.5 -22t-3 -50.5t-4 -66.5t-4 -69.5t-3 -60t-1.5 -37.5
q0 -5 0.5 -5.5t1.5 -0.5l2 2q1 1 1 2q11 27 24 67.5t26 85.5t25.5 91t21.5 84z" />
    <glyph glyph-name="x" unicode="x" horiz-adv-x="460" 
d="M79 14q-7 -7 -14 -7t-11 6q-19 24 -33.5 50t-23.5 46q-2 6 -2 11q0 12 8 20q17 18 46 46t59 58q6 7 6 15q0 6 -3 12q-25 45 -40 80.5t-23 60.5q-1 0 -1 2v6q0 14 12 23t26.5 18.5t30.5 18.5t32.5 17.5t30.5 14.5q6 2 9 2q12 0 15 -12q3 -11 8 -26.5t11 -32t13 -32
t14 -26.5l2 -4q1 -3 5 -3q1 0 5 2q2 1 3 3q13 13 30 29.5t33.5 33l31 31l23.5 23.5q7 6 15 6q9 0 14 -7q7 -9 15.5 -21.5t17 -26.5t16.5 -27.5t13 -23.5q0 -2 1 -4q2 -4 2 -7q0 -10 -10 -17q-25 -19 -60.5 -49t-71.5 -62q-8 -6 -8 -13q0 -4 1 -6t2 -3q21 -40 43.5 -67
t43.5 -46q7 -6 7 -14q0 -4 -2 -8q-1 -2 -2 -3q-8 -10 -21 -23.5t-27.5 -27.5t-30 -26.5t-27.5 -18.5q-2 -2 -5 -3q-6 -2 -11 -2q-9 0 -19 7q-6 4 -15.5 15.5t-20.5 26.5t-22.5 32t-21.5 34q-5 9 -14 9q-5 0 -10 -5q-24 -26 -48 -53t-47 -52z" />
    <glyph glyph-name="y" unicode="y" 
d="M335 496q7 14 21 14q7 0 24.5 -4.5t37.5 -11.5t37.5 -14t25.5 -12q11 -8 11 -21q0 -1 -0.5 -2t-0.5 -2v-3q-8 -29 -18 -77.5t-21.5 -106t-23 -117.5t-20.5 -111q-4 -23 -16.5 -59t-37.5 -69.5t-63.5 -57.5t-94.5 -24q-17 0 -36.5 4.5t-37.5 11.5t-34.5 15t-27.5 15
q-13 7 -13 24v4t1 4q0 2 1 4q3 11 8.5 31.5t10.5 36.5q5 15 16 15q1 0 2 -0.5t3 -0.5q2 -1 3 -1q25 -10 44 -14t33 -4q27 0 44.5 13.5t28.5 31.5t15.5 37t4.5 30q0 9 -2 9q-1 0 -5 -6q-22 -29 -46 -47t-47 -18q-21 0 -46.5 13.5t-47 35t-36.5 48.5t-15 55q0 45 7 93.5
t17 92.5t22 81t21 59q2 7 8.5 11.5t14.5 4.5q4 0 21.5 -6t38 -13.5t39 -15t24.5 -11.5q9 -6 9 -20q0 -2 -0.5 -2.5t-0.5 -2.5v-3q-7 -21 -16 -55.5t-17 -71.5t-13.5 -71t-5.5 -53t7 -19q16 0 38 19t36 42q6 10 7 18q4 28 10.5 62.5t14.5 69.5t17.5 67t18.5 55z" />
    <glyph glyph-name="z" unicode="z" horiz-adv-x="401" 
d="M392 491q4 -16 7.5 -37.5t6 -41.5t4 -36t1.5 -21q0 -17 -15 -29q-47 -36 -93.5 -74t-85.5 -73q-5 -5 -5 -8q0 -5 9 -5h17t28 0.5t29 0.5h20q11 0 17.5 -6.5t8.5 -13.5q3 -11 5.5 -26t4.5 -31t3 -32t1 -29q0 -8 -6 -13t-15 -5h-29q-38 0 -79.5 -1.5t-76.5 -3.5t-60 -3.5
t-30 -1.5q-19 0 -26 16q-6 13 -12 32t-10.5 38t-7.5 35.5t-3 24.5q0 16 11 27q10 11 28.5 30.5t42.5 42.5t51.5 48.5t55.5 49.5q5 5 5 7q0 4 -7 4q-2 0 -15.5 -0.5t-30 -1.5l-33 -2t-24.5 -1t-14 6t-8 14q-3 19 -6 48.5t-3 53.5q0 8 6.5 15t14.5 8q25 4 68.5 6.5t89 4
t83.5 2.5t51 1q8 0 15.5 -5t10.5 -14z" />
    <glyph glyph-name="braceleft" unicode="{" horiz-adv-x="301" 
d="M360 737q15 -3 15 -20q0 -2 -2 -14t-4.5 -26.5t-5 -28t-3.5 -18.5q-2 -8 -9 -14t-16 -6q-30 -1 -39 -10t-14 -28q-2 -6 -5.5 -24t-8 -38.5t-8.5 -40t-7 -29.5q-11 -42 -27 -61.5t-39 -27.5q-8 -3 -8 -7q0 -2 5 -7q30 -28 30 -70q0 -15 -4 -38.5t-8.5 -46.5t-8 -42
t-3.5 -25q0 -11 5.5 -17t20.5 -6h19q14 0 14 -17q0 -5 -2 -18.5t-4 -28.5t-4 -27.5t-3 -14.5q-6 -21 -27 -21q-2 0 -10.5 -0.5t-19.5 -0.5t-22 -0.5t-17 -0.5q-16 0 -34.5 10.5t-34 27.5t-26 38.5t-10.5 44.5q0 10 2 29.5t5 42t6 47t6 45t5 34.5t2 17q0 14 -5.5 26t-13.5 24
q-5 8 -5 16q0 11 11 22q7 8 16.5 18t18 20.5t15.5 22t10 22.5q8 31 12.5 54.5t7.5 39.5q4 18 5 32q9 45 24 74t35 46.5t44 24t50 6.5q13 0 34.5 -3t39.5 -7z" />
    <glyph glyph-name="bar" unicode="|" horiz-adv-x="263" 
d="M143 -100q-4 -16 -17 -16q-6 0 -19.5 3.5t-28.5 8.5t-29 10.5t-21 9.5t-10.5 11.5t-3.5 15.5v4q4 56 14 131.5t24 158t31 166.5t33 157t31 129t26 84q3 7 10 11t15 4q6 0 19.5 -2.5t29 -6t31 -7.5t25.5 -8q12 -5 12 -20q0 -2 -0.5 -3t-0.5 -2v-2q-9 -27 -22 -76.5
t-28 -114t-31.5 -142.5t-32.5 -161.5t-31 -171t-26 -171.5z" />
    <glyph glyph-name="braceright" unicode="}" horiz-adv-x="321" 
d="M0 -27q-15 3 -15 20q0 2 2 14t4.5 26.5t5 28t3.5 18.5q2 8 9 14t16 6q30 1 39 10t14 28q1 6 5 24t8.5 38.5t8.5 40t7 29.5q11 42 27 61.5t39 27.5q8 3 8 7q0 2 -5 7q-30 28 -30 70q0 15 3.5 38.5t8 46.5t8.5 42t4 25q0 11 -5.5 17t-20.5 6h-19q-14 0 -14 17q0 5 1.5 18.5
t4 28.5t4.5 27.5t3 14.5q6 21 27 21q2 0 10.5 0.5t19.5 0.5t22 0.5t17 0.5q16 0 34 -10.5t34 -27.5t26.5 -38.5t10.5 -44.5q0 -10 -2 -29.5t-5 -42t-6 -47t-6 -45t-5 -34.5t-2 -17q0 -14 5.5 -26t13.5 -24q5 -8 5 -16q0 -11 -11 -22q-7 -8 -16.5 -18t-18 -20.5t-15.5 -22
t-10 -22.5q-8 -31 -12.5 -54.5t-7.5 -39.5q-4 -18 -5 -32q-9 -45 -24 -74t-35 -46.5t-44 -24t-50 -6.5q-13 0 -34.5 3t-39.5 7z" />
    <glyph glyph-name="asciitilde" unicode="~" horiz-adv-x="388" 
d="M325 385q1 0 3 1q4 2 7 2q8 0 12 -10l22 -76v-4q0 -2 0.5 -3.5t0.5 -2.5q0 -7 -1.5 -13.5t-5.5 -11.5q-6 -8 -15.5 -17t-21.5 -17t-26.5 -13.5t-32.5 -5.5q-20 0 -36 4.5t-31.5 10t-31.5 10t-35 4.5q-18 0 -33.5 -5.5t-26.5 -12.5q-5 -3 -9 -3q-10 0 -13 11l-19 79
q-1 1 -1 3v6q0 14 8 25q6 7 15.5 16t21.5 16.5t27 12.5t33 5q19 0 34.5 -4.5t30.5 -10t30.5 -10t34.5 -4.5q18 0 33.5 6t25.5 12z" />
    <glyph glyph-name="exclamdown" unicode="&#xa1;" horiz-adv-x="240" 
d="M121 -179q-2 -17 -18 -17q-5 0 -20.5 3t-35 7.5t-38.5 9.5t-29 9q-7 3 -11.5 11t-4.5 17q4 43 12.5 101.5t19 118t21.5 111t20 81.5q3 7 10 12t15 5q7 0 22.5 -3t33.5 -7.5t35.5 -10.5t29.5 -11q6 -2 9 -8.5t3 -14.5v-5q-10 -47 -21 -104t-21.5 -113t-19 -106.5
t-12.5 -85.5zM131 516q63 -3 91.5 -27t28.5 -62q0 -23 -9 -41.5t-24.5 -31.5t-36 -20.5t-44.5 -7.5q-43 0 -62 27t-19 65q0 28 11.5 48.5t30.5 38.5q11 11 33 11z" />
    <glyph glyph-name="cent" unicode="&#xa2;" horiz-adv-x="390" 
d="M369 367q-5 -8 -12 -13t-16 -6q-17 -1 -37.5 -1h-34.5q-18 2 -18 19q0 7 4 24.5t4 35.5q0 11 -3 18.5t-11 7.5q-11 0 -21 -15t-18 -37t-12.5 -46.5t-4.5 -42.5q0 -52 37 -52q21 0 45.5 7.5t49.5 18.5q1 0 2 1q1 0 2 0.5t3 0.5q9 0 12 -12q1 -6 3.5 -16.5t4.5 -21t3.5 -20
t1.5 -13.5q0 -8 -3 -15.5t-9 -12.5q-17 -15 -38.5 -27.5t-50.5 -21.5q-8 -2 -13.5 -6t-7.5 -14q-3 -15 -6 -33t-5 -35q-2 -8 -7.5 -12t-12.5 -4q-3 0 -12 2t-19.5 4.5t-20.5 5.5t-16 5q-16 5 -16 21q0 3 1 10.5t2.5 17.5t3 19.5t3.5 17.5v3q0 2 0.5 3t0.5 2q0 12 -10 19
q-32 26 -53 64.5t-21 84.5q0 43 11.5 89t32.5 83.5t50.5 62t65.5 24.5q6 0 9 4t6 15q5 17 8.5 32.5t7.5 27.5q5 16 20 16q4 0 13.5 -2t20.5 -5t22.5 -6t18.5 -6q11 -3 11 -18q0 -1 -0.5 -2t-0.5 -3v-3q-2 -11 -6 -26.5t-8 -31.5q-1 -1 -1 -3v-6q0 -8 4 -11.5t9 -6.5
q23 -14 37.5 -34.5t14.5 -49.5q0 -17 -7 -39t-13 -36z" />
    <glyph glyph-name="sterling" unicode="&#xa3;" horiz-adv-x="429" 
d="M91 372q1 42 11 89t30 86t50 64.5t72 25.5q9 0 26 -3.5t37.5 -10.5t42 -17t39 -23t28.5 -28.5t11 -33.5q0 -23 -7 -46t-15 -39q-3 -8 -9.5 -13t-16.5 -6q-14 -2 -33.5 -2h-32.5q-8 0 -12.5 6t-4.5 14q0 11 3 30t3 36q0 10 -2.5 18.5t-9.5 8.5q-11 0 -21 -16.5t-17.5 -39
t-12 -46t-4.5 -38.5q0 -16 17 -16h50q9 0 14 -6t5 -15v-60q-1 -8 -7.5 -14t-14.5 -7q-11 -1 -30 -1t-39 -1q-14 0 -20 -16l-11 -29q-2 -8 -2 -9q0 -4 3 -4.5t5 -0.5q5 0 20 0.5t33 1.5t35.5 1.5t27.5 0.5q8 0 16.5 -5.5t10.5 -15.5q2 -8 4 -21.5l4 -27t3.5 -24.5t1.5 -14
q0 -8 -5.5 -12t-12.5 -5q-9 0 -31.5 -2t-51.5 -4t-60.5 -4t-58 -4t-45 -3t-20.5 -1q-8 0 -15 3.5t-11 11.5t-8.5 20.5t-8.5 25.5t-7 24.5t-3 17.5q0 11 11 23q18 20 25 31.5t7 21.5q0 5 -1.5 8.5t-7.5 3.5q-11 0 -13 18q-1 6 -1 13v15v15.5t1 13.5q1 8 6 12.5t12 5.5
q17 4 18 18z" />
    <glyph glyph-name="currency" unicode="&#xa4;" horiz-adv-x="449" 
d="M283 161q-17 -7 -37 -7q-17 0 -40 4.5t-46 16.5q-1 0 -3 1q-2 0 -3 0.5t-3 0.5q-8 0 -14 -6q-13 -13 -23.5 -25t-18.5 -20q-7 -5 -13 -5q-7 0 -11 4q-8 8 -18.5 19t-18.5 22q-4 5 -4 12t5 14q8 8 19 21t22 27q3 4 5 7.5t2 8.5q0 1 -0.5 2.5t-0.5 3.5q-1 2 -1 4
q-8 27 -8 59q1 27 8 54t21 52q1 2 2 5t1 6q0 7 -5 14l-27 33q-4 6 -4 13q0 5 4 11q9 11 24 25.5t26 23.5q3 3 8 3q9 0 14 -7l24 -34q5 -9 15 -9q3 0 5 1q2 0 4 1q9 3 19.5 4t19.5 1q20 0 40.5 -3.5t43.5 -17.5q2 -1 4.5 -2t4.5 -1q7 0 14 7q10 11 24 23.5t22 19.5l4 2l4 2
t5 1q6 0 11 -5q3 -4 10 -12t14 -17t12 -17.5t5 -14.5q0 -5 -2.5 -9t-4.5 -6l-43 -47q-7 -7 -7 -15q0 -4 1 -6q0 -2 1 -4q3 -12 5 -25t2 -27q0 -23 -7.5 -51t-21.5 -54q-4 -8 -4 -13q0 -4 1.5 -7t3.5 -6l28 -41l2 -4q2 -4 2 -9t-2 -9q-1 -2 -2 -3q-8 -11 -21.5 -22.5
t-23.5 -19.5q-4 -2 -8 -2q-10 0 -14 6q-5 8 -12.5 18t-15.5 22q-7 10 -16 10q-2 0 -2.5 -0.5t-2.5 -0.5q-2 -1 -3 -1zM224 262q14 0 24.5 9.5t18 24t12 32.5t4.5 35q-1 25 -8 39t-21 14t-25 -10t-19 -25.5t-12 -34t-4 -35.5q0 -20 7 -34.5t23 -14.5z" />
    <glyph glyph-name="yen" unicode="&#xa5;" horiz-adv-x="444" 
d="M345 332q-3 -5 -3 -9q0 -9 11 -10h22q9 0 12 -7.5t4 -15.5q1 -6 1 -13v-15q0 -12 -0.5 -24t-1.5 -20q-2 -8 -8.5 -14t-14.5 -6q-10 1 -27 1h-35q-15 0 -18 -17l-15 -97q-1 -7 -6 -12t-11 -5q-8 0 -23 3t-30.5 7t-29 8.5t-19.5 7.5q-8 4 -13 10.5t-5 18.5q0 6 1.5 16.5
l3 21t3 19t1.5 12.5q0 11 -16 11h-25q-8 0 -13.5 6t-7.5 14q-1 14 -1.5 33t-0.5 33q0 19 19 22q3 0 10 0.5t15 1.5q9 1 19 2q12 1 12 13q0 1 -0.5 2t-0.5 2v2q-4 17 -13 54.5t-18.5 78.5t-16.5 76.5t-7 47.5q0 16 14 21q10 3 25.5 6.5t31 6t29.5 4.5t21 2q8 0 13 -5t6 -13
q1 -14 3.5 -37.5t5 -50t5.5 -54t6 -50.5q0 -3 1 -5q2 -4 3 -4q2 0 4 3l2 4q25 45 53 100.5t53 99.5q7 10 18 10q7 0 18.5 -7t24.5 -17.5t25 -22t19 -19.5q7 -7 7 -17q0 -8 -5 -15q-37 -57 -72.5 -108t-64.5 -91z" />
    <glyph glyph-name="brokenbar" unicode="&#xa6;" horiz-adv-x="256" 
d="M198 261q-19 -92 -31 -176.5t-24 -177.5q-3 -17 -18 -17q-6 0 -19.5 3t-28.5 7t-29.5 8.5t-21.5 8.5q-7 3 -11.5 11t-4.5 16q0 21 4 59.5t11 87t16 102t18 103.5q4 16 21 16q6 0 19.5 -3t29 -6.5t31 -8t24.5 -7.5q7 -2 10.5 -8.5t3.5 -13.5v-4zM221 378q-2 -8 -7.5 -12.5
t-13.5 -4.5q-5 0 -18.5 2.5t-29.5 5.5t-32 7t-26 7q-6 2 -9.5 8.5t-3.5 14.5v4q11 59 22.5 115.5t22.5 104.5t21 84.5t18 57.5q7 15 22 15q7 0 21 -2.5t29.5 -6t31 -8t25.5 -7.5q12 -5 12 -19q0 -1 -0.5 -2t-0.5 -2v-2q-7 -22 -16.5 -58.5t-20.5 -83.5t-23 -102.5
t-24 -115.5z" />
    <glyph glyph-name="section" unicode="&#xa7;" horiz-adv-x="454" 
d="M436 268q0 -35 -17 -64t-46 -50q-8 -5 -8 -9t6 -11q11 -14 17 -30.5t6 -39.5q0 -35 -14 -66.5t-38.5 -55.5t-58 -38.5t-73.5 -14.5q-14 0 -36 4t-45.5 12t-46.5 18.5t-40 24.5q-29 22 -38.5 48.5t-14.5 55.5q-1 2 -1 4v7q0 6 3 13t11 10q12 5 27.5 8.5t30 5.5t25.5 3
t13 1q17 0 20 -13q4 -13 8 -25.5t11.5 -22t19 -15.5t29.5 -6q26 0 42.5 12t16.5 25q0 16 -22.5 29t-51.5 27q-23 10 -47.5 23t-44.5 31t-33 42.5t-13 59.5q0 30 16.5 58.5t41.5 53.5q8 8 8 14q0 3 -4 11q-9 14 -15.5 30.5t-6.5 36.5q0 35 14 74t38 72t57 54.5t72 21.5
q26 0 65.5 -11t76.5 -30t63.5 -45t26.5 -57q0 -12 -3 -26t-7.5 -27.5t-9 -24.5t-7.5 -16q-4 -10 -8 -13t-14 -4q-9 -2 -22.5 -2.5t-27.5 -1.5t-26 -1h-17q-14 0 -17.5 7t-4.5 13q0 8 7 31t7 50q0 18 -9 27.5t-24 9.5q-14 0 -26 -11t-21.5 -27t-15 -32.5t-5.5 -28.5
q0 -23 16.5 -37t42.5 -27q25 -12 50.5 -25t46 -30t33 -39t12.5 -51zM180 278q0 -21 19.5 -35.5t44.5 -28.5q4 -2 9.5 -4t7.5 -2q6 0 9 3q2 1 3 3q16 18 16 35q0 15 -15.5 27t-38.5 26q-7 5 -15.5 9.5t-13.5 7.5q-4 2 -7 2q-7 0 -11 -8q-8 -16 -8 -35z" />
    <glyph glyph-name="dieresis" unicode="&#xa8;" horiz-adv-x="387" 
d="M174 719q38 0 60.5 -21.5t22.5 -50.5q0 -17 -4.5 -33t-14.5 -29t-26.5 -21t-40.5 -8q-38 0 -53.5 22.5t-15.5 50.5q0 23 9 43t29 36q13 11 34 11zM360 719q38 0 60.5 -21.5t22.5 -50.5q0 -17 -4.5 -33t-14.5 -29t-26.5 -21t-40.5 -8q-38 0 -53.5 22.5t-15.5 50.5
q0 23 9 43t29 36q13 11 34 11z" />
    <glyph glyph-name="copyright" unicode="&#xa9;" horiz-adv-x="749" 
d="M407 -20q-69 0 -133.5 22.5t-113.5 66t-78.5 108t-29.5 149.5q0 72 22 144t64 130t103.5 94t139.5 36q61 0 125 -23.5t116 -69t85 -112.5t33 -154q0 -70 -22.5 -140t-65 -125.5t-104.5 -90.5t-141 -35zM373 95q63 0 108.5 27.5t75 70t43.5 93.5t14 98q0 52 -14.5 94.5
t-41 72.5t-63 46.5t-80.5 16.5q-60 0 -105 -27.5t-74 -70t-43.5 -95t-14.5 -102.5t12.5 -91t37.5 -70.5t61 -46t84 -16.5zM240 315q0 37 10.5 77t30 72t46.5 53t61 21q12 0 36.5 -4.5t49 -15.5t43 -30.5t18.5 -49.5q0 -16 -5.5 -32.5t-11.5 -28.5q-9 -16 -27 -19
q-11 -2 -24 -2h-24q-9 0 -12.5 5t-3.5 11q0 8 3 23.5t3 28.5q0 19 -10 19t-20 -13t-18 -31t-13 -37.5t-5 -32.5q0 -22 8 -34.5t31 -12.5q9 0 20.5 3t22.5 6t20 6t13 3q11 0 14 -11q1 -3 1.5 -9t1.5 -13t1.5 -14.5t0.5 -11.5q0 -10 -2.5 -18.5t-9.5 -13.5
q-18 -14 -45.5 -29.5t-58.5 -15.5t-57.5 11.5t-46 31.5t-30.5 48t-11 60z" />
    <glyph glyph-name="ordfeminine" unicode="&#xaa;" horiz-adv-x="393" 
d="M286 367q-8 2 -12.5 7.5t-5.5 10.5l-3 15q-2 6 -5 6q-2 0 -4 -2q-1 -1 -1 -2q-14 -23 -30.5 -37.5t-32.5 -14.5q-19 0 -39 9.5t-36.5 27t-27 41t-10.5 50.5q0 46 11 88.5t31 75t49.5 52t65.5 19.5q15 0 36.5 -5.5t45 -14t46.5 -19t40 -21.5q4 -2 5.5 -7.5t1.5 -10.5
q0 -1 -0.5 -2t-0.5 -2v-2q-20 -78 -28.5 -148.5t-10.5 -114.5q0 -13 -13 -13q-4 0 -13 1.5t-20 3.5t-21.5 4.5t-17.5 4.5zM59 293q2 8 7 12.5t11 5.5q12 1 32 2.5t44 2.5t50.5 1.5t50.5 0.5q26 0 48.5 -0.5t36.5 -2.5q6 -1 11 -6t5 -12q0 -16 -2 -39t-4 -39q-2 -15 -19 -15
h-257q-14 0 -16 14q-1 6 -1 13.5v15.5q0 28 3 46zM211 457q8 0 18.5 8t19.5 19q6 6 8 16q1 5 4 21.5t6.5 34t6.5 31.5t3 15q0 5 -8 9t-12 4q-14 0 -24.5 -14.5t-17.5 -35t-10 -42.5t-3 -36q0 -30 9 -30z" />
    <glyph glyph-name="guillemotleft" unicode="&#xab;" horiz-adv-x="435" 
d="M30 300q-5 7 -5 15t6 16l136 164q6 7 15 7q2 0 4.5 -1t4.5 -2t3 -2l54 -49q6 -6 6 -15q0 -7 -5 -14l-76 -92q-6 -8 -6 -15q0 -5 1 -7q0 -2 1 -3l41 -98q2 -6 2 -9q0 -12 -10 -17l-50 -25q-1 -1 -3 -1q-2 -1 -6 -1q-13 0 -19 9zM218 300q-5 7 -5 15t6 16l136 164q6 7 15 7
q2 0 4.5 -1t4.5 -2t3 -2l54 -49q6 -6 6 -15q0 -7 -5 -14l-76 -92q-6 -8 -6 -15q0 -5 1 -7q0 -2 1 -3l41 -98q2 -6 2 -9q0 -12 -10 -17l-50 -25q-1 -1 -3 -1q-2 -1 -6 -1q-13 0 -19 9z" />
    <glyph glyph-name="uni00AD" unicode="&#xad;" horiz-adv-x="385" 
d="M43 332q0 8 7 14.5t15 7.5q26 4 72.5 6.5t94.5 2.5q29 0 53.5 -1.5t41.5 -3.5q8 -2 14.5 -9t6.5 -15q0 -11 -1 -25t-2 -29t-3 -29.5t-3 -24.5q-2 -8 -9 -13t-15 -5q-19 0 -53.5 0.5t-72 0.5t-72 0.5t-55.5 0.5q-8 0 -15 5.5t-7 13.5q-1 6 -1 12.5v14.5q0 20 1 40.5
t3 35.5z" />
    <glyph glyph-name="registered" unicode="&#xae;" horiz-adv-x="749" 
d="M302 525q17 6 52 13t69 7q28 0 52 -12.5t42 -32.5t28.5 -44.5t10.5 -47.5q0 -34 -21.5 -58t-52.5 -39q-8 -5 -8 -9q0 -2 2 -6q10 -17 20 -32.5t20 -26.5q1 -1 2 -3t2 -3.5t1 -3.5q0 -4 -3 -7q-5 -6 -15 -13.5t-21.5 -15t-23 -12.5t-19.5 -5q-4 0 -8.5 1.5t-6.5 4.5
q-7 7 -13.5 19t-13 26t-12 28t-9.5 26q-5 8 -8 8q-7 0 -8 -7q-5 -24 -9 -48t-7 -47q-2 -12 -13 -12q-4 0 -14 2.5t-21 5.5t-20.5 6.5t-13.5 5.5q-6 4 -7.5 9.5t-1.5 11.5q2 23 5.5 51.5t9 60t11.5 63t13 60.5q2 10 2 18q0 11 -1.5 26t-1.5 20q0 9 11 12zM377 369
q0 -3 0.5 -6.5t5.5 -3.5q12 0 24.5 6.5t23 15.5t17 19.5t6.5 19.5q0 19 -12.5 27.5t-28.5 8.5q-6 0 -11.5 -3t-7.5 -10q-1 -3 -3.5 -13.5t-5 -22.5t-5 -23t-3.5 -15zM407 -20q-69 0 -133.5 22.5t-113.5 66t-78.5 108t-29.5 149.5q0 72 22 144t64 130t103.5 94t139.5 36
q61 0 125 -23.5t116 -69t85 -112.5t33 -154q0 -70 -22.5 -140t-65 -125.5t-104.5 -90.5t-141 -35zM373 95q63 0 108.5 27.5t75 70t43.5 93.5t14 98q0 52 -14.5 94.5t-41 72.5t-63 46.5t-80.5 16.5q-60 0 -105 -27.5t-74 -70t-43.5 -95t-14.5 -102.5t12.5 -91t37.5 -70.5
t61 -46t84 -16.5z" />
    <glyph glyph-name="degree" unicode="&#xb0;" horiz-adv-x="370" 
d="M228 464q14 0 24.5 9t17 22.5t10 30.5t3.5 33q0 20 -5 34.5t-19 14.5q-13 0 -23.5 -9.5t-17.5 -23.5t-11 -31.5t-4 -33.5q0 -20 6 -33t19 -13zM251 357q-19 0 -47.5 6.5t-55 25t-45.5 50.5t-19 83q0 34 10.5 68t30 61.5t47.5 45t62 17.5q23 0 52 -10.5t55 -31.5t43.5 -53
t17.5 -75q0 -26 -9 -58.5t-27.5 -61t-47 -48t-67.5 -19.5z" />
    <glyph glyph-name="plusminus" unicode="&#xb1;" horiz-adv-x="469" 
d="M441 506q8 -1 13 -7.5t5 -14.5q0 -11 -0.5 -24.5t-1 -28.5t-1.5 -29.5t-2 -25.5q-1 -8 -8 -13.5t-15 -5.5q-16 0 -43.5 0.5t-59.5 0.5q-18 0 -21 -19l-10 -64l-10 -64q-1 -8 -6.5 -12.5t-12.5 -4.5q-6 0 -19.5 2.5t-29.5 6t-29.5 8t-19.5 8.5q-9 6 -11.5 15t-2.5 17
q1 11 2.5 26.5t3 29.5t2.5 24.5t1 11.5q0 16 -15 16h-58q-8 0 -15 6t-8 14t-1 16v18q0 17 0.5 35.5t2.5 31.5q1 8 7 15t16 8l85 5q11 1 15.5 6t6.5 13q9 38 17 69t16 49q7 16 24 16q8 0 21 -2t27 -5t28 -7t23 -7q11 -5 11 -19q0 -2 -0.5 -2.5t-0.5 -2.5v-3q-5 -15 -10 -36.5
t-11 -47.5q-1 -1 -1 -2v-4q0 -6 4.5 -9.5t10.5 -3.5q25 -1 46 -1.5t35 -2.5zM19 112q1 8 8 14.5t15 7.5q16 2 41.5 4t56.5 3.5t64.5 2.5t65.5 1q34 0 62.5 -1.5t46.5 -3.5q8 -2 14.5 -7.5t6.5 -16.5v-12q0 -20 -1.5 -45.5t-3.5 -42.5q-2 -8 -10 -13t-16 -5h-41t-57 0.5
t-65.5 0.5t-66 0.5t-58 0.5h-42.5q-8 0 -15 5.5t-7 13.5q0 7 -0.5 15.5t-0.5 17.5q0 16 0.5 32t2.5 28z" />
    <glyph glyph-name="uni00B2" unicode="&#xb2;" horiz-adv-x="353" 
d="M257 418q-2 -2 -4.5 -3t-2.5 -3t1.5 -2.5t7.5 -0.5h8.5t15 0.5t16 0.5h12.5q16 0 20 -18q3 -14 4.5 -35.5t1.5 -40.5q0 -8 -5.5 -14t-13.5 -6l-220 -10q-7 0 -15.5 3t-12.5 13q-4 9 -7.5 23t-6 27.5t-4 24t-1.5 14.5q0 10 5 15.5t12 9.5q17 8 49 27.5t63.5 44.5t55 52
t23.5 51q0 8 -3.5 12t-8.5 4q-11 0 -27.5 -13.5t-30.5 -34.5q-6 -9 -18 -9q-4 0 -6 1q-2 0 -3 1q-12 8 -27.5 17.5t-27.5 17.5q-11 8 -11 21q0 4 2 10q7 16 19.5 32.5t28 30.5t33.5 23t36 9q6 0 16 -2q4 -1 9 -1q21 -5 46.5 -15t48 -26.5t38 -39.5t15.5 -53q0 -25 -12 -47
t-30.5 -42t-42 -37t-46.5 -32z" />
    <glyph glyph-name="uni00B3" unicode="&#xb3;" horiz-adv-x="325" 
d="M176 399q16 0 25 9t9 23t-6 25t-22 11q-2 0 -10.5 -1t-11.5 -1q-5 0 -10.5 1.5t-7.5 7.5q-1 2 -3 9t-4.5 15t-4 15.5t-1.5 10.5q0 13 10 15q44 9 72.5 18t28.5 25q0 11 -8 16t-18 5q-17 0 -37 -5.5t-43 -19.5q-1 0 -3 -1t-3 -1q-7 0 -10 8l-7.5 20t-8 25t-6 23.5
t-2.5 15.5q0 7 3 10l5 5q8 5 22.5 10.5t32.5 10t39 7.5t42 3q32 0 56.5 -13.5t41.5 -33t25.5 -41.5t8.5 -39t-7 -29t-18 -21t-23.5 -15t-22.5 -12q-2 -2 -4.5 -4t-2.5 -4q0 -4 6 -8q6 -5 13.5 -10.5t13.5 -13t10.5 -17.5t4.5 -24q0 -24 -9 -50t-26 -47t-41.5 -34.5
t-54.5 -13.5q-9 0 -26 2t-37 6.5t-38.5 11.5t-30.5 18q-21 19 -29 45.5t-8 45.5q0 5 1 10.5t8 8.5q3 1 14.5 3.5t24.5 5t24.5 4t14.5 1.5q5 0 7.5 -3t4.5 -8q6 -20 16 -28t21 -8z" />
    <glyph glyph-name="acute" unicode="&#xb4;" horiz-adv-x="257" 
d="M113 653q18 12 36.5 24.5t36.5 25t33.5 24.5t26.5 23q8 8 17 8q8 0 13 -7q5 -8 11.5 -19t12.5 -23t11.5 -24t8.5 -21q2 -6 2 -11q0 -14 -10 -21q-13 -10 -33 -21.5t-42 -22.5t-44 -20.5t-38 -13.5q-2 -1 -3 -1h-4q-15 0 -22 12q-7 13 -13 29t-11 28q-1 3 -1 8q0 14 12 23
z" />
    <glyph glyph-name="mu" unicode="&#xb5;" horiz-adv-x="491" 
d="M490 474q7 -2 10 -8t3 -12q0 -1 -0.5 -2t-0.5 -2v-3q-17 -58 -30 -120t-22 -119.5t-14 -106.5t-6 -82q-1 -8 -5.5 -13t-11.5 -5q-10 0 -26.5 3.5t-34 8.5t-34 10.5t-25.5 10.5q-8 3 -10 17l-5 33q-2 9 -5 9t-6 -7q-16 -26 -32.5 -43t-29.5 -24q-16 -9 -36 -11
q-7 -1 -12.5 -4.5t-7.5 -14.5q-5 -31 -10 -66t-10 -73q-1 -8 -5.5 -13t-12.5 -5t-23.5 3.5t-32.5 9t-32.5 11.5t-24.5 11q-8 5 -12.5 13.5t-4.5 16.5q6 79 17.5 163.5t25.5 164.5t30 149t32 116q5 14 21 14q6 0 22.5 -4.5t35 -11t37 -13.5t29.5 -12q12 -6 12 -20
q0 -2 -0.5 -3t-0.5 -3q-1 -2 -1 -3q-7 -21 -16 -55.5t-17.5 -72t-14 -72t-5.5 -54.5q0 -21 7 -21q16 0 36.5 19.5t37.5 43.5q2 5 4.5 10t2.5 10q5 32 12 68t15 70t16 63.5t15 49.5q2 7 9 11.5t14 4.5q8 0 26 -4t38 -9t39 -11.5t30 -10.5z" />
    <glyph glyph-name="paragraph" unicode="&#xb6;" horiz-adv-x="590" 
d="M526 676q7 14 21 14q4 0 12.5 -2t18 -4.5t19.5 -6t16 -6.5q11 -6 11 -20q0 -2 -0.5 -3.5t-0.5 -2.5v-2q-12 -38 -31 -112t-39 -168.5t-38 -200t-30 -205.5q-3 -17 -18 -17q-8 0 -27.5 6.5t-30.5 11.5q-10 5 -13.5 13t-3.5 16q1 37 8 95t18 126t25 139.5t29 135.5t29 115
t25 78zM457 654q11 -8 11 -19q0 -3 -2 -11q-1 -4 -2 -7q-13 -45 -31 -118.5t-36 -162t-34.5 -187t-26.5 -192.5q-3 -17 -18 -17q-3 0 -11 1.5t-17 4t-17.5 5.5t-14.5 6q-11 5 -13.5 13.5t-2.5 16.5q1 16 3.5 40.5t6 52.5t7.5 56t7.5 51t5.5 39t2 20q0 8 -5 12.5t-10 5.5
q-38 5 -69 21.5t-53.5 42t-35 58.5t-12.5 72q0 48 14.5 94t38 82t54 58t63.5 22q32 0 62.5 -6t56.5 -15t46.5 -19.5t32.5 -19.5z" />
    <glyph glyph-name="periodcentered" unicode="&#xb7;" horiz-adv-x="234" 
d="M116 420q48 0 74 -26.5t26 -63.5q0 -41 -24 -68.5t-68 -27.5t-63.5 26.5t-19.5 63.5q0 50 43 85q6 5 15 8t17 3z" />
    <glyph glyph-name="cedilla" unicode="&#xb8;" horiz-adv-x="147" 
d="M79 32q9 -9 20.5 -22.5t21 -29t16.5 -31.5t7 -30q0 -19 -17 -38.5t-41 -35t-51 -25.5t-46 -10q-17 0 -24 16q-3 7 -6.5 16.5t-7 19.5t-5.5 18t-2 11q0 13 14 17t28 9t25.5 12.5t18.5 16.5t7 21q0 5 -1.5 13.5t-4 18t-5.5 18.5t-6 15h59z" />
    <glyph glyph-name="uni00B9" unicode="&#xb9;" horiz-adv-x="216" 
d="M146 697q8 14 24 14q3 0 14 -1.5t24 -4t26 -5.5t21 -6q6 -2 9 -8t3 -12q0 -2 -0.5 -3t-0.5 -2v-2q-7 -23 -17.5 -63t-21 -89t-20.5 -103t-17 -105q-1 -8 -6.5 -13t-12.5 -5q-5 0 -15.5 2t-23 5t-24.5 6.5t-19 6.5q-8 4 -11 11.5t-3 15.5v4q0 12 4 38.5t9 54.5t9 51t4 26
q0 11 -17 22q-10 6 -10 19q0 6 2 12q6 15 15.5 34t19.5 37.5t19.5 35t15.5 27.5z" />
    <glyph glyph-name="ordmasculine" unicode="&#xba;" horiz-adv-x="367" 
d="M240 349q-17 0 -43.5 5.5t-51.5 22t-43 46t-18 77.5q0 26 8 62.5t25 70t43.5 57t62.5 23.5q21 0 50.5 -9.5t55.5 -28t44.5 -47.5t18.5 -68q0 -23 -8 -58.5t-26 -69.5t-47 -58.5t-71 -24.5zM219 449q11 0 21 13t18 32.5t12.5 42t4.5 40.5t-6 28.5t-15 10.5q-10 0 -20 -14
t-18 -34t-13 -43t-5 -41q0 -16 4.5 -25.5t16.5 -9.5zM49 293q2 8 7 12.5t11 5.5q12 1 32 2.5t44 2.5t50.5 1.5t50.5 0.5q26 0 48.5 -0.5t36.5 -2.5q6 -1 11 -6t5 -12q0 -16 -2 -39t-4 -39q-2 -15 -19 -15h-257q-14 0 -16 14q-1 6 -1 13.5v15.5q0 28 3 46z" />
    <glyph glyph-name="guillemotright" unicode="&#xbb;" horiz-adv-x="437" 
d="M427 353q5 -7 5 -15q0 -9 -6 -16l-136 -164q-6 -7 -15 -7q-5 0 -9 2q-2 1 -3 3l-54 49q-6 6 -6 15q0 7 5 14l76 92q6 7 6 15q0 2 -0.5 3.5t-0.5 3.5q-1 2 -1 3l-41 98q-2 6 -2 9q0 12 10 17l50 25q1 0 3 1q2 0 3 0.5t3 0.5q13 0 19 -9zM239 353q5 -7 5 -15q0 -9 -6 -16
l-136 -164q-6 -7 -15 -7q-5 0 -9 2q-2 1 -3 3l-54 49q-6 6 -6 15q0 7 5 14l76 92q6 7 6 15q0 2 -0.5 3.5t-0.5 3.5q-1 2 -1 3l-41 98q-2 6 -2 9q0 12 10 17l50 25q1 0 3 1q2 0 3 0.5t3 0.5q13 0 19 -9z" />
    <glyph glyph-name="onequarter" unicode="&#xbc;" horiz-adv-x="742" 
d="M667 207q0 -11 8 -11q7 0 9.5 -3t4.5 -14q1 -6 1.5 -16t1.5 -19.5t1.5 -17.5t0.5 -11q0 -18 -17 -20h-16q-9 -1 -13 -7t-6 -14l-7 -57q-1 -7 -6.5 -12t-12.5 -5t-18 1.5t-23.5 4.5t-24.5 6.5t-20 7.5q-11 5 -11 24v27q0 13 -15 13q-4 0 -16.5 -1t-27 -2.5t-28 -2.5
t-18.5 -1q-15 0 -23 14q-3 6 -5.5 16t-4.5 20t-3 18.5t-1 13.5q0 8 3 17t7 14l154 220q8 10 19 10q7 0 14.5 -5t13.5 -5q4 0 7 5q5 7 16 7q4 0 14.5 -1.5t23 -4.5t25.5 -6t22 -6q6 -2 9 -7t3 -11q0 -2 -0.5 -2.5t-0.5 -2.5v-3q-7 -25 -17.5 -67.5t-21.5 -95.5zM155 75
q16 45 42.5 103.5t58 121t65 125.5t64.5 117t57.5 95t42.5 61q10 12 20 12q6 0 17 -6q14 -9 31 -22.5t28 -24.5q6 -6 6 -16q0 -8 -5 -15q-21 -29 -61.5 -93.5t-88.5 -149t-98 -181.5t-91 -190q-5 -12 -17 -12q-7 0 -16.5 5.5t-19 12.5t-17.5 14t-12 11q-9 9 -9 19q0 5 1 8
t2 5zM485 200q-3 -5 -3 -8q0 -6 9 -6q2 0 13.5 0.5t19.5 1.5q15 3 18 20q2 10 5.5 24.5t6.5 28t5 23t2 10.5q0 4 -2 4q-3 0 -7 -6zM161 696q8 14 24 14q3 0 14 -1.5t24 -4t26 -5.5t21 -6q6 -2 9 -8t3 -12q0 -2 -0.5 -3t-0.5 -2v-2q-7 -23 -17.5 -63t-21 -89t-20.5 -103
t-17 -105q-1 -8 -6.5 -13t-12.5 -5q-5 0 -15.5 2t-23 5t-24.5 6.5t-19 6.5q-8 4 -11 11.5t-3 15.5v4q0 12 4 38.5t9 54.5t9 51t4 26q0 11 -17 22q-10 6 -10 19q0 6 2 12q6 15 15.5 34t19.5 37.5t19.5 35t15.5 27.5z" />
    <glyph glyph-name="onehalf" unicode="&#xbd;" horiz-adv-x="781" 
d="M161 696q8 14 24 14q3 0 14 -1.5t24 -4t26 -5.5t21 -6q6 -2 9 -8t3 -12q0 -2 -0.5 -3t-0.5 -2v-2q-7 -23 -17.5 -63t-21 -89t-20.5 -103t-17 -105q-1 -8 -6.5 -13t-12.5 -5q-5 0 -15.5 2t-23 5t-24.5 6.5t-19 6.5q-8 4 -11 11.5t-3 15.5v4q0 12 4 38.5t9 54.5t9 51t4 26
q0 11 -17 22q-10 6 -10 19q0 6 2 12q6 15 15.5 34t19.5 37.5t19.5 35t15.5 27.5zM155 75q16 45 42.5 103.5t58 121t65 125.5t64.5 117t57.5 95t42.5 61q10 12 20 12q6 0 17 -6q14 -9 31 -22.5t28 -24.5q6 -6 6 -16q0 -8 -5 -15q-21 -29 -61.5 -93.5t-88.5 -149t-98 -181.5
t-91 -190q-5 -12 -17 -12q-7 0 -16.5 5.5t-19 12.5t-17.5 14t-12 11q-9 9 -9 19q0 5 1 8t2 5zM622 132q-2 -2 -4.5 -3t-2.5 -3t1.5 -2.5t7.5 -0.5h8.5t15 0.5t16 0.5h12.5q16 0 20 -18q3 -14 4.5 -35.5t1.5 -40.5q0 -8 -5.5 -14t-13.5 -6l-220 -10q-7 0 -15.5 3t-12.5 13
q-4 9 -7.5 23t-6 27.5t-4 24t-1.5 14.5q0 10 5 15.5t12 9.5q17 8 49 27.5t63.5 44.5t55 52t23.5 51q0 8 -3.5 12t-8.5 4q-11 0 -27.5 -13.5t-30.5 -34.5q-6 -9 -18 -9q-4 0 -6 1q-2 0 -3 1q-12 8 -27.5 17.5t-27.5 17.5q-11 8 -11 21q0 4 2 10q7 16 19.5 32.5t28 30.5
t33.5 23t36 9q6 0 16 -2q4 -1 9 -1q21 -5 46.5 -15t48 -26.5t38 -39.5t15.5 -53q0 -25 -12 -47t-30.5 -42t-42 -37t-46.5 -32z" />
    <glyph glyph-name="threequarters" unicode="&#xbe;" horiz-adv-x="830" 
d="M755 207q0 -11 8 -11q7 0 9.5 -3t4.5 -14q1 -6 1.5 -16t1.5 -19.5t1.5 -17.5t0.5 -11q0 -18 -17 -20h-16q-9 -1 -13 -7t-6 -14l-7 -57q-1 -7 -6.5 -12t-12.5 -5t-18 1.5t-23.5 4.5t-24.5 6.5t-20 7.5q-11 5 -11 24v27q0 13 -15 13q-4 0 -16.5 -1t-27 -2.5t-28 -2.5
t-18.5 -1q-15 0 -23 14q-3 6 -5.5 16t-4.5 20t-3 18.5t-1 13.5q0 8 3 17t7 14l154 220q8 10 19 10q7 0 14.5 -5t13.5 -5q4 0 7 5q5 7 16 7q4 0 14.5 -1.5t23 -4.5t25.5 -6t22 -6q6 -2 9 -7t3 -11q0 -2 -0.5 -2.5t-0.5 -2.5v-3q-7 -25 -17.5 -67.5t-21.5 -95.5zM243 75
q16 45 42.5 103.5t58 121t65 125.5t64.5 117t57.5 95t42.5 61q10 12 20 12q6 0 17 -6q14 -9 31 -22.5t28 -24.5q6 -6 6 -16q0 -8 -5 -15q-21 -29 -61.5 -93.5t-88.5 -149t-98 -181.5t-91 -190q-5 -12 -17 -12q-7 0 -16.5 5.5t-19 12.5t-17.5 14t-12 11q-9 9 -9 19q0 5 1 8
t2 5zM573 200q-3 -5 -3 -8q0 -6 9 -6q2 0 13.5 0.5t19.5 1.5q15 3 18 20q2 10 5.5 24.5t6.5 28t5 23t2 10.5q0 4 -2 4q-3 0 -7 -6zM184 399q16 0 25 9t9 23t-6 25t-22 11q-2 0 -10.5 -1t-11.5 -1q-5 0 -10.5 1.5t-7.5 7.5q-1 2 -3 9t-4.5 15t-4 15.5t-1.5 10.5q0 13 10 15
q44 9 72.5 18t28.5 25q0 11 -8 16t-18 5q-17 0 -37 -5.5t-43 -19.5q-1 0 -3 -1t-3 -1q-7 0 -10 8l-7.5 20t-8 25t-6 23.5t-2.5 15.5q0 7 3 10l5 5q8 5 22.5 10.5t32.5 10t39 7.5t42 3q32 0 56.5 -13.5t41.5 -33t25.5 -41.5t8.5 -39t-7 -29t-18 -21t-23.5 -15t-22.5 -12
q-2 -2 -4.5 -4t-2.5 -4q0 -4 6 -8q6 -5 13.5 -10.5t13.5 -13t10.5 -17.5t4.5 -24q0 -24 -9 -50t-26 -47t-41.5 -34.5t-54.5 -13.5q-9 0 -26 2t-37 6.5t-38.5 11.5t-30.5 18q-21 19 -29 45.5t-8 45.5q0 5 1 10.5t8 8.5q3 1 14.5 3.5t24.5 5t24.5 4t14.5 1.5q5 0 7.5 -3
t4.5 -8q6 -20 16 -28t21 -8z" />
    <glyph glyph-name="questiondown" unicode="&#xbf;" horiz-adv-x="408" 
d="M210 287q8 10 18 10q3 0 9 -2q25 -14 51.5 -35.5t42.5 -42.5q7 -9 7 -20q0 -7 -4 -15q-9 -16 -25.5 -32.5t-36.5 -33.5t-41 -33.5t-38.5 -32t-28.5 -29.5t-11 -25q0 -12 7.5 -21t22.5 -9q20 0 54.5 16.5t62.5 51.5q6 8 15 8q7 0 11 -4q22 -19 43 -46t32 -46q5 -8 5 -18
q0 -9 -5 -17q-10 -14 -29 -33.5t-45.5 -37.5t-59.5 -30.5t-71 -12.5q-42 4 -80 26.5t-66.5 56.5t-45 75.5t-16.5 84.5q0 34 12 59t31 45t43 36t48.5 32t47.5 34t40 41zM324 316q-54 5 -77 33t-23 66q0 44 25.5 72t70.5 28q23 0 39.5 -7.5t27 -20.5t15.5 -29.5t5 -35.5
q0 -29 -12 -52.5t-34 -42.5q-14 -11 -37 -11z" />
    <glyph glyph-name="Agrave" unicode="&#xc0;" horiz-adv-x="538" 
d="M470 637q16 -8 19 -26q2 -15 4 -43.5t3.5 -66t2 -82t0.5 -90.5q0 -47 -0.5 -93t-2 -87.5t-3.5 -75.5t-5 -56q-1 -7 -6 -11.5t-17 -4.5q-8 0 -25.5 2t-37.5 5t-37.5 6t-24.5 5t-11.5 8.5t-4.5 14.5l2 50l2 50q0 14 -16 14q-4 0 -17 -0.5t-29.5 -1t-33.5 -1.5t-28 -1
q-10 -1 -14 -4.5t-9 -14.5q-6 -14 -12 -30t-11.5 -31.5t-10 -29.5t-8.5 -24q-5 -12 -18 -12q-8 0 -23 5t-32 11.5t-32.5 14t-22.5 12.5q-13 7 -13 22v6q0 2 1 3l12 36t13 41q2 6 2 12q0 7 -2 18.5t-4 23.5t-4 22.5t-2 15.5q0 14 13 20q9 3 12 3t9 2q10 2 15 7t10 13
q9 19 23 49.5t29.5 65.5t32.5 72t33.5 70.5t31 59.5t26.5 40q10 10 19 10q11 0 27 -4t24 -4q9 0 12 13q2 13 12 13q7 0 24 -4.5t36.5 -11t37.5 -13.5t29 -13zM246 312q-1 -1 -1 -2q-1 -1 -1 -5q0 -9 13 -9q2 0 10 0.5t18 0.5t18.5 0.5t11.5 0.5q8 0 12 3.5t6 14.5
q1 21 1 46.5v50.5v78q0 11 -4 11q-2 0 -3 -2l-2 -4q-17 -37 -36.5 -84.5t-42.5 -99.5zM493 778q11 -9 11 -19q0 -5 -4 -11q-7 -11 -15.5 -25.5t-16.5 -25.5q-8 -10 -20 -10q-4 0 -10 2q-16 7 -36.5 19t-41 26t-38.5 28.5t-29 25.5q-8 8 -8 19q0 6 4 14q10 17 26 40.5
t28 37.5q1 1 3 2l4 2t5 1q10 0 15 -7q10 -13 25 -28t31.5 -31t33.5 -31.5t33 -28.5z" />
    <glyph glyph-name="Aacute" unicode="&#xc1;" horiz-adv-x="538" 
d="M470 637q16 -8 19 -26q2 -15 4 -43.5t3.5 -66t2 -82t0.5 -90.5q0 -47 -0.5 -93t-2 -87.5t-3.5 -75.5t-5 -56q-1 -7 -6 -11.5t-17 -4.5q-8 0 -25.5 2t-37.5 5t-37.5 6t-24.5 5t-11.5 8.5t-4.5 14.5l2 50l2 50q0 14 -16 14q-4 0 -17 -0.5t-29.5 -1t-33.5 -1.5t-28 -1
q-10 -1 -14 -4.5t-9 -14.5q-6 -14 -12 -30t-11.5 -31.5t-10 -29.5t-8.5 -24q-5 -12 -18 -12q-8 0 -23 5t-32 11.5t-32.5 14t-22.5 12.5q-13 7 -13 22v6q0 2 1 3l12 36t13 41q2 6 2 12q0 7 -2 18.5t-4 23.5t-4 22.5t-2 15.5q0 14 13 20q9 3 12 3t9 2q10 2 15 7t10 13
q9 19 23 49.5t29.5 65.5t32.5 72t33.5 70.5t31 59.5t26.5 40q10 10 19 10q11 0 27 -4t24 -4q9 0 12 13q2 13 12 13q7 0 24 -4.5t36.5 -11t37.5 -13.5t29 -13zM246 312q-1 -1 -1 -2q-1 -1 -1 -5q0 -9 13 -9q2 0 10 0.5t18 0.5t18.5 0.5t11.5 0.5q8 0 12 3.5t6 14.5
q1 21 1 46.5v50.5v78q0 11 -4 11q-2 0 -3 -2l-2 -4q-17 -37 -36.5 -84.5t-42.5 -99.5zM284 801q18 12 36.5 24.5t36.5 25t33.5 24.5t26.5 23q8 8 17 8q8 0 13 -7q5 -8 11.5 -19t12.5 -23t11.5 -24t8.5 -21q2 -6 2 -11q0 -14 -10 -21q-13 -10 -33 -21.5t-42 -22.5t-44 -20.5
t-38 -13.5q-2 -1 -3 -1h-4q-15 0 -22 12q-7 13 -13 29t-11 28q-1 3 -1 8q0 14 12 23z" />
    <glyph glyph-name="Acircumflex" unicode="&#xc2;" horiz-adv-x="538" 
d="M378 746q-6 6 -12 6t-13 -5q-14 -10 -26 -20q-11 -8 -22 -16.5t-17 -13.5q-5 -4 -13 -4q-10 0 -16 8q-7 11 -14.5 24t-13.5 24q-3 4 -3 10q0 13 10 21q10 10 27 24t35.5 29.5t37 29.5t32.5 24q6 4 13 4q10 0 17 -7q12 -11 27 -26.5t30 -31.5t28 -31t22 -25q7 -7 7 -17
q0 -7 -5 -14q-9 -11 -20 -25t-21 -25q-5 -5 -14 -5q-6 0 -10 2q-2 1 -4 3q-14 11 -25 22q-11 9 -21 19zM470 637q16 -8 19 -26q2 -15 4 -43.5t3.5 -66t2 -82t0.5 -90.5q0 -47 -0.5 -93t-2 -87.5t-3.5 -75.5t-5 -56q-1 -7 -6 -11.5t-17 -4.5q-8 0 -25.5 2t-37.5 5t-37.5 6
t-24.5 5t-11.5 8.5t-4.5 14.5l2 50l2 50q0 14 -16 14q-4 0 -17 -0.5t-29.5 -1t-33.5 -1.5t-28 -1q-10 -1 -14 -4.5t-9 -14.5q-6 -14 -12 -30t-11.5 -31.5t-10 -29.5t-8.5 -24q-5 -12 -18 -12q-8 0 -23 5t-32 11.5t-32.5 14t-22.5 12.5q-13 7 -13 22v6q0 2 1 3l12 36t13 41
q2 6 2 12q0 7 -2 18.5t-4 23.5t-4 22.5t-2 15.5q0 14 13 20q9 3 12 3t9 2q10 2 15 7t10 13q9 19 23 49.5t29.5 65.5t32.5 72t33.5 70.5t31 59.5t26.5 40q10 10 19 10q11 0 27 -4t24 -4q9 0 12 13q2 13 12 13q7 0 24 -4.5t36.5 -11t37.5 -13.5t29 -13zM246 312q-1 -1 -1 -2
q-1 -1 -1 -5q0 -9 13 -9q2 0 10 0.5t18 0.5t18.5 0.5t11.5 0.5q8 0 12 3.5t6 14.5q1 21 1 46.5v50.5v78q0 11 -4 11q-2 0 -3 -2l-2 -4q-17 -37 -36.5 -84.5t-42.5 -99.5z" />
    <glyph glyph-name="Atilde" unicode="&#xc3;" horiz-adv-x="538" 
d="M447 697q-18 0 -34 6.5t-31.5 14.5t-31 14.5t-31.5 6.5q-17 0 -30.5 -8t-22.5 -17q-5 -5 -9 -5q-6 0 -7 9l-17 62q-2 8 -2 12q0 6 1.5 12t5.5 10q6 7 15 16t19.5 16.5t23.5 12.5t27 5q18 0 32.5 -6.5t28 -14t27.5 -14t29 -6.5q17 0 31.5 9t23.5 18q5 4 9 4q5 0 8 -7
l16 -65q0 -3 1 -5q0 -2 0.5 -3.5t0.5 -3.5q0 -13 -6 -22q-11 -15 -30 -33t-47 -18zM470 637q16 -8 19 -26q2 -15 4 -43.5t3.5 -66t2 -82t0.5 -90.5q0 -47 -0.5 -93t-2 -87.5t-3.5 -75.5t-5 -56q-1 -7 -6 -11.5t-17 -4.5q-8 0 -25.5 2t-37.5 5t-37.5 6t-24.5 5t-11.5 8.5
t-4.5 14.5l2 50l2 50q0 14 -16 14q-4 0 -17 -0.5t-29.5 -1t-33.5 -1.5t-28 -1q-10 -1 -14 -4.5t-9 -14.5q-6 -14 -12 -30t-11.5 -31.5t-10 -29.5t-8.5 -24q-5 -12 -18 -12q-8 0 -23 5t-32 11.5t-32.5 14t-22.5 12.5q-13 7 -13 22v6q0 2 1 3l12 36t13 41q2 6 2 12
q0 7 -2 18.5t-4 23.5t-4 22.5t-2 15.5q0 14 13 20q9 3 12 3t9 2q10 2 15 7t10 13q9 19 23 49.5t29.5 65.5t32.5 72t33.5 70.5t31 59.5t26.5 40q10 10 19 10q11 0 27 -4t24 -4q9 0 12 13q2 13 12 13q7 0 24 -4.5t36.5 -11t37.5 -13.5t29 -13zM246 312q-1 -1 -1 -2
q-1 -1 -1 -5q0 -9 13 -9q2 0 10 0.5t18 0.5t18.5 0.5t11.5 0.5q8 0 12 3.5t6 14.5q1 21 1 46.5v50.5v78q0 11 -4 11q-2 0 -3 -2l-2 -4q-17 -37 -36.5 -84.5t-42.5 -99.5z" />
    <glyph glyph-name="Adieresis" unicode="&#xc4;" horiz-adv-x="538" 
d="M470 637q16 -8 19 -26q2 -15 4 -43.5t3.5 -66t2 -82t0.5 -90.5q0 -47 -0.5 -93t-2 -87.5t-3.5 -75.5t-5 -56q-1 -7 -6 -11.5t-17 -4.5q-8 0 -25.5 2t-37.5 5t-37.5 6t-24.5 5t-11.5 8.5t-4.5 14.5l2 50l2 50q0 14 -16 14q-4 0 -17 -0.5t-29.5 -1t-33.5 -1.5t-28 -1
q-10 -1 -14 -4.5t-9 -14.5q-6 -14 -12 -30t-11.5 -31.5t-10 -29.5t-8.5 -24q-5 -12 -18 -12q-8 0 -23 5t-32 11.5t-32.5 14t-22.5 12.5q-13 7 -13 22v6q0 2 1 3l12 36t13 41q2 6 2 12q0 7 -2 18.5t-4 23.5t-4 22.5t-2 15.5q0 14 13 20q9 3 12 3t9 2q10 2 15 7t10 13
q9 19 23 49.5t29.5 65.5t32.5 72t33.5 70.5t31 59.5t26.5 40q10 10 19 10q11 0 27 -4t24 -4q9 0 12 13q2 13 12 13q7 0 24 -4.5t36.5 -11t37.5 -13.5t29 -13zM246 312q-1 -1 -1 -2q-1 -1 -1 -5q0 -9 13 -9q2 0 10 0.5t18 0.5t18.5 0.5t11.5 0.5q8 0 12 3.5t6 14.5
q1 21 1 46.5v50.5v78q0 11 -4 11q-2 0 -3 -2l-2 -4q-17 -37 -36.5 -84.5t-42.5 -99.5zM275 870q48 -4 67.5 -24t19.5 -48q0 -17 -5 -33.5t-15.5 -29t-27.5 -20.5t-41 -8q-31 0 -48.5 20t-17.5 53q0 21 8.5 42t28.5 38q12 10 31 10zM461 870q48 -4 67.5 -24t19.5 -48
q0 -17 -5 -33.5t-15.5 -29t-27.5 -20.5t-41 -8q-31 0 -48.5 20t-17.5 53q0 21 8.5 42t28.5 38q12 10 31 10z" />
    <glyph glyph-name="Aring" unicode="&#xc5;" horiz-adv-x="538" 
d="M382 773q14 0 24 14t10 34q0 11 -4.5 19.5t-15.5 8.5q-15 0 -24.5 -14t-9.5 -34q0 -28 20 -28zM391 695q-15 0 -35.5 4.5t-38.5 16.5t-31 33t-13 55q0 26 8 48.5t23 39.5t35.5 27t44.5 10q19 0 40 -6.5t38.5 -20.5t29 -35.5t11.5 -50.5q0 -20 -6.5 -41.5t-20.5 -39
t-35 -29t-50 -11.5zM470 637q16 -8 19 -26q2 -15 4 -43.5t3.5 -66t2 -82t0.5 -90.5q0 -47 -0.5 -93t-2 -87.5t-3.5 -75.5t-5 -56q-1 -7 -6 -11.5t-17 -4.5q-8 0 -25.5 2t-37.5 5t-37.5 6t-24.5 5t-11.5 8.5t-4.5 14.5l2 50l2 50q0 14 -16 14q-4 0 -17 -0.5t-29.5 -1
t-33.5 -1.5t-28 -1q-10 -1 -14 -4.5t-9 -14.5q-6 -14 -12 -30t-11.5 -31.5t-10 -29.5t-8.5 -24q-5 -12 -18 -12q-8 0 -23 5t-32 11.5t-32.5 14t-22.5 12.5q-13 7 -13 22v6q0 2 1 3l12 36t13 41q2 6 2 12q0 7 -2 18.5t-4 23.5t-4 22.5t-2 15.5q0 14 13 20q9 3 12 3t9 2
q10 2 15 7t10 13q9 19 23 49.5t29.5 65.5t32.5 72t33.5 70.5t31 59.5t26.5 40q10 10 19 10q11 0 27 -4t24 -4q9 0 12 13q2 13 12 13q7 0 24 -4.5t36.5 -11t37.5 -13.5t29 -13zM246 312q-1 -1 -1 -2q-1 -1 -1 -5q0 -9 13 -9q2 0 10 0.5t18 0.5t18.5 0.5t11.5 0.5q8 0 12 3.5
t6 14.5q1 21 1 46.5v50.5v78q0 11 -4 11q-2 0 -3 -2l-2 -4q-17 -37 -36.5 -84.5t-42.5 -99.5z" />
    <glyph glyph-name="AE" unicode="&#xc6;" horiz-adv-x="768" 
d="M514 247q-2 -4 -4 -14t-3.5 -21t-3 -20.5t-1.5 -11.5q0 -13 11 -13q4 0 25 1.5t46.5 3.5t50 3.5t36.5 1.5q9 0 17 -6t11 -13q4 -10 9.5 -28t10.5 -36.5t8.5 -34t3.5 -20.5q0 -15 -16 -17q-35 -3 -81.5 -7t-89.5 -7t-74.5 -5.5t-35.5 -2.5q-9 0 -17 3t-13 8
q-17 17 -34 46.5t-33 55.5q-6 9 -6 21v6q-3 12 -20 12h-97q-14 -1 -22 -15q-15 -32 -30 -63t-28 -59q-2 -5 -7.5 -9t-12.5 -4q-8 0 -23 6.5t-31.5 15.5t-31 18.5t-21.5 15.5q-9 7 -9 20q0 3 2 9q3 8 8.5 19.5t10.5 24t9 24t4 20.5q0 8 -1 18.5l-2 21t-2 19t-1 13.5
q0 16 12 20l29 6q9 2 14.5 7t10.5 13q31 52 63 106.5t61 102t54 84.5t42 56q9 9 20 9q5 0 13.5 -3.5t17.5 -7.5t17.5 -7.5t12.5 -3.5q7 0 9 8q0 9 5.5 14t13.5 7q19 4 52.5 8t73.5 7t82.5 4.5t79.5 1.5h37t31 -2q8 -1 15 -5.5t9 -14.5q2 -11 3.5 -26t2 -30.5t1.5 -31
t1 -26.5q0 -9 -5 -13.5t-13 -5.5l-206 -11q-14 -1 -20 -15q-2 -5 -5 -16.5t-5.5 -24l-4.5 -22.5l-2 -10q0 -13 14 -13q6 0 24 1t38 2t38 2t24 1q11 0 17 -6t8 -14q2 -11 4.5 -27t4.5 -31.5t3.5 -28.5t1.5 -19q0 -8 -6 -12.5t-14 -4.5q-14 -1 -34 -2t-42.5 -2.5t-46.5 -3.5
t-45 -4q-17 -1 -23 -16zM334 296q9 0 13 4.5t6 9.5q9 51 19 99.5t18 85.5q0 4 -2 4t-4 -4q-1 -2 -2 -3q-20 -35 -47.5 -81t-56.5 -100q-2 -4 -2 -7q0 -9 9 -9h8t15 0.5t15.5 0.5h10.5z" />
    <glyph glyph-name="Ccedilla" unicode="&#xc7;" horiz-adv-x="506" 
d="M361 386q-14 0 -14 12q0 3 2.5 13.5t5.5 24t5.5 28t2.5 25.5q0 20 -5.5 32.5t-20.5 12.5q-20 0 -43 -24t-42 -61.5t-31.5 -83.5t-12.5 -91q0 -58 22.5 -83.5t52.5 -25.5q17 0 35.5 5.5t36 13.5t33 17t26.5 16q5 4 13 4q12 0 15 -10q7 -19 16 -47t14 -46q2 -8 2 -11
q0 -12 -9 -21q-33 -31 -75.5 -58t-95.5 -29q14 -19 25 -40t11 -40t-17 -38.5t-41 -35t-51 -25.5t-46 -10q-17 0 -24 16q-3 7 -6.5 16.5t-7 19.5t-5.5 18t-2 11q0 13 14 17t28 9t25.5 12.5t18.5 16.5t7 21q0 7 -2.5 20t-6.5 24q-38 12 -74.5 34.5t-62.5 54.5q-24 29 -34 73.5
t-10 91.5q0 69 20 142t56 133t86.5 98t112.5 38q14 0 36.5 -6t47.5 -16t51 -24.5t46.5 -32t33.5 -37t13 -40.5q0 -15 -3.5 -32t-8.5 -33.5t-10 -29.5t-8 -20q-6 -15 -24 -16q-9 -1 -26 -1.5t-35 -1t-34.5 -0.5h-25.5z" />
    <glyph glyph-name="Egrave" unicode="&#xc8;" horiz-adv-x="456" 
d="M434 797q11 -9 11 -19q0 -5 -4 -11q-7 -11 -15.5 -25.5t-16.5 -25.5q-8 -10 -20 -10q-4 0 -10 2q-16 7 -36.5 19t-41 26t-38.5 28.5t-29 25.5q-8 8 -8 19q0 6 4 14q10 17 26 40.5t28 37.5q1 1 3 2l4 2t5 1q10 0 15 -7q10 -13 25 -28t31.5 -31t33.5 -31.5t33 -28.5z
M202 247q-2 -4 -4 -14t-3.5 -21t-3 -20.5t-1.5 -11.5q0 -13 11 -13q4 0 25 1.5t46.5 3.5t50 3.5t36.5 1.5q9 0 17 -6t11 -13q4 -10 9.5 -28t10.5 -36.5t8.5 -34t3.5 -20.5q0 -15 -16 -17q-35 -3 -81.5 -7t-89.5 -7t-74.5 -5.5t-35.5 -2.5q-9 0 -17 3t-13 8q-17 17 -34 46.5
t-33 55.5q-6 9 -6 21q0 25 5 63.5t12 82t16 88.5t17 83.5t14.5 66.5t9.5 39q0 4 1 8q2 10 2 15q0 7 -0.5 26.5t-0.5 30.5q0 9 5.5 14t13.5 7q19 4 51.5 8t71.5 7t81 4.5t79 1.5h37t31 -2q8 -1 15 -5.5t9 -14.5q2 -11 3.5 -26t2 -30.5t1.5 -31t1 -26.5q0 -9 -5 -13.5
t-13 -5.5l-206 -11q-14 -1 -20 -15q-2 -5 -5 -16.5t-5.5 -24l-4.5 -22.5l-2 -10q0 -13 14 -13q6 0 24 1t38 2t38 2t24 1q11 0 17 -6t8 -14q2 -11 4.5 -27t4.5 -31.5t3.5 -28.5t1.5 -19q0 -8 -6 -12.5t-14 -4.5q-14 -1 -34 -2t-42.5 -2.5t-46.5 -3.5t-45 -4q-17 -1 -23 -16z
" />
    <glyph glyph-name="Eacute" unicode="&#xc9;" horiz-adv-x="456" 
d="M271 805q18 12 36.5 24.5t36.5 25t33.5 24.5t26.5 23q8 8 17 8q8 0 13 -7q5 -8 11.5 -19t12.5 -23t11.5 -24t8.5 -21q2 -6 2 -11q0 -14 -10 -21q-13 -10 -33 -21.5t-42 -22.5t-44 -20.5t-38 -13.5q-2 -1 -3 -1h-4q-15 0 -22 12q-7 13 -13 29t-11 28q-1 3 -1 8q0 14 12 23
zM202 247q-2 -4 -4 -14t-3.5 -21t-3 -20.5t-1.5 -11.5q0 -13 11 -13q4 0 25 1.5t46.5 3.5t50 3.5t36.5 1.5q9 0 17 -6t11 -13q4 -10 9.5 -28t10.5 -36.5t8.5 -34t3.5 -20.5q0 -15 -16 -17q-35 -3 -81.5 -7t-89.5 -7t-74.5 -5.5t-35.5 -2.5q-9 0 -17 3t-13 8q-17 17 -34 46.5
t-33 55.5q-6 9 -6 21q0 25 5 63.5t12 82t16 88.5t17 83.5t14.5 66.5t9.5 39q0 4 1 8q2 10 2 15q0 7 -0.5 26.5t-0.5 30.5q0 9 5.5 14t13.5 7q19 4 51.5 8t71.5 7t81 4.5t79 1.5h37t31 -2q8 -1 15 -5.5t9 -14.5q2 -11 3.5 -26t2 -30.5t1.5 -31t1 -26.5q0 -9 -5 -13.5
t-13 -5.5l-206 -11q-14 -1 -20 -15q-2 -5 -5 -16.5t-5.5 -24l-4.5 -22.5l-2 -10q0 -13 14 -13q6 0 24 1t38 2t38 2t24 1q11 0 17 -6t8 -14q2 -11 4.5 -27t4.5 -31.5t3.5 -28.5t1.5 -19q0 -8 -6 -12.5t-14 -4.5q-14 -1 -34 -2t-42.5 -2.5t-46.5 -3.5t-45 -4q-17 -1 -23 -16z
" />
    <glyph glyph-name="Ecircumflex" unicode="&#xca;" horiz-adv-x="456" 
d="M338 766q-6 6 -12 6t-13 -5q-14 -10 -26 -20q-11 -8 -22 -16.5t-17 -13.5q-5 -4 -13 -4q-10 0 -16 8q-7 11 -14.5 24t-13.5 24q-3 4 -3 10q0 13 10 21q10 10 27 24t35.5 29.5t37 29.5t32.5 24q6 4 13 4q10 0 17 -7q12 -11 27 -26.5t30 -31.5t28 -31t22 -25q7 -7 7 -17
q0 -7 -5 -14q-9 -11 -20 -25t-21 -25q-5 -5 -14 -5q-6 0 -10 2q-2 1 -4 3q-14 11 -25 22q-11 9 -21 19zM202 247q-2 -4 -4 -14t-3.5 -21t-3 -20.5t-1.5 -11.5q0 -13 11 -13q4 0 25 1.5t46.5 3.5t50 3.5t36.5 1.5q9 0 17 -6t11 -13q4 -10 9.5 -28t10.5 -36.5t8.5 -34
t3.5 -20.5q0 -15 -16 -17q-35 -3 -81.5 -7t-89.5 -7t-74.5 -5.5t-35.5 -2.5q-9 0 -17 3t-13 8q-17 17 -34 46.5t-33 55.5q-6 9 -6 21q0 25 5 63.5t12 82t16 88.5t17 83.5t14.5 66.5t9.5 39q0 4 1 8q2 10 2 15q0 7 -0.5 26.5t-0.5 30.5q0 9 5.5 14t13.5 7q19 4 51.5 8t71.5 7
t81 4.5t79 1.5h37t31 -2q8 -1 15 -5.5t9 -14.5q2 -11 3.5 -26t2 -30.5t1.5 -31t1 -26.5q0 -9 -5 -13.5t-13 -5.5l-206 -11q-14 -1 -20 -15q-2 -5 -5 -16.5t-5.5 -24l-4.5 -22.5l-2 -10q0 -13 14 -13q6 0 24 1t38 2t38 2t24 1q11 0 17 -6t8 -14q2 -11 4.5 -27t4.5 -31.5
t3.5 -28.5t1.5 -19q0 -8 -6 -12.5t-14 -4.5q-14 -1 -34 -2t-42.5 -2.5t-46.5 -3.5t-45 -4q-17 -1 -23 -16z" />
    <glyph glyph-name="Edieresis" unicode="&#xcb;" horiz-adv-x="467" 
d="M231 875q48 -4 67.5 -24t19.5 -48q0 -17 -5 -33.5t-15.5 -29t-27.5 -20.5t-41 -8q-31 0 -48.5 20t-17.5 53q0 21 8.5 42t28.5 38q12 10 31 10zM417 875q48 -4 67.5 -24t19.5 -48q0 -17 -5 -33.5t-15.5 -29t-27.5 -20.5t-41 -8q-31 0 -48.5 20t-17.5 53q0 21 8.5 42
t28.5 38q12 10 31 10zM202 247q-2 -4 -4 -14t-3.5 -21t-3 -20.5t-1.5 -11.5q0 -13 11 -13q4 0 25 1.5t46.5 3.5t50 3.5t36.5 1.5q9 0 17 -6t11 -13q4 -10 9.5 -28t10.5 -36.5t8.5 -34t3.5 -20.5q0 -15 -16 -17q-35 -3 -81.5 -7t-89.5 -7t-74.5 -5.5t-35.5 -2.5q-9 0 -17 3
t-13 8q-17 17 -34 46.5t-33 55.5q-6 9 -6 21q0 25 5 63.5t12 82t16 88.5t17 83.5t14.5 66.5t9.5 39q0 4 1 8q2 10 2 15q0 7 -0.5 26.5t-0.5 30.5q0 9 5.5 14t13.5 7q19 4 51.5 8t71.5 7t81 4.5t79 1.5h37t31 -2q8 -1 15 -5.5t9 -14.5q2 -11 3.5 -26t2 -30.5t1.5 -31t1 -26.5
q0 -9 -5 -13.5t-13 -5.5l-206 -11q-14 -1 -20 -15q-2 -5 -5 -16.5t-5.5 -24l-4.5 -22.5l-2 -10q0 -13 14 -13q6 0 24 1t38 2t38 2t24 1q11 0 17 -6t8 -14q2 -11 4.5 -27t4.5 -31.5t3.5 -28.5t1.5 -19q0 -8 -6 -12.5t-14 -4.5q-14 -1 -34 -2t-42.5 -2.5t-46.5 -3.5t-45 -4
q-17 -1 -23 -16z" />
    <glyph glyph-name="Igrave" unicode="&#xcc;" horiz-adv-x="234" 
d="M168 18q-2 -15 -17 -15q-11 0 -29.5 4t-37.5 9t-35 10.5t-21 7.5q-8 3 -11.5 11t-3.5 16q0 35 6 87t15 111t20.5 120t23.5 116t24.5 98.5t22.5 66.5q5 14 21 14q5 0 23 -4.5t39.5 -10.5t40.5 -12t26 -8q14 -5 14 -19q0 -1 -0.5 -1.5t-0.5 -1.5v-2q-12 -35 -28 -99.5
t-33.5 -146t-33 -172.5t-25.5 -179zM343 774q11 -9 11 -19q0 -5 -4 -11q-7 -11 -15.5 -25.5t-16.5 -25.5q-8 -10 -20 -10q-4 0 -10 2q-16 7 -36.5 19t-41 26t-38.5 28.5t-29 25.5q-8 8 -8 19q0 6 4 14q10 17 26 40.5t28 37.5q1 1 3 2l4 2t5 1q10 0 15 -7q10 -13 25 -28
t31.5 -31t33.5 -31.5t33 -28.5z" />
    <glyph glyph-name="Iacute" unicode="&#xcd;" horiz-adv-x="234" 
d="M168 18q-2 -15 -17 -15q-11 0 -29.5 4t-37.5 9t-35 10.5t-21 7.5q-8 3 -11.5 11t-3.5 16q0 35 6 87t15 111t20.5 120t23.5 116t24.5 98.5t22.5 66.5q5 14 21 14q5 0 23 -4.5t39.5 -10.5t40.5 -12t26 -8q14 -5 14 -19q0 -1 -0.5 -1.5t-0.5 -1.5v-2q-12 -35 -28 -99.5
t-33.5 -146t-33 -172.5t-25.5 -179zM140 794q18 12 36.5 24.5t36.5 25t33.5 24.5t26.5 23q8 8 17 8q8 0 13 -7q5 -8 11.5 -19t12.5 -23t11.5 -24t8.5 -21q2 -6 2 -11q0 -14 -10 -21q-13 -10 -33 -21.5t-42 -22.5t-44 -20.5t-38 -13.5q-2 -1 -3 -1h-4q-15 0 -22 12
q-7 13 -13 29t-11 28q-1 3 -1 8q0 14 12 23z" />
    <glyph glyph-name="Icircumflex" unicode="&#xce;" horiz-adv-x="234" 
d="M168 18q-2 -15 -17 -15q-11 0 -29.5 4t-37.5 9t-35 10.5t-21 7.5q-8 3 -11.5 11t-3.5 16q0 35 6 87t15 111t20.5 120t23.5 116t24.5 98.5t22.5 66.5q5 14 21 14q5 0 23 -4.5t39.5 -10.5t40.5 -12t26 -8q14 -5 14 -19q0 -1 -0.5 -1.5t-0.5 -1.5v-2q-12 -35 -28 -99.5
t-33.5 -146t-33 -172.5t-25.5 -179zM237 748q-7 7 -12 7q-8 0 -13 -4q-15 -10 -28 -19q-11 -8 -23 -15.5t-18 -11.5q-1 -1 -3 -2q-4 -2 -9 -2q-8 0 -13 5q-3 2 -4 5q-5 11 -12 25t-12 25q-3 7 -3 12q1 8 4 11.5t8 7.5q11 9 29 22t37.5 26.5t38.5 26.5t34 22q4 2 7.5 2.5
t6.5 0.5q8 -1 15 -8q12 -12 25.5 -28.5t27 -33.5t25.5 -33t21 -27q1 -3 3 -6q4 -6 4 -11q0 -3 -4 -9q-2 -3 -3 -5q-9 -9 -21 -23t-23 -23q-6 -5 -14 -5q-6 0 -9 3l-4 4l-24 24q-10 10 -19.5 20t-14.5 17z" />
    <glyph glyph-name="Idieresis" unicode="&#xcf;" horiz-adv-x="234" 
d="M168 18q-2 -15 -17 -15q-11 0 -29.5 4t-37.5 9t-35 10.5t-21 7.5q-8 3 -11.5 11t-3.5 16q0 35 6 87t15 111t20.5 120t23.5 116t24.5 98.5t22.5 66.5q5 14 21 14q5 0 23 -4.5t39.5 -10.5t40.5 -12t26 -8q14 -5 14 -19q0 -1 -0.5 -1.5t-0.5 -1.5v-2q-12 -35 -28 -99.5
t-33.5 -146t-33 -172.5t-25.5 -179zM130 870q48 -4 67.5 -24t19.5 -48q0 -17 -5 -33.5t-15.5 -29t-27.5 -20.5t-41 -8q-31 0 -48.5 20t-17.5 53q0 21 8.5 42t28.5 38q12 10 31 10zM316 870q48 -4 67.5 -24t19.5 -48q0 -17 -5 -33.5t-15.5 -29t-27.5 -20.5t-41 -8
q-31 0 -48.5 20t-17.5 53q0 21 8.5 42t28.5 38q12 10 31 10z" />
    <glyph glyph-name="Eth" unicode="&#xd0;" horiz-adv-x="596" 
d="M238 1q-11 0 -22.5 1.5t-23.5 7.5q-11 6 -28 18.5t-35 28.5t-35.5 33t-29.5 31q-7 7 -7 22q0 26 4.5 64.5t12.5 82.5h-23q-8 0 -14 5t-7 13t-1 17.5v20.5v25t2 22q1 8 7.5 15t14.5 8h44q9 44 16.5 78t12.5 51q2 10 2 17v11.5t-0.5 15t-0.5 14.5v10q0 17 13 22
q48 20 95 32t83 12q55 0 106.5 -27t90.5 -70t62.5 -97.5t23.5 -109.5q0 -72 -29 -138t-79 -117.5t-116 -83.5t-139 -35zM239 173q40 0 75.5 21t62.5 55.5t43 80t16 94.5q0 25 -9 44.5t-23.5 33.5t-34 21.5t-40.5 7.5q-13 0 -22 -4t-12 -16q-5 -18 -10.5 -42t-11.5 -51h51
q8 -1 12 -8t4 -14v-14q0 -18 -1.5 -38.5t-4.5 -34.5q-2 -8 -9.5 -12.5t-15.5 -5.5h-63q-6 -30 -10.5 -57.5t-7.5 -48.5v-2q0 -10 11 -10z" />
    <glyph glyph-name="Ntilde" unicode="&#xd1;" horiz-adv-x="535" 
d="M429 700q-18 0 -34 6.5t-31.5 14.5t-31 14.5t-31.5 6.5q-17 0 -30.5 -8t-22.5 -17q-5 -5 -9 -5q-6 0 -7 9l-17 62q-2 8 -2 12q0 6 1.5 12t5.5 10q6 7 15 16t19.5 16.5t23.5 12.5t27 5q18 0 32.5 -6.5t28 -14t27.5 -14t29 -6.5q17 0 31.5 9t23.5 18q5 4 9 4q5 0 8 -7
l16 -65q0 -3 1 -5q0 -2 0.5 -3.5t0.5 -3.5q0 -13 -6 -22q-11 -15 -30 -33t-47 -18zM427 660q2 7 8 10t14 3q7 0 25 -3.5t38 -8.5t38.5 -10.5t26.5 -9.5q13 -7 13 -20q0 -1 -0.5 -2t-0.5 -2v-2q-11 -35 -28 -99.5t-34.5 -146t-33.5 -172.5t-25 -179q-1 -8 -6.5 -12t-12.5 -4
q-9 0 -31 3t-47 7.5t-48.5 10t-36.5 11.5q-9 4 -14.5 11t-7.5 15q-6 18 -11.5 60.5t-10 91.5t-8.5 94.5t-6 69.5q0 7 -4 7q-3 0 -4 -7q-14 -79 -28 -172.5t-24 -184.5q-1 -8 -6.5 -12.5t-12.5 -4.5t-23 3.5t-34.5 8.5t-35.5 10.5t-26 9.5t-13 12t-4 16q1 35 7.5 86.5
t16.5 110t22 119.5t24.5 115.5t24 98t21.5 67.5q6 15 23 15q7 0 28 -3t47 -7.5t51 -10t39 -11.5q10 -5 15 -12t6 -15q2 -23 4 -61.5t4 -80t3.5 -79.5t2.5 -59q0 -8 4 -8q2 0 4 8q7 49 15.5 99t17.5 93.5t17.5 78t16.5 54.5z" />
    <glyph glyph-name="Ograve" unicode="&#xd2;" horiz-adv-x="569" 
d="M493 768q11 -9 11 -19q0 -5 -4 -11q-7 -11 -15.5 -25.5t-16.5 -25.5q-8 -10 -20 -10q-4 0 -10 2q-16 7 -36.5 19t-41 26t-38.5 28.5t-29 25.5q-8 8 -8 19q0 6 4 14q10 17 26 40.5t28 37.5q1 1 3 2l4 2t5 1q10 0 15 -7q10 -13 25 -28t31.5 -31t33.5 -31.5t33 -28.5z
M343 531q-26 0 -50.5 -25t-43 -64.5t-30 -87.5t-11.5 -93q0 -34 5.5 -55.5t14.5 -34t20.5 -17.5t22.5 -5q27 0 50.5 25t41.5 65.5t28.5 91t10.5 101.5q0 44 -16 71.5t-43 27.5zM291 -1q-29 0 -61 8.5t-62 23t-55 33t-38 38.5q-24 34 -33 80t-9 87q0 31 7 73.5t21 87.5t36 89
t53 78.5t70.5 56t88.5 21.5q18 0 50.5 -9t67.5 -24.5t65.5 -36.5t45.5 -44q22 -35 29 -75t7 -81q0 -35 -7 -79t-22 -89t-37.5 -88t-54 -76t-72 -53.5t-90.5 -20.5z" />
    <glyph glyph-name="Oacute" unicode="&#xd3;" horiz-adv-x="569" 
d="M317 791q18 12 36.5 24.5t36.5 25t33.5 24.5t26.5 23q8 8 17 8q8 0 13 -7q5 -8 11.5 -19t12.5 -23t11.5 -24t8.5 -21q2 -6 2 -11q0 -14 -10 -21q-13 -10 -33 -21.5t-42 -22.5t-44 -20.5t-38 -13.5q-2 -1 -3 -1h-4q-15 0 -22 12q-7 13 -13 29t-11 28q-1 3 -1 8q0 14 12 23
zM343 531q-26 0 -50.5 -25t-43 -64.5t-30 -87.5t-11.5 -93q0 -34 5.5 -55.5t14.5 -34t20.5 -17.5t22.5 -5q27 0 50.5 25t41.5 65.5t28.5 91t10.5 101.5q0 44 -16 71.5t-43 27.5zM291 -1q-29 0 -61 8.5t-62 23t-55 33t-38 38.5q-24 34 -33 80t-9 87q0 31 7 73.5t21 87.5
t36 89t53 78.5t70.5 56t88.5 21.5q18 0 50.5 -9t67.5 -24.5t65.5 -36.5t45.5 -44q22 -35 29 -75t7 -81q0 -35 -7 -79t-22 -89t-37.5 -88t-54 -76t-72 -53.5t-90.5 -20.5z" />
    <glyph glyph-name="Ocircumflex" unicode="&#xd4;" horiz-adv-x="569" 
d="M403 741q-7 7 -12 7q-8 0 -13 -4q-15 -10 -28 -19q-11 -8 -23 -15.5t-18 -11.5q-1 -1 -3 -2q-4 -2 -9 -2q-8 0 -13 5q-3 2 -4 5q-5 11 -12 25t-12 25q-3 7 -3 12q1 8 4 11.5t8 7.5q11 9 29 22t37.5 26.5t38.5 26.5t34 22q4 2 7.5 2.5t6.5 0.5q8 -1 15 -8
q12 -12 25.5 -28.5t27 -33.5t25.5 -33t21 -27q1 -3 3 -6q4 -6 4 -11q0 -3 -4 -9q-2 -3 -3 -5q-9 -9 -21 -23t-23 -23q-6 -5 -14 -5q-6 0 -9 3l-4 4l-24 24q-10 10 -19.5 20t-14.5 17zM343 531q-26 0 -50.5 -25t-43 -64.5t-30 -87.5t-11.5 -93q0 -34 5.5 -55.5t14.5 -34
t20.5 -17.5t22.5 -5q27 0 50.5 25t41.5 65.5t28.5 91t10.5 101.5q0 44 -16 71.5t-43 27.5zM291 -1q-29 0 -61 8.5t-62 23t-55 33t-38 38.5q-24 34 -33 80t-9 87q0 31 7 73.5t21 87.5t36 89t53 78.5t70.5 56t88.5 21.5q18 0 50.5 -9t67.5 -24.5t65.5 -36.5t45.5 -44
q22 -35 29 -75t7 -81q0 -35 -7 -79t-22 -89t-37.5 -88t-54 -76t-72 -53.5t-90.5 -20.5z" />
    <glyph glyph-name="Otilde" unicode="&#xd5;" horiz-adv-x="569" 
d="M449 689q-18 0 -34 6.5t-31.5 14.5t-31 14.5t-31.5 6.5q-17 0 -30.5 -8t-22.5 -17q-5 -5 -9 -5q-6 0 -7 9l-17 62q-2 8 -2 12q0 6 1.5 12t5.5 10q6 7 15 16t19.5 16.5t23.5 12.5t27 5q18 0 32.5 -6.5t28 -14t27.5 -14t29 -6.5q17 0 31.5 9t23.5 18q5 4 9 4q5 0 8 -7
l16 -65q0 -3 1 -5q0 -2 0.5 -3.5t0.5 -3.5q0 -13 -6 -22q-11 -15 -30 -33t-47 -18zM343 531q-26 0 -50.5 -25t-43 -64.5t-30 -87.5t-11.5 -93q0 -34 5.5 -55.5t14.5 -34t20.5 -17.5t22.5 -5q27 0 50.5 25t41.5 65.5t28.5 91t10.5 101.5q0 44 -16 71.5t-43 27.5zM291 -1
q-29 0 -61 8.5t-62 23t-55 33t-38 38.5q-24 34 -33 80t-9 87q0 31 7 73.5t21 87.5t36 89t53 78.5t70.5 56t88.5 21.5q18 0 50.5 -9t67.5 -24.5t65.5 -36.5t45.5 -44q22 -35 29 -75t7 -81q0 -35 -7 -79t-22 -89t-37.5 -88t-54 -76t-72 -53.5t-90.5 -20.5z" />
    <glyph glyph-name="Odieresis" unicode="&#xd6;" horiz-adv-x="569" 
d="M286 867q48 -4 67.5 -24t19.5 -48q0 -17 -5 -33.5t-15.5 -29t-27.5 -20.5t-41 -8q-31 0 -48.5 20t-17.5 53q0 21 8.5 42t28.5 38q12 10 31 10zM472 865q48 -4 67.5 -24t19.5 -48q0 -17 -5 -33.5t-15.5 -29t-27.5 -20.5t-41 -8q-31 0 -48.5 20t-17.5 53q0 21 8.5 42
t28.5 38q12 10 31 10zM343 531q-26 0 -50.5 -25t-43 -64.5t-30 -87.5t-11.5 -93q0 -34 5.5 -55.5t14.5 -34t20.5 -17.5t22.5 -5q27 0 50.5 25t41.5 65.5t28.5 91t10.5 101.5q0 44 -16 71.5t-43 27.5zM291 -1q-29 0 -61 8.5t-62 23t-55 33t-38 38.5q-24 34 -33 80t-9 87
q0 31 7 73.5t21 87.5t36 89t53 78.5t70.5 56t88.5 21.5q18 0 50.5 -9t67.5 -24.5t65.5 -36.5t45.5 -44q22 -35 29 -75t7 -81q0 -35 -7 -79t-22 -89t-37.5 -88t-54 -76t-72 -53.5t-90.5 -20.5z" />
    <glyph glyph-name="multiply" unicode="&#xd7;" horiz-adv-x="411" 
d="M413 422q0 -1 1 -3q0 -2 0.5 -3t0.5 -3q0 -12 -9 -19q-18 -14 -47.5 -37.5t-61.5 -51.5q-7 -6 -7 -13q0 -3 2 -7l2 -4q15 -23 32.5 -48t34.5 -48q6 -8 6 -16q0 -7 -5 -14q-13 -14 -31.5 -31t-33.5 -28q-5 -4 -13 -4q-10 0 -17 6q-6 6 -16.5 18.5t-21.5 26.5t-21 27.5
t-14 19.5q-5 6 -10 6q-6 0 -10 -4q-30 -26 -56 -49t-46 -43q-6 -6 -13 -6q-9 0 -14 7q-8 13 -17 30t-14 31q-2 8 -2 12q0 11 9 22q14 16 36 39t48 50q3 4 5 7t2 8q0 6 -3 11q-14 24 -26 48t-22 43l-2 4q-1 2 -1 8q0 13 9 22q15 17 40 38.5t45 34.5q4 3 9 3q10 0 17 -12
q7 -15 17 -38t22 -46q5 -8 9 -8q3 0 10 5q31 30 58 55.5t42 37.5q1 1 3 2q4 2 7 2q8 0 16 -9q12 -15 27 -38.5t24 -40.5z" />
    <glyph glyph-name="Oslash" unicode="&#xd8;" horiz-adv-x="569" 
d="M541 560q0 -3 2 -9q1 -3 3 -5q17 -32 22.5 -68.5t5.5 -72.5q0 -35 -7 -79t-22 -89t-37.5 -88t-54 -76t-72 -53.5t-90.5 -20.5q-9 0 -20.5 1.5t-23 4t-20 4t-11.5 1.5q-6 0 -9.5 -3t-6.5 -8q-11 -19 -23.5 -35.5t-20.5 -29.5q-2 -3 -6.5 -6.5t-9.5 -3.5q-7 0 -13 4
q-21 14 -43 33t-36 36q-6 6 -6 17q0 8 5 18q5 11 11.5 21t14.5 24q4 8 4 14q0 4 -2 8l-4 8q-22 34 -30 78.5t-8 83.5q0 31 7 73.5t21 87.5t36 89t53 78.5t70.5 56t88.5 21.5q14 0 37 -5.5t50 -15.5q1 -1 2 -1h5q4 0 10 6q3 3 4 6q11 15 24.5 34t24.5 31q8 10 18 10q3 0 7 -2
q2 -1 4 -1q10 -6 23.5 -16t26 -20.5t24 -20.5t17.5 -17q7 -9 7 -15q0 -7 -5 -14q-7 -11 -18.5 -26t-24.5 -35q-4 -5 -4 -13zM343 531q-26 0 -50.5 -25t-43 -64.5t-30 -87.5t-11.5 -93q0 -34 5.5 -55.5t14.5 -34t20.5 -17.5t22.5 -5q27 0 50.5 25t41.5 65.5t28.5 91
t10.5 101.5q0 44 -16 71.5t-43 27.5z" />
    <glyph glyph-name="Ugrave" unicode="&#xd9;" horiz-adv-x="527" 
d="M458 775q11 -9 11 -19q0 -5 -4 -11q-7 -11 -15.5 -25.5t-16.5 -25.5q-8 -10 -20 -10q-4 0 -10 2q-16 7 -36.5 19t-41 26t-38.5 28.5t-29 25.5q-8 8 -8 19q0 6 4 14q10 17 26 40.5t28 37.5q1 1 3 2l4 2t5 1q10 0 15 -7q10 -13 25 -28t31.5 -31t33.5 -31.5t33 -28.5z
M532 631q10 -4 15 -11t5 -14v-16q0 -41 -6 -101t-19.5 -125.5t-34.5 -130.5t-50.5 -117t-69 -84t-88.5 -32q-23 0 -53 6.5t-60.5 18.5t-57.5 29t-43 39q-18 25 -26 60.5t-8 72.5q0 63 10 128.5t24.5 123.5t30.5 104t28 69q10 18 28 18q7 0 22.5 -3t33 -8t35 -10.5
t29.5 -10.5q13 -5 13 -18q0 -1 -0.5 -2t-0.5 -3q-1 -2 -1 -3q-14 -41 -29 -96.5t-27 -111t-20 -104.5t-8 -78q0 -32 11 -51t30 -19q15 0 26.5 10.5t21.5 29t18.5 44t16.5 55.5q13 46 24 99.5t19.5 103.5t14.5 91t9 62q3 16 18 16q6 0 22.5 -4t35.5 -9t36.5 -10t24.5 -8z" />
    <glyph glyph-name="Uacute" unicode="&#xda;" horiz-adv-x="527" 
d="M273 781q18 12 36.5 24.5t36.5 25t33.5 24.5t26.5 23q8 8 17 8q8 0 13 -7q5 -8 11.5 -19t12.5 -23t11.5 -24t8.5 -21q2 -6 2 -11q0 -14 -10 -21q-13 -10 -33 -21.5t-42 -22.5t-44 -20.5t-38 -13.5q-2 -1 -3 -1h-4q-15 0 -22 12q-7 13 -13 29t-11 28q-1 3 -1 8q0 14 12 23
zM532 631q10 -4 15 -11t5 -14v-16q0 -41 -6 -101t-19.5 -125.5t-34.5 -130.5t-50.5 -117t-69 -84t-88.5 -32q-23 0 -53 6.5t-60.5 18.5t-57.5 29t-43 39q-18 25 -26 60.5t-8 72.5q0 63 10 128.5t24.5 123.5t30.5 104t28 69q10 18 28 18q7 0 22.5 -3t33 -8t35 -10.5
t29.5 -10.5q13 -5 13 -18q0 -1 -0.5 -2t-0.5 -3q-1 -2 -1 -3q-14 -41 -29 -96.5t-27 -111t-20 -104.5t-8 -78q0 -32 11 -51t30 -19q15 0 26.5 10.5t21.5 29t18.5 44t16.5 55.5q13 46 24 99.5t19.5 103.5t14.5 91t9 62q3 16 18 16q6 0 22.5 -4t35.5 -9t36.5 -10t24.5 -8z" />
    <glyph glyph-name="Ucircumflex" unicode="&#xdb;" horiz-adv-x="527" 
d="M358 746q-6 6 -12 6t-13 -5q-14 -10 -26 -20q-11 -8 -22 -16.5t-17 -13.5q-5 -4 -13 -4q-10 0 -16 8q-7 11 -14.5 24t-13.5 24q-3 4 -3 10q0 13 10 21q10 10 27 24t35.5 29.5t37 29.5t32.5 24q6 4 13 4q10 0 17 -7q12 -11 27 -26.5t30 -31.5t28 -31t22 -25q7 -7 7 -17
q0 -7 -5 -14q-9 -11 -20 -25t-21 -25q-5 -5 -14 -5q-6 0 -10 2q-2 1 -4 3q-14 11 -25 22q-11 9 -21 19zM532 631q10 -4 15 -11t5 -14v-16q0 -41 -6 -101t-19.5 -125.5t-34.5 -130.5t-50.5 -117t-69 -84t-88.5 -32q-23 0 -53 6.5t-60.5 18.5t-57.5 29t-43 39q-18 25 -26 60.5
t-8 72.5q0 63 10 128.5t24.5 123.5t30.5 104t28 69q10 18 28 18q7 0 22.5 -3t33 -8t35 -10.5t29.5 -10.5q13 -5 13 -18q0 -1 -0.5 -2t-0.5 -3q-1 -2 -1 -3q-14 -41 -29 -96.5t-27 -111t-20 -104.5t-8 -78q0 -32 11 -51t30 -19q15 0 26.5 10.5t21.5 29t18.5 44t16.5 55.5
q13 46 24 99.5t19.5 103.5t14.5 91t9 62q3 16 18 16q6 0 22.5 -4t35.5 -9t36.5 -10t24.5 -8z" />
    <glyph glyph-name="Udieresis" unicode="&#xdc;" horiz-adv-x="527" 
d="M250 864q48 -4 67.5 -24t19.5 -48q0 -17 -5 -33.5t-15.5 -29t-27.5 -20.5t-41 -8q-31 0 -48.5 20t-17.5 53q0 21 8.5 42t28.5 38q12 10 31 10zM436 864q48 -4 67.5 -24t19.5 -48q0 -17 -5 -33.5t-15.5 -29t-27.5 -20.5t-41 -8q-31 0 -48.5 20t-17.5 53q0 21 8.5 42
t28.5 38q12 10 31 10zM532 631q10 -4 15 -11t5 -14v-16q0 -41 -6 -101t-19.5 -125.5t-34.5 -130.5t-50.5 -117t-69 -84t-88.5 -32q-23 0 -53 6.5t-60.5 18.5t-57.5 29t-43 39q-18 25 -26 60.5t-8 72.5q0 63 10 128.5t24.5 123.5t30.5 104t28 69q10 18 28 18q7 0 22.5 -3
t33 -8t35 -10.5t29.5 -10.5q13 -5 13 -18q0 -1 -0.5 -2t-0.5 -3q-1 -2 -1 -3q-14 -41 -29 -96.5t-27 -111t-20 -104.5t-8 -78q0 -32 11 -51t30 -19q15 0 26.5 10.5t21.5 29t18.5 44t16.5 55.5q13 46 24 99.5t19.5 103.5t14.5 91t9 62q3 16 18 16q6 0 22.5 -4t35.5 -9
t36.5 -10t24.5 -8z" />
    <glyph glyph-name="Yacute" unicode="&#xdd;" horiz-adv-x="521" 
d="M287 783q18 12 36.5 24.5t36.5 25t33.5 24.5t26.5 23q8 8 17 8q8 0 13 -7q5 -8 11.5 -19t12.5 -23t11.5 -24t8.5 -21q2 -6 2 -11q0 -14 -10 -21q-13 -10 -33 -21.5t-42 -22.5t-44 -20.5t-38 -13.5q-2 -1 -3 -1h-4q-15 0 -22 12q-7 13 -13 29t-11 28q-1 3 -1 8q0 14 12 23
zM425 659q5 13 18 13q8 0 27 -8t40 -18.5t40 -21.5t27 -18q10 -9 10 -20q0 -4 -2 -10q-24 -66 -61.5 -145t-81.5 -157t-90 -148t-86 -117q-7 -9 -20 -9q-4 0 -10 2q-14 5 -31 13t-34 16.5t-32.5 17t-25.5 15.5q-6 4 -6 13q0 5 3 10q1 3 3 4q14 18 40 50.5t55 74.5q3 4 3 8
q0 7 -12 12q-8 3 -14.5 5.5t-11.5 5.5q-8 3 -14 10.5t-8 14.5q-10 32 -19.5 74t-17.5 89t-14.5 97t-10.5 100q0 8 4.5 14.5t13.5 8.5q13 3 33.5 6.5t41.5 5.5t38.5 3.5t25.5 1.5q7 0 11.5 -5t5.5 -13q1 -23 3.5 -58.5t6.5 -74.5t8.5 -76.5t9.5 -63.5q1 -9 5 -9q3 0 6 6
q32 63 63 134t60 147z" />
    <glyph glyph-name="Thorn" unicode="&#xde;" horiz-adv-x="527" 
d="M314 625q49 -10 90.5 -36t71.5 -62t47 -77t17 -81q0 -54 -27 -102t-68 -83.5t-89 -56.5t-91 -21q-14 0 -28.5 5.5t-31.5 14.5q-3 2 -7 2q-10 0 -11 -11q-5 -25 -8 -49.5t-6 -47.5q-1 -8 -6.5 -12.5t-11.5 -4.5q-5 0 -20.5 3.5t-35 9.5t-39 13t-31.5 14q-10 6 -12 15
t-2 17q3 36 9 82.5t14 98t18.5 106t21.5 105.5q1 4 1 9v10q0 9 -1 21.5t-2 24.5t-2 22t-1 15q0 7 3.5 13.5t9.5 8.5q25 9 29 24q7 24 13.5 44.5t12.5 34.5q3 6 9 10.5t14 4.5q6 0 22 -2.5t35.5 -7t39.5 -10t33 -10.5q9 -6 9 -18q0 -2 -1.5 -11t-1.5 -12q0 -11 14 -13z
M211 269q-1 -1 -1 -2v-5q0 -10 10 -10q25 0 52 15t49 37.5t36 50t14 53.5q0 35 -23.5 52t-57.5 17q-11 0 -22 -3t-15 -16z" />
    <glyph glyph-name="germandbls" unicode="&#xdf;" horiz-adv-x="522" 
d="M1 72q3 31 10 77.5t16.5 100t21 110.5t24.5 110q13 56 30.5 101t40.5 76.5t52.5 48.5t65.5 17t79 -15.5t80.5 -41.5t62 -60.5t23.5 -72.5q0 -25 -12.5 -47t-29.5 -40t-35 -33t-31 -25q-6 -5 -8 -14t4 -15q10 -13 28 -27.5t36 -33t31.5 -40.5t13.5 -50q-1 -21 -12 -54.5
t-31.5 -66t-50.5 -55.5t-69 -23q-41 0 -76.5 17t-60.5 35q-6 5 -9 14t0 16q7 23 16 50t17 46q5 14 19 4q11 -10 27.5 -17.5t32.5 -7.5q17 0 25 7t8 17q0 13 -15 26t-33 30.5t-33 41.5t-14 59q0 31 13.5 55t30 45t30.5 39.5t14 38.5q0 12 -6 24.5t-22 12.5q-35 0 -69 -116
q-13 -48 -25 -105t-22.5 -114t-19 -109t-13.5 -89q-2 -8 -8 -14t-14 -4q-15 2 -31.5 6.5t-32 10t-30 12t-24.5 12.5q-8 5 -12 13.5t-3 16.5z" />
    <glyph glyph-name="agrave" unicode="&#xe0;" horiz-adv-x="479" 
d="M308 25q-13 4 -17.5 11.5t-6.5 15.5l-3 33q0 8 -4 8q-3 0 -6 -6q-24 -42 -49.5 -64.5t-49.5 -22.5q-26 0 -53.5 14.5t-50.5 39.5t-38 58t-15 69q0 45 11.5 103t38 109.5t68.5 87t104 35.5q20 0 50 -7.5t63 -20t65 -28.5t58 -33q12 -8 12 -21q0 -1 -0.5 -2t-0.5 -3v-3
q-15 -56 -25.5 -110.5t-17 -104t-9.5 -92t-4 -72.5q-1 -7 -5.5 -12t-11.5 -5q-6 0 -19 2.5t-28.5 6.5t-31 7.5t-24.5 6.5zM258 193q9 9 11 20q5 35 13 70t15 69v5q0 11 -7 16t-17 5q-21 0 -37 -20t-27.5 -48t-17 -58.5t-5.5 -51.5q0 -20 4 -31t10 -11q11 0 27.5 10.5
t30.5 24.5zM416 612q11 -9 11 -19q0 -5 -4 -11q-7 -11 -15.5 -25.5t-16.5 -25.5q-8 -10 -20 -10q-4 0 -10 2q-16 7 -36.5 19t-41 26t-38.5 28.5t-29 25.5q-8 8 -8 19q0 6 4 14q10 17 26 40.5t28 37.5q1 1 3 2l4 2t5 1q10 0 15 -7q10 -13 25 -28t31.5 -31t33.5 -31.5
t33 -28.5z" />
    <glyph glyph-name="aacute" unicode="&#xe1;" horiz-adv-x="479" 
d="M308 25q-13 4 -17.5 11.5t-6.5 15.5l-3 33q0 8 -4 8q-3 0 -6 -6q-24 -42 -49.5 -64.5t-49.5 -22.5q-26 0 -53.5 14.5t-50.5 39.5t-38 58t-15 69q0 45 11.5 103t38 109.5t68.5 87t104 35.5q20 0 50 -7.5t63 -20t65 -28.5t58 -33q12 -8 12 -21q0 -1 -0.5 -2t-0.5 -3v-3
q-15 -56 -25.5 -110.5t-17 -104t-9.5 -92t-4 -72.5q-1 -7 -5.5 -12t-11.5 -5q-6 0 -19 2.5t-28.5 6.5t-31 7.5t-24.5 6.5zM258 193q9 9 11 20q5 35 13 70t15 69v5q0 11 -7 16t-17 5q-21 0 -37 -20t-27.5 -48t-17 -58.5t-5.5 -51.5q0 -20 4 -31t10 -11q11 0 27.5 10.5
t30.5 24.5zM242 644q18 12 36.5 24.5t36.5 25t33.5 24.5t26.5 23q8 8 17 8q8 0 13 -7q5 -8 11.5 -19t12.5 -23t11.5 -24t8.5 -21q2 -6 2 -11q0 -14 -10 -21q-13 -10 -33 -21.5t-42 -22.5t-44 -20.5t-38 -13.5q-2 -1 -3 -1h-4q-15 0 -22 12q-7 13 -13 29t-11 28q-1 3 -1 8
q0 14 12 23z" />
    <glyph glyph-name="acircumflex" unicode="&#xe2;" horiz-adv-x="479" 
d="M308 25q-13 4 -17.5 11.5t-6.5 15.5l-3 33q0 8 -4 8q-3 0 -6 -6q-24 -42 -49.5 -64.5t-49.5 -22.5q-26 0 -53.5 14.5t-50.5 39.5t-38 58t-15 69q0 45 11.5 103t38 109.5t68.5 87t104 35.5q20 0 50 -7.5t63 -20t65 -28.5t58 -33q12 -8 12 -21q0 -1 -0.5 -2t-0.5 -3v-3
q-15 -56 -25.5 -110.5t-17 -104t-9.5 -92t-4 -72.5q-1 -7 -5.5 -12t-11.5 -5q-6 0 -19 2.5t-28.5 6.5t-31 7.5t-24.5 6.5zM258 193q9 9 11 20q5 35 13 70t15 69v5q0 11 -7 16t-17 5q-21 0 -37 -20t-27.5 -48t-17 -58.5t-5.5 -51.5q0 -20 4 -31t10 -11q11 0 27.5 10.5
t30.5 24.5zM325 595q-6 6 -12 6t-13 -5q-14 -10 -26 -20q-11 -8 -22 -16.5t-17 -13.5q-5 -4 -13 -4q-10 0 -16 8q-7 11 -14.5 24t-13.5 24q-3 4 -3 10q0 13 10 21q10 10 27 24t35.5 29.5t37 29.5t32.5 24q6 4 13 4q10 0 17 -7q12 -11 27 -26.5t30 -31.5t28 -31t22 -25
q7 -7 7 -17q0 -7 -5 -14q-9 -11 -20 -25t-21 -25q-5 -5 -14 -5q-6 0 -10 2q-2 1 -4 3q-14 11 -25 22q-11 9 -21 19z" />
    <glyph glyph-name="atilde" unicode="&#xe3;" horiz-adv-x="479" 
d="M308 25q-13 4 -17.5 11.5t-6.5 15.5l-3 33q0 8 -4 8q-3 0 -6 -6q-24 -42 -49.5 -64.5t-49.5 -22.5q-26 0 -53.5 14.5t-50.5 39.5t-38 58t-15 69q0 45 11.5 103t38 109.5t68.5 87t104 35.5q20 0 50 -7.5t63 -20t65 -28.5t58 -33q12 -8 12 -21q0 -1 -0.5 -2t-0.5 -3v-3
q-15 -56 -25.5 -110.5t-17 -104t-9.5 -92t-4 -72.5q-1 -7 -5.5 -12t-11.5 -5q-6 0 -19 2.5t-28.5 6.5t-31 7.5t-24.5 6.5zM258 193q9 9 11 20q5 35 13 70t15 69v5q0 11 -7 16t-17 5q-21 0 -37 -20t-27.5 -48t-17 -58.5t-5.5 -51.5q0 -20 4 -31t10 -11q11 0 27.5 10.5
t30.5 24.5zM374 536q-18 0 -34 6.5t-31.5 14.5t-31 14.5t-31.5 6.5q-17 0 -30.5 -8t-22.5 -17q-5 -5 -9 -5q-6 0 -7 9l-17 62q-2 8 -2 12q0 6 1.5 12t5.5 10q6 7 15 16t19.5 16.5t23.5 12.5t27 5q18 0 32.5 -6.5t28 -14t27.5 -14t29 -6.5q17 0 31.5 9t23.5 18q5 4 9 4
q5 0 8 -7l16 -65q0 -3 1 -5q0 -2 0.5 -3.5t0.5 -3.5q0 -13 -6 -22q-11 -15 -30 -33t-47 -18z" />
    <glyph glyph-name="adieresis" unicode="&#xe4;" 
d="M308 25q-13 4 -17.5 11.5t-6.5 15.5l-3 33q0 8 -4 8q-3 0 -6 -6q-24 -42 -49.5 -64.5t-49.5 -22.5q-26 0 -53.5 14.5t-50.5 39.5t-38 58t-15 69q0 45 11.5 103t38 109.5t68.5 87t104 35.5q20 0 50 -7.5t63 -20t65 -28.5t58 -33q12 -8 12 -21q0 -1 -0.5 -2t-0.5 -3v-3
q-15 -56 -25.5 -110.5t-17 -104t-9.5 -92t-4 -72.5q-1 -7 -5.5 -12t-11.5 -5q-6 0 -19 2.5t-28.5 6.5t-31 7.5t-24.5 6.5zM258 193q9 9 11 20q5 35 13 70t15 69v5q0 11 -7 16t-17 5q-21 0 -37 -20t-27.5 -48t-17 -58.5t-5.5 -51.5q0 -20 4 -31t10 -11q11 0 27.5 10.5
t30.5 24.5zM212 705q48 -4 67.5 -24t19.5 -48q0 -17 -5 -33.5t-15.5 -29t-27.5 -20.5t-41 -8q-31 0 -48.5 20t-17.5 53q0 21 8.5 42t28.5 38q12 10 31 10zM398 705q48 -4 67.5 -24t19.5 -48q0 -17 -5 -33.5t-15.5 -29t-27.5 -20.5t-41 -8q-31 0 -48.5 20t-17.5 53
q0 21 8.5 42t28.5 38q12 10 31 10z" />
    <glyph glyph-name="aring" unicode="&#xe5;" horiz-adv-x="479" 
d="M308 25q-13 4 -17.5 11.5t-6.5 15.5l-3 33q0 8 -4 8q-3 0 -6 -6q-24 -42 -49.5 -64.5t-49.5 -22.5q-26 0 -53.5 14.5t-50.5 39.5t-38 58t-15 69q0 45 11.5 103t38 109.5t68.5 87t104 35.5q20 0 50 -7.5t63 -20t65 -28.5t58 -33q12 -8 12 -21q0 -1 -0.5 -2t-0.5 -3v-3
q-15 -56 -25.5 -110.5t-17 -104t-9.5 -92t-4 -72.5q-1 -7 -5.5 -12t-11.5 -5q-6 0 -19 2.5t-28.5 6.5t-31 7.5t-24.5 6.5zM258 193q9 9 11 20q5 35 13 70t15 69v5q0 11 -7 16t-17 5q-21 0 -37 -20t-27.5 -48t-17 -58.5t-5.5 -51.5q0 -20 4 -31t10 -11q11 0 27.5 10.5
t30.5 24.5zM315 608q14 0 24 14t10 34q0 11 -4.5 19.5t-15.5 8.5q-15 0 -24.5 -14t-9.5 -34q0 -28 20 -28zM324 530q-15 0 -35.5 4.5t-38.5 16.5t-31 33t-13 55q0 26 8 48.5t23 39.5t35.5 27t44.5 10q19 0 40 -6.5t38.5 -20.5t29 -35.5t11.5 -50.5q0 -20 -6.5 -41.5
t-20.5 -39t-35 -29t-50 -11.5z" />
    <glyph glyph-name="ae" unicode="&#xe6;" horiz-adv-x="679" 
d="M433 192q0 -16 11 -29.5t36 -13.5q18 0 35.5 4t32.5 9t26.5 9t16.5 4q12 0 17 -12q3 -6 7 -17t7 -23t5.5 -22.5t2.5 -14.5q0 -11 -3 -16t-8 -10q-9 -9 -24.5 -19.5t-34.5 -19.5t-40.5 -15t-40.5 -6q-20 0 -44.5 5.5t-50 17t-49 29t-40.5 41.5q-29 -51 -61.5 -72
t-53.5 -21q-25 0 -54 13.5t-53.5 38t-41 58.5t-16.5 74q0 64 14 124t41 106t67 74t93 28q11 0 26.5 -3.5t33 -10t36 -15.5t34.5 -20q21 23 47 36.5t55 13.5q22 0 50.5 -8.5t56 -21t49.5 -26.5t33 -26q15 -17 23 -32.5t8 -39.5q0 -33 -14 -62.5t-38.5 -52t-59.5 -35.5
t-77 -13q-12 0 -27 1.5t-20 1.5q-13 0 -13 -11zM197 150q4 0 13 3.5t19 9t19.5 12.5t16.5 15v26q0 32 8 71.5t24 77.5q-5 5 -13.5 10t-15.5 5q-20 0 -36 -21t-27 -50.5t-17 -62t-6 -54.5q0 -20 4 -31t11 -11zM516 402q-11 0 -22 -13.5t-21 -31t-16 -34.5t-6 -24
q0 -12 10 -12q15 0 28.5 8.5t23 21t15.5 28t6 29.5q0 11 -4 19.5t-14 8.5z" />
    <glyph glyph-name="ccedilla" unicode="&#xe7;" horiz-adv-x="426" 
d="M279 271q-16 2 -16 17q0 3 2 12t4.5 20.5t4.5 23t2 19.5q0 12 -3 19.5t-11 7.5q-12 0 -25.5 -18t-25 -45t-19 -57.5t-7.5 -54.5q0 -32 11 -46.5t36 -14.5q18 0 35 4.5t32 9.5t26 9.5t16 4.5q12 0 17 -12q3 -6 7 -17.5t8 -24t6.5 -23.5t2.5 -15q0 -19 -11 -30
q-9 -9 -24 -19.5t-33.5 -19.5t-39 -15t-39.5 -6q14 -19 25 -40t11 -40t-17 -38.5t-41 -35t-51 -25.5t-46 -10q-17 0 -24 16q-3 7 -6.5 16.5t-7 19.5t-5.5 18t-2 11q0 13 14 17t28 9t25.5 12.5t18.5 16.5t7 21q0 6 -2.5 20.5t-6.5 25.5q-30 11 -58.5 30t-48.5 48
q-18 24 -24.5 56.5t-6.5 67.5q0 48 15 101t41.5 97.5t63.5 73.5t81 29q7 0 25.5 -4t42 -12.5t48.5 -20t45.5 -27t34 -34t13.5 -40.5q0 -19 -9 -44t-20 -43q-3 -7 -10.5 -13t-16.5 -6q-21 -2 -47 -2h-45z" />
    <glyph glyph-name="egrave" unicode="&#xe8;" horiz-adv-x="431" 
d="M386 610q11 -9 11 -19q0 -5 -4 -11q-7 -11 -15.5 -25.5t-16.5 -25.5q-8 -10 -20 -10q-4 0 -10 2q-16 7 -36.5 19t-41 26t-38.5 28.5t-29 25.5q-8 8 -8 19q0 6 4 14q10 17 26 40.5t28 37.5q1 1 3 2l4 2t5 1q10 0 15 -7q10 -13 25 -28t31.5 -31t33.5 -31.5t33 -28.5z
M185 192q0 -16 11 -29.5t36 -13.5q18 0 35.5 4t32.5 9t26.5 9t16.5 4q12 0 17 -12q3 -6 7 -17t7 -23t5.5 -22.5t2.5 -14.5q0 -11 -3 -16t-8 -10q-9 -9 -24.5 -19.5t-34.5 -19.5t-40.5 -15t-40.5 -6q-20 0 -44.5 5.5t-49.5 17t-48.5 28.5t-40.5 41q-18 24 -24.5 56.5
t-6.5 67.5q0 40 13.5 92.5t39 98.5t62 78t82.5 32q22 0 50.5 -8.5t56 -21t49.5 -26.5t33 -26q15 -17 23 -32.5t8 -39.5q0 -33 -14 -62.5t-38.5 -52t-59.5 -35.5t-77 -13q-12 0 -27 1.5t-20 1.5q-13 0 -13 -11zM268 402q-11 0 -22 -13.5t-21 -31t-16 -34.5t-6 -24
q0 -12 10 -12q15 0 28.5 8.5t23 21t15.5 28t6 29.5q0 11 -4 19.5t-14 8.5z" />
    <glyph glyph-name="eacute" unicode="&#xe9;" horiz-adv-x="431" 
d="M202 638q18 12 36.5 24.5t36.5 25t33.5 24.5t26.5 23q8 8 17 8q8 0 13 -7q5 -8 11.5 -19t12.5 -23t11.5 -24t8.5 -21q2 -6 2 -11q0 -14 -10 -21q-13 -10 -33 -21.5t-42 -22.5t-44 -20.5t-38 -13.5q-2 -1 -3 -1h-4q-15 0 -22 12q-7 13 -13 29t-11 28q-1 3 -1 8q0 14 12 23
zM185 192q0 -16 11 -29.5t36 -13.5q18 0 35.5 4t32.5 9t26.5 9t16.5 4q12 0 17 -12q3 -6 7 -17t7 -23t5.5 -22.5t2.5 -14.5q0 -11 -3 -16t-8 -10q-9 -9 -24.5 -19.5t-34.5 -19.5t-40.5 -15t-40.5 -6q-20 0 -44.5 5.5t-49.5 17t-48.5 28.5t-40.5 41q-18 24 -24.5 56.5
t-6.5 67.5q0 40 13.5 92.5t39 98.5t62 78t82.5 32q22 0 50.5 -8.5t56 -21t49.5 -26.5t33 -26q15 -17 23 -32.5t8 -39.5q0 -33 -14 -62.5t-38.5 -52t-59.5 -35.5t-77 -13q-12 0 -27 1.5t-20 1.5q-13 0 -13 -11zM268 402q-11 0 -22 -13.5t-21 -31t-16 -34.5t-6 -24
q0 -12 10 -12q15 0 28.5 8.5t23 21t15.5 28t6 29.5q0 11 -4 19.5t-14 8.5z" />
    <glyph glyph-name="ecircumflex" unicode="&#xea;" horiz-adv-x="431" 
d="M299 587q-6 6 -12 6t-13 -5q-14 -10 -26 -20l-22 -16t-18 -13q-6 -3 -13 -3q-10 0 -15 8q-7 11 -14.5 24t-13.5 24q-2 4 -2 11q0 12 10 20q10 10 27 24t36 29t37.5 29t33.5 23q6 4 13 4q5 0 9 -2.5t8 -5.5q11 -9 25.5 -24.5t29 -32t28 -32.5t22.5 -26q6 -6 6 -17
q0 -7 -5 -14q-9 -11 -20 -25t-22 -25q-2 -2 -5 -3.5t-9 -1.5q-7 0 -10 3q-3 1 -4 3q-14 12 -25 23q-10 9 -20 19zM185 192q0 -16 11 -29.5t36 -13.5q18 0 35.5 4t32.5 9t26.5 9t16.5 4q12 0 17 -12q3 -6 7 -17t7 -23t5.5 -22.5t2.5 -14.5q0 -11 -3 -16t-8 -10
q-9 -9 -24.5 -19.5t-34.5 -19.5t-40.5 -15t-40.5 -6q-20 0 -44.5 5.5t-49.5 17t-48.5 28.5t-40.5 41q-18 24 -24.5 56.5t-6.5 67.5q0 40 13.5 92.5t39 98.5t62 78t82.5 32q22 0 50.5 -8.5t56 -21t49.5 -26.5t33 -26q15 -17 23 -32.5t8 -39.5q0 -33 -14 -62.5t-38.5 -52
t-59.5 -35.5t-77 -13q-12 0 -27 1.5t-20 1.5q-13 0 -13 -11zM268 402q-11 0 -22 -13.5t-21 -31t-16 -34.5t-6 -24q0 -12 10 -12q15 0 28.5 8.5t23 21t15.5 28t6 29.5q0 11 -4 19.5t-14 8.5z" />
    <glyph glyph-name="edieresis" unicode="&#xeb;" horiz-adv-x="431" 
d="M182 700q48 -4 67.5 -24t19.5 -48q0 -17 -5 -33.5t-15.5 -29t-27.5 -20.5t-41 -8q-31 0 -48.5 20t-17.5 53q0 21 8.5 42t28.5 38q12 10 31 10zM368 700q48 -4 67.5 -24t19.5 -48q0 -17 -5 -33.5t-15.5 -29t-27.5 -20.5t-41 -8q-31 0 -48.5 20t-17.5 53q0 21 8.5 42
t28.5 38q12 10 31 10zM185 192q0 -16 11 -29.5t36 -13.5q18 0 35.5 4t32.5 9t26.5 9t16.5 4q12 0 17 -12q3 -6 7 -17t7 -23t5.5 -22.5t2.5 -14.5q0 -11 -3 -16t-8 -10q-9 -9 -24.5 -19.5t-34.5 -19.5t-40.5 -15t-40.5 -6q-20 0 -44.5 5.5t-49.5 17t-48.5 28.5t-40.5 41
q-18 24 -24.5 56.5t-6.5 67.5q0 40 13.5 92.5t39 98.5t62 78t82.5 32q22 0 50.5 -8.5t56 -21t49.5 -26.5t33 -26q15 -17 23 -32.5t8 -39.5q0 -33 -14 -62.5t-38.5 -52t-59.5 -35.5t-77 -13q-12 0 -27 1.5t-20 1.5q-13 0 -13 -11zM268 402q-11 0 -22 -13.5t-21 -31t-16 -34.5
t-6 -24q0 -12 10 -12q15 0 28.5 8.5t23 21t15.5 28t6 29.5q0 11 -4 19.5t-14 8.5z" />
    <glyph glyph-name="igrave" unicode="&#xec;" horiz-adv-x="229" 
d="M164 18q-3 -17 -19 -17q-7 0 -24 3.5t-36.5 9t-37 11t-25.5 8.5q-16 7 -16 28q2 41 10 102t18.5 124t22.5 118.5t22 87.5q4 13 24.5 14.5t45.5 -3t48.5 -12t34.5 -12.5q13 -7 13 -19q0 -1 -0.5 -2t-0.5 -2v-2q-11 -50 -23 -107.5t-23 -116t-20 -114t-14 -99.5zM290 614
q11 -9 11 -19q0 -5 -4 -11q-7 -11 -15.5 -25.5t-16.5 -25.5q-8 -10 -20 -10q-4 0 -10 2q-16 7 -36.5 19t-41 26t-38.5 28.5t-29 25.5q-8 8 -8 19q0 6 4 14q10 17 26 40.5t28 37.5q1 1 3 2l4 2t5 1q10 0 15 -7q10 -13 25 -28t31.5 -31t33.5 -31.5t33 -28.5z" />
    <glyph glyph-name="iacute" unicode="&#xed;" horiz-adv-x="229" 
d="M164 18q-3 -17 -19 -17q-7 0 -24 3.5t-36.5 9t-37 11t-25.5 8.5q-16 7 -16 28q2 41 10 102t18.5 124t22.5 118.5t22 87.5q5 17 25 17q6 0 24 -3.5t39 -8.5t40 -10t25 -8q13 -7 13 -19q0 -1 -0.5 -2t-0.5 -2v-2q-11 -50 -23 -107.5t-23 -116t-20 -114t-14 -99.5zM92 641
q18 12 36.5 24.5t36.5 25t33.5 24.5t26.5 23q8 8 17 8q8 0 13 -7q5 -8 11.5 -19t12.5 -23t11.5 -24t8.5 -21q2 -6 2 -11q0 -14 -10 -21q-13 -10 -33 -21.5t-42 -22.5t-44 -20.5t-38 -13.5q-2 -1 -3 -1h-4q-15 0 -22 12q-7 13 -13 29t-11 28q-1 3 -1 8q0 14 12 23z" />
    <glyph glyph-name="icircumflex" unicode="&#xee;" horiz-adv-x="229" 
d="M164 18q-3 -17 -19 -17q-7 0 -24 3.5t-36.5 9t-37 11t-25.5 8.5q-16 7 -16 28q2 41 10 102t18.5 124t22.5 118.5t22 87.5q5 17 25 17q6 0 24 -3.5t39 -8.5t40 -10t25 -8q13 -7 13 -19q0 -1 -0.5 -2t-0.5 -2v-2q-11 -50 -23 -107.5t-23 -116t-20 -114t-14 -99.5zM192 596
q-7 7 -12 7q-8 0 -13 -4q-15 -10 -28 -19q-11 -8 -23 -15.5t-18 -11.5q-1 -1 -3 -2q-4 -2 -9 -2q-8 0 -13 5q-3 2 -4 5q-5 11 -12 25t-12 25q-3 7 -3 12q1 8 4 11.5t8 7.5q11 9 29 22t37.5 26.5t38.5 26.5t34 22q4 2 7.5 2.5t6.5 0.5q8 -1 15 -8q12 -12 25.5 -28.5t27 -33.5
t25.5 -33t21 -27q1 -3 3 -6q4 -6 4 -11q0 -3 -4 -9q-2 -3 -3 -5q-9 -9 -21 -23t-23 -23q-6 -5 -14 -5q-6 0 -9 3l-4 4l-24 24q-10 10 -19.5 20t-14.5 17z" />
    <glyph glyph-name="idieresis" unicode="&#xef;" horiz-adv-x="229" 
d="M164 18q-3 -17 -19 -17q-7 0 -24 3.5t-36.5 9t-37 11t-25.5 8.5q-16 7 -16 28q2 41 10 102t18.5 124t22.5 118.5t22 87.5q5 17 25 17q6 0 24 -3.5t39 -8.5t40 -10t25 -8q13 -7 13 -19q0 -1 -0.5 -2t-0.5 -2v-2q-11 -50 -23 -107.5t-23 -116t-20 -114t-14 -99.5zM74 707
q48 -4 67.5 -24t19.5 -48q0 -17 -5 -33.5t-15.5 -29t-27.5 -20.5t-41 -8q-31 0 -48.5 20t-17.5 53q0 21 8.5 42t28.5 38q12 10 31 10zM260 707q48 -4 67.5 -24t19.5 -48q0 -17 -5 -33.5t-15.5 -29t-27.5 -20.5t-41 -8q-31 0 -48.5 20t-17.5 53q0 21 8.5 42t28.5 38
q12 10 31 10z" />
    <glyph glyph-name="eth" unicode="&#xf0;" horiz-adv-x="469" 
d="M474 670q0 -2 0.5 -3t0.5 -2q0 -13 -11 -18l-17 -8q-12 -6 -12 -17q0 -4 1 -6q0 -2 1 -3q16 -46 23.5 -97.5t7.5 -103.5q0 -72 -14 -145.5t-41.5 -132.5t-68.5 -96.5t-95 -37.5q-15 0 -37.5 3.5t-48.5 13t-51.5 25.5t-46.5 40.5t-34 58t-13 78.5q0 43 13 96t37 100
t58.5 79t78.5 32q40 0 76 -31q4 -4 7 -4q4 0 4 7q0 1 -1 7t-2 13t-3 14.5t-3 13.5q-3 11 -11 11q-1 0 -1 -0.5t-1 -0.5h-2l-18 -7q-3 -1 -8 -1q-13 0 -17 12l-21 56q-1 1 -1 3q-1 2 -1 5q0 11 13 17l15 7q10 4 10 12q0 4 -4.5 12t-6.5 13q-1 1 -2 3t-1 8q0 8 10 13l102 39
q6 2 9 2q11 0 17 -10q4 -7 9.5 -13t14.5 -6q5 0 13 3l29 13q6 2 8 2q13 0 16 -12l20 -54v-3zM184 194q0 -25 6.5 -39.5t20.5 -14.5q12 0 25 14t24.5 40.5t20.5 64.5t14 85q-1 15 -9.5 30t-18.5 15q-14 0 -28.5 -21t-26.5 -51t-20 -64t-8 -59z" />
    <glyph glyph-name="ntilde" unicode="&#xf1;" horiz-adv-x="482" 
d="M243 431q25 37 53 60t55 23q18 0 40 -12t41.5 -30.5t33 -40t13.5 -40.5q0 -12 -3 -37t-8.5 -57.5t-12.5 -70t-14.5 -75t-15 -72t-14.5 -61.5q-2 -7 -8.5 -12t-14.5 -5q-9 0 -27 5t-37.5 11.5t-36.5 14t-24 12.5q-13 9 -13 22v5q0 1 1 3q5 21 12.5 56t15 72.5t13 72.5
t5.5 57q0 24 -8 24q-7 0 -26 -11t-34 -27q-8 -8 -11 -16t-5 -16q-7 -35 -14.5 -73t-14.5 -74t-13.5 -68t-10.5 -53q-5 -16 -20 -16q-9 0 -27 4.5t-37.5 10.5t-36 12t-23.5 10q-8 4 -10.5 10.5t-2.5 14.5v5q0 2 1 3q4 20 10 54t12.5 74.5t13 84.5t13 85t11.5 75t8 56
q2 8 8 12.5t14 4.5q7 0 23.5 -2.5t35 -6t35 -7t24.5 -6.5q17 -6 18 -28l2 -33q0 -9 4 -9q3 0 5 2q1 1 2 3zM360 539q-18 0 -34 6.5t-31.5 14.5t-31 14.5t-31.5 6.5q-17 0 -30.5 -8t-22.5 -17q-5 -5 -9 -5q-6 0 -7 9l-17 62q-2 8 -2 12q0 6 1.5 12t5.5 10q6 7 15 16
t19.5 16.5t23.5 12.5t27 5q18 0 32.5 -6.5t28 -14t27.5 -14t29 -6.5q17 0 31.5 9t23.5 18q5 4 9 4q5 0 8 -7l16 -65q0 -3 1 -5q0 -2 0.5 -3.5t0.5 -3.5q0 -13 -6 -22q-11 -15 -30 -33t-47 -18z" />
    <glyph glyph-name="ograve" unicode="&#xf2;" horiz-adv-x="468" 
d="M408 606q11 -9 11 -19q0 -5 -4 -11q-7 -11 -15.5 -25.5t-16.5 -25.5q-8 -10 -20 -10q-4 0 -10 2q-16 7 -36.5 19t-41 26t-38.5 28.5t-29 25.5q-8 8 -8 19q0 6 4 14q10 17 26 40.5t28 37.5q1 1 3 2l4 2t5 1q10 0 15 -7q10 -13 25 -28t31.5 -31t33.5 -31.5t33 -28.5z
M214 135q17 0 32 21t26 51.5t17 64t6 58.5q0 27 -7.5 42.5t-21.5 15.5q-15 0 -29.5 -21.5t-26.5 -53t-19.5 -66t-7.5 -60.5q0 -23 8 -37.5t23 -14.5zM461 305q0 -21 -4.5 -52t-14.5 -64.5t-26 -67.5t-40 -60.5t-56 -43.5t-73 -17q-17 0 -44 5t-56.5 16t-57 28.5t-44.5 43.5
q-16 23 -22 51.5t-6 66.5q0 25 5.5 58t16.5 67t28 66.5t39.5 58t51.5 41t64 15.5q10 0 34.5 -5.5t53.5 -16t58 -25.5t49 -34q12 -11 20.5 -27t13.5 -33.5t7.5 -36t2.5 -34.5z" />
    <glyph glyph-name="oacute" unicode="&#xf3;" horiz-adv-x="468" 
d="M222 637q18 12 36.5 24.5t36.5 25t33.5 24.5t26.5 23q8 8 17 8q8 0 13 -7q5 -8 11.5 -19t12.5 -23t11.5 -24t8.5 -21q2 -6 2 -11q0 -14 -10 -21q-13 -10 -33 -21.5t-42 -22.5t-44 -20.5t-38 -13.5q-2 -1 -3 -1h-4q-15 0 -22 12q-7 13 -13 29t-11 28q-1 3 -1 8q0 14 12 23
zM214 135q17 0 32 21t26 51.5t17 64t6 58.5q0 27 -7.5 42.5t-21.5 15.5q-15 0 -29.5 -21.5t-26.5 -53t-19.5 -66t-7.5 -60.5q0 -23 8 -37.5t23 -14.5zM461 305q0 -21 -4.5 -52t-14.5 -64.5t-26 -67.5t-40 -60.5t-56 -43.5t-73 -17q-17 0 -44 5t-56.5 16t-57 28.5t-44.5 43.5
q-16 23 -22 51.5t-6 66.5q0 25 5.5 58t16.5 67t28 66.5t39.5 58t51.5 41t64 15.5q10 0 34.5 -5.5t53.5 -16t58 -25.5t49 -34q12 -11 20.5 -27t13.5 -33.5t7.5 -36t2.5 -34.5z" />
    <glyph glyph-name="ocircumflex" unicode="&#xf4;" horiz-adv-x="468" 
d="M314 585q-7 7 -12 7q-8 0 -13 -4q-15 -11 -28 -20q-11 -8 -23 -15.5t-18 -12.5q-1 -1 -3 -2q-4 -2 -9 -2q-6 0 -12 6q-3 3 -4 6q-5 10 -10 19q-5 8 -9.5 16t-6.5 13q-3 7 -3 12q1 8 4 11.5t8 7.5q11 9 28.5 22t37 27t38.5 27.5t33 22.5q4 2 7.5 2.5t6.5 0.5q9 -1 15 -7
q12 -12 26 -28t28 -33t26 -33t21 -27q2 -2 4 -5q4 -6 4 -11q0 -4 -4 -10q-2 -3 -3 -5q-9 -9 -20.5 -23t-22.5 -23q-8 -6 -14 -6t-9 3l-4 4q-13 12 -24 23l-20 20t-15 17zM214 135q17 0 32 21t26 51.5t17 64t6 58.5q0 27 -7.5 42.5t-21.5 15.5q-15 0 -29.5 -21.5t-26.5 -53
t-19.5 -66t-7.5 -60.5q0 -23 8 -37.5t23 -14.5zM461 305q0 -21 -4.5 -52t-14.5 -64.5t-26 -67.5t-40 -60.5t-56 -43.5t-73 -17q-17 0 -44 5t-56.5 16t-57 28.5t-44.5 43.5q-16 23 -22 51.5t-6 66.5q0 25 5.5 58t16.5 67t28 66.5t39.5 58t51.5 41t64 15.5q10 0 34.5 -5.5
t53.5 -16t58 -25.5t49 -34q12 -11 20.5 -27t13.5 -33.5t7.5 -36t2.5 -34.5z" />
    <glyph glyph-name="otilde" unicode="&#xf5;" horiz-adv-x="468" 
d="M359 534q-18 0 -34 6.5t-31.5 14.5t-31 14.5t-31.5 6.5q-17 0 -30.5 -8t-22.5 -17q-5 -5 -9 -5q-6 0 -7 9l-17 62q-2 8 -2 12q0 6 1.5 12t5.5 10q6 7 15 16t19.5 16.5t23.5 12.5t27 5q18 0 32.5 -6.5t28 -14t27.5 -14t29 -6.5q17 0 31.5 9t23.5 18q5 4 9 4q5 0 8 -7
l16 -65q0 -3 1 -5q0 -2 0.5 -3.5t0.5 -3.5q0 -13 -6 -22q-11 -15 -30 -33t-47 -18zM214 135q17 0 32 21t26 51.5t17 64t6 58.5q0 27 -7.5 42.5t-21.5 15.5q-15 0 -29.5 -21.5t-26.5 -53t-19.5 -66t-7.5 -60.5q0 -23 8 -37.5t23 -14.5zM461 305q0 -21 -4.5 -52t-14.5 -64.5
t-26 -67.5t-40 -60.5t-56 -43.5t-73 -17q-17 0 -44 5t-56.5 16t-57 28.5t-44.5 43.5q-16 23 -22 51.5t-6 66.5q0 25 5.5 58t16.5 67t28 66.5t39.5 58t51.5 41t64 15.5q10 0 34.5 -5.5t53.5 -16t58 -25.5t49 -34q12 -11 20.5 -27t13.5 -33.5t7.5 -36t2.5 -34.5z" />
    <glyph glyph-name="odieresis" unicode="&#xf6;" horiz-adv-x="468" 
d="M203 705q48 -4 67.5 -24t19.5 -48q0 -17 -5 -33.5t-15.5 -29t-27.5 -20.5t-41 -8q-31 0 -48.5 20t-17.5 53q0 21 8.5 42t28.5 38q12 10 31 10zM389 700q48 -4 67.5 -24t19.5 -48q0 -17 -5 -33.5t-15.5 -29t-27.5 -20.5t-41 -8q-31 0 -48.5 20t-17.5 53q0 21 8.5 42
t28.5 38q12 10 31 10zM214 135q17 0 32 21t26 51.5t17 64t6 58.5q0 27 -7.5 42.5t-21.5 15.5q-15 0 -29.5 -21.5t-26.5 -53t-19.5 -66t-7.5 -60.5q0 -23 8 -37.5t23 -14.5zM461 305q0 -21 -4.5 -52t-14.5 -64.5t-26 -67.5t-40 -60.5t-56 -43.5t-73 -17q-17 0 -44 5t-56.5 16
t-57 28.5t-44.5 43.5q-16 23 -22 51.5t-6 66.5q0 25 5.5 58t16.5 67t28 66.5t39.5 58t51.5 41t64 15.5q10 0 34.5 -5.5t53.5 -16t58 -25.5t49 -34q12 -11 20.5 -27t13.5 -33.5t7.5 -36t2.5 -34.5z" />
    <glyph glyph-name="divide" unicode="&#xf7;" horiz-adv-x="459" 
d="M188 200q50 -5 73 -28.5t23 -58.5q0 -38 -24.5 -63.5t-62.5 -25.5q-44 0 -62.5 24t-18.5 59q0 50 40 82q5 5 14 8t18 3zM264 591q51 -5 72.5 -29.5t21.5 -57.5q0 -38 -23 -63.5t-63 -25.5q-33 0 -56 22t-23 58q0 25 11 47t30 38q5 5 13.5 8t16.5 3zM52 342q0 7 7 13.5
t15 7.5q16 2 41.5 3.5t56 3t64 2t64.5 0.5q32 0 59 -1t44 -3q8 -1 14 -8t7 -14q0 -19 -2 -43.5t-5 -41.5q-1 -8 -8 -13t-15 -5q-23 0 -67.5 0.5t-93 0.5t-93 0.5t-68.5 0.5q-8 0 -14.5 5.5t-7.5 13.5q-1 7 -1.5 15.5t-0.5 17.5q0 12 1 24t3 21z" />
    <glyph glyph-name="oslash" unicode="&#xf8;" horiz-adv-x="468" 
d="M461 305q0 -21 -4.5 -52t-14.5 -64.5t-26 -67.5t-40 -60.5t-56 -43.5t-73 -17q-20 0 -33 3t-22 3q-4 0 -9 -2t-10 -10q-12 -20 -24 -39.5t-20 -33.5q-6 -11 -17 -11q-4 0 -6 1t-3 2q-22 14 -46 32t-37 37q-4 5 -4 15q0 5 2 13q1 4 3 7l22 49q4 10 4 16q0 5 -2 9l-4 8
q-14 22 -19 49.5t-5 62.5q0 25 5.5 58t16.5 67t28 66.5t39.5 58t51.5 41t64 15.5q13 0 55 -11q1 -1 3 -1q2 -1 7 -1q8 0 15 13q16 26 25.5 41.5t19.5 29.5q8 11 18 11q4 0 12 -4q10 -6 23 -15t26.5 -18.5t25 -19t19.5 -18.5q5 -7 5 -14q0 -3 -1 -6t-2 -5q-1 -3 -2 -5
l-35 -55q-2 -1 -3 -4q-2 -6 -2 -10q0 -5 2 -9q1 -3 2 -4q14 -24 20 -53t6 -54zM214 135q17 0 32 21t26 51.5t17 64t6 58.5q0 27 -7.5 42.5t-21.5 15.5q-15 0 -29.5 -21.5t-26.5 -53t-19.5 -66t-7.5 -60.5q0 -23 8 -37.5t23 -14.5z" />
    <glyph glyph-name="ugrave" unicode="&#xf9;" 
d="M481 474q6 -2 9 -8.5t3 -12.5q0 -2 -0.5 -2.5t-0.5 -1.5v-2q-17 -58 -29.5 -120t-21.5 -119.5t-13.5 -106.5t-5.5 -82q0 -8 -5 -13t-13 -5t-21 2.5t-27.5 6t-27.5 7t-20 6.5q-8 3 -14.5 10t-8.5 19l-5 39q-2 9 -5 9t-6 -6q-23 -43 -51.5 -69t-56.5 -26q-22 0 -47 14
t-46.5 36t-36 49.5t-14.5 55.5q0 47 7 96.5t17 95.5t22 84t21 61q5 16 21 16q7 0 25 -5.5t38 -13t38 -15t24 -11.5q9 -6 9 -19q0 -2 -0.5 -3t-0.5 -3v-3q-7 -21 -16 -55t-17.5 -70.5t-14 -70t-5.5 -53.5t7 -20q9 0 21.5 7.5t25 19.5t22.5 26.5t13 28.5q4 32 11 67t15 68.5
t16 62t15 48.5q2 7 8.5 12t14.5 5q5 0 21 -3.5t35.5 -9t39 -11.5t31.5 -12zM386 622q11 -9 11 -19q0 -5 -4 -11q-7 -11 -15.5 -25.5t-16.5 -25.5q-8 -10 -20 -10q-4 0 -10 2q-16 7 -36.5 19t-41 26t-38.5 28.5t-29 25.5q-8 8 -8 19q0 6 4 14q10 17 26 40.5t28 37.5q1 1 3 2
l4 2t5 1q10 0 15 -7q10 -13 25 -28t31.5 -31t33.5 -31.5t33 -28.5z" />
    <glyph glyph-name="uacute" unicode="&#xfa;" 
d="M481 474q6 -2 9 -8.5t3 -12.5q0 -2 -0.5 -2.5t-0.5 -1.5v-2q-17 -58 -29.5 -120t-21.5 -119.5t-13.5 -106.5t-5.5 -82q0 -8 -5 -13t-13 -5t-21 2.5t-27.5 6t-27.5 7t-20 6.5q-8 3 -14.5 10t-8.5 19l-5 39q-2 9 -5 9t-6 -6q-23 -43 -51.5 -69t-56.5 -26q-22 0 -47 14
t-46.5 36t-36 49.5t-14.5 55.5q0 47 7 96.5t17 95.5t22 84t21 61q5 16 21 16q7 0 25 -5.5t38 -13t38 -15t24 -11.5q9 -6 9 -19q0 -2 -0.5 -3t-0.5 -3v-3q-7 -21 -16 -55t-17.5 -70.5t-14 -70t-5.5 -53.5t7 -20q9 0 21.5 7.5t25 19.5t22.5 26.5t13 28.5q4 32 11 67t15 68.5
t16 62t15 48.5q2 7 8.5 12t14.5 5q5 0 21 -3.5t35.5 -9t39 -11.5t31.5 -12zM223 626q18 12 36.5 24.5t36.5 25t33.5 24.5t26.5 23q8 8 17 8q8 0 13 -7q5 -8 11.5 -19t12.5 -23t11.5 -24t8.5 -21q2 -6 2 -11q0 -14 -10 -21q-13 -10 -33 -21.5t-42 -22.5t-44 -20.5t-38 -13.5
q-2 -1 -3 -1h-4q-15 0 -22 12q-7 13 -13 29t-11 28q-1 3 -1 8q0 14 12 23z" />
    <glyph glyph-name="ucircumflex" unicode="&#xfb;" 
d="M481 474q6 -2 9 -8.5t3 -12.5q0 -2 -0.5 -2.5t-0.5 -1.5v-2q-17 -58 -29.5 -120t-21.5 -119.5t-13.5 -106.5t-5.5 -82q0 -8 -5 -13t-13 -5t-21 2.5t-27.5 6t-27.5 7t-20 6.5q-8 3 -14.5 10t-8.5 19l-5 39q-2 9 -5 9t-6 -6q-23 -43 -51.5 -69t-56.5 -26q-22 0 -47 14
t-46.5 36t-36 49.5t-14.5 55.5q0 47 7 96.5t17 95.5t22 84t21 61q5 16 21 16q7 0 25 -5.5t38 -13t38 -15t24 -11.5q9 -6 9 -19q0 -2 -0.5 -3t-0.5 -3v-3q-7 -21 -16 -55t-17.5 -70.5t-14 -70t-5.5 -53.5t7 -20q9 0 21.5 7.5t25 19.5t22.5 26.5t13 28.5q4 32 11 67t15 68.5
t16 62t15 48.5q2 7 8.5 12t14.5 5q5 0 21 -3.5t35.5 -9t39 -11.5t31.5 -12zM305 593q-6 6 -12 6t-13 -5q-14 -10 -26 -20q-11 -8 -22 -16.5t-17 -13.5q-5 -4 -13 -4q-10 0 -16 8q-7 11 -14.5 24t-13.5 24q-3 4 -3 10q0 13 10 21q10 10 27 24t35.5 29.5t37 29.5t32.5 24
q6 4 13 4q10 0 17 -7q12 -11 27 -26.5t30 -31.5t28 -31t22 -25q7 -7 7 -17q0 -7 -5 -14q-9 -11 -20 -25t-21 -25q-5 -5 -14 -5q-6 0 -10 2q-2 1 -4 3q-14 11 -25 22q-11 9 -21 19z" />
    <glyph glyph-name="udieresis" unicode="&#xfc;" 
d="M481 474q6 -2 9 -8.5t3 -12.5q0 -2 -0.5 -2.5t-0.5 -1.5v-2q-17 -58 -29.5 -120t-21.5 -119.5t-13.5 -106.5t-5.5 -82q0 -8 -5 -13t-13 -5t-21 2.5t-27.5 6t-27.5 7t-20 6.5q-8 3 -14.5 10t-8.5 19l-5 39q-2 9 -5 9t-6 -6q-23 -43 -51.5 -69t-56.5 -26q-22 0 -47 14
t-46.5 36t-36 49.5t-14.5 55.5q0 47 7 96.5t17 95.5t22 84t21 61q5 16 21 16q7 0 25 -5.5t38 -13t38 -15t24 -11.5q9 -6 9 -19q0 -2 -0.5 -3t-0.5 -3v-3q-7 -21 -16 -55t-17.5 -70.5t-14 -70t-5.5 -53.5t7 -20q9 0 21.5 7.5t25 19.5t22.5 26.5t13 28.5q4 32 11 67t15 68.5
t16 62t15 48.5q2 7 8.5 12t14.5 5q5 0 21 -3.5t35.5 -9t39 -11.5t31.5 -12zM200 705q48 -4 67.5 -24t19.5 -48q0 -17 -5 -33.5t-15.5 -29t-27.5 -20.5t-41 -8q-31 0 -48.5 20t-17.5 53q0 21 8.5 42t28.5 38q12 10 31 10zM386 705q48 -4 67.5 -24t19.5 -48q0 -17 -5 -33.5
t-15.5 -29t-27.5 -20.5t-41 -8q-31 0 -48.5 20t-17.5 53q0 21 8.5 42t28.5 38q12 10 31 10z" />
    <glyph glyph-name="yacute" unicode="&#xfd;" 
d="M335 496q7 14 21 14q7 0 24.5 -4.5t37.5 -11.5t37.5 -14t25.5 -12q11 -8 11 -21q0 -1 -0.5 -2t-0.5 -2v-3q-8 -29 -18 -77.5t-21.5 -106t-23 -117.5t-20.5 -111q-4 -23 -16.5 -59t-37.5 -69.5t-63.5 -57.5t-94.5 -24q-17 0 -36.5 4.5t-37.5 11.5t-34.5 15t-27.5 15
q-13 7 -13 24v4t1 4q0 2 1 4q3 11 8.5 31.5t10.5 36.5q5 15 16 15q1 0 2 -0.5t3 -0.5q2 -1 3 -1q25 -10 44 -14t33 -4q27 0 44.5 13.5t28.5 31.5t15.5 37t4.5 30q0 9 -2 9q-1 0 -5 -6q-22 -29 -46 -47t-47 -18q-21 0 -46.5 13.5t-47 35t-36.5 48.5t-15 55q0 45 7 93.5
t17 92.5t22 81t21 59q2 7 8.5 11.5t14.5 4.5q4 0 21.5 -6t38 -13.5t39 -15t24.5 -11.5q9 -6 9 -20q0 -2 -0.5 -2.5t-0.5 -2.5v-3q-7 -21 -16 -55.5t-17 -71.5t-13.5 -71t-5.5 -53t7 -19q16 0 38 19t36 42q6 10 7 18q4 28 10.5 62.5t14.5 69.5t17.5 67t18.5 55zM223 626
q18 12 36.5 24.5t36.5 25t33.5 24.5t26.5 23q8 8 17 8q8 0 13 -7q5 -8 11.5 -19t12.5 -23t11.5 -24t8.5 -21q2 -6 2 -11q0 -14 -10 -21q-13 -10 -33 -21.5t-42 -22.5t-44 -20.5t-38 -13.5q-2 -1 -3 -1h-4q-15 0 -22 12q-7 13 -13 29t-11 28q-1 3 -1 8q0 14 12 23z" />
    <glyph glyph-name="thorn" unicode="&#xfe;" 
d="M266 535q-1 -1 -1 -2v-4q0 -12 15 -14q16 -2 30 -6q29 -9 58.5 -31.5t53.5 -50.5t39 -58t15 -55q0 -60 -19 -116.5t-51 -100t-73.5 -70t-86.5 -26.5q-11 0 -30.5 8.5t-37.5 20.5q-3 2 -8 2q-10 0 -11 -11q-7 -46 -14 -89t-13 -83q-4 -16 -19 -16q-8 0 -22.5 3t-31.5 8
t-33 11t-25 12q-13 9 -13 32q4 47 11 104.5t16.5 119t20.5 125t23 123.5q1 5 1.5 10.5t0.5 11.5t-1.5 19.5t-2.5 21.5q0 6 1 12t9 10q5 3 9 9.5t6 14.5q17 72 31 128t26 86q3 6 8.5 10.5t12.5 4.5q9 0 25.5 -3.5t35.5 -9t36.5 -11.5t28.5 -11t11 -20q0 -2 -0.5 -3t-0.5 -3
v-3q-6 -18 -14 -46t-16 -64zM208 142q21 0 38.5 16t31 40t21 52t7.5 52q0 32 -15 52t-39 20q-16 0 -20 -18q-10 -38 -19.5 -82.5t-20.5 -101.5q-1 -2 -1 -5q-1 -3 -1 -7q0 -18 18 -18z" />
    <glyph glyph-name="ydieresis" unicode="&#xff;" 
d="M335 496q7 14 21 14q7 0 24.5 -4.5t37.5 -11.5t37.5 -14t25.5 -12q11 -8 11 -21q0 -1 -0.5 -2t-0.5 -2v-3q-8 -29 -18 -77.5t-21.5 -106t-23 -117.5t-20.5 -111q-4 -23 -16.5 -59t-37.5 -69.5t-63.5 -57.5t-94.5 -24q-17 0 -36.5 4.5t-37.5 11.5t-34.5 15t-27.5 15
q-13 7 -13 24v4t1 4q0 2 1 4q3 11 8.5 31.5t10.5 36.5q5 15 16 15q1 0 2 -0.5t3 -0.5q2 -1 3 -1q25 -10 44 -14t33 -4q27 0 44.5 13.5t28.5 31.5t15.5 37t4.5 30q0 9 -2 9q-1 0 -5 -6q-22 -29 -46 -47t-47 -18q-21 0 -46.5 13.5t-47 35t-36.5 48.5t-15 55q0 45 7 93.5
t17 92.5t22 81t21 59q2 7 8.5 11.5t14.5 4.5q4 0 21.5 -6t38 -13.5t39 -15t24.5 -11.5q9 -6 9 -20q0 -2 -0.5 -2.5t-0.5 -2.5v-3q-7 -21 -16 -55.5t-17 -71.5t-13.5 -71t-5.5 -53t7 -19q16 0 38 19t36 42q6 10 7 18q4 28 10.5 62.5t14.5 69.5t17.5 67t18.5 55zM198 705
q48 -4 67.5 -24t19.5 -48q0 -17 -5 -33.5t-15.5 -29t-27.5 -20.5t-41 -8q-31 0 -48.5 20t-17.5 53q0 21 8.5 42t28.5 38q12 10 31 10zM384 705q48 -4 67.5 -24t19.5 -48q0 -17 -5 -33.5t-15.5 -29t-27.5 -20.5t-41 -8q-31 0 -48.5 20t-17.5 53q0 21 8.5 42t28.5 38
q12 10 31 10z" />
    <glyph glyph-name="Amacron" unicode="&#x100;" horiz-adv-x="538" 
d="M470 637q16 -8 19 -26q2 -15 4 -43.5t3.5 -66t2 -82t0.5 -90.5q0 -47 -0.5 -93t-2 -87.5t-3.5 -75.5t-5 -56q-1 -7 -6 -11.5t-17 -4.5q-8 0 -25.5 2t-37.5 5t-37.5 6t-24.5 5t-11.5 8.5t-4.5 14.5l2 50l2 50q0 14 -16 14q-4 0 -17 -0.5t-29.5 -1t-33.5 -1.5t-28 -1
q-10 -1 -14 -4.5t-9 -14.5q-6 -14 -12 -30t-11.5 -31.5t-10 -29.5t-8.5 -24q-5 -12 -18 -12q-8 0 -23 5t-32 11.5t-32.5 14t-22.5 12.5q-13 7 -13 22v6q0 2 1 3l12 36t13 41q2 6 2 12q0 7 -2 18.5t-4 23.5t-4 22.5t-2 15.5q0 14 13 20q9 3 12 3t9 2q10 2 15 7t10 13
q9 19 23 49.5t29.5 65.5t32.5 72t33.5 70.5t31 59.5t26.5 40q10 10 19 10q11 0 27 -4t24 -4q9 0 12 13q2 13 12 13q7 0 24 -4.5t36.5 -11t37.5 -13.5t29 -13zM246 312q-1 -1 -1 -2q-1 -1 -1 -5q0 -9 13 -9q2 0 10 0.5t18 0.5t18.5 0.5t11.5 0.5q8 0 12 3.5t6 14.5
q1 21 1 46.5v50.5v78q0 11 -4 11q-2 0 -3 -2l-2 -4q-17 -37 -36.5 -84.5t-42.5 -99.5zM238 807q2 8 7.5 14t16.5 8q10 2 26.5 3.5t37 2.5t42.5 1.5t43 0.5q26 0 47.5 -1t32.5 -3q10 -2 15.5 -9t6.5 -15q0 -2 0.5 -5t0.5 -7q0 -14 -2 -33.5t-5 -30.5q-5 -19 -28 -19
q-8 0 -40 0.5t-69 0.5t-69 0.5t-40 0.5q-6 0 -14 4.5t-10 14.5q-1 5 -1.5 12.5t-0.5 15.5q0 12 0.5 24t2.5 20z" />
    <glyph glyph-name="amacron" unicode="&#x101;" horiz-adv-x="479" 
d="M308 25q-13 4 -17.5 11.5t-6.5 15.5l-3 33q0 8 -4 8q-3 0 -6 -6q-24 -42 -49.5 -64.5t-49.5 -22.5q-26 0 -53.5 14.5t-50.5 39.5t-38 58t-15 69q0 45 11.5 103t38 109.5t68.5 87t104 35.5q20 0 50 -7.5t63 -20t65 -28.5t58 -33q12 -8 12 -21q0 -1 -0.5 -2t-0.5 -3v-3
q-15 -56 -25.5 -110.5t-17 -104t-9.5 -92t-4 -72.5q-1 -7 -5.5 -12t-11.5 -5q-6 0 -19 2.5t-28.5 6.5t-31 7.5t-24.5 6.5zM258 193q9 9 11 20q5 35 13 70t15 69v5q0 11 -7 16t-17 5q-21 0 -37 -20t-27.5 -48t-17 -58.5t-5.5 -51.5q0 -20 4 -31t10 -11q11 0 27.5 10.5
t30.5 24.5zM178 649q2 8 7.5 14t16.5 8q10 2 26.5 3.5t37 2.5t42.5 1.5t43 0.5q26 0 47.5 -1t32.5 -3q10 -2 15.5 -9t6.5 -15q0 -2 0.5 -5t0.5 -7q0 -14 -2 -33.5t-5 -30.5q-5 -19 -28 -19q-8 0 -40 0.5t-69 0.5t-69 0.5t-40 0.5q-6 0 -14 4.5t-10 14.5q-1 5 -1.5 12.5
t-0.5 15.5q0 12 0.5 24t2.5 20z" />
    <glyph glyph-name="Abreve" unicode="&#x102;" horiz-adv-x="538" 
d="M513 864q11 -8 11 -23q0 -1 -0.5 -2t-0.5 -2v-3q-5 -17 -15.5 -40t-29 -44t-45 -35.5t-61.5 -14.5q-30 0 -50.5 10.5t-33 27.5t-18.5 38.5t-6 42.5q0 7 0.5 13.5t1.5 13.5q3 23 20 30q3 1 9.5 3t14 4.5t14 4t9.5 1.5q14 0 14 -15q0 -28 8 -44t25 -16q12 0 21.5 6t17 15
t13 19t8.5 18q7 14 18 14q1 0 1.5 -0.5t2.5 -0.5h3q11 -4 24 -9t24 -12zM470 637q16 -8 19 -26q2 -15 4 -43.5t3.5 -66t2 -82t0.5 -90.5q0 -47 -0.5 -93t-2 -87.5t-3.5 -75.5t-5 -56q-1 -7 -6 -11.5t-17 -4.5q-8 0 -25.5 2t-37.5 5t-37.5 6t-24.5 5t-11.5 8.5t-4.5 14.5
l2 50l2 50q0 14 -16 14q-4 0 -17 -0.5t-29.5 -1t-33.5 -1.5t-28 -1q-10 -1 -14 -4.5t-9 -14.5q-6 -14 -12 -30t-11.5 -31.5t-10 -29.5t-8.5 -24q-5 -12 -18 -12q-8 0 -23 5t-32 11.5t-32.5 14t-22.5 12.5q-13 7 -13 22v6q0 2 1 3l12 36t13 41q2 6 2 12q0 7 -2 18.5t-4 23.5
t-4 22.5t-2 15.5q0 14 13 20q9 3 12 3t9 2q10 2 15 7t10 13q9 19 23 49.5t29.5 65.5t32.5 72t33.5 70.5t31 59.5t26.5 40q10 10 19 10q11 0 27 -4t24 -4q9 0 12 13q2 13 12 13q7 0 24 -4.5t36.5 -11t37.5 -13.5t29 -13zM246 312q-1 -1 -1 -2q-1 -1 -1 -5q0 -9 13 -9
q2 0 10 0.5t18 0.5t18.5 0.5t11.5 0.5q8 0 12 3.5t6 14.5q1 21 1 46.5v50.5v78q0 11 -4 11q-2 0 -3 -2l-2 -4q-17 -37 -36.5 -84.5t-42.5 -99.5z" />
    <glyph glyph-name="abreve" unicode="&#x103;" horiz-adv-x="479" 
d="M308 25q-13 4 -17.5 11.5t-6.5 15.5l-3 33q0 8 -4 8q-3 0 -6 -6q-24 -42 -49.5 -64.5t-49.5 -22.5q-26 0 -53.5 14.5t-50.5 39.5t-38 58t-15 69q0 45 11.5 103t38 109.5t68.5 87t104 35.5q20 0 50 -7.5t63 -20t65 -28.5t58 -33q12 -8 12 -21q0 -1 -0.5 -2t-0.5 -3v-3
q-15 -56 -25.5 -110.5t-17 -104t-9.5 -92t-4 -72.5q-1 -7 -5.5 -12t-11.5 -5q-6 0 -19 2.5t-28.5 6.5t-31 7.5t-24.5 6.5zM258 193q9 9 11 20q5 35 13 70t15 69v5q0 11 -7 16t-17 5q-21 0 -37 -20t-27.5 -48t-17 -58.5t-5.5 -51.5q0 -20 4 -31t10 -11q11 0 27.5 10.5
t30.5 24.5zM452 702q11 -8 11 -23q0 -1 -0.5 -2t-0.5 -2v-3q-5 -17 -15.5 -40t-29 -44t-45 -35.5t-61.5 -14.5q-30 0 -50.5 10.5t-33 27.5t-18.5 38.5t-6 42.5q0 7 0.5 13.5t1.5 13.5q3 23 20 30q3 1 9.5 3t14 4.5t14 4t9.5 1.5q14 0 14 -15q0 -28 8 -44t25 -16q12 0 21.5 6
t17 15t13 19t8.5 18q7 14 18 14q1 0 1.5 -0.5t2.5 -0.5h3q11 -4 24 -9t24 -12z" />
    <glyph glyph-name="Aogonek" unicode="&#x104;" horiz-adv-x="538" 
d="M470 637q16 -8 19 -26q2 -15 4 -43.5t3.5 -66t2 -82t0.5 -90.5q0 -47 -0.5 -93t-2 -87.5t-3.5 -75.5t-5 -56q-1 -7 -6 -11.5t-17 -4.5q-17 -6 -32 -16t-26.5 -22t-18.5 -24t-7 -22q0 -14 8.5 -19.5t21.5 -5.5q15 0 29 6q6 2 9 2q10 0 14 -10q3 -8 6.5 -18t5.5 -19
q2 -6 2 -12q0 -10 -10 -20q-13 -11 -37 -22.5t-53 -11.5q-47 0 -73.5 27t-26.5 68q0 21 8 41t21 37t29 30.5t32 22.5l-12 2q-11 2 -15 4q-7 2 -11.5 8.5t-4.5 14.5l2 50l2 50q0 14 -16 14q-4 0 -17 -0.5t-29.5 -1t-33.5 -1.5t-28 -1q-10 -1 -14 -4.5t-9 -14.5
q-6 -14 -12 -30t-11.5 -31.5t-10 -29.5t-8.5 -24q-5 -12 -18 -12q-8 0 -23 5t-32 11.5t-32.5 14t-22.5 12.5q-13 7 -13 22v6q0 2 1 3l12 36t13 41q2 6 2 12q0 7 -2 18.5t-4 23.5t-4 22.5t-2 15.5q0 14 13 20q9 3 12 3t9 2q10 2 15 7t10 13q9 19 23 49.5t29.5 65.5t32.5 72
t33.5 70.5t31 59.5t26.5 40q10 10 19 10q11 0 27 -4t24 -4q9 0 12 13q2 13 12 13q7 0 24 -4.5t36.5 -11t37.5 -13.5t29 -13zM246 312q-1 -1 -1 -2q-1 -1 -1 -5q0 -9 13 -9q2 0 10 0.5t18 0.5t18.5 0.5t11.5 0.5q8 0 12 3.5t6 14.5q1 21 1 46.5v50.5v78q0 11 -4 11
q-2 0 -3 -2l-2 -4q-17 -37 -36.5 -84.5t-42.5 -99.5z" />
    <glyph glyph-name="aogonek" unicode="&#x105;" horiz-adv-x="479" 
d="M308 25q-13 4 -17.5 11.5t-6.5 15.5l-3 33q0 8 -4 8q-3 0 -6 -6q-24 -42 -49.5 -64.5t-49.5 -22.5q-26 0 -53.5 14.5t-50.5 39.5t-38 58t-15 69q0 45 11.5 103t38 109.5t68.5 87t104 35.5q20 0 50 -7.5t63 -20t65 -28.5t58 -33q12 -8 12 -21q0 -1 -0.5 -2t-0.5 -3v-3
q-15 -56 -25.5 -110.5t-17 -104t-9.5 -92t-4 -72.5q-1 -7 -5.5 -12t-11.5 -5q-17 -6 -30.5 -16.5t-23.5 -22.5t-15.5 -24t-5.5 -22q0 -14 8.5 -19.5t21.5 -5.5q15 0 29 6q6 2 9 2q10 0 14 -10q3 -8 6.5 -18t5.5 -19q2 -6 2 -12q0 -10 -10 -20q-13 -11 -37 -22.5t-53 -11.5
q-47 0 -73.5 27t-26.5 68q0 24 8.5 45t22 39t30.5 31.5t35 21.5zM258 193q9 9 11 20q5 35 13 70t15 69v5q0 11 -7 16t-17 5q-21 0 -37 -20t-27.5 -48t-17 -58.5t-5.5 -51.5q0 -20 4 -31t10 -11q11 0 27.5 10.5t30.5 24.5z" />
    <glyph glyph-name="Cacute" unicode="&#x106;" horiz-adv-x="506" 
d="M306 795q18 12 36.5 24.5t36.5 25t33.5 24.5t26.5 23q8 8 17 8q8 0 13 -7q5 -8 11.5 -19t12.5 -23t11.5 -24t8.5 -21q2 -6 2 -11q0 -14 -10 -21q-13 -10 -33 -21.5t-42 -22.5t-44 -20.5t-38 -13.5q-2 -1 -3 -1h-4q-15 0 -22 12q-7 13 -13 29t-11 28q-1 3 -1 8q0 14 12 23
zM361 386q-14 0 -14 12q0 3 2.5 13.5t5.5 24t5.5 28t2.5 25.5q0 20 -5.5 32.5t-20.5 12.5q-20 0 -43 -24t-42 -61.5t-31.5 -83.5t-12.5 -91q0 -58 22.5 -83.5t52.5 -25.5q17 0 35.5 5.5t36 13.5t33 17t26.5 16q5 4 13 4q12 0 15 -10q7 -19 16 -47t14 -46q2 -8 2 -11
q0 -12 -9 -21q-17 -16 -36.5 -31.5t-41 -28t-46.5 -20t-52 -7.5q-25 0 -54 7t-57.5 20t-54.5 31.5t-46 42.5q-24 29 -34 73.5t-10 91.5q0 69 20 142t56 133t86.5 98t112.5 38q14 0 36.5 -6t47.5 -16t51 -24.5t46.5 -32t33.5 -37t13 -40.5q0 -15 -3.5 -32t-8.5 -33.5
t-10 -29.5t-8 -20q-6 -15 -24 -16q-9 -1 -26 -1.5t-35 -1t-34.5 -0.5h-25.5z" />
    <glyph glyph-name="cacute" unicode="&#x107;" horiz-adv-x="422" 
d="M214 634q18 12 36.5 24.5t36.5 25t33.5 24.5t26.5 23q8 8 17 8q8 0 13 -7q5 -8 11.5 -19t12.5 -23t11.5 -24t8.5 -21q2 -6 2 -11q0 -14 -10 -21q-13 -10 -33 -21.5t-42 -22.5t-44 -20.5t-38 -13.5q-2 -1 -3 -1h-4q-15 0 -22 12q-7 13 -13 29t-11 28q-1 3 -1 8q0 14 12 23
zM279 271q-16 2 -16 17q0 3 2 12t4.5 20.5t4.5 23t2 19.5q0 12 -3 19.5t-11 7.5q-12 0 -25.5 -18t-25 -45t-19 -57.5t-7.5 -54.5q0 -32 11 -46.5t36 -14.5q18 0 35 4.5t32 9.5t26 9.5t16 4.5q12 0 17 -12q3 -6 7 -17.5t8 -24t6.5 -23.5t2.5 -15q0 -19 -11 -30
q-9 -9 -24 -19.5t-33.5 -19.5t-39.5 -15t-40 -6q-22 0 -47.5 5.5t-50.5 17t-48 28.5t-40 41q-18 24 -24.5 56.5t-6.5 67.5q0 48 15 101t41.5 97.5t63.5 73.5t81 29q7 0 25.5 -4t42 -12.5t48.5 -20t45.5 -27t34 -34t13.5 -40.5q0 -19 -9 -44t-20 -43q-3 -7 -10.5 -13
t-16.5 -6q-21 -2 -47 -2h-45z" />
    <glyph glyph-name="Ccircumflex" unicode="&#x108;" horiz-adv-x="506" 
d="M380 749q-7 7 -12 7q-8 0 -13 -4q-15 -10 -28 -19q-11 -8 -23 -15.5t-18 -11.5q-1 -1 -3 -2q-4 -2 -9 -2q-8 0 -13 5q-3 2 -4 5q-5 11 -12 25t-12 25q-3 7 -3 12q1 8 4 11.5t8 7.5q11 9 29 22t37.5 26.5t38.5 26.5t34 22q4 2 7.5 2.5t6.5 0.5q8 -1 15 -8
q12 -12 25.5 -28.5t27 -33.5t25.5 -33t21 -27q1 -3 3 -6q4 -6 4 -11q0 -3 -4 -9q-2 -3 -3 -5q-9 -9 -21 -23t-23 -23q-6 -5 -14 -5q-6 0 -9 3l-4 4l-24 24q-10 10 -19.5 20t-14.5 17zM361 386q-14 0 -14 12q0 3 2.5 13.5t5.5 24t5.5 28t2.5 25.5q0 20 -5.5 32.5t-20.5 12.5
q-20 0 -43 -24t-42 -61.5t-31.5 -83.5t-12.5 -91q0 -58 22.5 -83.5t52.5 -25.5q17 0 35.5 5.5t36 13.5t33 17t26.5 16q5 4 13 4q12 0 15 -10q7 -19 16 -47t14 -46q2 -8 2 -11q0 -12 -9 -21q-17 -16 -36.5 -31.5t-41 -28t-46.5 -20t-52 -7.5q-25 0 -54 7t-57.5 20t-54.5 31.5
t-46 42.5q-24 29 -34 73.5t-10 91.5q0 69 20 142t56 133t86.5 98t112.5 38q14 0 36.5 -6t47.5 -16t51 -24.5t46.5 -32t33.5 -37t13 -40.5q0 -15 -3.5 -32t-8.5 -33.5t-10 -29.5t-8 -20q-6 -15 -24 -16q-9 -1 -26 -1.5t-35 -1t-34.5 -0.5h-25.5z" />
    <glyph glyph-name="ccircumflex" unicode="&#x109;" horiz-adv-x="422" 
d="M289 589q-6 6 -12 6t-13 -5q-14 -10 -26 -20l-22 -16t-18 -13q-6 -3 -13 -3q-10 0 -15 8q-7 11 -14.5 24t-13.5 24q-2 4 -2 11q0 12 10 20q10 10 27 24t36 29t37.5 29t33.5 23q6 4 13 4q5 0 9 -2.5t8 -5.5q11 -9 25.5 -24.5t29 -32t28 -32.5t22.5 -26q6 -6 6 -17
q0 -7 -5 -14q-9 -11 -20 -25t-22 -25q-2 -2 -5 -3.5t-9 -1.5q-7 0 -10 3q-3 1 -4 3q-14 12 -25 23q-10 9 -20 19zM279 271q-16 2 -16 17q0 3 2 12t4.5 20.5t4.5 23t2 19.5q0 12 -3 19.5t-11 7.5q-12 0 -25.5 -18t-25 -45t-19 -57.5t-7.5 -54.5q0 -32 11 -46.5t36 -14.5
q18 0 35 4.5t32 9.5t26 9.5t16 4.5q12 0 17 -12q3 -6 7 -17.5t8 -24t6.5 -23.5t2.5 -15q0 -19 -11 -30q-9 -9 -24 -19.5t-33.5 -19.5t-39.5 -15t-40 -6q-22 0 -47.5 5.5t-50.5 17t-48 28.5t-40 41q-18 24 -24.5 56.5t-6.5 67.5q0 48 15 101t41.5 97.5t63.5 73.5t81 29
q7 0 25.5 -4t42 -12.5t48.5 -20t45.5 -27t34 -34t13.5 -40.5q0 -19 -9 -44t-20 -43q-3 -7 -10.5 -13t-16.5 -6q-21 -2 -47 -2h-45z" />
    <glyph glyph-name="Cdotaccent" unicode="&#x10a;" horiz-adv-x="506" 
d="M372 869q54 -3 77.5 -24.5t23.5 -56.5q0 -38 -25.5 -63t-70.5 -25q-36 0 -56 22.5t-20 60.5q2 25 11 42t29 33q6 5 14.5 8t16.5 3zM361 386q-14 0 -14 12q0 3 2.5 13.5t5.5 24t5.5 28t2.5 25.5q0 20 -5.5 32.5t-20.5 12.5q-20 0 -43 -24t-42 -61.5t-31.5 -83.5t-12.5 -91
q0 -58 22.5 -83.5t52.5 -25.5q17 0 35.5 5.5t36 13.5t33 17t26.5 16q5 4 13 4q12 0 15 -10q7 -19 16 -47t14 -46q2 -8 2 -11q0 -12 -9 -21q-17 -16 -36.5 -31.5t-41 -28t-46.5 -20t-52 -7.5q-25 0 -54 7t-57.5 20t-54.5 31.5t-46 42.5q-24 29 -34 73.5t-10 91.5q0 69 20 142
t56 133t86.5 98t112.5 38q14 0 36.5 -6t47.5 -16t51 -24.5t46.5 -32t33.5 -37t13 -40.5q0 -15 -3.5 -32t-8.5 -33.5t-10 -29.5t-8 -20q-6 -15 -24 -16q-9 -1 -26 -1.5t-35 -1t-34.5 -0.5h-25.5z" />
    <glyph glyph-name="cdotaccent" unicode="&#x10b;" horiz-adv-x="422" 
d="M270 710q54 -3 77.5 -24.5t23.5 -56.5q0 -38 -25.5 -63t-70.5 -25q-36 0 -56 22.5t-20 60.5q2 25 11 42t29 33q6 5 14.5 8t16.5 3zM279 271q-16 2 -16 17q0 3 2 12t4.5 20.5t4.5 23t2 19.5q0 12 -3 19.5t-11 7.5q-12 0 -25.5 -18t-25 -45t-19 -57.5t-7.5 -54.5
q0 -32 11 -46.5t36 -14.5q18 0 35 4.5t32 9.5t26 9.5t16 4.5q12 0 17 -12q3 -6 7 -17.5t8 -24t6.5 -23.5t2.5 -15q0 -19 -11 -30q-9 -9 -24 -19.5t-33.5 -19.5t-39.5 -15t-40 -6q-22 0 -47.5 5.5t-50.5 17t-48 28.5t-40 41q-18 24 -24.5 56.5t-6.5 67.5q0 48 15 101
t41.5 97.5t63.5 73.5t81 29q7 0 25.5 -4t42 -12.5t48.5 -20t45.5 -27t34 -34t13.5 -40.5q0 -19 -9 -44t-20 -43q-3 -7 -10.5 -13t-16.5 -6q-21 -2 -47 -2h-45z" />
    <glyph glyph-name="Ccaron" unicode="&#x10c;" horiz-adv-x="505" 
d="M361 386q-14 0 -14 12q0 3 2.5 13.5t5.5 24t5.5 28t2.5 25.5q0 20 -5.5 32.5t-20.5 12.5q-20 0 -43 -24t-42 -61.5t-31.5 -83.5t-12.5 -91q0 -58 22.5 -83.5t52.5 -25.5q17 0 35.5 5.5t36 13.5t33 17t26.5 16q5 4 13 4q12 0 15 -10q7 -19 16 -47t14 -46q2 -8 2 -11
q0 -12 -9 -21q-17 -16 -36.5 -31.5t-41 -28t-46.5 -20t-52 -7.5q-25 0 -54 7t-57.5 20t-54.5 31.5t-46 42.5q-24 29 -34 73.5t-10 91.5q0 69 20 142t56 133t86.5 98t112.5 38q14 0 36.5 -6t47.5 -16t51 -24.5t46.5 -32t33.5 -37t13 -40.5q0 -15 -3.5 -32t-8.5 -33.5
t-10 -29.5t-8 -20q-6 -15 -24 -16q-9 -1 -26 -1.5t-35 -1t-34.5 -0.5h-25.5zM380 835q5 -5 9 -5q5 0 12 5q12 9 31.5 25t32.5 27q4 3 11 3q11 0 17 -8q6 -11 13.5 -25t12.5 -25q2 -6 2 -9q0 -12 -11 -23q-10 -10 -25.5 -24t-33 -28.5t-35.5 -28.5t-32 -23q-6 -3 -12 -3
q-7 0 -11 3q-3 2 -5 4q-12 11 -25.5 26.5t-27 32t-25.5 32t-20 26.5q-5 7 -5 15t5 15q8 11 19 24.5t21 24.5q5 5 13 5t14 -6q11 -11 27.5 -29.5t27.5 -30.5z" />
    <glyph glyph-name="ccaron" unicode="&#x10d;" horiz-adv-x="422" 
d="M281 676q5 -5 9 -5q5 0 12 5q12 9 31.5 25t32.5 27q4 3 11 3q11 0 17 -8q6 -11 13.5 -25t12.5 -25q2 -6 2 -9q0 -12 -11 -23q-10 -10 -25.5 -24t-33 -28.5t-35.5 -28.5t-32 -23q-6 -3 -12 -3q-7 0 -11 3q-3 2 -5 4q-12 11 -25.5 26.5t-27 32t-25.5 32t-20 26.5
q-5 7 -5 15t5 15q8 11 19 24.5t21 24.5q5 5 13 5t14 -6q11 -11 27.5 -29.5t27.5 -30.5zM279 271q-16 2 -16 17q0 3 2 12t4.5 20.5t4.5 23t2 19.5q0 12 -3 19.5t-11 7.5q-12 0 -25.5 -18t-25 -45t-19 -57.5t-7.5 -54.5q0 -32 11 -46.5t36 -14.5q18 0 35 4.5t32 9.5t26 9.5
t16 4.5q12 0 17 -12q3 -6 7 -17.5t8 -24t6.5 -23.5t2.5 -15q0 -19 -11 -30q-9 -9 -24 -19.5t-33.5 -19.5t-39.5 -15t-40 -6q-22 0 -47.5 5.5t-50.5 17t-48 28.5t-40 41q-18 24 -24.5 56.5t-6.5 67.5q0 48 15 101t41.5 97.5t63.5 73.5t81 29q7 0 25.5 -4t42 -12.5t48.5 -20
t45.5 -27t34 -34t13.5 -40.5q0 -19 -9 -44t-20 -43q-3 -7 -10.5 -13t-16.5 -6q-21 -2 -47 -2h-45z" />
    <glyph glyph-name="Dcaron" unicode="&#x10e;" horiz-adv-x="563" 
d="M358 835q5 -5 9 -5q5 0 12 5q12 9 31.5 25t32.5 27q4 3 11 3q11 0 17 -8q6 -11 13.5 -25t12.5 -25q2 -6 2 -9q0 -12 -11 -23q-10 -10 -25.5 -24t-33 -28.5t-35.5 -28.5t-32 -23q-6 -3 -12 -3q-7 0 -11 3q-3 2 -5 4q-12 11 -25.5 26.5t-27 32t-25.5 32t-20 26.5
q-5 7 -5 15t5 15q8 11 19 24.5t21 24.5q5 5 13 5t14 -6q11 -11 27.5 -29.5t27.5 -30.5zM205 1q-11 0 -22.5 1.5t-23.5 7.5q-11 6 -28 18.5t-35 28.5t-35.5 33t-29.5 31q-7 7 -7 22q1 25 5 60t10.5 75t14 81.5t15 77.5t14 64.5t10.5 43.5q2 10 2 17v51q0 17 13 22
q48 20 94.5 32t82.5 12q55 0 106.5 -27t90.5 -70t62.5 -97.5t23.5 -109.5q0 -72 -29 -138t-79 -117.5t-116 -83.5t-139 -35zM206 173q40 0 75.5 21t62.5 55.5t43 80t16 94.5q0 25 -9 44.5t-23.5 33.5t-34 21.5t-40.5 7.5q-13 0 -22 -4t-12 -16q-7 -28 -16.5 -70.5
t-19.5 -88.5t-18.5 -90.5t-12.5 -76.5v-2q0 -10 11 -10z" />
    <glyph glyph-name="dcaron" unicode="&#x10f;" horiz-adv-x="484" 
d="M663 581q-5 -16 -24 -16q-14 3 -26.5 6t-23.5 8q-15 7 -15 24v4q2 15 6.5 35t10 40.5t12 40t12.5 33.5q7 16 27 16q14 -3 29.5 -8.5t29.5 -11.5q6 -3 9 -9t3 -12q0 -5 -1 -7q-6 -18 -12 -33.5t-12 -32t-12.5 -35t-12.5 -42.5zM384 685q7 15 23 15q4 0 23 -5t40.5 -11.5
t41 -12.5t24.5 -8q13 -5 13 -18q0 -1 -0.5 -2t-0.5 -2v-3q-13 -36 -30.5 -103t-36 -151t-35.5 -178.5t-29 -186.5q-2 -16 -17 -16q-5 0 -18 3t-28 6.5t-29.5 8t-21.5 7.5t-12.5 9.5t-6.5 17.5q0 5 -0.5 12.5t-0.5 11.5t-1.5 7.5t-4.5 3.5t-7 -5q-21 -33 -46 -59t-51 -26
t-53.5 15t-51 40t-38.5 58t-15 69q0 64 15.5 124.5t43.5 107t66 74.5t83 28q18 0 41 -7.5t44 -18.5q4 -2 7 -2q9 0 12 12q17 64 31 111t26 74zM260 193q9 9 11 20q5 35 13 70t15 69v5q0 11 -7 16t-17 5q-21 0 -37 -20t-27.5 -48t-17 -58.5t-5.5 -51.5q0 -20 4 -31t10 -11
q11 0 27.5 10.5t30.5 24.5z" />
    <glyph glyph-name="Dcroat" unicode="&#x110;" horiz-adv-x="596" 
d="M238 1q-11 0 -22.5 1.5t-23.5 7.5q-11 6 -28 18.5t-35 28.5t-35.5 33t-29.5 31q-7 7 -7 22q0 26 4.5 64.5t12.5 82.5h-23q-8 0 -14 5t-7 13t-1 17.5v20.5v25t2 22q1 8 7.5 15t14.5 8h44q9 44 16.5 78t12.5 51q2 10 2 17v51q0 17 13 22q48 20 94.5 32t82.5 12
q55 0 106.5 -27t90.5 -70t62.5 -97.5t23.5 -109.5q0 -72 -29 -138t-79 -117.5t-116 -83.5t-139 -35zM239 173q40 0 75.5 21t62.5 55.5t43 80t16 94.5q0 25 -9 44.5t-23.5 33.5t-34 21.5t-40.5 7.5q-13 0 -22 -4t-12 -16q-5 -18 -10.5 -42t-11.5 -51h51q8 -1 12 -8t4 -14v-14
q0 -18 -1.5 -38.5t-4.5 -34.5q-2 -8 -9.5 -12.5t-15.5 -5.5h-63q-6 -30 -10.5 -57.5t-7.5 -48.5v-2q0 -10 11 -10z" />
    <glyph glyph-name="dcroat" unicode="&#x111;" horiz-adv-x="486" 
d="M384 685q7 15 23 15q4 0 23 -5t40.5 -11.5t41 -12.5t24.5 -8q13 -5 13 -18q0 -1 -0.5 -2t-0.5 -2v-3q-2 -4 -4 -12h19q8 -1 14.5 -7t6.5 -15q0 -13 -1.5 -28t-3.5 -27q-2 -8 -9 -13t-15 -5h-39q-13 -49 -26.5 -109.5t-26.5 -127t-25 -137t-21 -138.5q-2 -16 -17 -16
q-5 0 -18 3t-28 6.5t-29.5 8t-21.5 7.5t-12.5 9.5t-6.5 17.5q0 5 -0.5 12.5t-0.5 11.5t-1.5 7.5t-4.5 3.5t-7 -5q-21 -33 -46 -59t-51 -26t-53.5 15t-51 40t-38.5 58t-15 69q0 64 15.5 124.5t43.5 107t66 74.5t83 28q18 0 41 -7.5t44 -18.5q4 -2 7 -2q9 0 12 12l8 33h-18
q-8 0 -14.5 5.5t-6.5 13.5q-1 5 -1 11v13v12.5t1 12.5q1 8 7.5 15t14.5 7h43q6 19 12 34.5t11 27.5zM260 193q9 9 11 20q5 35 13 70t15 69v5q0 11 -7 16t-17 5q-21 0 -37 -20t-27.5 -48t-17 -58.5t-5.5 -51.5q0 -20 4 -31t10 -11q11 0 27.5 10.5t30.5 24.5z" />
    <glyph glyph-name="Emacron" unicode="&#x112;" horiz-adv-x="456" 
d="M191 809q2 8 7.5 14t16.5 8q10 2 26.5 3.5t37 2.5t42.5 1.5t43 0.5q26 0 47.5 -1t32.5 -3q10 -2 15.5 -9t6.5 -15q0 -2 0.5 -5t0.5 -7q0 -14 -2 -33.5t-5 -30.5q-5 -19 -28 -19q-8 0 -40 0.5t-69 0.5t-69 0.5t-40 0.5q-6 0 -14 4.5t-10 14.5q-1 5 -1.5 12.5t-0.5 15.5
q0 12 0.5 24t2.5 20zM202 247q-2 -4 -4 -14t-3.5 -21t-3 -20.5t-1.5 -11.5q0 -13 11 -13q4 0 25 1.5t46.5 3.5t50 3.5t36.5 1.5q9 0 17 -6t11 -13q4 -10 9.5 -28t10.5 -36.5t8.5 -34t3.5 -20.5q0 -15 -16 -17q-35 -3 -81.5 -7t-89.5 -7t-74.5 -5.5t-35.5 -2.5q-9 0 -17 3
t-13 8q-17 17 -34 46.5t-33 55.5q-6 9 -6 21q0 25 5 63.5t12 82t16 88.5t17 83.5t14.5 66.5t9.5 39q0 4 1 8q2 10 2 15q0 7 -0.5 26.5t-0.5 30.5q0 9 5.5 14t13.5 7q19 4 51.5 8t71.5 7t81 4.5t79 1.5h37t31 -2q8 -1 15 -5.5t9 -14.5q2 -11 3.5 -26t2 -30.5t1.5 -31t1 -26.5
q0 -9 -5 -13.5t-13 -5.5l-206 -11q-14 -1 -20 -15q-2 -5 -5 -16.5t-5.5 -24l-4.5 -22.5l-2 -10q0 -13 14 -13q6 0 24 1t38 2t38 2t24 1q11 0 17 -6t8 -14q2 -11 4.5 -27t4.5 -31.5t3.5 -28.5t1.5 -19q0 -8 -6 -12.5t-14 -4.5q-14 -1 -34 -2t-42.5 -2.5t-46.5 -3.5t-45 -4
q-17 -1 -23 -16z" />
    <glyph glyph-name="emacron" unicode="&#x113;" horiz-adv-x="431" 
d="M141 649q2 8 7.5 14t16.5 8q10 2 26.5 3.5t37 2.5t42.5 1.5t43 0.5q26 0 47.5 -1t32.5 -3q10 -2 15.5 -9t6.5 -15q0 -2 0.5 -5t0.5 -7q0 -14 -2 -33.5t-5 -30.5q-5 -19 -28 -19q-8 0 -40 0.5t-69 0.5t-69 0.5t-40 0.5q-6 0 -14 4.5t-10 14.5q-1 5 -1.5 12.5t-0.5 15.5
q0 12 0.5 24t2.5 20zM185 192q0 -16 11 -29.5t36 -13.5q18 0 35.5 4t32.5 9t26.5 9t16.5 4q12 0 17 -12q3 -6 7 -17t7 -23t5.5 -22.5t2.5 -14.5q0 -11 -3 -16t-8 -10q-9 -9 -24.5 -19.5t-34.5 -19.5t-40.5 -15t-40.5 -6q-20 0 -44.5 5.5t-49.5 17t-48.5 28.5t-40.5 41
q-18 24 -24.5 56.5t-6.5 67.5q0 40 13.5 92.5t39 98.5t62 78t82.5 32q22 0 50.5 -8.5t56 -21t49.5 -26.5t33 -26q15 -17 23 -32.5t8 -39.5q0 -33 -14 -62.5t-38.5 -52t-59.5 -35.5t-77 -13q-12 0 -27 1.5t-20 1.5q-13 0 -13 -11zM268 402q-11 0 -22 -13.5t-21 -31t-16 -34.5
t-6 -24q0 -12 10 -12q15 0 28.5 8.5t23 21t15.5 28t6 29.5q0 11 -4 19.5t-14 8.5z" />
    <glyph glyph-name="Ebreve" unicode="&#x114;" horiz-adv-x="456" 
d="M471 868q11 -8 11 -23q0 -1 -0.5 -2t-0.5 -2v-3q-5 -17 -15.5 -40t-29 -44t-45 -35.5t-61.5 -14.5q-30 0 -50.5 10.5t-33 27.5t-18.5 38.5t-6 42.5q0 7 0.5 13.5t1.5 13.5q3 23 20 30q3 1 9.5 3t14 4.5t14 4t9.5 1.5q14 0 14 -15q0 -28 8 -44t25 -16q12 0 21.5 6t17 15
t13 19t8.5 18q7 14 18 14q1 0 1.5 -0.5t2.5 -0.5h3q11 -4 24 -9t24 -12zM202 247q-2 -4 -4 -14t-3.5 -21t-3 -20.5t-1.5 -11.5q0 -13 11 -13q4 0 25 1.5t46.5 3.5t50 3.5t36.5 1.5q9 0 17 -6t11 -13q4 -10 9.5 -28t10.5 -36.5t8.5 -34t3.5 -20.5q0 -15 -16 -17
q-35 -3 -81.5 -7t-89.5 -7t-74.5 -5.5t-35.5 -2.5q-9 0 -17 3t-13 8q-17 17 -34 46.5t-33 55.5q-6 9 -6 21q0 25 5 63.5t12 82t16 88.5t17 83.5t14.5 66.5t9.5 39q0 4 1 8q2 10 2 15q0 7 -0.5 26.5t-0.5 30.5q0 9 5.5 14t13.5 7q19 4 51.5 8t71.5 7t81 4.5t79 1.5h37t31 -2
q8 -1 15 -5.5t9 -14.5q2 -11 3.5 -26t2 -30.5t1.5 -31t1 -26.5q0 -9 -5 -13.5t-13 -5.5l-206 -11q-14 -1 -20 -15q-2 -5 -5 -16.5t-5.5 -24l-4.5 -22.5l-2 -10q0 -13 14 -13q6 0 24 1t38 2t38 2t24 1q11 0 17 -6t8 -14q2 -11 4.5 -27t4.5 -31.5t3.5 -28.5t1.5 -19
q0 -8 -6 -12.5t-14 -4.5q-14 -1 -34 -2t-42.5 -2.5t-46.5 -3.5t-45 -4q-17 -1 -23 -16z" />
    <glyph glyph-name="ebreve" unicode="&#x115;" horiz-adv-x="431" 
d="M419 699q11 -8 11 -23q0 -1 -0.5 -2t-0.5 -2v-3q-5 -17 -15.5 -40t-29 -44t-45 -35.5t-61.5 -14.5q-30 0 -50.5 10.5t-33 27.5t-18.5 38.5t-6 42.5q0 7 0.5 13.5t1.5 13.5q3 23 20 30q3 1 9.5 3t14 4.5t14 4t9.5 1.5q14 0 14 -15q0 -28 8 -44t25 -16q12 0 21.5 6t17 15
t13 19t8.5 18q7 14 18 14q1 0 1.5 -0.5t2.5 -0.5h3q11 -4 24 -9t24 -12zM185 192q0 -16 11 -29.5t36 -13.5q18 0 35.5 4t32.5 9t26.5 9t16.5 4q12 0 17 -12q3 -6 7 -17t7 -23t5.5 -22.5t2.5 -14.5q0 -11 -3 -16t-8 -10q-9 -9 -24.5 -19.5t-34.5 -19.5t-40.5 -15t-40.5 -6
q-20 0 -44.5 5.5t-49.5 17t-48.5 28.5t-40.5 41q-18 24 -24.5 56.5t-6.5 67.5q0 40 13.5 92.5t39 98.5t62 78t82.5 32q22 0 50.5 -8.5t56 -21t49.5 -26.5t33 -26q15 -17 23 -32.5t8 -39.5q0 -33 -14 -62.5t-38.5 -52t-59.5 -35.5t-77 -13q-12 0 -27 1.5t-20 1.5
q-13 0 -13 -11zM268 402q-11 0 -22 -13.5t-21 -31t-16 -34.5t-6 -24q0 -12 10 -12q15 0 28.5 8.5t23 21t15.5 28t6 29.5q0 11 -4 19.5t-14 8.5z" />
    <glyph glyph-name="Edotaccent" unicode="&#x116;" horiz-adv-x="456" 
d="M320 880q54 -3 77.5 -24.5t23.5 -56.5q0 -38 -25.5 -63t-70.5 -25q-36 0 -56 22.5t-20 60.5q2 25 11 42t29 33q6 5 14.5 8t16.5 3zM202 247q-2 -4 -4 -14t-3.5 -21t-3 -20.5t-1.5 -11.5q0 -13 11 -13q4 0 25 1.5t46.5 3.5t50 3.5t36.5 1.5q9 0 17 -6t11 -13
q4 -10 9.5 -28t10.5 -36.5t8.5 -34t3.5 -20.5q0 -15 -16 -17q-35 -3 -81.5 -7t-89.5 -7t-74.5 -5.5t-35.5 -2.5q-9 0 -17 3t-13 8q-17 17 -34 46.5t-33 55.5q-6 9 -6 21q0 25 5 63.5t12 82t16 88.5t17 83.5t14.5 66.5t9.5 39q0 4 1 8q2 10 2 15q0 7 -0.5 26.5t-0.5 30.5
q0 9 5.5 14t13.5 7q19 4 51.5 8t71.5 7t81 4.5t79 1.5h37t31 -2q8 -1 15 -5.5t9 -14.5q2 -11 3.5 -26t2 -30.5t1.5 -31t1 -26.5q0 -9 -5 -13.5t-13 -5.5l-206 -11q-14 -1 -20 -15q-2 -5 -5 -16.5t-5.5 -24l-4.5 -22.5l-2 -10q0 -13 14 -13q6 0 24 1t38 2t38 2t24 1
q11 0 17 -6t8 -14q2 -11 4.5 -27t4.5 -31.5t3.5 -28.5t1.5 -19q0 -8 -6 -12.5t-14 -4.5q-14 -1 -34 -2t-42.5 -2.5t-46.5 -3.5t-45 -4q-17 -1 -23 -16z" />
    <glyph glyph-name="edotaccent" unicode="&#x117;" horiz-adv-x="431" 
d="M271 710q54 -3 77.5 -24.5t23.5 -56.5q0 -38 -25.5 -63t-70.5 -25q-36 0 -56 22.5t-20 60.5q2 25 11 42t29 33q6 5 14.5 8t16.5 3zM185 192q0 -16 11 -29.5t36 -13.5q18 0 35.5 4t32.5 9t26.5 9t16.5 4q12 0 17 -12q3 -6 7 -17t7 -23t5.5 -22.5t2.5 -14.5q0 -11 -3 -16
t-8 -10q-9 -9 -24.5 -19.5t-34.5 -19.5t-40.5 -15t-40.5 -6q-20 0 -44.5 5.5t-49.5 17t-48.5 28.5t-40.5 41q-18 24 -24.5 56.5t-6.5 67.5q0 40 13.5 92.5t39 98.5t62 78t82.5 32q22 0 50.5 -8.5t56 -21t49.5 -26.5t33 -26q15 -17 23 -32.5t8 -39.5q0 -33 -14 -62.5
t-38.5 -52t-59.5 -35.5t-77 -13q-12 0 -27 1.5t-20 1.5q-13 0 -13 -11zM268 402q-11 0 -22 -13.5t-21 -31t-16 -34.5t-6 -24q0 -12 10 -12q15 0 28.5 8.5t23 21t15.5 28t6 29.5q0 11 -4 19.5t-14 8.5z" />
    <glyph glyph-name="Eogonek" unicode="&#x118;" horiz-adv-x="456" 
d="M202 247q-2 -4 -4 -14t-3.5 -21t-3 -20.5t-1.5 -11.5q0 -13 11 -13q4 0 25 1.5t46.5 3.5t50 3.5t36.5 1.5q9 0 17 -6t11 -13q4 -10 9.5 -28t10.5 -36.5t8.5 -34t3.5 -20.5q0 -15 -16 -17q-20 -2 -45 -4t-51 -4q-15 -7 -27.5 -19t-21.5 -25.5t-14 -27t-5 -22.5
q0 -14 8.5 -19.5t21.5 -5.5q15 0 29 6q6 2 9 2q10 0 14 -10q3 -8 6.5 -18t5.5 -19q2 -6 2 -12q0 -10 -10 -20q-13 -11 -37 -22.5t-53 -11.5q-47 0 -73.5 27t-26.5 68q0 34 16 65.5t39 53.5q-27 -2 -46 -3t-22 -1q-9 0 -17 3t-13 8q-17 17 -34 46.5t-33 55.5q-6 9 -6 21
q0 25 5 63.5t12 82t16 88.5t17 83.5t14.5 66.5t9.5 39q0 4 1 8q2 10 2 15q0 7 -0.5 26.5t-0.5 30.5q0 9 5.5 14t13.5 7q19 4 51.5 8t71.5 7t81 4.5t79 1.5h37t31 -2q8 -1 15 -5.5t9 -14.5q2 -11 3.5 -26t2 -30.5t1.5 -31t1 -26.5q0 -9 -5 -13.5t-13 -5.5l-206 -11
q-14 -1 -20 -15q-2 -5 -5 -16.5t-5.5 -24l-4.5 -22.5l-2 -10q0 -13 14 -13q6 0 24 1t38 2t38 2t24 1q11 0 17 -6t8 -14q2 -11 4.5 -27t4.5 -31.5t3.5 -28.5t1.5 -19q0 -8 -6 -12.5t-14 -4.5q-14 -1 -34 -2t-42.5 -2.5t-46.5 -3.5t-45 -4q-17 -1 -23 -16z" />
    <glyph glyph-name="eogonek" unicode="&#x119;" horiz-adv-x="431" 
d="M185 192q0 -16 11 -29.5t36 -13.5q18 0 35.5 4t32.5 9t26.5 9t16.5 4q12 0 17 -12q3 -6 7 -17t7 -23t5.5 -22.5t2.5 -14.5q0 -11 -3 -16t-8 -10q-8 -9 -23 -19t-33 -19t-38.5 -15t-39.5 -7q-25 -17 -38.5 -41.5t-14.5 -41.5q0 -14 8.5 -19.5t21.5 -5.5q15 0 29 6q6 2 9 2
q10 0 14 -10q3 -8 6.5 -18t5.5 -19q2 -6 2 -12q0 -10 -10 -20q-13 -11 -37 -22.5t-53 -11.5q-47 0 -73.5 27t-26.5 68q0 38 21.5 74.5t48.5 58.5l5 -1q-29 11 -58 30t-49 48q-18 24 -24.5 56.5t-6.5 67.5q0 40 13.5 92.5t39 98.5t62 78t82.5 32q22 0 50.5 -8.5t56 -21
t49.5 -26.5t33 -26q15 -17 23 -32.5t8 -39.5q0 -33 -14 -62.5t-38.5 -52t-59.5 -35.5t-77 -13q-12 0 -27 1.5t-20 1.5q-13 0 -13 -11zM268 402q-11 0 -22 -13.5t-21 -31t-16 -34.5t-6 -24q0 -12 10 -12q15 0 28.5 8.5t23 21t15.5 28t6 29.5q0 11 -4 19.5t-14 8.5z" />
    <glyph glyph-name="Ecaron" unicode="&#x11a;" horiz-adv-x="456" 
d="M339 845q5 -5 9 -5q5 0 12 5q12 9 31.5 25t32.5 27q4 3 11 3q11 0 17 -8q6 -11 13.5 -25t12.5 -25q2 -6 2 -9q0 -12 -11 -23q-10 -10 -25.5 -24t-33 -28.5t-35.5 -28.5t-32 -23q-6 -3 -12 -3q-7 0 -11 3q-3 2 -5 4q-12 11 -25.5 26.5t-27 32t-25.5 32t-20 26.5
q-5 7 -5 15t5 15q8 11 19 24.5t21 24.5q5 5 13 5t14 -6q11 -11 27.5 -29.5t27.5 -30.5zM202 247q-2 -4 -4 -14t-3.5 -21t-3 -20.5t-1.5 -11.5q0 -13 11 -13q4 0 25 1.5t46.5 3.5t50 3.5t36.5 1.5q9 0 17 -6t11 -13q4 -10 9.5 -28t10.5 -36.5t8.5 -34t3.5 -20.5
q0 -15 -16 -17q-35 -3 -81.5 -7t-89.5 -7t-74.5 -5.5t-35.5 -2.5q-9 0 -17 3t-13 8q-17 17 -34 46.5t-33 55.5q-6 9 -6 21q0 25 5 63.5t12 82t16 88.5t17 83.5t14.5 66.5t9.5 39q0 4 1 8q2 10 2 15q0 7 -0.5 26.5t-0.5 30.5q0 9 5.5 14t13.5 7q19 4 51.5 8t71.5 7t81 4.5
t79 1.5h37t31 -2q8 -1 15 -5.5t9 -14.5q2 -11 3.5 -26t2 -30.5t1.5 -31t1 -26.5q0 -9 -5 -13.5t-13 -5.5l-206 -11q-14 -1 -20 -15q-2 -5 -5 -16.5t-5.5 -24l-4.5 -22.5l-2 -10q0 -13 14 -13q6 0 24 1t38 2t38 2t24 1q11 0 17 -6t8 -14q2 -11 4.5 -27t4.5 -31.5t3.5 -28.5
t1.5 -19q0 -8 -6 -12.5t-14 -4.5q-14 -1 -34 -2t-42.5 -2.5t-46.5 -3.5t-45 -4q-17 -1 -23 -16z" />
    <glyph glyph-name="ecaron" unicode="&#x11b;" horiz-adv-x="431" 
d="M291 674q5 -5 9 -5q5 0 12 5q12 9 31.5 25t32.5 27q4 3 11 3q11 0 17 -8q6 -11 13.5 -25t12.5 -25q2 -6 2 -9q0 -12 -11 -23q-10 -10 -25.5 -24t-33 -28.5t-35.5 -28.5t-32 -23q-6 -3 -12 -3q-7 0 -11 3q-3 2 -5 4q-12 11 -25.5 26.5t-27 32t-25.5 32t-20 26.5
q-5 7 -5 15t5 15q8 11 19 24.5t21 24.5q5 5 13 5t14 -6q11 -11 27.5 -29.5t27.5 -30.5zM185 192q0 -16 11 -29.5t36 -13.5q18 0 35.5 4t32.5 9t26.5 9t16.5 4q12 0 17 -12q3 -6 7 -17t7 -23t5.5 -22.5t2.5 -14.5q0 -11 -3 -16t-8 -10q-9 -9 -24.5 -19.5t-34.5 -19.5
t-40.5 -15t-40.5 -6q-20 0 -44.5 5.5t-49.5 17t-48.5 28.5t-40.5 41q-18 24 -24.5 56.5t-6.5 67.5q0 40 13.5 92.5t39 98.5t62 78t82.5 32q22 0 50.5 -8.5t56 -21t49.5 -26.5t33 -26q15 -17 23 -32.5t8 -39.5q0 -33 -14 -62.5t-38.5 -52t-59.5 -35.5t-77 -13q-12 0 -27 1.5
t-20 1.5q-13 0 -13 -11zM268 402q-11 0 -22 -13.5t-21 -31t-16 -34.5t-6 -24q0 -12 10 -12q15 0 28.5 8.5t23 21t15.5 28t6 29.5q0 11 -4 19.5t-14 8.5z" />
    <glyph glyph-name="Gcircumflex" unicode="&#x11c;" horiz-adv-x="540" 
d="M390 751q-7 7 -12 7q-8 0 -13 -4q-15 -10 -28 -19q-11 -8 -23 -15.5t-18 -11.5q-1 -1 -3 -2q-4 -2 -9 -2q-8 0 -13 5q-3 2 -4 5q-5 11 -12 25t-12 25q-3 7 -3 12q1 8 4 11.5t8 7.5q11 9 29 22t37.5 26.5t38.5 26.5t34 22q4 2 7.5 2.5t6.5 0.5q8 -1 15 -8
q12 -12 25.5 -28.5t27 -33.5t25.5 -33t21 -27q1 -3 3 -6q4 -6 4 -11q0 -3 -4 -9q-2 -3 -3 -5q-9 -9 -21 -23t-23 -23q-6 -5 -14 -5q-6 0 -9 3l-4 4l-24 24q-10 10 -19.5 20t-14.5 17zM293 -2q-32 0 -65 10t-62.5 25t-53 32.5t-35.5 32.5q-24 31 -34 73t-10 86q0 69 19 143
t54 135.5t85.5 101.5t112.5 40q24 0 64.5 -9.5t80 -29t69 -48.5t29.5 -67q0 -12 -2.5 -24.5t-6.5 -24t-7.5 -21t-5.5 -14.5q-3 -8 -9.5 -12t-14.5 -5q-9 0 -25 -0.5t-33.5 -0.5h-33h-23.5q-19 0 -19 22q0 5 2.5 22t2.5 37q0 16 -7.5 27t-21.5 11q-25 0 -49 -25t-43 -65
t-31 -90t-12 -100q0 -59 21.5 -84t47.5 -25q14 0 28 6.5t25 17t18 23.5t7 25q0 7 -11 7q-16 -1 -22 -1.5t-14 -0.5q-7 0 -14.5 4.5t-9.5 15.5q-4 20 -6 45t-2 42q0 18 20 21q22 3 58 5t71 2h23.5t20.5 -1t15.5 -6.5t9.5 -13.5q4 -12 8.5 -32t9 -41t7.5 -38.5t3 -22.5
q0 -14 -4 -23q-9 -24 -26.5 -56.5t-45.5 -61.5t-66 -49t-87 -20z" />
    <glyph glyph-name="gcircumflex" unicode="&#x11d;" horiz-adv-x="476" 
d="M15 191q0 45 12.5 101.5t39 106t69 83.5t102.5 34q19 0 50 -8t65 -21t66.5 -28t53.5 -29q10 -7 10 -23q0 -2 -0.5 -3.5t-0.5 -2.5v-2q-7 -30 -16 -74t-18 -94.5t-18.5 -104t-18.5 -101.5q-4 -23 -17 -58.5t-38.5 -68.5t-64.5 -56.5t-95 -23.5q-15 0 -34 4t-38 10.5
t-35.5 14.5t-27.5 16q-7 5 -9.5 11t-2.5 12v4q0 1 1 3q4 16 9.5 37t11.5 39q4 12 15 12q1 0 2 -0.5t2 -0.5h2q24 -10 41 -14t31 -4q25 0 43.5 10.5t30.5 26.5t18 35t6 37q0 9 -3 9t-7 -6q-20 -27 -41.5 -45t-42.5 -18q-26 0 -53.5 14.5t-49.5 39.5t-36 57.5t-14 68.5z
M257 193q9 9 11 20q5 35 13 70t15 69v5q0 11 -7 16t-17 5q-21 0 -37 -20t-27.5 -48t-17 -58.5t-5.5 -51.5q0 -20 4 -31t10 -11q11 0 27.5 10.5t30.5 24.5zM325 589q-6 6 -12 6t-13 -5q-14 -10 -26 -20l-22 -16t-18 -13q-6 -3 -13 -3q-10 0 -15 8q-7 11 -14.5 24t-13.5 24
q-2 4 -2 11q0 12 10 20q10 10 27 24t36 29t37.5 29t33.5 23q6 4 13 4q5 0 9 -2.5t8 -5.5q11 -9 25.5 -24.5t29 -32t28 -32.5t22.5 -26q6 -6 6 -17q0 -7 -5 -14q-9 -11 -20 -25t-22 -25q-2 -2 -5 -3.5t-9 -1.5q-7 0 -10 3q-3 1 -4 3q-14 12 -25 23q-10 9 -20 19z" />
    <glyph glyph-name="Gbreve" unicode="&#x11e;" horiz-adv-x="540" 
d="M512 862q11 -8 11 -23q0 -1 -0.5 -2t-0.5 -2v-3q-5 -17 -15.5 -40t-29 -44t-45 -35.5t-61.5 -14.5q-30 0 -50.5 10.5t-33 27.5t-18.5 38.5t-6 42.5q0 7 0.5 13.5t1.5 13.5q3 23 20 30q3 1 9.5 3t14 4.5t14 4t9.5 1.5q14 0 14 -15q0 -28 8 -44t25 -16q12 0 21.5 6t17 15
t13 19t8.5 18q7 14 18 14q1 0 1.5 -0.5t2.5 -0.5h3q11 -4 24 -9t24 -12zM293 -2q-32 0 -65 10t-62.5 25t-53 32.5t-35.5 32.5q-24 31 -34 73t-10 86q0 69 19 143t54 135.5t85.5 101.5t112.5 40q24 0 64.5 -9.5t80 -29t69 -48.5t29.5 -67q0 -12 -2.5 -24.5t-6.5 -24t-7.5 -21
t-5.5 -14.5q-3 -8 -9.5 -12t-14.5 -5q-9 0 -25 -0.5t-33.5 -0.5h-33h-23.5q-19 0 -19 22q0 5 2.5 22t2.5 37q0 16 -7.5 27t-21.5 11q-25 0 -49 -25t-43 -65t-31 -90t-12 -100q0 -59 21.5 -84t47.5 -25q14 0 28 6.5t25 17t18 23.5t7 25q0 7 -11 7q-16 -1 -22 -1.5t-14 -0.5
q-7 0 -14.5 4.5t-9.5 15.5q-4 20 -6 45t-2 42q0 18 20 21q22 3 58 5t71 2h23.5t20.5 -1t15.5 -6.5t9.5 -13.5q4 -12 8.5 -32t9 -41t7.5 -38.5t3 -22.5q0 -14 -4 -23q-9 -24 -26.5 -56.5t-45.5 -61.5t-66 -49t-87 -20z" />
    <glyph glyph-name="gbreve" unicode="&#x11f;" horiz-adv-x="476" 
d="M15 191q0 45 12.5 101.5t39 106t69 83.5t102.5 34q19 0 50 -8t65 -21t66.5 -28t53.5 -29q10 -7 10 -23q0 -2 -0.5 -3.5t-0.5 -2.5v-2q-7 -30 -16 -74t-18 -94.5t-18.5 -104t-18.5 -101.5q-4 -23 -17 -58.5t-38.5 -68.5t-64.5 -56.5t-95 -23.5q-15 0 -34 4t-38 10.5
t-35.5 14.5t-27.5 16q-7 5 -9.5 11t-2.5 12v4q0 1 1 3q4 16 9.5 37t11.5 39q4 12 15 12q1 0 2 -0.5t2 -0.5h2q24 -10 41 -14t31 -4q25 0 43.5 10.5t30.5 26.5t18 35t6 37q0 9 -3 9t-7 -6q-20 -27 -41.5 -45t-42.5 -18q-26 0 -53.5 14.5t-49.5 39.5t-36 57.5t-14 68.5z
M257 193q9 9 11 20q5 35 13 70t15 69v5q0 11 -7 16t-17 5q-21 0 -37 -20t-27.5 -48t-17 -58.5t-5.5 -51.5q0 -20 4 -31t10 -11q11 0 27.5 10.5t30.5 24.5zM453 701q11 -8 11 -23q0 -1 -0.5 -2t-0.5 -2v-3q-5 -17 -15.5 -40t-29 -44t-45 -35.5t-61.5 -14.5q-30 0 -50.5 10.5
t-33 27.5t-18.5 38.5t-6 42.5q0 7 0.5 13.5t1.5 13.5q3 23 20 30q3 1 9.5 3t14 4.5t14 4t9.5 1.5q14 0 14 -15q0 -28 8 -44t25 -16q12 0 21.5 6t17 15t13 19t8.5 18q7 14 18 14q1 0 1.5 -0.5t2.5 -0.5h3q11 -4 24 -9t24 -12z" />
    <glyph glyph-name="Gdotaccent" unicode="&#x120;" horiz-adv-x="540" 
d="M363 870q54 -3 77.5 -24.5t23.5 -56.5q0 -38 -25.5 -63t-70.5 -25q-36 0 -56 22.5t-20 60.5q2 25 11 42t29 33q6 5 14.5 8t16.5 3zM293 -2q-32 0 -65 10t-62.5 25t-53 32.5t-35.5 32.5q-24 31 -34 73t-10 86q0 69 19 143t54 135.5t85.5 101.5t112.5 40q24 0 64.5 -9.5
t80 -29t69 -48.5t29.5 -67q0 -12 -2.5 -24.5t-6.5 -24t-7.5 -21t-5.5 -14.5q-3 -8 -9.5 -12t-14.5 -5q-9 0 -25 -0.5t-33.5 -0.5h-33h-23.5q-19 0 -19 22q0 5 2.5 22t2.5 37q0 16 -7.5 27t-21.5 11q-25 0 -49 -25t-43 -65t-31 -90t-12 -100q0 -59 21.5 -84t47.5 -25
q14 0 28 6.5t25 17t18 23.5t7 25q0 7 -11 7q-16 -1 -22 -1.5t-14 -0.5q-7 0 -14.5 4.5t-9.5 15.5q-4 20 -6 45t-2 42q0 18 20 21q22 3 58 5t71 2h23.5t20.5 -1t15.5 -6.5t9.5 -13.5q4 -12 8.5 -32t9 -41t7.5 -38.5t3 -22.5q0 -14 -4 -23q-9 -24 -26.5 -56.5t-45.5 -61.5
t-66 -49t-87 -20z" />
    <glyph glyph-name="gdotaccent" unicode="&#x121;" horiz-adv-x="476" 
d="M15 191q0 45 12.5 101.5t39 106t69 83.5t102.5 34q19 0 50 -8t65 -21t66.5 -28t53.5 -29q10 -7 10 -23q0 -2 -0.5 -3.5t-0.5 -2.5v-2q-7 -30 -16 -74t-18 -94.5t-18.5 -104t-18.5 -101.5q-4 -23 -17 -58.5t-38.5 -68.5t-64.5 -56.5t-95 -23.5q-15 0 -34 4t-38 10.5
t-35.5 14.5t-27.5 16q-7 5 -9.5 11t-2.5 12v4q0 1 1 3q4 16 9.5 37t11.5 39q4 12 15 12q1 0 2 -0.5t2 -0.5h2q24 -10 41 -14t31 -4q25 0 43.5 10.5t30.5 26.5t18 35t6 37q0 9 -3 9t-7 -6q-20 -27 -41.5 -45t-42.5 -18q-26 0 -53.5 14.5t-49.5 39.5t-36 57.5t-14 68.5z
M257 193q9 9 11 20q5 35 13 70t15 69v5q0 11 -7 16t-17 5q-21 0 -37 -20t-27.5 -48t-17 -58.5t-5.5 -51.5q0 -20 4 -31t10 -11q11 0 27.5 10.5t30.5 24.5zM313 707q54 -3 77.5 -24.5t23.5 -56.5q0 -38 -25.5 -63t-70.5 -25q-36 0 -56 22.5t-20 60.5q2 25 11 42t29 33
q6 5 14.5 8t16.5 3z" />
    <glyph glyph-name="uni0122" unicode="&#x122;" horiz-adv-x="540" 
d="M292 -59q6 -3 9 -10t3 -15v-5q-3 -15 -9 -33t-13 -35.5t-14.5 -33.5t-13.5 -27q-4 -6 -11 -9t-15 -3h-5q-11 3 -25 8t-26 10q-6 2 -9 8.5t-3 13.5q0 2 0.5 3t0.5 3q4 15 8.5 32.5t9 35.5t8 36t5.5 34q2 17 16 17q5 0 16 -3t23.5 -7.5t24.5 -9.5t20 -10zM293 -2
q-32 0 -65 10t-62.5 25t-53 32.5t-35.5 32.5q-24 31 -34 73t-10 86q0 69 19 143t54 135.5t85.5 101.5t112.5 40q24 0 64.5 -9.5t80 -29t69 -48.5t29.5 -67q0 -12 -2.5 -24.5t-6.5 -24t-7.5 -21t-5.5 -14.5q-3 -8 -9.5 -12t-14.5 -5q-9 0 -25 -0.5t-33.5 -0.5h-33h-23.5
q-19 0 -19 22q0 5 2.5 22t2.5 37q0 16 -7.5 27t-21.5 11q-25 0 -49 -25t-43 -65t-31 -90t-12 -100q0 -59 21.5 -84t47.5 -25q14 0 28 6.5t25 17t18 23.5t7 25q0 7 -11 7q-16 -1 -22 -1.5t-14 -0.5q-7 0 -14.5 4.5t-9.5 15.5q-4 20 -6 45t-2 42q0 18 20 21q22 3 58 5t71 2
h23.5t20.5 -1t15.5 -6.5t9.5 -13.5q4 -12 8.5 -32t9 -41t7.5 -38.5t3 -22.5q0 -14 -4 -23q-9 -24 -26.5 -56.5t-45.5 -61.5t-66 -49t-87 -20z" />
    <glyph glyph-name="uni0123" unicode="&#x123;" horiz-adv-x="476" 
d="M15 191q0 45 12.5 101.5t39 106t69 83.5t102.5 34q19 0 50 -8t65 -21t66.5 -28t53.5 -29q10 -7 10 -23q0 -2 -0.5 -3.5t-0.5 -2.5v-2q-7 -30 -16 -74t-18 -94.5t-18.5 -104t-18.5 -101.5q-4 -23 -17 -58.5t-38.5 -68.5t-64.5 -56.5t-95 -23.5q-15 0 -34 4t-38 10.5
t-35.5 14.5t-27.5 16q-7 5 -9.5 11t-2.5 12v4q0 1 1 3q4 16 9.5 37t11.5 39q4 12 15 12q1 0 2 -0.5t2 -0.5h2q24 -10 41 -14t31 -4q25 0 43.5 10.5t30.5 26.5t18 35t6 37q0 9 -3 9t-7 -6q-20 -27 -41.5 -45t-42.5 -18q-26 0 -53.5 14.5t-49.5 39.5t-36 57.5t-14 68.5z
M257 193q9 9 11 20q5 35 13 70t15 69v5q0 11 -7 16t-17 5q-21 0 -37 -20t-27.5 -48t-17 -58.5t-5.5 -51.5q0 -20 4 -31t10 -11q11 0 27.5 10.5t30.5 24.5zM273 558q-6 3 -9 10t-3 15v5q3 15 9 33t13 35.5t14.5 33.5t13.5 27q4 6 11 9t15 3h5q11 -3 25 -8t26 -10q6 -2 9 -8.5
t3 -13.5q0 -2 -0.5 -3t-0.5 -3q-8 -29 -17.5 -68t-13.5 -70q-2 -17 -16 -17q-5 0 -16 3t-23.5 7.5t-25 9.5t-19.5 10z" />
    <glyph glyph-name="Hcircumflex" unicode="&#x124;" horiz-adv-x="535" 
d="M425 660q2 6 7.5 10.5t13.5 4.5q4 0 22.5 -4.5t40.5 -10.5t41.5 -12t26.5 -9q13 -5 13 -18q0 -1 -0.5 -2t-0.5 -2v-2q-12 -35 -28 -99.5t-33.5 -146t-33 -172.5t-25.5 -179q-2 -15 -17 -15q-10 0 -29 4t-38.5 9.5t-36 11t-21.5 7.5q-16 7 -17 27q0 9 1.5 30t4 42.5t4 39
t1.5 20.5q0 12 -12 12q-3 0 -13 -0.5t-23 -1t-27 -1t-24 -1.5q-17 -2 -20 -18q-3 -20 -6.5 -44t-6.5 -46.5t-6 -42.5t-4 -33q-1 -8 -7 -12t-13 -4q-9 0 -27 4t-37.5 9.5t-36 11t-22.5 8.5q-15 6 -16 27q1 25 4 58.5t8 73.5q0 2 0.5 4t0.5 4q0 6 -3 21t-6.5 31.5t-6.5 30.5
t-3 19q0 8 4 14.5t17 9.5q21 5 23 20q9 50 19 98t20.5 89t19.5 73.5t17 51.5q6 14 24 14q7 0 25.5 -4t38.5 -10t38.5 -12t26.5 -9q13 -5 13 -18q0 -1 -0.5 -2t-0.5 -2v-2q-13 -34 -28.5 -97t-33.5 -145q-1 -1 -1 -3v-5q0 -13 15 -13q10 0 22.5 0.5t24.5 1t20.5 0.5h11.5
q8 0 13.5 5.5t7.5 12.5q9 46 19 90t20 82.5t18.5 68t16.5 47.5zM379 760q-6 6 -12 6t-13 -5q-14 -10 -26 -20q-11 -8 -22 -16.5t-17 -13.5q-5 -4 -13 -4q-10 0 -16 8q-7 11 -14.5 24t-13.5 24q-3 4 -3 10q0 13 10 21q10 10 27 24t35.5 29.5t37 29.5t32.5 24q6 4 13 4
q10 0 17 -7q12 -11 27 -26.5t30 -31.5t28 -31t22 -25q7 -7 7 -17q0 -7 -5 -14q-9 -11 -20 -25t-21 -25q-5 -5 -14 -5q-6 0 -10 2q-2 1 -4 3q-14 11 -25 22q-11 9 -21 19z" />
    <glyph glyph-name="hcircumflex" unicode="&#x125;" horiz-adv-x="480" 
d="M243 425q26 39 55.5 64t57.5 25q16 0 37 -12t39.5 -30.5t31.5 -40t13 -40.5q0 -11 -3 -35.5t-8.5 -57t-12.5 -70t-15 -75t-15.5 -72.5t-14.5 -62q-5 -17 -22 -17q-8 0 -24.5 4.5t-36 11t-38 14t-28.5 12.5q-12 7 -12 22v5q0 2 1 3q5 21 13 56t15.5 73t13 73t5.5 56
q0 24 -8 24q-7 0 -25 -10.5t-38 -30.5q-5 -5 -10 -13.5t-7 -18.5q-13 -66 -24 -132t-19 -132q-2 -16 -18 -16q-9 0 -27 4t-37 9.5t-35 11t-22 8.5q-9 4 -12.5 12t-3.5 16q1 37 7.5 91t16.5 114.5t22.5 124t26 120t26 101.5t23.5 70q2 6 8 10.5t14 4.5q4 0 23 -5t40.5 -11.5
t40.5 -12.5t25 -8q8 -2 10.5 -6.5t2.5 -9.5q0 -2 -0.5 -3t-0.5 -3q-1 -2 -1 -3q-11 -33 -25.5 -85t-31.5 -125q-1 -2 -1 -3v-3q0 -3 2 -3q1 0 6 6zM239 762q-7 7 -12 7q-8 0 -13 -4q-15 -10 -28 -19q-11 -8 -23 -15.5t-18 -11.5q-1 -1 -3 -2q-4 -2 -9 -2q-8 0 -13 5
q-3 2 -4 5q-5 11 -12 25t-12 25q-3 7 -3 12q1 8 4 11.5t8 7.5q11 9 29 22t37.5 26.5t38.5 26.5t34 22q4 2 7.5 2.5t6.5 0.5q8 -1 15 -8q12 -12 25.5 -28.5t27 -33.5t25.5 -33t21 -27q1 -3 3 -6q4 -6 4 -11q0 -3 -4 -9q-2 -3 -3 -5q-9 -9 -21 -23t-23 -23q-6 -5 -14 -5
q-6 0 -9 3l-4 4l-24 24q-10 10 -19.5 20t-14.5 17z" />
    <glyph glyph-name="Hbar" unicode="&#x126;" horiz-adv-x="534" 
d="M425 660q2 6 7.5 10.5t13.5 4.5q4 0 22.5 -4.5t40.5 -10.5t41.5 -12t26.5 -9q13 -5 13 -18q0 -1 -0.5 -2t-0.5 -2v-2q-12 -35 -28 -99.5t-33.5 -146t-33 -172.5t-25.5 -179q-2 -15 -17 -15q-10 0 -29 4t-38.5 9.5t-36 11t-21.5 7.5q-16 7 -17 27q0 9 1.5 30t4 42.5t4 39
t1.5 20.5q0 12 -12 12q-3 0 -13 -0.5t-23 -1t-27 -1t-24 -1.5q-17 -2 -20 -18q-3 -20 -6.5 -44t-6.5 -46.5t-6 -42.5t-4 -33q-1 -8 -7 -12t-13 -4q-9 0 -27 4t-37.5 9.5t-36 11t-22.5 8.5q-15 6 -16 27q1 25 4 58.5t8 73.5q0 2 0.5 4t0.5 4q0 6 -3 21t-6.5 31.5t-6.5 30.5
t-3 19q0 8 4 14.5t17 9.5q21 5 23 20q4 20 7 39.5t8 38.5q-8 2 -14 5t-10 11q-3 7 -5 20.5t-4 37.5q0 17 16 20q2 0 12.5 1t26.5 3q11 45 21 80.5t18 55.5q6 14 24 14q7 0 25.5 -4t38.5 -10t38.5 -12t26.5 -9q13 -5 13 -18q0 -1 -0.5 -2t-0.5 -2v-2q-5 -14 -10.5 -31.5
t-11.5 -40.5q20 1 51 1.5t62 0.5q9 38 18 67.5t17 47.5zM249 430l-12 -57q-1 -1 -1 -3v-5q0 -13 15 -13q10 0 22.5 0.5t24.5 1t20.5 0.5h11.5q8 0 13.5 5.5t7.5 12.5q3 16 6 31t7 31z" />
    <glyph glyph-name="hbar" unicode="&#x127;" horiz-adv-x="490" 
d="M243 425q26 39 55.5 64t57.5 25q16 0 37 -12t39.5 -30.5t31.5 -40t13 -40.5q0 -11 -3 -35.5t-8.5 -57t-12.5 -70t-15 -75t-15.5 -72.5t-14.5 -62q-5 -17 -22 -17q-8 0 -24.5 4.5t-36 11t-38 14t-28.5 12.5q-12 7 -12 22v5q0 2 1 3q5 21 13 56t15.5 73t13 73t5.5 56
q0 24 -8 24q-7 0 -25 -10.5t-38 -30.5q-5 -5 -10 -13.5t-7 -18.5q-13 -66 -24 -132t-19 -132q-2 -16 -18 -16q-9 0 -27 4t-37 9.5t-35 11t-22 8.5q-9 4 -12.5 12t-3.5 16q1 39 8 95.5t17.5 120.5t24 130t27.5 123h-13q-8 0 -14.5 5.5t-6.5 13.5v14v18t1 17q0 8 6.5 14.5
t13.5 7.5l37 3q5 18 10.5 33t10.5 26q2 6 8 10.5t14 4.5q4 0 23 -5t40.5 -11.5t40.5 -12.5t25 -8q8 -2 10.5 -6.5t2.5 -9.5q0 -2 -0.5 -3t-0.5 -3q-1 -2 -1 -3l-4 -12h30q8 -1 14.5 -7.5t6.5 -14.5q0 -13 -1.5 -29.5t-3.5 -25.5q-2 -8 -9 -13t-14 -5h-51q-6 -23 -12 -48.5
t-13 -54.5q-1 -2 -1 -3v-3q0 -3 2 -3q1 0 6 6z" />
    <glyph glyph-name="Itilde" unicode="&#x128;" horiz-adv-x="234" 
d="M168 18q-2 -15 -17 -15q-11 0 -29.5 4t-37.5 9t-35 10.5t-21 7.5q-8 3 -11.5 11t-3.5 16q0 35 6 87t15 111t20.5 120t23.5 116t24.5 98.5t22.5 66.5q5 14 21 14q5 0 23 -4.5t39.5 -10.5t40.5 -12t26 -8q14 -5 14 -19q0 -1 -0.5 -1.5t-0.5 -1.5v-2q-12 -35 -28 -99.5
t-33.5 -146t-33 -172.5t-25.5 -179zM294 697q-18 0 -34 6.5t-31.5 14.5t-31 14.5t-31.5 6.5q-17 0 -30.5 -8t-22.5 -17q-5 -5 -9 -5q-6 0 -7 9l-17 62q-2 8 -2 12q0 6 1.5 12t5.5 10q6 7 15 16t19.5 16.5t23.5 12.5t27 5q18 0 32.5 -6.5t28 -14t27.5 -14t29 -6.5
q17 0 31.5 9t23.5 18q5 4 9 4q5 0 8 -7l16 -65q0 -3 1 -5q0 -2 0.5 -3.5t0.5 -3.5q0 -13 -6 -22q-11 -15 -30 -33t-47 -18z" />
    <glyph glyph-name="itilde" unicode="&#x129;" horiz-adv-x="229" 
d="M164 18q-3 -17 -19 -17q-7 0 -24 3.5t-36.5 9t-37 11t-25.5 8.5q-16 7 -16 28q2 41 10 102t18.5 124t22.5 118.5t22 87.5q5 17 25 17q6 0 24 -3.5t39 -8.5t40 -10t25 -8q13 -7 13 -19q0 -1 -0.5 -2t-0.5 -2v-2q-11 -50 -23 -107.5t-23 -116t-20 -114t-14 -99.5zM248 542
q-18 0 -34 6.5t-31.5 14.5t-31 14.5t-31.5 6.5q-17 0 -30.5 -8t-22.5 -17q-5 -5 -9 -5q-6 0 -7 9l-17 62q-2 8 -2 12q0 6 1.5 12t5.5 10q6 7 15 16t19.5 16.5t23.5 12.5t27 5q18 0 32.5 -6.5t28 -14t27.5 -14t29 -6.5q17 0 31.5 9t23.5 18q5 4 9 4q5 0 8 -7l16 -65
q0 -3 1 -5q0 -2 0.5 -3.5t0.5 -3.5q0 -13 -6 -22q-11 -15 -30 -33t-47 -18z" />
    <glyph glyph-name="Imacron" unicode="&#x12a;" horiz-adv-x="234" 
d="M168 18q-2 -15 -17 -15q-11 0 -29.5 4t-37.5 9t-35 10.5t-21 7.5q-8 3 -11.5 11t-3.5 16q0 35 6 87t15 111t20.5 120t23.5 116t24.5 98.5t22.5 66.5q5 14 21 14q5 0 23 -4.5t39.5 -10.5t40.5 -12t26 -8q14 -5 14 -19q0 -1 -0.5 -1.5t-0.5 -1.5v-2q-12 -35 -28 -99.5
t-33.5 -146t-33 -172.5t-25.5 -179zM86 807q2 8 7.5 14t16.5 8q10 2 26.5 3.5t37 2.5t42.5 1.5t43 0.5q26 0 47.5 -1t32.5 -3q10 -2 15.5 -9t6.5 -15q0 -2 0.5 -5t0.5 -7q0 -14 -2 -33.5t-5 -30.5q-5 -19 -28 -19q-8 0 -40 0.5t-69 0.5t-69 0.5t-40 0.5q-6 0 -14 4.5
t-10 14.5q-1 5 -1.5 12.5t-0.5 15.5q0 12 0.5 24t2.5 20z" />
    <glyph glyph-name="imacron" unicode="&#x12b;" horiz-adv-x="229" 
d="M164 18q-3 -17 -19 -17q-7 0 -24 3.5t-36.5 9t-37 11t-25.5 8.5q-16 7 -16 28q2 41 10 102t18.5 124t22.5 118.5t22 87.5q5 17 25 17q6 0 24 -3.5t39 -8.5t40 -10t25 -8q13 -7 13 -19q0 -1 -0.5 -2t-0.5 -2v-2q-11 -50 -23 -107.5t-23 -116t-20 -114t-14 -99.5zM48 649
q2 8 7.5 14t16.5 8q10 2 26.5 3.5t37 2.5t42.5 1.5t43 0.5q26 0 47.5 -1t32.5 -3q10 -2 15.5 -9t6.5 -15q0 -2 0.5 -5t0.5 -7q0 -14 -2 -33.5t-5 -30.5q-5 -19 -28 -19q-8 0 -40 0.5t-69 0.5t-69 0.5t-40 0.5q-6 0 -14 4.5t-10 14.5q-1 5 -1.5 12.5t-0.5 15.5q0 12 0.5 24
t2.5 20z" />
    <glyph glyph-name="Iogonek" unicode="&#x12e;" horiz-adv-x="234" 
d="M168 18q-2 -15 -17 -15q-17 -6 -30.5 -16.5t-23.5 -22.5t-15.5 -24.5t-5.5 -22.5q0 -14 8.5 -19.5t21.5 -5.5q15 0 29 6q6 2 9 2q10 0 14 -10q3 -8 6.5 -18t5.5 -19q2 -6 2 -12q0 -10 -10 -20q-13 -11 -37 -22.5t-53 -11.5q-47 0 -73.5 27t-26.5 68q0 24 8.5 45.5
t22 39.5t31 31.5t34.5 21.5q-15 4 -27 9q-7 3 -13 5q-8 3 -11.5 11t-3.5 16q0 35 6 87t15 111t20.5 120t23.5 116t24.5 98.5t22.5 66.5q5 14 21 14q5 0 23 -4.5t39.5 -10.5t40.5 -12t26 -8q14 -5 14 -19q0 -1 -0.5 -1.5t-0.5 -1.5v-2q-12 -35 -28 -99.5t-33.5 -146
t-33 -172.5t-25.5 -179z" />
    <glyph glyph-name="iogonek" unicode="&#x12f;" horiz-adv-x="229" 
d="M164 18q-3 -17 -19 -17q-17 -6 -30.5 -16t-23.5 -22t-15.5 -24t-5.5 -22q0 -14 8.5 -19.5t21.5 -5.5q15 0 29 6q6 2 9 2q10 0 14 -10q3 -8 6.5 -18t5.5 -19q2 -6 2 -12q0 -10 -10 -20q-13 -11 -37 -22.5t-53 -11.5q-47 0 -73.5 27t-26.5 68q0 24 8.5 45t22.5 39
t31.5 31.5t35.5 21.5l-42 14q-16 7 -16 28q2 41 10 102t18.5 124t22.5 118.5t22 87.5q5 17 25 17q6 0 24 -3.5t39 -8.5t40 -10t25 -8q13 -7 13 -19q0 -1 -0.5 -2t-0.5 -2v-2q-11 -50 -23 -107.5t-23 -116t-20 -114t-14 -99.5zM172 733q55 0 86 -26.5t31 -64.5
q0 -42 -30.5 -70.5t-82.5 -28.5q-45 0 -66.5 27t-21.5 66q0 27 15 49t33 37q14 11 36 11z" />
    <glyph glyph-name="Idotaccent" unicode="&#x130;" horiz-adv-x="234" 
d="M168 18q-2 -15 -17 -15q-11 0 -29.5 4t-37.5 9t-35 10.5t-21 7.5q-8 3 -11.5 11t-3.5 16q0 35 6 87t15 111t20.5 120t23.5 116t24.5 98.5t22.5 66.5q5 14 21 14q5 0 23 -4.5t39.5 -10.5t40.5 -12t26 -8q14 -5 14 -19q0 -1 -0.5 -1.5t-0.5 -1.5v-2q-12 -35 -28 -99.5
t-33.5 -146t-33 -172.5t-25.5 -179zM223 868q54 -3 77.5 -24.5t23.5 -56.5q0 -38 -25.5 -63t-70.5 -25q-36 0 -56 22.5t-20 60.5q2 25 11 42t29 33q6 5 14.5 8t16.5 3z" />
    <glyph glyph-name="dotlessi" unicode="&#x131;" horiz-adv-x="229" 
d="M164 18q-3 -17 -19 -17q-7 0 -24 3.5t-36.5 9t-37 11t-25.5 8.5q-16 7 -16 28q2 41 10 102t18.5 124t22.5 118.5t22 87.5q5 17 25 17q6 0 24 -3.5t39 -8.5t40 -10t25 -8q13 -7 13 -19q0 -1 -0.5 -2t-0.5 -2v-2q-11 -50 -23 -107.5t-23 -116t-20 -114t-14 -99.5z" />
    <glyph glyph-name="IJ" unicode="&#x132;" horiz-adv-x="687" 
d="M168 18q-2 -15 -17 -15q-11 0 -29.5 4t-37.5 9t-35 10.5t-21 7.5q-8 3 -11.5 11t-3.5 16q0 35 6 87t15 111t20.5 120t23.5 116t24.5 98.5t22.5 66.5q5 14 21 14q5 0 23 -4.5t39.5 -10.5t40.5 -12t26 -8q14 -5 14 -19q0 -1 -0.5 -1.5t-0.5 -1.5v-2q-12 -35 -28 -99.5
t-33.5 -146t-33 -172.5t-25.5 -179zM374 289q9 0 13 -5t5 -12q2 -24 5 -47.5t7 -41.5t9.5 -29t11.5 -11q15 0 29.5 29t27 74.5t23 102t19.5 111t15.5 101t10.5 72.5l3 19q1 7 6.5 11t12.5 4q3 0 22 -2.5t41.5 -6t43.5 -7t28 -5.5q8 -2 11 -8.5t3 -13.5t-3 -31.5t-8 -61
t-12 -80.5t-16 -90t-19 -90t-21 -80q-30 -99 -78.5 -146t-99.5 -47q-11 0 -36 2.5t-53.5 11t-56.5 24.5t-46 43q-7 11 -13.5 29t-11.5 39t-8 42.5t-3 38.5v10q2 17 17 23q6 2 24 6.5t38 9t37.5 8.5t21.5 4z" />
    <glyph glyph-name="ij" unicode="&#x133;" horiz-adv-x="457" 
d="M172 733q55 0 86 -26.5t31 -64.5q0 -42 -30.5 -70.5t-82.5 -28.5q-45 0 -66.5 27t-21.5 66q0 27 15 49t33 37q14 11 36 11zM164 18q-3 -17 -19 -17q-7 0 -24 3.5t-36.5 9t-37 11t-25.5 8.5q-16 7 -16 28q2 41 10 102t18.5 124t22.5 118.5t22 87.5q5 17 25 17q6 0 24 -3.5
t39 -8.5t40 -10t25 -8q13 -7 13 -19q0 -1 -0.5 -2t-0.5 -2v-2q-11 -50 -23 -107.5t-23 -116t-20 -114t-14 -99.5zM283 -176q-11 -7 -21 -7q-8 0 -10 1q-3 1 -4 2q-24 11 -50.5 28t-41.5 31q-4 4 -4 10q0 7 3 10l4 4q17 13 35 40t28 71q4 21 10.5 57t14 81t16 94t16 95.5
t14.5 86.5t13 67q3 17 21 17q10 0 28 -2.5t37 -5.5t35.5 -6.5t24.5 -5.5t12 -8t4 -14q0 -2 -0.5 -3t-0.5 -3v-4q-3 -24 -8.5 -61t-13 -80t-15 -88.5t-15 -86t-14 -73t-10.5 -49.5q-6 -25 -15 -53t-22 -54.5t-30.5 -50.5t-40.5 -40zM398 733q55 0 86 -26.5t31 -64.5
q0 -42 -30.5 -70.5t-82.5 -28.5q-45 0 -66.5 27t-21.5 66q0 27 15 49t33 37q14 11 36 11z" />
    <glyph glyph-name="Jcircumflex" unicode="&#x134;" horiz-adv-x="454" 
d="M141 289q9 0 13 -5t5 -12q2 -24 5 -47.5t7 -41.5t9.5 -29t11.5 -11q16 0 30 29t26.5 74.5t23 101.5t19.5 110.5t15.5 101t10.5 72.5l3 19q1 7 6.5 11t12.5 4q3 0 22 -2.5t41.5 -5.5t43.5 -6.5t28 -5.5q8 -2 11 -8.5t3 -13.5t-3 -31.5t-8 -61t-12 -80.5t-16 -90t-19 -90
t-21 -80q-30 -99 -78.5 -146t-99.5 -47q-11 0 -36 2.5t-53.5 11t-56.5 24.5t-46 43q-7 11 -13.5 29t-11.5 39t-8 42.5t-3 38.5v10q2 17 17 23q6 2 24 6.5t38 9t37.5 8.5t21.5 4zM426 750q-7 7 -12 7q-8 0 -13 -4q-15 -10 -28 -19q-11 -8 -23 -15.5t-18 -11.5q-1 -1 -3 -2
q-4 -2 -9 -2q-8 0 -13 5q-3 2 -4 5q-5 11 -12 25t-12 25q-3 7 -3 12q1 8 4 11.5t8 7.5q11 9 29 22t37.5 26.5t38.5 26.5t34 22q4 2 7.5 2.5t6.5 0.5q8 -1 15 -8q12 -12 25.5 -28.5t27 -33.5t25.5 -33t21 -27q1 -3 3 -6q4 -6 4 -11q0 -3 -4 -9q-2 -3 -3 -5q-9 -9 -21 -23
t-23 -23q-6 -5 -14 -5q-6 0 -9 3l-4 4l-24 24q-10 10 -19.5 20t-14.5 17z" />
    <glyph glyph-name="jcircumflex" unicode="&#x135;" horiz-adv-x="229" 
d="M55 -176q-11 -7 -21 -7q-8 0 -10 1q-3 1 -4 2q-24 11 -50.5 28t-41.5 31q-4 4 -4 10q0 7 3 10l4 4q17 13 35 40t28 71q4 21 10.5 57t14 81t16 94t16 95.5t14.5 86.5t13 67q3 17 21 17q10 0 28 -2.5t37 -5.5t35.5 -6.5t24.5 -5.5t12 -8t4 -14q0 -2 -0.5 -3t-0.5 -3v-4
q-3 -24 -8.5 -61t-13 -80t-15 -88.5t-15 -86t-14 -73t-10.5 -49.5q-6 -25 -15 -53t-22 -54.5t-30.5 -50.5t-40.5 -40zM182 596q-7 7 -12 7q-8 0 -13 -4q-15 -10 -28 -19q-11 -8 -23 -15.5t-18 -11.5q-1 -1 -3 -2q-4 -2 -9 -2q-8 0 -13 5q-3 2 -4 5q-5 11 -12 25t-12 25
q-3 7 -3 12q1 8 4 11.5t8 7.5q11 9 29 22t37.5 26.5t38.5 26.5t34 22q4 2 7.5 2.5t6.5 0.5q8 -1 15 -8q12 -12 25.5 -28.5t27 -33.5t25.5 -33t21 -27q1 -3 3 -6q4 -6 4 -11q0 -3 -4 -9q-2 -3 -3 -5q-9 -9 -21 -23t-23 -23q-6 -5 -14 -5q-6 0 -9 3l-4 4l-24 24
q-10 10 -19.5 20t-14.5 17z" />
    <glyph glyph-name="uni0136" unicode="&#x136;" horiz-adv-x="525" 
d="M292 -59q6 -3 9 -10t3 -15v-5q-3 -15 -9 -33t-13 -35.5t-14.5 -33.5t-13.5 -27q-4 -6 -11 -9t-15 -3h-5q-11 3 -25 8t-26 10q-6 2 -9 8.5t-3 13.5q0 2 0.5 3t0.5 3q4 15 8.5 32.5t9 35.5t8 36t5.5 34q2 17 16 17q5 0 16 -3t23.5 -7.5t24.5 -9.5t20 -10zM572 572
q5 -7 5 -12q0 -8 -7 -15q-14 -14 -36 -38.5t-48 -54t-55 -61.5t-57 -62q-5 -7 -5 -14q0 -6 3 -12q13 -26 29 -54t32.5 -53.5t32.5 -47.5t30 -35q8 -6 8 -14t-6 -12q-11 -9 -26 -21t-32.5 -24t-34.5 -22t-30 -15q-2 -1 -5.5 -2t-8.5 -1q-7 0 -11 2t-9 6q-19 18 -35 46.5
t-29.5 60t-23.5 62.5t-17 52q-2 6 -5.5 11.5t-9.5 5.5h-4q-12 0 -15 -17q-9 -53 -17.5 -107.5t-13.5 -106.5q-2 -15 -17 -15q-6 0 -23 4t-37 9t-38 10.5t-25 8.5q-11 5 -14.5 12t-3.5 15q0 30 5.5 79.5t15 108t21.5 121.5t24.5 119.5t24.5 101.5t22 69q4 13 21 13
q4 0 21 -3.5t37 -9t40.5 -11.5t32.5 -10q14 -5 14 -19q0 -1 -0.5 -1.5t-0.5 -1.5v-2q-11 -31 -25 -85.5t-31 -125.5q-1 -2 -1 -3v-3q0 -10 8 -10q5 0 10.5 4t10.5 10q25 34 51 72t50 73t44 65t34 48q6 9 17 9q5 0 10 -3q10 -7 23.5 -17.5t27.5 -23t27.5 -26.5t24.5 -27z" />
    <glyph glyph-name="uni0137" unicode="&#x137;" horiz-adv-x="475" 
d="M347 262q-8 -6 -8 -15q0 -5 3 -9q20 -34 46 -68.5t49 -58.5q7 -7 7 -15q0 -7 -5 -12q-30 -29 -64.5 -50t-56.5 -30q-2 -1 -4 -1q-2 -1 -9 -1q-13 0 -22 9q-10 10 -20.5 28t-20 39t-17.5 42t-13 39q-2 8 -5.5 14t-8.5 6q-6 0 -9 -6t-5 -14q-5 -35 -10 -70.5t-9 -69.5
q-3 -16 -19 -16q-9 0 -25.5 3.5t-35 9t-35 11t-24.5 9.5q-10 5 -13 12.5t-3 15.5q1 37 7 91t16 114.5t23 124t26 120t26 101.5t24 70q2 6 8 10.5t14 4.5q5 0 24 -5t40.5 -11.5t40.5 -12.5t24 -8q7 -2 10 -7.5t3 -11.5q0 -2 -0.5 -2.5t-0.5 -1.5v-2q-14 -43 -35.5 -122
t-42.5 -185q-1 -2 -1 -3v-4q0 -8 5 -8t17 15q18 23 36.5 47.5t35.5 47t31.5 42t23.5 31.5q6 8 16 8q6 0 11 -3q23 -14 49.5 -39.5t44.5 -48.5q1 -1 2 -3q2 -4 2 -9q0 -9 -8 -17q-9 -9 -24 -22.5t-33 -30.5t-38 -35.5t-40 -36.5zM259 -59q6 -3 9 -10t3 -15v-5q-3 -15 -9 -33
t-13 -35.5t-14.5 -33.5t-13.5 -27q-4 -6 -11 -9t-15 -3h-5q-11 3 -25 8t-26 10q-6 2 -9 8.5t-3 13.5q0 2 0.5 3t0.5 3q4 15 8.5 32.5t9 35.5t8 36t5.5 34q2 17 16 17q5 0 16 -3t23.5 -7.5t24.5 -9.5t20 -10z" />
    <glyph glyph-name="kgreenlandic" unicode="&#x138;" horiz-adv-x="473" 
d="M345 262q-8 -6 -8 -15q0 -5 3 -9q20 -35 46 -69t49 -58q7 -7 7 -15q0 -7 -5 -12q-15 -14 -31.5 -26.5t-33 -23t-31 -18.5t-25.5 -12q-6 -2 -11 -2q-6 0 -12.5 2t-11.5 7q-10 10 -20.5 28t-20 39t-17.5 42t-13 39q-2 8 -5.5 14t-9.5 6q-5 0 -8 -6t-5 -14q-6 -37 -11 -72.5
t-9 -67.5q-3 -16 -18 -16q-8 0 -24.5 3.5t-35 9t-35.5 11t-26 9.5q-10 5 -13.5 12.5t-3.5 15.5q1 21 5 55t9.5 74.5t12.5 84.5t14.5 85.5t15 76.5t14.5 59q1 6 7 10.5t14 4.5t24.5 -4t36 -9.5t38.5 -12t31 -10.5q6 -2 9 -8t3 -12q0 -1 -0.5 -2t-0.5 -3v-3q-6 -32 -12.5 -62
t-11.5 -55q-1 -1 -1 -3v-5q0 -9 5 -9q7 0 17 15q17 24 35.5 48.5t36 47t32 41.5t23.5 31q6 8 16 8q5 0 10 -3q23 -14 50 -39.5t45 -48.5q1 -1 2 -3q2 -4 2 -8q0 -10 -8 -18q-9 -9 -24 -22.5t-33 -30.5t-38 -35.5t-40 -36.5z" />
    <glyph glyph-name="Lacute" unicode="&#x139;" horiz-adv-x="418" 
d="M347 183q20 0 27 -18q2 -6 6.5 -24.5t9 -39t7.5 -38t3 -21.5q0 -8 -5 -12t-13 -5q-14 -1 -36 -3.5t-48 -5t-53.5 -5t-51.5 -4.5l-42 -3.5t-25 -1.5t-13.5 2t-12.5 8q-9 10 -19 24t-20 29t-18.5 28.5t-12.5 22.5q-8 16 -8 31q0 18 4.5 54t12 82t17.5 98t21.5 102.5
t24 96.5t24.5 80q6 14 22 14q7 0 24.5 -3.5t37 -9t39 -11.5t31.5 -10q12 -5 12 -20q0 -1 -0.5 -2t-0.5 -2v-2q-9 -26 -20.5 -69.5t-24.5 -99.5t-26 -120.5t-24 -130.5q-1 -2 -1 -3v-3q0 -14 14 -14q4 0 24.5 1.5t44.5 3t44.5 3t24.5 1.5zM152 795q18 12 36.5 24.5t36.5 25
t33.5 24.5t26.5 23q8 8 17 8q8 0 13 -7q5 -8 11.5 -19t12.5 -23t11.5 -24t8.5 -21q2 -6 2 -11q0 -14 -10 -21q-13 -10 -33 -21.5t-42 -22.5t-44 -20.5t-38 -13.5q-2 -1 -3 -1h-4q-15 0 -22 12q-7 13 -13 29t-11 28q-1 3 -1 8q0 14 12 23z" />
    <glyph glyph-name="lacute" unicode="&#x13a;" horiz-adv-x="214" 
d="M163 19q-2 -16 -18 -16q-8 0 -25 4t-36 9.5t-36 11t-23 8.5q-10 4 -13 12t-3 16q0 32 6 83.5t16 112.5t23 126t26.5 123t26.5 104.5t23 71.5q5 15 21 15q6 0 25.5 -5t41 -11.5t40 -12.5t23.5 -8q13 -5 13 -19q0 -2 -0.5 -2.5t-0.5 -1.5v-2q-12 -36 -29.5 -103t-36 -151
t-35.5 -178.5t-29 -186.5zM150 819q18 12 36.5 24.5t36.5 25t33.5 24.5t26.5 23q8 8 17 8q8 0 13 -7q5 -8 11.5 -19t12.5 -23t11.5 -24t8.5 -21q2 -6 2 -11q0 -14 -10 -21q-13 -10 -33 -21.5t-42 -22.5t-44 -20.5t-38 -13.5q-2 -1 -3 -1h-4q-15 0 -22 12q-7 13 -13 29
t-11 28q-1 3 -1 8q0 14 12 23z" />
    <glyph glyph-name="uni013B" unicode="&#x13b;" horiz-adv-x="418" 
d="M347 183q20 0 27 -18q2 -6 6.5 -24.5t9 -39t7.5 -38t3 -21.5q0 -8 -5 -12t-13 -5q-14 -1 -36 -3.5t-48 -5t-53.5 -5t-51.5 -4.5l-42 -3.5t-25 -1.5t-13.5 2t-12.5 8q-9 10 -19 24t-20 29t-18.5 28.5t-12.5 22.5q-8 16 -8 31q0 18 4.5 54t12 82t17.5 98t21.5 102.5
t24 96.5t24.5 80q6 14 22 14q7 0 24.5 -3.5t37 -9t39 -11.5t31.5 -10q12 -5 12 -20q0 -1 -0.5 -2t-0.5 -2v-2q-9 -26 -20.5 -69.5t-24.5 -99.5t-26 -120.5t-24 -130.5q-1 -2 -1 -3v-3q0 -14 14 -14q4 0 24.5 1.5t44.5 3t44.5 3t24.5 1.5zM250 -59q6 -3 9 -10t3 -15v-5
q-3 -15 -9 -33t-13 -35.5t-14.5 -33.5t-13.5 -27q-4 -6 -11 -9t-15 -3h-5q-11 3 -25 8t-26 10q-6 2 -9 8.5t-3 13.5q0 2 0.5 3t0.5 3q4 15 8.5 32.5t9 35.5t8 36t5.5 34q2 17 16 17q5 0 16 -3t23.5 -7.5t24.5 -9.5t20 -10z" />
    <glyph glyph-name="uni013C" unicode="&#x13c;" horiz-adv-x="234" 
d="M163 19q-2 -16 -18 -16q-8 0 -25 4t-36 9.5t-36 11t-23 8.5q-10 4 -13 12t-3 16q0 32 6 83.5t16 112.5t23 126t26.5 123t26.5 104.5t23 71.5q5 15 21 15q6 0 25.5 -5t41 -11.5t40 -12.5t23.5 -8q13 -5 13 -19q0 -2 -0.5 -2.5t-0.5 -1.5v-2q-12 -36 -29.5 -103t-36 -151
t-35.5 -178.5t-29 -186.5zM119 -59q6 -3 9 -10t3 -15v-5q-3 -15 -9 -33t-13 -35.5t-14.5 -33.5t-13.5 -27q-4 -6 -11 -9t-15 -3h-5q-11 3 -25 8t-26 10q-6 2 -9 8.5t-3 13.5q0 2 0.5 3t0.5 3q4 15 8.5 32.5t9 35.5t8 36t5.5 34q2 17 16 17q5 0 16 -3t23.5 -7.5t24.5 -9.5
t20 -10z" />
    <glyph glyph-name="Lcaron" unicode="&#x13d;" horiz-adv-x="418" 
d="M347 183q20 0 27 -18q2 -6 6.5 -24.5t9 -39t7.5 -38t3 -21.5q0 -8 -5 -12t-13 -5q-14 -1 -36 -3.5t-48 -5t-53.5 -5t-51.5 -4.5l-42 -3.5t-25 -1.5t-13.5 2t-12.5 8q-9 10 -19 24t-20 29t-18.5 28.5t-12.5 22.5q-8 16 -8 31q0 18 4.5 54t12 82t17.5 98t21.5 102.5
t24 96.5t24.5 80q6 14 22 14q7 0 24.5 -3.5t37 -9t39 -11.5t31.5 -10q12 -5 12 -20q0 -1 -0.5 -2t-0.5 -2v-2q-9 -26 -20.5 -69.5t-24.5 -99.5t-26 -120.5t-24 -130.5q-1 -2 -1 -3v-3q0 -14 14 -14q4 0 24.5 1.5t44.5 3t44.5 3t24.5 1.5zM235 834q5 -5 9 -5q5 0 12 5
q12 9 31.5 25t32.5 27q4 3 11 3q11 0 17 -8q6 -11 13.5 -25t12.5 -25q2 -6 2 -9q0 -12 -11 -23q-10 -10 -25.5 -24t-33 -28.5t-35.5 -28.5t-32 -23q-6 -3 -12 -3q-7 0 -11 3q-3 2 -5 4q-12 11 -25.5 26.5t-27 32t-25.5 32t-20 26.5q-5 7 -5 15t5 15q8 11 19 24.5t21 24.5
q5 5 13 5t14 -6q11 -11 27.5 -29.5t27.5 -30.5z" />
    <glyph glyph-name="lcaron" unicode="&#x13e;" horiz-adv-x="234" 
d="M163 19q-2 -16 -18 -16q-8 0 -25 4t-36 9.5t-36 11t-23 8.5q-10 4 -13 12t-3 16q0 32 6 83.5t16 112.5t23 126t26.5 123t26.5 104.5t23 71.5q5 15 21 15q6 0 25.5 -5t41 -11.5t40 -12.5t23.5 -8q13 -5 13 -19q0 -2 -0.5 -2.5t-0.5 -1.5v-2q-12 -36 -29.5 -103t-36 -151
t-35.5 -178.5t-29 -186.5zM412 579q-5 -16 -24 -16q-14 3 -26.5 6t-23.5 8q-15 7 -15 24v4q2 15 6.5 35t10 40.5t12 40t12.5 33.5q7 16 27 16q14 -3 29.5 -8.5t29.5 -11.5q6 -3 9 -9t3 -12q0 -5 -1 -7q-6 -18 -12 -33.5t-12 -32t-12.5 -35t-12.5 -42.5z" />
    <glyph glyph-name="Ldot" unicode="&#x13f;" horiz-adv-x="482" 
d="M347 183q20 0 27 -18q2 -6 6.5 -24.5t9 -39t7.5 -38t3 -21.5q0 -8 -5 -12t-13 -5q-14 -1 -36 -3.5t-48 -5t-53.5 -5t-51.5 -4.5l-42 -3.5t-25 -1.5t-13.5 2t-12.5 8q-9 10 -19 24t-20 29t-18.5 28.5t-12.5 22.5q-8 16 -8 31q0 18 4.5 54t12 82t17.5 98t21.5 102.5
t24 96.5t24.5 80q6 14 22 14q7 0 24.5 -3.5t37 -9t39 -11.5t31.5 -10q12 -5 12 -20q0 -1 -0.5 -2t-0.5 -2v-2q-9 -26 -20.5 -69.5t-24.5 -99.5t-26 -120.5t-24 -130.5q-1 -2 -1 -3v-3q0 -14 14 -14q4 0 24.5 1.5t44.5 3t44.5 3t24.5 1.5zM371 462q48 0 74 -26.5t26 -63.5
q0 -41 -24 -68.5t-68 -27.5t-63.5 26.5t-19.5 63.5q0 50 43 85q6 5 15 8t17 3z" />
    <glyph glyph-name="ldot" unicode="&#x140;" horiz-adv-x="452" 
d="M163 19q-2 -16 -18 -16q-8 0 -25 4t-36 9.5t-36 11t-23 8.5q-10 4 -13 12t-3 16q0 32 6 83.5t16 112.5t23 126t26.5 123t26.5 104.5t23 71.5q5 15 21 15q6 0 25.5 -5t41 -11.5t40 -12.5t23.5 -8q13 -5 13 -19q0 -2 -0.5 -2.5t-0.5 -1.5v-2q-12 -36 -29.5 -103t-36 -151
t-35.5 -178.5t-29 -186.5zM343 425q48 0 74 -26.5t26 -63.5q0 -41 -24 -68.5t-68 -27.5t-63.5 26.5t-19.5 63.5q0 50 43 85q6 5 15 8t17 3z" />
    <glyph glyph-name="Lslash" unicode="&#x141;" horiz-adv-x="447" 
d="M376 183q20 0 27 -18q2 -6 6.5 -24.5t9 -39t7.5 -38t3 -21.5q0 -8 -5 -12t-13 -5q-14 -1 -36 -3.5t-48 -5t-53.5 -5t-51.5 -4.5l-42 -3.5t-25 -1.5t-13.5 2t-12.5 8q-9 10 -19 24t-20 29t-18.5 28.5t-12.5 22.5q-8 16 -8 31q0 18 4 53t11 80l-26 -7q-2 0 -2.5 -0.5
t-2.5 -0.5q-7 0 -12 4.5t-7 10.5q-3 16 -5 37t-3 38q0 8 3.5 14.5t11.5 9.5q11 4 28 9.5t38 11.5q14 71 31.5 138.5t34.5 114.5q6 14 22 14q7 0 24.5 -3.5t37 -9t39 -11.5t31.5 -10q12 -5 12 -20q0 -1 -0.5 -2t-0.5 -2v-2q-8 -24 -19 -64.5t-23 -91.5q14 4 25 6.5t20 4.5h4
q8 0 13.5 -4t7.5 -12q3 -16 4 -39.5t2 -40.5q0 -8 -5 -15t-13 -9q-14 -4 -37 -9t-50 -13q-6 -32 -12.5 -65.5t-11.5 -67.5q-1 -2 -1 -3v-3q0 -14 14 -14q4 0 24.5 1.5t44.5 3t44.5 3t24.5 1.5z" />
    <glyph glyph-name="lslash" unicode="&#x142;" horiz-adv-x="319" 
d="M193 19q-2 -16 -18 -16q-8 0 -25 4t-36 9.5t-36 11t-23 8.5q-10 4 -13 12t-3 16q0 35 7 91.5t18 122.5l-23 -6q-1 -1 -2 -1h-3q-7 0 -12.5 4.5t-7.5 10.5q-2 16 -4.5 37t-4.5 38q0 8 4.5 15t11.5 10l65 20q9 45 18.5 87.5t19 79.5t18 65.5t16.5 46.5q5 15 21 15
q6 0 25.5 -5t41 -11.5t40 -12.5t23.5 -8q13 -5 13 -19q0 -2 -0.5 -2.5t-0.5 -1.5v-2q-10 -29 -23 -76.5t-27 -107.5l31 7h4q2 0 2.5 0.5t1.5 0.5q7 0 13 -4t8 -12q3 -16 4.5 -39t2.5 -40q0 -8 -6 -15.5t-14 -9.5q-13 -3 -36 -8.5t-40 -10.5q-15 -73 -28 -150.5t-23 -153.5z
" />
    <glyph glyph-name="Nacute" unicode="&#x143;" horiz-adv-x="535" 
d="M299 783q18 12 36.5 24.5t36.5 25t33.5 24.5t26.5 23q8 8 17 8q8 0 13 -7q5 -8 11.5 -19t12.5 -23t11.5 -24t8.5 -21q2 -6 2 -11q0 -14 -10 -21q-13 -10 -33 -21.5t-42 -22.5t-44 -20.5t-38 -13.5q-2 -1 -3 -1h-4q-15 0 -22 12q-7 13 -13 29t-11 28q-1 3 -1 8q0 14 12 23
zM427 660q2 7 8 10t14 3q7 0 25 -3.5t38 -8.5t38.5 -10.5t26.5 -9.5q13 -7 13 -20q0 -1 -0.5 -2t-0.5 -2v-2q-11 -35 -28 -99.5t-34.5 -146t-33.5 -172.5t-25 -179q-1 -8 -6.5 -12t-12.5 -4q-9 0 -31 3t-47 7.5t-48.5 10t-36.5 11.5q-9 4 -14.5 11t-7.5 15q-6 18 -11.5 60.5
t-10 91.5t-8.5 94.5t-6 69.5q0 7 -4 7q-3 0 -4 -7q-14 -79 -28 -172.5t-24 -184.5q-1 -8 -6.5 -12.5t-12.5 -4.5t-23 3.5t-34.5 8.5t-35.5 10.5t-26 9.5t-13 12t-4 16q1 35 7.5 86.5t16.5 110t22 119.5t24.5 115.5t24 98t21.5 67.5q6 15 23 15q7 0 28 -3t47 -7.5t51 -10
t39 -11.5q10 -5 15 -12t6 -15q2 -23 4 -61.5t4 -80t3.5 -79.5t2.5 -59q0 -8 4 -8q2 0 4 8q7 49 15.5 99t17.5 93.5t17.5 78t16.5 54.5z" />
    <glyph glyph-name="nacute" unicode="&#x144;" horiz-adv-x="482" 
d="M243 431q25 37 53 60t55 23q18 0 40 -12t41.5 -30.5t33 -40t13.5 -40.5q0 -12 -3 -37t-8.5 -57.5t-12.5 -70t-14.5 -75t-15 -72t-14.5 -61.5q-2 -7 -8.5 -12t-14.5 -5q-9 0 -27 5t-37.5 11.5t-36.5 14t-24 12.5q-13 9 -13 22v5q0 1 1 3q5 21 12.5 56t15 72.5t13 72.5
t5.5 57q0 24 -8 24q-7 0 -26 -11t-34 -27q-8 -8 -11 -16t-5 -16q-7 -35 -14.5 -73t-14.5 -74t-13.5 -68t-10.5 -53q-5 -16 -20 -16q-9 0 -27 4.5t-37.5 10.5t-36 12t-23.5 10q-8 4 -10.5 10.5t-2.5 14.5v5q0 2 1 3q4 20 10 54t12.5 74.5t13 84.5t13 85t11.5 75t8 56
q2 8 8 12.5t14 4.5q7 0 23.5 -2.5t35 -6t35 -7t24.5 -6.5q17 -6 18 -28l2 -33q0 -9 4 -9q3 0 5 2q1 1 2 3zM218 636q18 12 36.5 24.5t36.5 25t33.5 24.5t26.5 23q8 8 17 8q8 0 13 -7q5 -8 11.5 -19t12.5 -23t11.5 -24t8.5 -21q2 -6 2 -11q0 -14 -10 -21q-13 -10 -33 -21.5
t-42 -22.5t-44 -20.5t-38 -13.5q-2 -1 -3 -1h-4q-15 0 -22 12q-7 13 -13 29t-11 28q-1 3 -1 8q0 14 12 23z" />
    <glyph glyph-name="uni0145" unicode="&#x145;" horiz-adv-x="535" 
d="M293 -59q6 -3 9 -10t3 -15v-5q-3 -15 -9 -33t-13 -35.5t-14.5 -33.5t-13.5 -27q-4 -6 -11 -9t-15 -3h-5q-11 3 -25 8t-26 10q-6 2 -9 8.5t-3 13.5q0 2 0.5 3t0.5 3q4 15 8.5 32.5t9 35.5t8 36t5.5 34q2 17 16 17q5 0 16 -3t23.5 -7.5t24.5 -9.5t20 -10zM427 660q2 7 8 10
t14 3q7 0 25 -3.5t38 -8.5t38.5 -10.5t26.5 -9.5q13 -7 13 -20q0 -1 -0.5 -2t-0.5 -2v-2q-11 -35 -28 -99.5t-34.5 -146t-33.5 -172.5t-25 -179q-1 -8 -6.5 -12t-12.5 -4q-9 0 -31 3t-47 7.5t-48.5 10t-36.5 11.5q-9 4 -14.5 11t-7.5 15q-6 18 -11.5 60.5t-10 91.5
t-8.5 94.5t-6 69.5q0 7 -4 7q-3 0 -4 -7q-14 -79 -28 -172.5t-24 -184.5q-1 -8 -6.5 -12.5t-12.5 -4.5t-23 3.5t-34.5 8.5t-35.5 10.5t-26 9.5t-13 12t-4 16q1 35 7.5 86.5t16.5 110t22 119.5t24.5 115.5t24 98t21.5 67.5q6 15 23 15q7 0 28 -3t47 -7.5t51 -10t39 -11.5
q10 -5 15 -12t6 -15q2 -23 4 -61.5t4 -80t3.5 -79.5t2.5 -59q0 -8 4 -8q2 0 4 8q7 49 15.5 99t17.5 93.5t17.5 78t16.5 54.5z" />
    <glyph glyph-name="uni0146" unicode="&#x146;" horiz-adv-x="482" 
d="M243 431q25 37 53 60t55 23q18 0 40 -12t41.5 -30.5t33 -40t13.5 -40.5q0 -12 -3 -37t-8.5 -57.5t-12.5 -70t-14.5 -75t-15 -72t-14.5 -61.5q-2 -7 -8.5 -12t-14.5 -5q-9 0 -27 5t-37.5 11.5t-36.5 14t-24 12.5q-13 9 -13 22v5q0 1 1 3q5 21 12.5 56t15 72.5t13 72.5
t5.5 57q0 24 -8 24q-7 0 -26 -11t-34 -27q-8 -8 -11 -16t-5 -16q-7 -35 -14.5 -73t-14.5 -74t-13.5 -68t-10.5 -53q-5 -16 -20 -16q-9 0 -27 4.5t-37.5 10.5t-36 12t-23.5 10q-8 4 -10.5 10.5t-2.5 14.5v5q0 2 1 3q4 20 10 54t12.5 74.5t13 84.5t13 85t11.5 75t8 56
q2 8 8 12.5t14 4.5q7 0 23.5 -2.5t35 -6t35 -7t24.5 -6.5q17 -6 18 -28l2 -33q0 -9 4 -9q3 0 5 2q1 1 2 3zM254 -59q6 -3 9 -10t3 -15v-5q-3 -15 -9 -33t-13 -35.5t-14.5 -33.5t-13.5 -27q-4 -6 -11 -9t-15 -3h-5q-11 3 -25 8t-26 10q-6 2 -9 8.5t-3 13.5q0 2 0.5 3t0.5 3
q4 15 8.5 32.5t9 35.5t8 36t5.5 34q2 17 16 17q5 0 16 -3t23.5 -7.5t24.5 -9.5t20 -10z" />
    <glyph glyph-name="Ncaron" unicode="&#x147;" horiz-adv-x="535" 
d="M370 806q5 -5 9 -5q5 0 12 5q12 9 31.5 25t32.5 27q4 3 11 3q11 0 17 -8q6 -11 13.5 -25t12.5 -25q2 -6 2 -9q0 -12 -11 -23q-10 -10 -25.5 -24t-33 -28.5t-35.5 -28.5t-32 -23q-6 -3 -12 -3q-7 0 -11 3q-3 2 -5 4q-12 11 -25.5 26.5t-27 32t-25.5 32t-20 26.5
q-5 7 -5 15t5 15q8 11 19 24.5t21 24.5q5 5 13 5t14 -6q11 -11 27.5 -29.5t27.5 -30.5zM427 660q2 7 8 10t14 3q7 0 25 -3.5t38 -8.5t38.5 -10.5t26.5 -9.5q13 -7 13 -20q0 -1 -0.5 -2t-0.5 -2v-2q-11 -35 -28 -99.5t-34.5 -146t-33.5 -172.5t-25 -179q-1 -8 -6.5 -12
t-12.5 -4q-9 0 -31 3t-47 7.5t-48.5 10t-36.5 11.5q-9 4 -14.5 11t-7.5 15q-6 18 -11.5 60.5t-10 91.5t-8.5 94.5t-6 69.5q0 7 -4 7q-3 0 -4 -7q-14 -79 -28 -172.5t-24 -184.5q-1 -8 -6.5 -12.5t-12.5 -4.5t-23 3.5t-34.5 8.5t-35.5 10.5t-26 9.5t-13 12t-4 16
q1 35 7.5 86.5t16.5 110t22 119.5t24.5 115.5t24 98t21.5 67.5q6 15 23 15q7 0 28 -3t47 -7.5t51 -10t39 -11.5q10 -5 15 -12t6 -15q2 -23 4 -61.5t4 -80t3.5 -79.5t2.5 -59q0 -8 4 -8q2 0 4 8q7 49 15.5 99t17.5 93.5t17.5 78t16.5 54.5z" />
    <glyph glyph-name="ncaron" unicode="&#x148;" horiz-adv-x="482" 
d="M243 431q25 37 53 60t55 23q18 0 40 -12t41.5 -30.5t33 -40t13.5 -40.5q0 -12 -3 -37t-8.5 -57.5t-12.5 -70t-14.5 -75t-15 -72t-14.5 -61.5q-2 -7 -8.5 -12t-14.5 -5q-9 0 -27 5t-37.5 11.5t-36.5 14t-24 12.5q-13 9 -13 22v5q0 1 1 3q5 21 12.5 56t15 72.5t13 72.5
t5.5 57q0 24 -8 24q-7 0 -26 -11t-34 -27q-8 -8 -11 -16t-5 -16q-7 -35 -14.5 -73t-14.5 -74t-13.5 -68t-10.5 -53q-5 -16 -20 -16q-9 0 -27 4.5t-37.5 10.5t-36 12t-23.5 10q-8 4 -10.5 10.5t-2.5 14.5v5q0 2 1 3q4 20 10 54t12.5 74.5t13 84.5t13 85t11.5 75t8 56
q2 8 8 12.5t14 4.5q7 0 23.5 -2.5t35 -6t35 -7t24.5 -6.5q17 -6 18 -28l2 -33q0 -9 4 -9q3 0 5 2q1 1 2 3zM302 672q5 -5 9 -5q5 0 12 5q12 9 31.5 25t32.5 27q4 3 11 3q11 0 17 -8q6 -11 13.5 -25t12.5 -25q2 -6 2 -9q0 -12 -11 -23q-10 -10 -25.5 -24t-33 -28.5
t-35.5 -28.5t-32 -23q-6 -3 -12 -3q-7 0 -11 3q-3 2 -5 4q-12 11 -25.5 26.5t-27 32t-25.5 32t-20 26.5q-5 7 -5 15t5 15q8 11 19 24.5t21 24.5q5 5 13 5t14 -6q11 -11 27.5 -29.5t27.5 -30.5z" />
    </font>
</defs>
</svg>
